  0
SECTION
  2
HEADER
  9
$ACADVER
  1
AC1009
  9
$EXTMIN
 10
0.0
 20
0.0
 30
0.0
  9
$EXTMAX
 10
1000.0
 20
1000.0
 30
0.0
  9
$FILLMODE
 70
 0
  9
$SPLFRAME
 70
 1
  0
ENDSEC
  0
SECTION
  2
TABLES
  0
TABLE
  2
LAYER
 70
1
  0
LAYER
  2
0
 70
     0
 62
     7
  6
CONTINUOUS
  0
ENDTAB
  0
ENDSEC
  0
SECTION
  2
ENTITIES
  0
LINE
  8
0
 62
     0
 10
117.755
 20
88.2509
 30
0.0
 11
117.755
 21
82.2399
 31
0.0
  0
LINE
  8
0
 62
     0
 10
117.755
 20
82.2399
 30
0.0
 11
6.073
 21
82.2399
 31
0.0
  0
LINE
  8
0
 62
     0
 10
6.073
 20
82.2399
 30
0.0
 11
6.073
 21
6.0482
 31
0.0
  0
LINE
  8
0
 62
     0
 10
6.073
 20
6.0482
 30
0.0
 11
239.426
 21
6.0482
 31
0.0
  0
LINE
  8
0
 62
     0
 10
239.426
 20
6.0482
 30
0.0
 11
239.426
 21
82.2399
 31
0.0
  0
LINE
  8
0
 62
     0
 10
239.426
 20
82.2399
 30
0.0
 11
127.744
 21
82.2399
 31
0.0
  0
LINE
  8
0
 62
     0
 10
127.744
 20
82.2399
 30
0.0
 11
127.744
 21
88.2495
 31
0.0
  0
LINE
  8
0
 62
     0
 10
127.744
 20
88.2495
 30
0.0
 11
242.937
 21
88.2495
 31
0.0
  0
LINE
  8
0
 62
     0
 10
242.937
 20
88.2495
 30
0.0
 11
243.133
 21
88.2428
 31
0.0
  0
LINE
  8
0
 62
     0
 10
243.133
 20
88.2428
 30
0.0
 11
243.327
 21
88.2191
 31
0.0
  0
LINE
  8
0
 62
     0
 10
243.327
 20
88.2191
 30
0.0
 11
243.52
 21
88.1807
 31
0.0
  0
LINE
  8
0
 62
     0
 10
243.52
 20
88.1807
 30
0.0
 11
243.709
 21
88.1271
 31
0.0
  0
LINE
  8
0
 62
     0
 10
243.709
 20
88.1271
 30
0.0
 11
243.894
 21
88.0593
 31
0.0
  0
LINE
  8
0
 62
     0
 10
243.894
 20
88.0593
 30
0.0
 11
244.071
 21
87.9782
 31
0.0
  0
LINE
  8
0
 62
     0
 10
244.071
 20
87.9782
 30
0.0
 11
244.242
 21
87.8815
 31
0.0
  0
LINE
  8
0
 62
     0
 10
244.242
 20
87.8815
 30
0.0
 11
244.406
 21
87.7729
 31
0.0
  0
LINE
  8
0
 62
     0
 10
244.406
 20
87.7729
 30
0.0
 11
244.56
 21
87.6515
 31
0.0
  0
LINE
  8
0
 62
     0
 10
244.56
 20
87.6515
 30
0.0
 11
244.705
 21
87.5178
 31
0.0
  0
LINE
  8
0
 62
     0
 10
244.705
 20
87.5178
 30
0.0
 11
244.837
 21
87.3732
 31
0.0
  0
LINE
  8
0
 62
     0
 10
244.837
 20
87.3732
 30
0.0
 11
244.96
 21
87.2187
 31
0.0
  0
LINE
  8
0
 62
     0
 10
244.96
 20
87.2187
 30
0.0
 11
245.069
 21
87.056
 31
0.0
  0
LINE
  8
0
 62
     0
 10
245.069
 20
87.056
 30
0.0
 11
245.164
 21
86.8839
 31
0.0
  0
LINE
  8
0
 62
     0
 10
245.164
 20
86.8839
 30
0.0
 11
245.247
 21
86.7061
 31
0.0
  0
LINE
  8
0
 62
     0
 10
245.247
 20
86.7061
 30
0.0
 11
245.314
 21
86.523
 31
0.0
  0
LINE
  8
0
 62
     0
 10
245.314
 20
86.523
 30
0.0
 11
245.368
 21
86.3342
 31
0.0
  0
LINE
  8
0
 62
     0
 10
245.368
 20
86.3342
 30
0.0
 11
245.405
 21
86.1413
 31
0.0
  0
LINE
  8
0
 62
     0
 10
245.405
 20
86.1413
 30
0.0
 11
245.429
 21
85.9469
 31
0.0
  0
LINE
  8
0
 62
     0
 10
245.429
 20
85.9469
 30
0.0
 11
245.437
 21
85.7497
 31
0.0
  0
LINE
  8
0
 62
     0
 10
245.437
 20
85.7497
 30
0.0
 11
245.437
 21
2.53972
 31
0.0
  0
LINE
  8
0
 62
     0
 10
245.437
 20
2.53972
 30
0.0
 11
245.429
 21
2.34267
 31
0.0
  0
LINE
  8
0
 62
     0
 10
245.429
 20
2.34267
 30
0.0
 11
245.405
 21
2.14698
 31
0.0
  0
LINE
  8
0
 62
     0
 10
245.405
 20
2.14698
 30
0.0
 11
245.368
 21
1.95544
 31
0.0
  0
LINE
  8
0
 62
     0
 10
245.368
 20
1.95544
 30
0.0
 11
245.314
 21
1.76664
 31
0.0
  0
LINE
  8
0
 62
     0
 10
245.314
 20
1.76664
 30
0.0
 11
245.247
 21
1.58199
 31
0.0
  0
LINE
  8
0
 62
     0
 10
245.247
 20
1.58199
 30
0.0
 11
245.164
 21
1.40422
 31
0.0
  0
LINE
  8
0
 62
     0
 10
245.164
 20
1.40422
 30
0.0
 11
245.069
 21
1.23197
 31
0.0
  0
LINE
  8
0
 62
     0
 10
245.069
 20
1.23197
 30
0.0
 11
244.96
 21
1.06936
 31
0.0
  0
LINE
  8
0
 62
     0
 10
244.96
 20
1.06936
 30
0.0
 11
244.837
 21
0.915017
 31
0.0
  0
LINE
  8
0
 62
     0
 10
244.837
 20
0.915017
 30
0.0
 11
244.705
 21
0.771701
 31
0.0
  0
LINE
  8
0
 62
     0
 10
244.705
 20
0.771701
 30
0.0
 11
244.56
 21
0.63803
 31
0.0
  0
LINE
  8
0
 62
     0
 10
244.56
 20
0.63803
 30
0.0
 11
244.406
 21
0.516763
 31
0.0
  0
LINE
  8
0
 62
     0
 10
244.406
 20
0.516763
 30
0.0
 11
244.242
 21
0.407899
 31
0.0
  0
LINE
  8
0
 62
     0
 10
244.242
 20
0.407899
 30
0.0
 11
244.071
 21
0.311437
 31
0.0
  0
LINE
  8
0
 62
     0
 10
244.071
 20
0.311437
 30
0.0
 11
243.894
 21
0.230132
 31
0.0
  0
LINE
  8
0
 62
     0
 10
243.894
 20
0.230132
 30
0.0
 11
243.709
 21
0.16123
 31
0.0
  0
LINE
  8
0
 62
     0
 10
243.709
 20
0.16123
 30
0.0
 11
243.52
 21
0.108865
 31
0.0
  0
LINE
  8
0
 62
     0
 10
243.52
 20
0.108865
 30
0.0
 11
243.327
 21
0.0689021
 31
0.0
  0
LINE
  8
0
 62
     0
 10
243.327
 20
0.0689021
 30
0.0
 11
243.133
 21
0.0468535
 31
0.0
  0
LINE
  8
0
 62
     0
 10
243.133
 20
0.0468535
 30
0.0
 11
242.937
 21
0.0385851
 31
0.0
  0
LINE
  8
0
 62
     0
 10
242.937
 20
0.0385851
 30
0.0
 11
2.56315
 21
0.039963
 31
0.0
  0
LINE
  8
0
 62
     0
 10
2.56315
 20
0.039963
 30
0.0
 11
2.36609
 21
0.0468535
 31
0.0
  0
LINE
  8
0
 62
     0
 10
2.36609
 20
0.0468535
 30
0.0
 11
2.17179
 21
0.0689021
 31
0.0
  0
LINE
  8
0
 62
     0
 10
2.17179
 20
0.0689021
 30
0.0
 11
1.97886
 21
0.108865
 31
0.0
  0
LINE
  8
0
 62
     0
 10
1.97886
 20
0.108865
 30
0.0
 11
1.79007
 21
0.16123
 31
0.0
  0
LINE
  8
0
 62
     0
 10
1.79007
 20
0.16123
 30
0.0
 11
1.60679
 21
0.230132
 31
0.0
  0
LINE
  8
0
 62
     0
 10
1.60679
 20
0.230132
 30
0.0
 11
1.42903
 21
0.311437
 31
0.0
  0
LINE
  8
0
 62
     0
 10
1.42903
 20
0.311437
 30
0.0
 11
1.25677
 21
0.407899
 31
0.0
  0
LINE
  8
0
 62
     0
 10
1.25677
 20
0.407899
 30
0.0
 11
1.09416
 21
0.516763
 31
0.0
  0
LINE
  8
0
 62
     0
 10
1.09416
 20
0.516763
 30
0.0
 11
0.939821
 21
0.63803
 31
0.0
  0
LINE
  8
0
 62
     0
 10
0.939821
 20
0.63803
 30
0.0
 11
0.795129
 21
0.771701
 31
0.0
  0
LINE
  8
0
 62
     0
 10
0.795129
 20
0.771701
 30
0.0
 11
0.661458
 21
0.915017
 31
0.0
  0
LINE
  8
0
 62
     0
 10
0.661458
 20
0.915017
 30
0.0
 11
0.540191
 21
1.06936
 31
0.0
  0
LINE
  8
0
 62
     0
 10
0.540191
 20
1.06936
 30
0.0
 11
0.431327
 21
1.23197
 31
0.0
  0
LINE
  8
0
 62
     0
 10
0.431327
 20
1.23197
 30
0.0
 11
0.334863
 21
1.40422
 31
0.0
  0
LINE
  8
0
 62
     0
 10
0.334863
 20
1.40422
 30
0.0
 11
0.253559
 21
1.58199
 31
0.0
  0
LINE
  8
0
 62
     0
 10
0.253559
 20
1.58199
 30
0.0
 11
0.186035
 21
1.76664
 31
0.0
  0
LINE
  8
0
 62
     0
 10
0.186035
 20
1.76664
 30
0.0
 11
0.132292
 21
1.95544
 31
0.0
  0
LINE
  8
0
 62
     0
 10
0.132292
 20
1.95544
 30
0.0
 11
0.0937066
 21
2.14698
 31
0.0
  0
LINE
  8
0
 62
     0
 10
0.0937066
 20
2.14698
 30
0.0
 11
0.07028
 21
2.34267
 31
0.0
  0
LINE
  8
0
 62
     0
 10
0.07028
 20
2.34267
 30
0.0
 11
0.0620116
 21
2.53972
 31
0.0
  0
LINE
  8
0
 62
     0
 10
0.0620116
 20
2.53972
 30
0.0
 11
0.0633899
 21
85.7497
 31
0.0
  0
LINE
  8
0
 62
     0
 10
0.0633899
 20
85.7497
 30
0.0
 11
0.07028
 21
85.9469
 31
0.0
  0
LINE
  8
0
 62
     0
 10
0.07028
 20
85.9469
 30
0.0
 11
0.0937066
 21
86.1413
 31
0.0
  0
LINE
  8
0
 62
     0
 10
0.0937066
 20
86.1413
 30
0.0
 11
0.132292
 21
86.3342
 31
0.0
  0
LINE
  8
0
 62
     0
 10
0.132292
 20
86.3342
 30
0.0
 11
0.186035
 21
86.523
 31
0.0
  0
LINE
  8
0
 62
     0
 10
0.186035
 20
86.523
 30
0.0
 11
0.253559
 21
86.7061
 31
0.0
  0
LINE
  8
0
 62
     0
 10
0.253559
 20
86.7061
 30
0.0
 11
0.334863
 21
86.8839
 31
0.0
  0
LINE
  8
0
 62
     0
 10
0.334863
 20
86.8839
 30
0.0
 11
0.431327
 21
87.056
 31
0.0
  0
LINE
  8
0
 62
     0
 10
0.431327
 20
87.056
 30
0.0
 11
0.540191
 21
87.2187
 31
0.0
  0
LINE
  8
0
 62
     0
 10
0.540191
 20
87.2187
 30
0.0
 11
0.661458
 21
87.3732
 31
0.0
  0
LINE
  8
0
 62
     0
 10
0.661458
 20
87.3732
 30
0.0
 11
0.795129
 21
87.5178
 31
0.0
  0
LINE
  8
0
 62
     0
 10
0.795129
 20
87.5178
 30
0.0
 11
0.939821
 21
87.6515
 31
0.0
  0
LINE
  8
0
 62
     0
 10
0.939821
 20
87.6515
 30
0.0
 11
1.09416
 21
87.7729
 31
0.0
  0
LINE
  8
0
 62
     0
 10
1.09416
 20
87.7729
 30
0.0
 11
1.25677
 21
87.8815
 31
0.0
  0
LINE
  8
0
 62
     0
 10
1.25677
 20
87.8815
 30
0.0
 11
1.42903
 21
87.9782
 31
0.0
  0
LINE
  8
0
 62
     0
 10
1.42903
 20
87.9782
 30
0.0
 11
1.60679
 21
88.0593
 31
0.0
  0
LINE
  8
0
 62
     0
 10
1.60679
 20
88.0593
 30
0.0
 11
1.79007
 21
88.1271
 31
0.0
  0
LINE
  8
0
 62
     0
 10
1.79007
 20
88.1271
 30
0.0
 11
1.97886
 21
88.1807
 31
0.0
  0
LINE
  8
0
 62
     0
 10
1.97886
 20
88.1807
 30
0.0
 11
2.17179
 21
88.2191
 31
0.0
  0
LINE
  8
0
 62
     0
 10
2.17179
 20
88.2191
 30
0.0
 11
2.36609
 21
88.2428
 31
0.0
  0
LINE
  8
0
 62
     0
 10
2.36609
 20
88.2428
 30
0.0
 11
2.56315
 21
88.2509
 31
0.0
  0
LINE
  8
0
 62
     0
 10
2.56315
 20
88.2509
 30
0.0
 11
117.755
 21
88.2509
 31
0.0
  0
LINE
  8
0
 62
     0
 10
241.938
 20
4.55994
 30
0.0
 11
241.493
 21
4.33395
 31
0.0
  0
LINE
  8
0
 62
     0
 10
241.493
 20
4.33395
 30
0.0
 11
241.142
 21
3.98117
 31
0.0
  0
LINE
  8
0
 62
     0
 10
241.142
 20
3.98117
 30
0.0
 11
240.914
 21
3.53603
 31
0.0
  0
LINE
  8
0
 62
     0
 10
240.914
 20
3.53603
 30
0.0
 11
240.837
 21
3.04409
 31
0.0
  0
LINE
  8
0
 62
     0
 10
240.837
 20
3.04409
 30
0.0
 11
240.914
 21
2.55213
 31
0.0
  0
LINE
  8
0
 62
     0
 10
240.914
 20
2.55213
 30
0.0
 11
241.142
 21
2.10702
 31
0.0
  0
LINE
  8
0
 62
     0
 10
241.142
 20
2.10702
 30
0.0
 11
241.493
 21
1.75286
 31
0.0
  0
LINE
  8
0
 62
     0
 10
241.493
 20
1.75286
 30
0.0
 11
241.938
 21
1.52687
 31
0.0
  0
LINE
  8
0
 62
     0
 10
241.938
 20
1.52687
 30
0.0
 11
242.431
 21
1.44832
 31
0.0
  0
LINE
  8
0
 62
     0
 10
242.431
 20
1.44832
 30
0.0
 11
242.925
 21
1.52687
 31
0.0
  0
LINE
  8
0
 62
     0
 10
242.925
 20
1.52687
 30
0.0
 11
243.37
 21
1.75286
 31
0.0
  0
LINE
  8
0
 62
     0
 10
243.37
 20
1.75286
 30
0.0
 11
243.721
 21
2.10702
 31
0.0
  0
LINE
  8
0
 62
     0
 10
243.721
 20
2.10702
 30
0.0
 11
243.949
 21
2.55213
 31
0.0
  0
LINE
  8
0
 62
     0
 10
243.949
 20
2.55213
 30
0.0
 11
244.027
 21
3.04409
 31
0.0
  0
LINE
  8
0
 62
     0
 10
244.027
 20
3.04409
 30
0.0
 11
243.949
 21
3.53603
 31
0.0
  0
LINE
  8
0
 62
     0
 10
243.949
 20
3.53603
 30
0.0
 11
243.721
 21
3.98117
 31
0.0
  0
LINE
  8
0
 62
     0
 10
243.721
 20
3.98117
 30
0.0
 11
243.37
 21
4.33395
 31
0.0
  0
LINE
  8
0
 62
     0
 10
243.37
 20
4.33395
 30
0.0
 11
242.925
 21
4.55994
 31
0.0
  0
LINE
  8
0
 62
     0
 10
242.925
 20
4.55994
 30
0.0
 11
242.431
 21
4.63984
 31
0.0
  0
LINE
  8
0
 62
     0
 10
242.431
 20
4.63984
 30
0.0
 11
241.938
 21
4.55994
 31
0.0
  0
LINE
  8
0
 62
     0
 10
162.151
 20
4.55994
 30
0.0
 11
161.706
 21
4.33395
 31
0.0
  0
LINE
  8
0
 62
     0
 10
161.706
 20
4.33395
 30
0.0
 11
161.353
 21
3.98117
 31
0.0
  0
LINE
  8
0
 62
     0
 10
161.353
 20
3.98117
 30
0.0
 11
161.127
 21
3.53603
 31
0.0
  0
LINE
  8
0
 62
     0
 10
161.127
 20
3.53603
 30
0.0
 11
161.049
 21
3.04409
 31
0.0
  0
LINE
  8
0
 62
     0
 10
161.049
 20
3.04409
 30
0.0
 11
161.127
 21
2.55213
 31
0.0
  0
LINE
  8
0
 62
     0
 10
161.127
 20
2.55213
 30
0.0
 11
161.353
 21
2.10702
 31
0.0
  0
LINE
  8
0
 62
     0
 10
161.353
 20
2.10702
 30
0.0
 11
161.706
 21
1.75286
 31
0.0
  0
LINE
  8
0
 62
     0
 10
161.706
 20
1.75286
 30
0.0
 11
162.151
 21
1.52687
 31
0.0
  0
LINE
  8
0
 62
     0
 10
162.151
 20
1.52687
 30
0.0
 11
162.643
 21
1.44832
 31
0.0
  0
LINE
  8
0
 62
     0
 10
162.643
 20
1.44832
 30
0.0
 11
163.136
 21
1.52687
 31
0.0
  0
LINE
  8
0
 62
     0
 10
163.136
 20
1.52687
 30
0.0
 11
163.581
 21
1.75286
 31
0.0
  0
LINE
  8
0
 62
     0
 10
163.581
 20
1.75286
 30
0.0
 11
163.934
 21
2.10702
 31
0.0
  0
LINE
  8
0
 62
     0
 10
163.934
 20
2.10702
 30
0.0
 11
164.16
 21
2.55213
 31
0.0
  0
LINE
  8
0
 62
     0
 10
164.16
 20
2.55213
 30
0.0
 11
164.239
 21
3.04409
 31
0.0
  0
LINE
  8
0
 62
     0
 10
164.239
 20
3.04409
 30
0.0
 11
164.16
 21
3.53603
 31
0.0
  0
LINE
  8
0
 62
     0
 10
164.16
 20
3.53603
 30
0.0
 11
163.934
 21
3.98117
 31
0.0
  0
LINE
  8
0
 62
     0
 10
163.934
 20
3.98117
 30
0.0
 11
163.581
 21
4.33395
 31
0.0
  0
LINE
  8
0
 62
     0
 10
163.581
 20
4.33395
 30
0.0
 11
163.136
 21
4.55994
 31
0.0
  0
LINE
  8
0
 62
     0
 10
163.136
 20
4.55994
 30
0.0
 11
162.643
 21
4.63984
 31
0.0
  0
LINE
  8
0
 62
     0
 10
162.643
 20
4.63984
 30
0.0
 11
162.151
 21
4.55994
 31
0.0
  0
LINE
  8
0
 62
     0
 10
82.3627
 20
4.55994
 30
0.0
 11
81.9189
 21
4.33395
 31
0.0
  0
LINE
  8
0
 62
     0
 10
81.9189
 20
4.33395
 30
0.0
 11
81.5661
 21
3.98117
 31
0.0
  0
LINE
  8
0
 62
     0
 10
81.5661
 20
3.98117
 30
0.0
 11
81.3386
 21
3.53603
 31
0.0
  0
LINE
  8
0
 62
     0
 10
81.3386
 20
3.53603
 30
0.0
 11
81.2602
 21
3.04409
 31
0.0
  0
LINE
  8
0
 62
     0
 10
81.2602
 20
3.04409
 30
0.0
 11
81.3386
 21
2.55213
 31
0.0
  0
LINE
  8
0
 62
     0
 10
81.3386
 20
2.55213
 30
0.0
 11
81.5661
 21
2.10702
 31
0.0
  0
LINE
  8
0
 62
     0
 10
81.5661
 20
2.10702
 30
0.0
 11
81.9189
 21
1.75286
 31
0.0
  0
LINE
  8
0
 62
     0
 10
81.9189
 20
1.75286
 30
0.0
 11
82.3627
 21
1.52687
 31
0.0
  0
LINE
  8
0
 62
     0
 10
82.3627
 20
1.52687
 30
0.0
 11
82.8559
 21
1.44832
 31
0.0
  0
LINE
  8
0
 62
     0
 10
82.8559
 20
1.44832
 30
0.0
 11
83.348
 21
1.52687
 31
0.0
  0
LINE
  8
0
 62
     0
 10
83.348
 20
1.52687
 30
0.0
 11
83.7928
 21
1.75286
 31
0.0
  0
LINE
  8
0
 62
     0
 10
83.7928
 20
1.75286
 30
0.0
 11
84.147
 21
2.10702
 31
0.0
  0
LINE
  8
0
 62
     0
 10
84.147
 20
2.10702
 30
0.0
 11
84.3732
 21
2.55213
 31
0.0
  0
LINE
  8
0
 62
     0
 10
84.3732
 20
2.55213
 30
0.0
 11
84.4504
 21
3.04409
 31
0.0
  0
LINE
  8
0
 62
     0
 10
84.4504
 20
3.04409
 30
0.0
 11
84.3732
 21
3.53603
 31
0.0
  0
LINE
  8
0
 62
     0
 10
84.3732
 20
3.53603
 30
0.0
 11
84.147
 21
3.98117
 31
0.0
  0
LINE
  8
0
 62
     0
 10
84.147
 20
3.98117
 30
0.0
 11
83.7928
 21
4.33395
 31
0.0
  0
LINE
  8
0
 62
     0
 10
83.7928
 20
4.33395
 30
0.0
 11
83.348
 21
4.55994
 31
0.0
  0
LINE
  8
0
 62
     0
 10
83.348
 20
4.55994
 30
0.0
 11
82.8559
 21
4.63984
 31
0.0
  0
LINE
  8
0
 62
     0
 10
82.8559
 20
4.63984
 30
0.0
 11
82.3627
 21
4.55994
 31
0.0
  0
LINE
  8
0
 62
     0
 10
2.57555
 20
4.55994
 30
0.0
 11
2.13045
 21
4.33395
 31
0.0
  0
LINE
  8
0
 62
     0
 10
2.13045
 20
4.33395
 30
0.0
 11
1.77767
 21
3.98117
 31
0.0
  0
LINE
  8
0
 62
     0
 10
1.77767
 20
3.98117
 30
0.0
 11
1.55167
 21
3.53603
 31
0.0
  0
LINE
  8
0
 62
     0
 10
1.55167
 20
3.53603
 30
0.0
 11
1.47312
 21
3.04409
 31
0.0
  0
LINE
  8
0
 62
     0
 10
1.47312
 20
3.04409
 30
0.0
 11
1.55167
 21
2.55213
 31
0.0
  0
LINE
  8
0
 62
     0
 10
1.55167
 20
2.55213
 30
0.0
 11
1.77767
 21
2.10702
 31
0.0
  0
LINE
  8
0
 62
     0
 10
1.77767
 20
2.10702
 30
0.0
 11
2.13045
 21
1.75286
 31
0.0
  0
LINE
  8
0
 62
     0
 10
2.13045
 20
1.75286
 30
0.0
 11
2.57555
 21
1.52687
 31
0.0
  0
LINE
  8
0
 62
     0
 10
2.57555
 20
1.52687
 30
0.0
 11
3.06751
 21
1.44832
 31
0.0
  0
LINE
  8
0
 62
     0
 10
3.06751
 20
1.44832
 30
0.0
 11
3.56087
 21
1.52687
 31
0.0
  0
LINE
  8
0
 62
     0
 10
3.56087
 20
1.52687
 30
0.0
 11
4.00597
 21
1.75286
 31
0.0
  0
LINE
  8
0
 62
     0
 10
4.00597
 20
1.75286
 30
0.0
 11
4.35875
 21
2.10702
 31
0.0
  0
LINE
  8
0
 62
     0
 10
4.35875
 20
2.10702
 30
0.0
 11
4.58474
 21
2.55213
 31
0.0
  0
LINE
  8
0
 62
     0
 10
4.58474
 20
2.55213
 30
0.0
 11
4.66189
 21
3.04409
 31
0.0
  0
LINE
  8
0
 62
     0
 10
4.66189
 20
3.04409
 30
0.0
 11
4.58474
 21
3.53603
 31
0.0
  0
LINE
  8
0
 62
     0
 10
4.58474
 20
3.53603
 30
0.0
 11
4.35875
 21
3.98117
 31
0.0
  0
LINE
  8
0
 62
     0
 10
4.35875
 20
3.98117
 30
0.0
 11
4.00597
 21
4.33395
 31
0.0
  0
LINE
  8
0
 62
     0
 10
4.00597
 20
4.33395
 30
0.0
 11
3.56087
 21
4.55994
 31
0.0
  0
LINE
  8
0
 62
     0
 10
3.56087
 20
4.55994
 30
0.0
 11
3.06751
 21
4.63984
 31
0.0
  0
LINE
  8
0
 62
     0
 10
3.06751
 20
4.63984
 30
0.0
 11
2.57555
 21
4.55994
 31
0.0
  0
LINE
  8
0
 62
     0
 10
82.3627
 20
86.7615
 30
0.0
 11
81.9189
 21
86.5353
 31
0.0
  0
LINE
  8
0
 62
     0
 10
81.9189
 20
86.5353
 30
0.0
 11
81.5661
 21
86.1826
 31
0.0
  0
LINE
  8
0
 62
     0
 10
81.5661
 20
86.1826
 30
0.0
 11
81.3386
 21
85.7373
 31
0.0
  0
LINE
  8
0
 62
     0
 10
81.3386
 20
85.7373
 30
0.0
 11
81.2602
 21
85.2442
 31
0.0
  0
LINE
  8
0
 62
     0
 10
81.2602
 20
85.2442
 30
0.0
 11
81.3386
 21
84.752
 31
0.0
  0
LINE
  8
0
 62
     0
 10
81.3386
 20
84.752
 30
0.0
 11
81.5661
 21
84.3068
 31
0.0
  0
LINE
  8
0
 62
     0
 10
81.5661
 20
84.3068
 30
0.0
 11
81.9189
 21
83.9541
 31
0.0
  0
LINE
  8
0
 62
     0
 10
81.9189
 20
83.9541
 30
0.0
 11
82.3627
 21
83.7283
 31
0.0
  0
LINE
  8
0
 62
     0
 10
82.3627
 20
83.7283
 30
0.0
 11
82.8559
 21
83.6496
 31
0.0
  0
LINE
  8
0
 62
     0
 10
82.8559
 20
83.6496
 30
0.0
 11
83.348
 21
83.7283
 31
0.0
  0
LINE
  8
0
 62
     0
 10
83.348
 20
83.7283
 30
0.0
 11
83.7928
 21
83.9541
 31
0.0
  0
LINE
  8
0
 62
     0
 10
83.7928
 20
83.9541
 30
0.0
 11
84.147
 21
84.3068
 31
0.0
  0
LINE
  8
0
 62
     0
 10
84.147
 20
84.3068
 30
0.0
 11
84.3732
 21
84.752
 31
0.0
  0
LINE
  8
0
 62
     0
 10
84.3732
 20
84.752
 30
0.0
 11
84.4504
 21
85.2442
 31
0.0
  0
LINE
  8
0
 62
     0
 10
84.4504
 20
85.2442
 30
0.0
 11
84.3732
 21
85.7373
 31
0.0
  0
LINE
  8
0
 62
     0
 10
84.3732
 20
85.7373
 30
0.0
 11
84.147
 21
86.1826
 31
0.0
  0
LINE
  8
0
 62
     0
 10
84.147
 20
86.1826
 30
0.0
 11
83.7928
 21
86.5353
 31
0.0
  0
LINE
  8
0
 62
     0
 10
83.7928
 20
86.5353
 30
0.0
 11
83.348
 21
86.7615
 31
0.0
  0
LINE
  8
0
 62
     0
 10
83.348
 20
86.7615
 30
0.0
 11
82.8559
 21
86.8398
 31
0.0
  0
LINE
  8
0
 62
     0
 10
82.8559
 20
86.8398
 30
0.0
 11
82.3627
 21
86.7615
 31
0.0
  0
LINE
  8
0
 62
     0
 10
162.151
 20
86.7615
 30
0.0
 11
161.706
 21
86.5353
 31
0.0
  0
LINE
  8
0
 62
     0
 10
161.706
 20
86.5353
 30
0.0
 11
161.353
 21
86.1826
 31
0.0
  0
LINE
  8
0
 62
     0
 10
161.353
 20
86.1826
 30
0.0
 11
161.127
 21
85.7373
 31
0.0
  0
LINE
  8
0
 62
     0
 10
161.127
 20
85.7373
 30
0.0
 11
161.049
 21
85.2442
 31
0.0
  0
LINE
  8
0
 62
     0
 10
161.049
 20
85.2442
 30
0.0
 11
161.127
 21
84.752
 31
0.0
  0
LINE
  8
0
 62
     0
 10
161.127
 20
84.752
 30
0.0
 11
161.353
 21
84.3068
 31
0.0
  0
LINE
  8
0
 62
     0
 10
161.353
 20
84.3068
 30
0.0
 11
161.706
 21
83.9541
 31
0.0
  0
LINE
  8
0
 62
     0
 10
161.706
 20
83.9541
 30
0.0
 11
162.151
 21
83.7283
 31
0.0
  0
LINE
  8
0
 62
     0
 10
162.151
 20
83.7283
 30
0.0
 11
162.643
 21
83.6496
 31
0.0
  0
LINE
  8
0
 62
     0
 10
162.643
 20
83.6496
 30
0.0
 11
163.136
 21
83.7283
 31
0.0
  0
LINE
  8
0
 62
     0
 10
163.136
 20
83.7283
 30
0.0
 11
163.581
 21
83.9541
 31
0.0
  0
LINE
  8
0
 62
     0
 10
163.581
 20
83.9541
 30
0.0
 11
163.934
 21
84.3068
 31
0.0
  0
LINE
  8
0
 62
     0
 10
163.934
 20
84.3068
 30
0.0
 11
164.16
 21
84.752
 31
0.0
  0
LINE
  8
0
 62
     0
 10
164.16
 20
84.752
 30
0.0
 11
164.239
 21
85.2442
 31
0.0
  0
LINE
  8
0
 62
     0
 10
164.239
 20
85.2442
 30
0.0
 11
164.16
 21
85.7373
 31
0.0
  0
LINE
  8
0
 62
     0
 10
164.16
 20
85.7373
 30
0.0
 11
163.934
 21
86.1826
 31
0.0
  0
LINE
  8
0
 62
     0
 10
163.934
 20
86.1826
 30
0.0
 11
163.581
 21
86.5353
 31
0.0
  0
LINE
  8
0
 62
     0
 10
163.581
 20
86.5353
 30
0.0
 11
163.136
 21
86.7615
 31
0.0
  0
LINE
  8
0
 62
     0
 10
163.136
 20
86.7615
 30
0.0
 11
162.643
 21
86.8398
 31
0.0
  0
LINE
  8
0
 62
     0
 10
162.643
 20
86.8398
 30
0.0
 11
162.151
 21
86.7615
 31
0.0
  0
LINE
  8
0
 62
     0
 10
241.938
 20
86.7615
 30
0.0
 11
241.493
 21
86.5353
 31
0.0
  0
LINE
  8
0
 62
     0
 10
241.493
 20
86.5353
 30
0.0
 11
241.142
 21
86.1826
 31
0.0
  0
LINE
  8
0
 62
     0
 10
241.142
 20
86.1826
 30
0.0
 11
240.914
 21
85.7373
 31
0.0
  0
LINE
  8
0
 62
     0
 10
240.914
 20
85.7373
 30
0.0
 11
240.837
 21
85.2442
 31
0.0
  0
LINE
  8
0
 62
     0
 10
240.837
 20
85.2442
 30
0.0
 11
240.914
 21
84.752
 31
0.0
  0
LINE
  8
0
 62
     0
 10
240.914
 20
84.752
 30
0.0
 11
241.142
 21
84.3068
 31
0.0
  0
LINE
  8
0
 62
     0
 10
241.142
 20
84.3068
 30
0.0
 11
241.493
 21
83.9541
 31
0.0
  0
LINE
  8
0
 62
     0
 10
241.493
 20
83.9541
 30
0.0
 11
241.938
 21
83.7283
 31
0.0
  0
LINE
  8
0
 62
     0
 10
241.938
 20
83.7283
 30
0.0
 11
242.431
 21
83.6496
 31
0.0
  0
LINE
  8
0
 62
     0
 10
242.431
 20
83.6496
 30
0.0
 11
242.925
 21
83.7283
 31
0.0
  0
LINE
  8
0
 62
     0
 10
242.925
 20
83.7283
 30
0.0
 11
243.37
 21
83.9541
 31
0.0
  0
LINE
  8
0
 62
     0
 10
243.37
 20
83.9541
 30
0.0
 11
243.721
 21
84.3068
 31
0.0
  0
LINE
  8
0
 62
     0
 10
243.721
 20
84.3068
 30
0.0
 11
243.949
 21
84.752
 31
0.0
  0
LINE
  8
0
 62
     0
 10
243.949
 20
84.752
 30
0.0
 11
244.027
 21
85.2442
 31
0.0
  0
LINE
  8
0
 62
     0
 10
244.027
 20
85.2442
 30
0.0
 11
243.949
 21
85.7373
 31
0.0
  0
LINE
  8
0
 62
     0
 10
243.949
 20
85.7373
 30
0.0
 11
243.721
 21
86.1826
 31
0.0
  0
LINE
  8
0
 62
     0
 10
243.721
 20
86.1826
 30
0.0
 11
243.37
 21
86.5353
 31
0.0
  0
LINE
  8
0
 62
     0
 10
243.37
 20
86.5353
 30
0.0
 11
242.925
 21
86.7615
 31
0.0
  0
LINE
  8
0
 62
     0
 10
242.925
 20
86.7615
 30
0.0
 11
242.431
 21
86.8398
 31
0.0
  0
LINE
  8
0
 62
     0
 10
242.431
 20
86.8398
 30
0.0
 11
241.938
 21
86.7615
 31
0.0
  0
LINE
  8
0
 62
     0
 10
2.57555
 20
86.7615
 30
0.0
 11
2.13045
 21
86.5353
 31
0.0
  0
LINE
  8
0
 62
     0
 10
2.13045
 20
86.5353
 30
0.0
 11
1.77767
 21
86.1826
 31
0.0
  0
LINE
  8
0
 62
     0
 10
1.77767
 20
86.1826
 30
0.0
 11
1.55167
 21
85.7373
 31
0.0
  0
LINE
  8
0
 62
     0
 10
1.55167
 20
85.7373
 30
0.0
 11
1.47312
 21
85.2456
 31
0.0
  0
LINE
  8
0
 62
     0
 10
1.47312
 20
85.2456
 30
0.0
 11
1.55167
 21
84.752
 31
0.0
  0
LINE
  8
0
 62
     0
 10
1.55167
 20
84.752
 30
0.0
 11
1.77767
 21
84.3068
 31
0.0
  0
LINE
  8
0
 62
     0
 10
1.77767
 20
84.3068
 30
0.0
 11
2.13045
 21
83.9541
 31
0.0
  0
LINE
  8
0
 62
     0
 10
2.13045
 20
83.9541
 30
0.0
 11
2.57555
 21
83.7283
 31
0.0
  0
LINE
  8
0
 62
     0
 10
2.57555
 20
83.7283
 30
0.0
 11
3.06751
 21
83.651
 31
0.0
  0
LINE
  8
0
 62
     0
 10
3.06751
 20
83.651
 30
0.0
 11
3.56087
 21
83.7283
 31
0.0
  0
LINE
  8
0
 62
     0
 10
3.56087
 20
83.7283
 30
0.0
 11
4.00597
 21
83.9541
 31
0.0
  0
LINE
  8
0
 62
     0
 10
4.00597
 20
83.9541
 30
0.0
 11
4.35875
 21
84.3068
 31
0.0
  0
LINE
  8
0
 62
     0
 10
4.35875
 20
84.3068
 30
0.0
 11
4.58474
 21
84.752
 31
0.0
  0
LINE
  8
0
 62
     0
 10
4.58474
 20
84.752
 30
0.0
 11
4.66189
 21
85.2456
 31
0.0
  0
LINE
  8
0
 62
     0
 10
4.66189
 20
85.2456
 30
0.0
 11
4.58474
 21
85.7373
 31
0.0
  0
LINE
  8
0
 62
     0
 10
4.58474
 20
85.7373
 30
0.0
 11
4.35875
 21
86.1826
 31
0.0
  0
LINE
  8
0
 62
     0
 10
4.35875
 20
86.1826
 30
0.0
 11
4.00597
 21
86.5353
 31
0.0
  0
LINE
  8
0
 62
     0
 10
4.00597
 20
86.5353
 30
0.0
 11
3.56087
 21
86.7615
 31
0.0
  0
LINE
  8
0
 62
     0
 10
3.56087
 20
86.7615
 30
0.0
 11
3.06751
 21
86.8398
 31
0.0
  0
LINE
  8
0
 62
     0
 10
3.06751
 20
86.8398
 30
0.0
 11
2.57555
 21
86.7615
 31
0.0
  0
ENDSEC
  0
EOF
