<?xml version="1.0"?>
<!-- Generated by SVGo -->
<svg width="255.374mm" height="98.212mm"
     viewBox="0.000 0.000 255.374 98.212"
     xmlns="http://www.w3.org/2000/svg" 
     xmlns:xlink="http://www.w3.org/1999/xlink">
<polygon points="247.874,5.001 248.070,5.008 248.265,5.031 248.458,5.070 248.647,5.123 248.831,5.191 249.009,5.273 249.180,5.369 249.343,5.478 249.498,5.599 249.642,5.733 249.775,5.877 249.897,6.031 250.006,6.194 250.102,6.366 250.184,6.544 250.252,6.728 250.305,6.917 250.343,7.109 250.366,7.304 250.374,7.501 250.374,90.711 250.366,90.908 250.343,91.103 250.305,91.295 250.252,91.484 250.184,91.668 250.102,91.846 250.006,92.018 249.897,92.181 249.775,92.335 249.642,92.479 249.498,92.613 249.343,92.734 249.180,92.843 249.009,92.939 248.831,93.021 248.647,93.089 248.458,93.142 248.265,93.181 248.070,93.204 247.874,93.212 7.501,93.211 7.304,93.204 7.109,93.181 6.917,93.142 6.728,93.089 6.544,93.021 6.366,92.939 6.194,92.843 6.031,92.734 5.877,92.613 5.733,92.479 5.599,92.335 5.478,92.181 5.369,92.018 5.273,91.846 5.191,91.668 5.123,91.484 5.070,91.295 5.031,91.103 5.008,90.908 5.000,90.711 5.001,7.501 5.008,7.304 5.031,7.109 5.070,6.917 5.123,6.728 5.191,6.544 5.273,6.366 5.369,6.194 5.478,6.031 5.599,5.877 5.733,5.733 5.877,5.599 6.031,5.478 6.194,5.369 6.366,5.273 6.544,5.191 6.728,5.123 6.917,5.070 7.109,5.031 7.304,5.008 7.501,5.000" style="fill:none;stroke-width:0.010000mm;stroke:black"/>
<polygon points="246.876,88.690 246.431,88.916 246.079,89.269 245.852,89.714 245.774,90.207 245.852,90.699 246.079,91.144 246.431,91.497 246.876,91.723 247.369,91.802 247.862,91.723 248.307,91.497 248.659,91.144 248.886,90.699 248.964,90.207 248.886,89.714 248.659,89.269 248.307,88.916 247.862,88.690 247.369,88.611" style="fill:none;stroke-width:0.010000mm;stroke:black"/>
<polygon points="167.088,88.690 166.644,88.916 166.291,89.269 166.064,89.714 165.986,90.207 166.064,90.699 166.291,91.144 166.644,91.497 167.088,91.723 167.581,91.802 168.074,91.723 168.519,91.497 168.872,91.144 169.098,90.699 169.176,90.207 169.098,89.714 168.872,89.269 168.519,88.916 168.074,88.690 167.581,88.611" style="fill:none;stroke-width:0.010000mm;stroke:black"/>
<polygon points="87.300,88.690 86.856,88.916 86.503,89.269 86.276,89.714 86.198,90.207 86.276,90.699 86.503,91.144 86.856,91.497 87.300,91.723 87.793,91.802 88.286,91.723 88.731,91.497 89.084,91.144 89.310,90.699 89.388,90.207 89.310,89.714 89.084,89.269 88.731,88.916 88.286,88.690 87.793,88.611" style="fill:none;stroke-width:0.010000mm;stroke:black"/>
<polygon points="7.513,88.690 7.068,88.916 6.715,89.269 6.489,89.714 6.410,90.207 6.489,90.699 6.715,91.144 7.068,91.497 7.513,91.723 8.005,91.802 8.498,91.723 8.943,91.497 9.296,91.144 9.522,90.699 9.600,90.207 9.522,89.714 9.296,89.269 8.943,88.916 8.498,88.690 8.005,88.611" style="fill:none;stroke-width:0.010000mm;stroke:black"/>
<polygon points="142.123,70.685 142.123,71.286 141.323,71.286 141.323,75.385 140.588,75.385 140.588,72.155 133.848,72.155 133.848,75.385 133.023,75.385 133.023,78.176 133.848,78.176 133.848,84.446 135.573,84.446 135.573,85.646 138.863,85.646 138.863,84.446 140.588,84.446 140.588,79.976 141.323,79.976 141.323,84.075 142.123,84.075 142.123,84.676 156.113,84.676 156.113,84.075 156.913,84.075 156.913,79.976 157.648,79.976 157.648,84.446 159.373,84.446 159.373,85.646 162.663,85.646 162.663,84.446 164.388,84.446 164.388,78.176 165.213,78.176 165.213,75.385 164.388,75.385 164.388,72.155 157.648,72.155 157.648,75.385 156.913,75.385 156.913,71.286 156.113,71.286 156.113,70.685" style="fill:none;stroke-width:0.010000mm;stroke:black"/>
<polygon points="15.917,70.685 15.917,71.286 15.117,71.286 15.117,84.075 15.917,84.075 15.917,84.676 29.907,84.676 29.907,84.075 30.707,84.075 30.707,71.286 29.907,71.286 29.907,70.685" style="fill:none;stroke-width:0.010000mm;stroke:black"/>
<polygon points="37.348,70.685 37.348,71.286 36.548,71.286 36.548,84.075 37.348,84.075 37.348,84.676 51.338,84.676 51.338,84.075 52.138,84.075 52.138,71.286 51.338,71.286 51.338,70.685" style="fill:none;stroke-width:0.010000mm;stroke:black"/>
<polygon points="56.398,70.685 56.398,71.286 55.598,71.286 55.598,84.075 56.398,84.075 56.398,84.676 70.388,84.676 70.388,84.075 71.188,84.075 71.188,71.286 70.388,71.286 70.388,70.685" style="fill:none;stroke-width:0.010000mm;stroke:black"/>
<polygon points="77.829,70.685 77.829,71.286 77.029,71.286 77.029,84.075 77.829,84.075 77.829,84.676 91.819,84.676 91.819,84.075 92.619,84.075 92.619,71.286 91.819,71.286 91.819,70.685" style="fill:none;stroke-width:0.010000mm;stroke:black"/>
<polygon points="106.404,70.685 106.404,71.286 105.604,71.286 105.604,84.075 106.404,84.075 106.404,84.676 120.394,84.676 120.394,84.075 121.194,84.075 121.194,71.286 120.394,71.286 120.394,70.685" style="fill:none;stroke-width:0.010000mm;stroke:black"/>
<polygon points="170.698,70.685 170.698,71.286 169.898,71.286 169.898,84.075 170.698,84.075 170.698,84.676 184.688,84.676 184.688,84.075 185.488,84.075 185.488,71.286 184.688,71.286 184.688,70.685" style="fill:none;stroke-width:0.010000mm;stroke:black"/>
<polygon points="189.748,70.685 189.748,71.286 188.948,71.286 188.948,84.075 189.748,84.075 189.748,84.676 203.738,84.676 203.738,84.075 204.538,84.075 204.538,71.286 203.738,71.286 203.738,70.685" style="fill:none;stroke-width:0.010000mm;stroke:black"/>
<polygon points="208.798,70.685 208.798,71.286 207.998,71.286 207.998,84.075 208.798,84.075 208.798,84.676 222.788,84.676 222.788,84.075 223.588,84.075 223.588,71.286 222.788,71.286 222.788,70.685" style="fill:none;stroke-width:0.010000mm;stroke:black"/>
<polygon points="227.848,70.685 227.848,71.286 227.048,71.286 227.048,84.075 227.848,84.075 227.848,84.676 241.838,84.676 241.838,84.075 242.638,84.075 242.638,71.286 241.838,71.286 241.838,70.685" style="fill:none;stroke-width:0.010000mm;stroke:black"/>
<polygon points="20.679,51.636 20.679,52.235 19.879,52.235 19.879,65.025 20.679,65.025 20.679,65.626 34.669,65.626 34.669,65.025 35.469,65.025 35.469,52.235 34.669,52.235 34.669,51.636" style="fill:none;stroke-width:0.010000mm;stroke:black"/>
<polygon points="46.873,51.636 46.873,52.235 46.073,52.235 46.073,65.025 46.873,65.025 46.873,65.626 60.863,65.626 60.863,65.025 61.663,65.025 61.663,52.235 60.863,52.235 60.863,51.636" style="fill:none;stroke-width:0.010000mm;stroke:black"/>
<polygon points="65.923,51.636 65.923,52.235 65.123,52.235 65.123,65.025 65.923,65.025 65.923,65.626 79.913,65.626 79.913,65.025 80.713,65.025 80.713,52.235 79.913,52.235 79.913,51.636" style="fill:none;stroke-width:0.010000mm;stroke:black"/>
<polygon points="84.973,51.636 84.973,52.235 84.173,52.235 84.173,65.025 84.973,65.025 84.973,65.626 98.963,65.626 98.963,65.025 99.763,65.025 99.763,52.235 98.963,52.235 98.963,51.636" style="fill:none;stroke-width:0.010000mm;stroke:black"/>
<polygon points="104.023,51.636 104.023,52.235 103.223,52.235 103.223,65.025 104.023,65.025 104.023,65.626 118.013,65.626 118.013,65.025 118.813,65.025 118.813,52.235 118.013,52.235 118.013,51.636" style="fill:none;stroke-width:0.010000mm;stroke:black"/>
<polygon points="123.073,51.636 123.073,52.235 122.273,52.235 122.273,65.025 123.073,65.025 123.073,65.626 137.063,65.626 137.063,65.025 137.863,65.025 137.863,52.235 137.063,52.235 137.063,51.636" style="fill:none;stroke-width:0.010000mm;stroke:black"/>
<polygon points="142.123,51.636 142.123,52.235 141.323,52.235 141.323,65.025 142.123,65.025 142.123,65.626 156.113,65.626 156.113,65.025 156.913,65.025 156.913,52.235 156.113,52.235 156.113,51.636" style="fill:none;stroke-width:0.010000mm;stroke:black"/>
<polygon points="161.173,51.636 161.173,52.235 160.373,52.235 160.373,65.025 161.173,65.025 161.173,65.626 175.163,65.626 175.163,65.025 175.963,65.025 175.963,52.235 175.163,52.235 175.163,51.636" style="fill:none;stroke-width:0.010000mm;stroke:black"/>
<polygon points="180.223,51.636 180.223,52.235 179.423,52.235 179.423,65.025 180.223,65.025 180.223,65.626 194.213,65.626 194.213,65.025 195.013,65.025 195.013,52.235 194.213,52.235 194.213,51.636" style="fill:none;stroke-width:0.010000mm;stroke:black"/>
<polygon points="199.273,51.636 199.273,52.235 198.473,52.235 198.473,65.025 199.273,65.025 199.273,65.626 213.263,65.626 213.263,65.025 214.063,65.025 214.063,52.235 213.263,52.235 213.263,51.636" style="fill:none;stroke-width:0.010000mm;stroke:black"/>
<polygon points="223.086,51.636 223.086,52.235 222.286,52.235 222.286,65.025 223.086,65.025 223.086,65.626 237.076,65.626 237.076,65.025 237.876,65.025 237.876,52.235 237.076,52.235 237.076,51.636" style="fill:none;stroke-width:0.010000mm;stroke:black"/>
<polygon points="15.917,32.586 15.917,33.185 15.117,33.185 15.117,45.976 15.917,45.976 15.917,46.575 29.907,46.575 29.907,45.976 30.707,45.976 30.707,33.185 29.907,33.185 29.907,32.586" style="fill:none;stroke-width:0.010000mm;stroke:black"/>
<polygon points="37.348,32.586 37.348,33.185 36.548,33.185 36.548,45.976 37.348,45.976 37.348,46.575 51.338,46.575 51.338,45.976 52.138,45.976 52.138,33.185 51.338,33.185 51.338,32.586" style="fill:none;stroke-width:0.010000mm;stroke:black"/>
<polygon points="56.398,32.586 56.398,33.185 55.598,33.185 55.598,45.976 56.398,45.976 56.398,46.575 70.388,46.575 70.388,45.976 71.188,45.976 71.188,33.185 70.388,33.185 70.388,32.586" style="fill:none;stroke-width:0.010000mm;stroke:black"/>
<polygon points="75.448,32.586 75.448,33.185 74.648,33.185 74.648,45.976 75.448,45.976 75.448,46.575 89.438,46.575 89.438,45.976 90.238,45.976 90.238,33.185 89.438,33.185 89.438,32.586" style="fill:none;stroke-width:0.010000mm;stroke:black"/>
<polygon points="94.498,32.586 94.498,33.185 93.698,33.185 93.698,45.976 94.498,45.976 94.498,46.575 108.488,46.575 108.488,45.976 109.288,45.976 109.288,33.185 108.488,33.185 108.488,32.586" style="fill:none;stroke-width:0.010000mm;stroke:black"/>
<polygon points="113.548,32.586 113.548,33.185 112.748,33.185 112.748,45.976 113.548,45.976 113.548,46.575 127.538,46.575 127.538,45.976 128.337,45.976 128.337,33.185 127.538,33.185 127.538,32.586" style="fill:none;stroke-width:0.010000mm;stroke:black"/>
<polygon points="132.598,32.586 132.598,33.185 131.798,33.185 131.798,45.976 132.598,45.976 132.598,46.575 146.588,46.575 146.588,45.976 147.388,45.976 147.388,33.185 146.588,33.185 146.588,32.586" style="fill:none;stroke-width:0.010000mm;stroke:black"/>
<polygon points="151.648,32.586 151.648,33.185 150.848,33.185 150.848,45.976 151.648,45.976 151.648,46.575 165.638,46.575 165.638,45.976 166.438,45.976 166.438,33.185 165.638,33.185 165.638,32.586" style="fill:none;stroke-width:0.010000mm;stroke:black"/>
<polygon points="170.698,32.586 170.698,33.185 169.898,33.185 169.898,45.976 170.698,45.976 170.698,46.575 184.688,46.575 184.688,45.976 185.488,45.976 185.488,33.185 184.688,33.185 184.688,32.586" style="fill:none;stroke-width:0.010000mm;stroke:black"/>
<polygon points="189.748,32.586 189.748,33.185 188.948,33.185 188.948,45.976 189.748,45.976 189.748,46.575 203.738,46.575 203.738,45.976 204.538,45.976 204.538,33.185 203.738,33.185 203.738,32.586" style="fill:none;stroke-width:0.010000mm;stroke:black"/>
<polygon points="208.798,32.586 208.798,33.185 207.998,33.185 207.998,45.976 208.798,45.976 208.798,46.575 222.788,46.575 222.788,45.976 223.588,45.976 223.588,33.185 222.788,33.185 222.788,32.586" style="fill:none;stroke-width:0.010000mm;stroke:black"/>
<polygon points="227.848,32.586 227.848,33.185 227.048,33.185 227.048,45.976 227.848,45.976 227.848,46.575 241.838,46.575 241.838,45.976 242.638,45.976 242.638,33.185 241.838,33.185 241.838,32.586" style="fill:none;stroke-width:0.010000mm;stroke:black"/>
<polygon points="13.536,13.536 13.536,14.136 12.736,14.136 12.736,26.926 13.536,26.926 13.536,27.526 27.526,27.526 27.526,26.926 28.326,26.926 28.326,14.136 27.526,14.136 27.526,13.536" style="fill:none;stroke-width:0.010000mm;stroke:black"/>
<polygon points="32.586,13.536 32.586,14.136 31.785,14.136 31.785,26.926 32.586,26.926 32.586,27.526 46.575,27.526 46.575,26.926 47.376,26.926 47.376,14.136 46.575,14.136 46.575,13.536" style="fill:none;stroke-width:0.010000mm;stroke:black"/>
<polygon points="51.636,13.536 51.636,14.136 50.835,14.136 50.835,26.926 51.636,26.926 51.636,27.526 65.626,27.526 65.626,26.926 66.426,26.926 66.426,14.136 65.626,14.136 65.626,13.536" style="fill:none;stroke-width:0.010000mm;stroke:black"/>
<polygon points="70.685,13.536 70.685,14.136 69.885,14.136 69.885,26.926 70.685,26.926 70.685,27.526 84.676,27.526 84.676,26.926 85.476,26.926 85.476,14.136 84.676,14.136 84.676,13.536" style="fill:none;stroke-width:0.010000mm;stroke:black"/>
<polygon points="89.735,13.536 89.735,14.136 88.935,14.136 88.935,26.926 89.735,26.926 89.735,27.526 103.726,27.526 103.726,26.926 104.525,26.926 104.525,14.136 103.726,14.136 103.726,13.536" style="fill:none;stroke-width:0.010000mm;stroke:black"/>
<polygon points="108.785,13.536 108.785,14.136 107.985,14.136 107.985,26.926 108.785,26.926 108.785,27.526 122.775,27.526 122.775,26.926 123.575,26.926 123.575,14.136 122.775,14.136 122.775,13.536" style="fill:none;stroke-width:0.010000mm;stroke:black"/>
<polygon points="127.835,13.536 127.835,14.136 127.035,14.136 127.035,26.926 127.835,26.926 127.835,27.526 141.826,27.526 141.826,26.926 142.625,26.926 142.625,14.136 141.826,14.136 141.826,13.536" style="fill:none;stroke-width:0.010000mm;stroke:black"/>
<polygon points="146.886,13.536 146.886,14.136 146.086,14.136 146.086,26.926 146.886,26.926 146.886,27.526 160.876,27.526 160.876,26.926 161.675,26.926 161.675,14.136 160.876,14.136 160.876,13.536" style="fill:none;stroke-width:0.010000mm;stroke:black"/>
<polygon points="165.936,13.536 165.936,14.136 165.136,14.136 165.136,26.926 165.936,26.926 165.936,27.526 179.926,27.526 179.926,26.926 180.726,26.926 180.726,14.136 179.926,14.136 179.926,13.536" style="fill:none;stroke-width:0.010000mm;stroke:black"/>
<polygon points="184.986,13.536 184.986,14.136 184.186,14.136 184.186,26.926 184.986,26.926 184.986,27.526 198.976,27.526 198.976,26.926 199.776,26.926 199.776,14.136 198.976,14.136 198.976,13.536" style="fill:none;stroke-width:0.010000mm;stroke:black"/>
<polygon points="204.036,13.536 204.036,14.136 203.236,14.136 203.236,26.926 204.036,26.926 204.036,27.526 218.026,27.526 218.026,26.926 218.826,26.926 218.826,14.136 218.026,14.136 218.026,13.536" style="fill:none;stroke-width:0.010000mm;stroke:black"/>
<polygon points="225.467,13.536 225.467,14.136 224.667,14.136 224.667,26.926 225.467,26.926 225.467,27.526 239.457,27.526 239.457,26.926 240.257,26.926 240.257,14.136 239.457,14.136 239.457,13.536" style="fill:none;stroke-width:0.010000mm;stroke:black"/>
<polygon points="87.300,6.489 86.856,6.715 86.503,7.068 86.276,7.513 86.198,8.006 86.276,8.498 86.503,8.943 86.856,9.296 87.300,9.522 87.793,9.601 88.286,9.522 88.731,9.296 89.084,8.943 89.310,8.498 89.388,8.006 89.310,7.513 89.084,7.068 88.731,6.715 88.286,6.489 87.793,6.411" style="fill:none;stroke-width:0.010000mm;stroke:black"/>
<polygon points="167.088,6.489 166.644,6.715 166.291,7.068 166.064,7.513 165.986,8.006 166.064,8.498 166.291,8.943 166.644,9.296 167.088,9.522 167.581,9.601 168.074,9.522 168.519,9.296 168.872,8.943 169.098,8.498 169.176,8.006 169.098,7.513 168.872,7.068 168.519,6.715 168.074,6.489 167.581,6.411" style="fill:none;stroke-width:0.010000mm;stroke:black"/>
<polygon points="246.876,6.489 246.431,6.715 246.079,7.068 245.852,7.513 245.774,8.006 245.852,8.498 246.079,8.943 246.431,9.296 246.876,9.522 247.369,9.601 247.862,9.522 248.307,9.296 248.659,8.943 248.886,8.498 248.964,8.006 248.886,7.513 248.659,7.068 248.307,6.715 247.862,6.489 247.369,6.411" style="fill:none;stroke-width:0.010000mm;stroke:black"/>
<polygon points="7.513,6.489 7.068,6.715 6.715,7.068 6.489,7.513 6.410,8.005 6.489,8.498 6.715,8.943 7.068,9.296 7.513,9.522 8.005,9.600 8.498,9.522 8.943,9.296 9.296,8.943 9.522,8.498 9.600,8.005 9.522,7.513 9.296,7.068 8.943,6.715 8.498,6.489 8.005,6.410" style="fill:none;stroke-width:0.010000mm;stroke:black"/>
</svg>
