  0
SECTION
  2
HEADER
  9
$ACADVER
  1
AC1009
  9
$EXTMIN
 10
0.0
 20
0.0
 30
0.0
  9
$EXTMAX
 10
1000.0
 20
1000.0
 30
0.0
  9
$FILLMODE
 70
 0
  9
$SPLFRAME
 70
 1
  0
ENDSEC
  0
SECTION
  2
TABLES
  0
TABLE
  2
LAYER
 70
1
  0
LAYER
  2
0
 70
     0
 62
     7
  6
CONTINUOUS
  0
ENDTAB
  0
ENDSEC
  0
SECTION
  2
ENTITIES
  0
LINE
  8
0
 62
     0
 10
242.937
 20
88.2495
 30
0.0
 11
243.133
 21
88.2428
 31
0.0
  0
LINE
  8
0
 62
     0
 10
243.133
 20
88.2428
 30
0.0
 11
243.327
 21
88.2191
 31
0.0
  0
LINE
  8
0
 62
     0
 10
243.327
 20
88.2191
 30
0.0
 11
243.52
 21
88.1807
 31
0.0
  0
LINE
  8
0
 62
     0
 10
243.52
 20
88.1807
 30
0.0
 11
243.709
 21
88.1271
 31
0.0
  0
LINE
  8
0
 62
     0
 10
243.709
 20
88.1271
 30
0.0
 11
243.894
 21
88.0593
 31
0.0
  0
LINE
  8
0
 62
     0
 10
243.894
 20
88.0593
 30
0.0
 11
244.071
 21
87.9782
 31
0.0
  0
LINE
  8
0
 62
     0
 10
244.071
 20
87.9782
 30
0.0
 11
244.242
 21
87.8815
 31
0.0
  0
LINE
  8
0
 62
     0
 10
244.242
 20
87.8815
 30
0.0
 11
244.406
 21
87.7729
 31
0.0
  0
LINE
  8
0
 62
     0
 10
244.406
 20
87.7729
 30
0.0
 11
244.56
 21
87.6515
 31
0.0
  0
LINE
  8
0
 62
     0
 10
244.56
 20
87.6515
 30
0.0
 11
244.705
 21
87.5178
 31
0.0
  0
LINE
  8
0
 62
     0
 10
244.705
 20
87.5178
 30
0.0
 11
244.837
 21
87.3732
 31
0.0
  0
LINE
  8
0
 62
     0
 10
244.837
 20
87.3732
 30
0.0
 11
244.96
 21
87.2187
 31
0.0
  0
LINE
  8
0
 62
     0
 10
244.96
 20
87.2187
 30
0.0
 11
245.069
 21
87.056
 31
0.0
  0
LINE
  8
0
 62
     0
 10
245.069
 20
87.056
 30
0.0
 11
245.164
 21
86.8839
 31
0.0
  0
LINE
  8
0
 62
     0
 10
245.164
 20
86.8839
 30
0.0
 11
245.247
 21
86.7061
 31
0.0
  0
LINE
  8
0
 62
     0
 10
245.247
 20
86.7061
 30
0.0
 11
245.314
 21
86.523
 31
0.0
  0
LINE
  8
0
 62
     0
 10
245.314
 20
86.523
 30
0.0
 11
245.368
 21
86.3342
 31
0.0
  0
LINE
  8
0
 62
     0
 10
245.368
 20
86.3342
 30
0.0
 11
245.405
 21
86.1413
 31
0.0
  0
LINE
  8
0
 62
     0
 10
245.405
 20
86.1413
 30
0.0
 11
245.429
 21
85.9469
 31
0.0
  0
LINE
  8
0
 62
     0
 10
245.429
 20
85.9469
 30
0.0
 11
245.437
 21
85.7497
 31
0.0
  0
LINE
  8
0
 62
     0
 10
245.437
 20
85.7497
 30
0.0
 11
245.437
 21
2.53972
 31
0.0
  0
LINE
  8
0
 62
     0
 10
245.437
 20
2.53972
 30
0.0
 11
245.429
 21
2.34267
 31
0.0
  0
LINE
  8
0
 62
     0
 10
245.429
 20
2.34267
 30
0.0
 11
245.405
 21
2.14698
 31
0.0
  0
LINE
  8
0
 62
     0
 10
245.405
 20
2.14698
 30
0.0
 11
245.368
 21
1.95544
 31
0.0
  0
LINE
  8
0
 62
     0
 10
245.368
 20
1.95544
 30
0.0
 11
245.314
 21
1.76664
 31
0.0
  0
LINE
  8
0
 62
     0
 10
245.314
 20
1.76664
 30
0.0
 11
245.247
 21
1.58199
 31
0.0
  0
LINE
  8
0
 62
     0
 10
245.247
 20
1.58199
 30
0.0
 11
245.164
 21
1.40422
 31
0.0
  0
LINE
  8
0
 62
     0
 10
245.164
 20
1.40422
 30
0.0
 11
245.069
 21
1.23197
 31
0.0
  0
LINE
  8
0
 62
     0
 10
245.069
 20
1.23197
 30
0.0
 11
244.96
 21
1.06936
 31
0.0
  0
LINE
  8
0
 62
     0
 10
244.96
 20
1.06936
 30
0.0
 11
244.837
 21
0.915017
 31
0.0
  0
LINE
  8
0
 62
     0
 10
244.837
 20
0.915017
 30
0.0
 11
244.705
 21
0.771701
 31
0.0
  0
LINE
  8
0
 62
     0
 10
244.705
 20
0.771701
 30
0.0
 11
244.56
 21
0.63803
 31
0.0
  0
LINE
  8
0
 62
     0
 10
244.56
 20
0.63803
 30
0.0
 11
244.406
 21
0.516763
 31
0.0
  0
LINE
  8
0
 62
     0
 10
244.406
 20
0.516763
 30
0.0
 11
244.242
 21
0.407899
 31
0.0
  0
LINE
  8
0
 62
     0
 10
244.242
 20
0.407899
 30
0.0
 11
244.071
 21
0.311437
 31
0.0
  0
LINE
  8
0
 62
     0
 10
244.071
 20
0.311437
 30
0.0
 11
243.894
 21
0.230132
 31
0.0
  0
LINE
  8
0
 62
     0
 10
243.894
 20
0.230132
 30
0.0
 11
243.709
 21
0.16123
 31
0.0
  0
LINE
  8
0
 62
     0
 10
243.709
 20
0.16123
 30
0.0
 11
243.52
 21
0.108865
 31
0.0
  0
LINE
  8
0
 62
     0
 10
243.52
 20
0.108865
 30
0.0
 11
243.327
 21
0.0689021
 31
0.0
  0
LINE
  8
0
 62
     0
 10
243.327
 20
0.0689021
 30
0.0
 11
243.133
 21
0.0468535
 31
0.0
  0
LINE
  8
0
 62
     0
 10
243.133
 20
0.0468535
 30
0.0
 11
242.937
 21
0.0385851
 31
0.0
  0
LINE
  8
0
 62
     0
 10
242.937
 20
0.0385851
 30
0.0
 11
2.56315
 21
0.039963
 31
0.0
  0
LINE
  8
0
 62
     0
 10
2.56315
 20
0.039963
 30
0.0
 11
2.36609
 21
0.0468535
 31
0.0
  0
LINE
  8
0
 62
     0
 10
2.36609
 20
0.0468535
 30
0.0
 11
2.17179
 21
0.0689021
 31
0.0
  0
LINE
  8
0
 62
     0
 10
2.17179
 20
0.0689021
 30
0.0
 11
1.97886
 21
0.108865
 31
0.0
  0
LINE
  8
0
 62
     0
 10
1.97886
 20
0.108865
 30
0.0
 11
1.79007
 21
0.16123
 31
0.0
  0
LINE
  8
0
 62
     0
 10
1.79007
 20
0.16123
 30
0.0
 11
1.60679
 21
0.230132
 31
0.0
  0
LINE
  8
0
 62
     0
 10
1.60679
 20
0.230132
 30
0.0
 11
1.42903
 21
0.311437
 31
0.0
  0
LINE
  8
0
 62
     0
 10
1.42903
 20
0.311437
 30
0.0
 11
1.25677
 21
0.407899
 31
0.0
  0
LINE
  8
0
 62
     0
 10
1.25677
 20
0.407899
 30
0.0
 11
1.09416
 21
0.516763
 31
0.0
  0
LINE
  8
0
 62
     0
 10
1.09416
 20
0.516763
 30
0.0
 11
0.939821
 21
0.63803
 31
0.0
  0
LINE
  8
0
 62
     0
 10
0.939821
 20
0.63803
 30
0.0
 11
0.795129
 21
0.771701
 31
0.0
  0
LINE
  8
0
 62
     0
 10
0.795129
 20
0.771701
 30
0.0
 11
0.661458
 21
0.915017
 31
0.0
  0
LINE
  8
0
 62
     0
 10
0.661458
 20
0.915017
 30
0.0
 11
0.540191
 21
1.06936
 31
0.0
  0
LINE
  8
0
 62
     0
 10
0.540191
 20
1.06936
 30
0.0
 11
0.431327
 21
1.23197
 31
0.0
  0
LINE
  8
0
 62
     0
 10
0.431327
 20
1.23197
 30
0.0
 11
0.334863
 21
1.40422
 31
0.0
  0
LINE
  8
0
 62
     0
 10
0.334863
 20
1.40422
 30
0.0
 11
0.253559
 21
1.58199
 31
0.0
  0
LINE
  8
0
 62
     0
 10
0.253559
 20
1.58199
 30
0.0
 11
0.186035
 21
1.76664
 31
0.0
  0
LINE
  8
0
 62
     0
 10
0.186035
 20
1.76664
 30
0.0
 11
0.132292
 21
1.95544
 31
0.0
  0
LINE
  8
0
 62
     0
 10
0.132292
 20
1.95544
 30
0.0
 11
0.0937066
 21
2.14698
 31
0.0
  0
LINE
  8
0
 62
     0
 10
0.0937066
 20
2.14698
 30
0.0
 11
0.07028
 21
2.34267
 31
0.0
  0
LINE
  8
0
 62
     0
 10
0.07028
 20
2.34267
 30
0.0
 11
0.0620116
 21
2.53972
 31
0.0
  0
LINE
  8
0
 62
     0
 10
0.0620116
 20
2.53972
 30
0.0
 11
0.0633899
 21
85.7497
 31
0.0
  0
LINE
  8
0
 62
     0
 10
0.0633899
 20
85.7497
 30
0.0
 11
0.07028
 21
85.9469
 31
0.0
  0
LINE
  8
0
 62
     0
 10
0.07028
 20
85.9469
 30
0.0
 11
0.0937066
 21
86.1413
 31
0.0
  0
LINE
  8
0
 62
     0
 10
0.0937066
 20
86.1413
 30
0.0
 11
0.132292
 21
86.3342
 31
0.0
  0
LINE
  8
0
 62
     0
 10
0.132292
 20
86.3342
 30
0.0
 11
0.186035
 21
86.523
 31
0.0
  0
LINE
  8
0
 62
     0
 10
0.186035
 20
86.523
 30
0.0
 11
0.253559
 21
86.7061
 31
0.0
  0
LINE
  8
0
 62
     0
 10
0.253559
 20
86.7061
 30
0.0
 11
0.334863
 21
86.8839
 31
0.0
  0
LINE
  8
0
 62
     0
 10
0.334863
 20
86.8839
 30
0.0
 11
0.431327
 21
87.056
 31
0.0
  0
LINE
  8
0
 62
     0
 10
0.431327
 20
87.056
 30
0.0
 11
0.540191
 21
87.2187
 31
0.0
  0
LINE
  8
0
 62
     0
 10
0.540191
 20
87.2187
 30
0.0
 11
0.661458
 21
87.3732
 31
0.0
  0
LINE
  8
0
 62
     0
 10
0.661458
 20
87.3732
 30
0.0
 11
0.795129
 21
87.5178
 31
0.0
  0
LINE
  8
0
 62
     0
 10
0.795129
 20
87.5178
 30
0.0
 11
0.939821
 21
87.6515
 31
0.0
  0
LINE
  8
0
 62
     0
 10
0.939821
 20
87.6515
 30
0.0
 11
1.09416
 21
87.7729
 31
0.0
  0
LINE
  8
0
 62
     0
 10
1.09416
 20
87.7729
 30
0.0
 11
1.25677
 21
87.8815
 31
0.0
  0
LINE
  8
0
 62
     0
 10
1.25677
 20
87.8815
 30
0.0
 11
1.42903
 21
87.9782
 31
0.0
  0
LINE
  8
0
 62
     0
 10
1.42903
 20
87.9782
 30
0.0
 11
1.60679
 21
88.0593
 31
0.0
  0
LINE
  8
0
 62
     0
 10
1.60679
 20
88.0593
 30
0.0
 11
1.79007
 21
88.1271
 31
0.0
  0
LINE
  8
0
 62
     0
 10
1.79007
 20
88.1271
 30
0.0
 11
1.97886
 21
88.1807
 31
0.0
  0
LINE
  8
0
 62
     0
 10
1.97886
 20
88.1807
 30
0.0
 11
2.17179
 21
88.2191
 31
0.0
  0
LINE
  8
0
 62
     0
 10
2.17179
 20
88.2191
 30
0.0
 11
2.36609
 21
88.2428
 31
0.0
  0
LINE
  8
0
 62
     0
 10
2.36609
 20
88.2428
 30
0.0
 11
2.56315
 21
88.2509
 31
0.0
  0
LINE
  8
0
 62
     0
 10
2.56315
 20
88.2509
 30
0.0
 11
242.937
 21
88.2495
 31
0.0
  0
LINE
  8
0
 62
     0
 10
241.938
 20
4.55994
 30
0.0
 11
241.493
 21
4.33395
 31
0.0
  0
LINE
  8
0
 62
     0
 10
241.493
 20
4.33395
 30
0.0
 11
241.142
 21
3.98117
 31
0.0
  0
LINE
  8
0
 62
     0
 10
241.142
 20
3.98117
 30
0.0
 11
240.914
 21
3.53603
 31
0.0
  0
LINE
  8
0
 62
     0
 10
240.914
 20
3.53603
 30
0.0
 11
240.837
 21
3.04409
 31
0.0
  0
LINE
  8
0
 62
     0
 10
240.837
 20
3.04409
 30
0.0
 11
240.914
 21
2.55213
 31
0.0
  0
LINE
  8
0
 62
     0
 10
240.914
 20
2.55213
 30
0.0
 11
241.142
 21
2.10702
 31
0.0
  0
LINE
  8
0
 62
     0
 10
241.142
 20
2.10702
 30
0.0
 11
241.493
 21
1.75286
 31
0.0
  0
LINE
  8
0
 62
     0
 10
241.493
 20
1.75286
 30
0.0
 11
241.938
 21
1.52687
 31
0.0
  0
LINE
  8
0
 62
     0
 10
241.938
 20
1.52687
 30
0.0
 11
242.431
 21
1.44832
 31
0.0
  0
LINE
  8
0
 62
     0
 10
242.431
 20
1.44832
 30
0.0
 11
242.925
 21
1.52687
 31
0.0
  0
LINE
  8
0
 62
     0
 10
242.925
 20
1.52687
 30
0.0
 11
243.37
 21
1.75286
 31
0.0
  0
LINE
  8
0
 62
     0
 10
243.37
 20
1.75286
 30
0.0
 11
243.721
 21
2.10702
 31
0.0
  0
LINE
  8
0
 62
     0
 10
243.721
 20
2.10702
 30
0.0
 11
243.949
 21
2.55213
 31
0.0
  0
LINE
  8
0
 62
     0
 10
243.949
 20
2.55213
 30
0.0
 11
244.027
 21
3.04409
 31
0.0
  0
LINE
  8
0
 62
     0
 10
244.027
 20
3.04409
 30
0.0
 11
243.949
 21
3.53603
 31
0.0
  0
LINE
  8
0
 62
     0
 10
243.949
 20
3.53603
 30
0.0
 11
243.721
 21
3.98117
 31
0.0
  0
LINE
  8
0
 62
     0
 10
243.721
 20
3.98117
 30
0.0
 11
243.37
 21
4.33395
 31
0.0
  0
LINE
  8
0
 62
     0
 10
243.37
 20
4.33395
 30
0.0
 11
242.925
 21
4.55994
 31
0.0
  0
LINE
  8
0
 62
     0
 10
242.925
 20
4.55994
 30
0.0
 11
242.431
 21
4.63984
 31
0.0
  0
LINE
  8
0
 62
     0
 10
242.431
 20
4.63984
 30
0.0
 11
241.938
 21
4.55994
 31
0.0
  0
LINE
  8
0
 62
     0
 10
162.151
 20
4.55994
 30
0.0
 11
161.706
 21
4.33395
 31
0.0
  0
LINE
  8
0
 62
     0
 10
161.706
 20
4.33395
 30
0.0
 11
161.353
 21
3.98117
 31
0.0
  0
LINE
  8
0
 62
     0
 10
161.353
 20
3.98117
 30
0.0
 11
161.127
 21
3.53603
 31
0.0
  0
LINE
  8
0
 62
     0
 10
161.127
 20
3.53603
 30
0.0
 11
161.049
 21
3.04409
 31
0.0
  0
LINE
  8
0
 62
     0
 10
161.049
 20
3.04409
 30
0.0
 11
161.127
 21
2.55213
 31
0.0
  0
LINE
  8
0
 62
     0
 10
161.127
 20
2.55213
 30
0.0
 11
161.353
 21
2.10702
 31
0.0
  0
LINE
  8
0
 62
     0
 10
161.353
 20
2.10702
 30
0.0
 11
161.706
 21
1.75286
 31
0.0
  0
LINE
  8
0
 62
     0
 10
161.706
 20
1.75286
 30
0.0
 11
162.151
 21
1.52687
 31
0.0
  0
LINE
  8
0
 62
     0
 10
162.151
 20
1.52687
 30
0.0
 11
162.643
 21
1.44832
 31
0.0
  0
LINE
  8
0
 62
     0
 10
162.643
 20
1.44832
 30
0.0
 11
163.136
 21
1.52687
 31
0.0
  0
LINE
  8
0
 62
     0
 10
163.136
 20
1.52687
 30
0.0
 11
163.581
 21
1.75286
 31
0.0
  0
LINE
  8
0
 62
     0
 10
163.581
 20
1.75286
 30
0.0
 11
163.934
 21
2.10702
 31
0.0
  0
LINE
  8
0
 62
     0
 10
163.934
 20
2.10702
 30
0.0
 11
164.16
 21
2.55213
 31
0.0
  0
LINE
  8
0
 62
     0
 10
164.16
 20
2.55213
 30
0.0
 11
164.239
 21
3.04409
 31
0.0
  0
LINE
  8
0
 62
     0
 10
164.239
 20
3.04409
 30
0.0
 11
164.16
 21
3.53603
 31
0.0
  0
LINE
  8
0
 62
     0
 10
164.16
 20
3.53603
 30
0.0
 11
163.934
 21
3.98117
 31
0.0
  0
LINE
  8
0
 62
     0
 10
163.934
 20
3.98117
 30
0.0
 11
163.581
 21
4.33395
 31
0.0
  0
LINE
  8
0
 62
     0
 10
163.581
 20
4.33395
 30
0.0
 11
163.136
 21
4.55994
 31
0.0
  0
LINE
  8
0
 62
     0
 10
163.136
 20
4.55994
 30
0.0
 11
162.643
 21
4.63984
 31
0.0
  0
LINE
  8
0
 62
     0
 10
162.643
 20
4.63984
 30
0.0
 11
162.151
 21
4.55994
 31
0.0
  0
LINE
  8
0
 62
     0
 10
82.3627
 20
4.55994
 30
0.0
 11
81.9189
 21
4.33395
 31
0.0
  0
LINE
  8
0
 62
     0
 10
81.9189
 20
4.33395
 30
0.0
 11
81.5661
 21
3.98117
 31
0.0
  0
LINE
  8
0
 62
     0
 10
81.5661
 20
3.98117
 30
0.0
 11
81.3386
 21
3.53603
 31
0.0
  0
LINE
  8
0
 62
     0
 10
81.3386
 20
3.53603
 30
0.0
 11
81.2602
 21
3.04409
 31
0.0
  0
LINE
  8
0
 62
     0
 10
81.2602
 20
3.04409
 30
0.0
 11
81.3386
 21
2.55213
 31
0.0
  0
LINE
  8
0
 62
     0
 10
81.3386
 20
2.55213
 30
0.0
 11
81.5661
 21
2.10702
 31
0.0
  0
LINE
  8
0
 62
     0
 10
81.5661
 20
2.10702
 30
0.0
 11
81.9189
 21
1.75286
 31
0.0
  0
LINE
  8
0
 62
     0
 10
81.9189
 20
1.75286
 30
0.0
 11
82.3627
 21
1.52687
 31
0.0
  0
LINE
  8
0
 62
     0
 10
82.3627
 20
1.52687
 30
0.0
 11
82.8559
 21
1.44832
 31
0.0
  0
LINE
  8
0
 62
     0
 10
82.8559
 20
1.44832
 30
0.0
 11
83.348
 21
1.52687
 31
0.0
  0
LINE
  8
0
 62
     0
 10
83.348
 20
1.52687
 30
0.0
 11
83.7928
 21
1.75286
 31
0.0
  0
LINE
  8
0
 62
     0
 10
83.7928
 20
1.75286
 30
0.0
 11
84.147
 21
2.10702
 31
0.0
  0
LINE
  8
0
 62
     0
 10
84.147
 20
2.10702
 30
0.0
 11
84.3732
 21
2.55213
 31
0.0
  0
LINE
  8
0
 62
     0
 10
84.3732
 20
2.55213
 30
0.0
 11
84.4504
 21
3.04409
 31
0.0
  0
LINE
  8
0
 62
     0
 10
84.4504
 20
3.04409
 30
0.0
 11
84.3732
 21
3.53603
 31
0.0
  0
LINE
  8
0
 62
     0
 10
84.3732
 20
3.53603
 30
0.0
 11
84.147
 21
3.98117
 31
0.0
  0
LINE
  8
0
 62
     0
 10
84.147
 20
3.98117
 30
0.0
 11
83.7928
 21
4.33395
 31
0.0
  0
LINE
  8
0
 62
     0
 10
83.7928
 20
4.33395
 30
0.0
 11
83.348
 21
4.55994
 31
0.0
  0
LINE
  8
0
 62
     0
 10
83.348
 20
4.55994
 30
0.0
 11
82.8559
 21
4.63984
 31
0.0
  0
LINE
  8
0
 62
     0
 10
82.8559
 20
4.63984
 30
0.0
 11
82.3627
 21
4.55994
 31
0.0
  0
LINE
  8
0
 62
     0
 10
2.57555
 20
4.55994
 30
0.0
 11
2.13045
 21
4.33395
 31
0.0
  0
LINE
  8
0
 62
     0
 10
2.13045
 20
4.33395
 30
0.0
 11
1.77767
 21
3.98117
 31
0.0
  0
LINE
  8
0
 62
     0
 10
1.77767
 20
3.98117
 30
0.0
 11
1.55167
 21
3.53603
 31
0.0
  0
LINE
  8
0
 62
     0
 10
1.55167
 20
3.53603
 30
0.0
 11
1.47312
 21
3.04409
 31
0.0
  0
LINE
  8
0
 62
     0
 10
1.47312
 20
3.04409
 30
0.0
 11
1.55167
 21
2.55213
 31
0.0
  0
LINE
  8
0
 62
     0
 10
1.55167
 20
2.55213
 30
0.0
 11
1.77767
 21
2.10702
 31
0.0
  0
LINE
  8
0
 62
     0
 10
1.77767
 20
2.10702
 30
0.0
 11
2.13045
 21
1.75286
 31
0.0
  0
LINE
  8
0
 62
     0
 10
2.13045
 20
1.75286
 30
0.0
 11
2.57555
 21
1.52687
 31
0.0
  0
LINE
  8
0
 62
     0
 10
2.57555
 20
1.52687
 30
0.0
 11
3.06751
 21
1.44832
 31
0.0
  0
LINE
  8
0
 62
     0
 10
3.06751
 20
1.44832
 30
0.0
 11
3.56087
 21
1.52687
 31
0.0
  0
LINE
  8
0
 62
     0
 10
3.56087
 20
1.52687
 30
0.0
 11
4.00597
 21
1.75286
 31
0.0
  0
LINE
  8
0
 62
     0
 10
4.00597
 20
1.75286
 30
0.0
 11
4.35875
 21
2.10702
 31
0.0
  0
LINE
  8
0
 62
     0
 10
4.35875
 20
2.10702
 30
0.0
 11
4.58474
 21
2.55213
 31
0.0
  0
LINE
  8
0
 62
     0
 10
4.58474
 20
2.55213
 30
0.0
 11
4.66189
 21
3.04409
 31
0.0
  0
LINE
  8
0
 62
     0
 10
4.66189
 20
3.04409
 30
0.0
 11
4.58474
 21
3.53603
 31
0.0
  0
LINE
  8
0
 62
     0
 10
4.58474
 20
3.53603
 30
0.0
 11
4.35875
 21
3.98117
 31
0.0
  0
LINE
  8
0
 62
     0
 10
4.35875
 20
3.98117
 30
0.0
 11
4.00597
 21
4.33395
 31
0.0
  0
LINE
  8
0
 62
     0
 10
4.00597
 20
4.33395
 30
0.0
 11
3.56087
 21
4.55994
 31
0.0
  0
LINE
  8
0
 62
     0
 10
3.56087
 20
4.55994
 30
0.0
 11
3.06751
 21
4.63984
 31
0.0
  0
LINE
  8
0
 62
     0
 10
3.06751
 20
4.63984
 30
0.0
 11
2.57555
 21
4.55994
 31
0.0
  0
LINE
  8
0
 62
     0
 10
137.185
 20
22.5654
 30
0.0
 11
137.185
 21
21.9645
 31
0.0
  0
LINE
  8
0
 62
     0
 10
137.185
 20
21.9645
 30
0.0
 11
136.386
 21
21.9645
 31
0.0
  0
LINE
  8
0
 62
     0
 10
136.386
 20
21.9645
 30
0.0
 11
136.386
 21
17.8649
 31
0.0
  0
LINE
  8
0
 62
     0
 10
136.386
 20
17.8649
 30
0.0
 11
135.65
 21
17.8649
 31
0.0
  0
LINE
  8
0
 62
     0
 10
135.65
 20
17.8649
 30
0.0
 11
135.65
 21
21.095
 31
0.0
  0
LINE
  8
0
 62
     0
 10
135.65
 20
21.095
 30
0.0
 11
128.91
 21
21.095
 31
0.0
  0
LINE
  8
0
 62
     0
 10
128.91
 20
21.095
 30
0.0
 11
128.91
 21
17.8649
 31
0.0
  0
LINE
  8
0
 62
     0
 10
128.91
 20
17.8649
 30
0.0
 11
128.086
 21
17.8649
 31
0.0
  0
LINE
  8
0
 62
     0
 10
128.086
 20
17.8649
 30
0.0
 11
128.086
 21
15.0744
 31
0.0
  0
LINE
  8
0
 62
     0
 10
128.086
 20
15.0744
 30
0.0
 11
128.91
 21
15.0744
 31
0.0
  0
LINE
  8
0
 62
     0
 10
128.91
 20
15.0744
 30
0.0
 11
128.91
 21
8.80428
 31
0.0
  0
LINE
  8
0
 62
     0
 10
128.91
 20
8.80428
 30
0.0
 11
130.635
 21
8.80428
 31
0.0
  0
LINE
  8
0
 62
     0
 10
130.635
 20
8.80428
 30
0.0
 11
130.635
 21
7.60402
 31
0.0
  0
LINE
  8
0
 62
     0
 10
130.635
 20
7.60402
 30
0.0
 11
133.926
 21
7.60402
 31
0.0
  0
LINE
  8
0
 62
     0
 10
133.926
 20
7.60402
 30
0.0
 11
133.926
 21
8.80428
 31
0.0
  0
LINE
  8
0
 62
     0
 10
133.926
 20
8.80428
 30
0.0
 11
135.65
 21
8.80428
 31
0.0
  0
LINE
  8
0
 62
     0
 10
135.65
 20
8.80428
 30
0.0
 11
135.65
 21
13.2746
 31
0.0
  0
LINE
  8
0
 62
     0
 10
135.65
 20
13.2746
 30
0.0
 11
136.386
 21
13.2746
 31
0.0
  0
LINE
  8
0
 62
     0
 10
136.386
 20
13.2746
 30
0.0
 11
136.386
 21
9.17497
 31
0.0
  0
LINE
  8
0
 62
     0
 10
136.386
 20
9.17497
 30
0.0
 11
137.185
 21
9.17497
 31
0.0
  0
LINE
  8
0
 62
     0
 10
137.185
 20
9.17497
 30
0.0
 11
137.185
 21
8.57416
 31
0.0
  0
LINE
  8
0
 62
     0
 10
137.185
 20
8.57416
 30
0.0
 11
151.175
 21
8.57416
 31
0.0
  0
LINE
  8
0
 62
     0
 10
151.175
 20
8.57416
 30
0.0
 11
151.175
 21
9.17497
 31
0.0
  0
LINE
  8
0
 62
     0
 10
151.175
 20
9.17497
 30
0.0
 11
151.976
 21
9.17497
 31
0.0
  0
LINE
  8
0
 62
     0
 10
151.976
 20
9.17497
 30
0.0
 11
151.976
 21
13.2746
 31
0.0
  0
LINE
  8
0
 62
     0
 10
151.976
 20
13.2746
 30
0.0
 11
152.71
 21
13.2746
 31
0.0
  0
LINE
  8
0
 62
     0
 10
152.71
 20
13.2746
 30
0.0
 11
152.71
 21
8.80428
 31
0.0
  0
LINE
  8
0
 62
     0
 10
152.71
 20
8.80428
 30
0.0
 11
154.436
 21
8.80428
 31
0.0
  0
LINE
  8
0
 62
     0
 10
154.436
 20
8.80428
 30
0.0
 11
154.436
 21
7.60402
 31
0.0
  0
LINE
  8
0
 62
     0
 10
154.436
 20
7.60402
 30
0.0
 11
157.726
 21
7.60402
 31
0.0
  0
LINE
  8
0
 62
     0
 10
157.726
 20
7.60402
 30
0.0
 11
157.726
 21
8.80428
 31
0.0
  0
LINE
  8
0
 62
     0
 10
157.726
 20
8.80428
 30
0.0
 11
159.45
 21
8.80428
 31
0.0
  0
LINE
  8
0
 62
     0
 10
159.45
 20
8.80428
 30
0.0
 11
159.45
 21
15.0744
 31
0.0
  0
LINE
  8
0
 62
     0
 10
159.45
 20
15.0744
 30
0.0
 11
160.275
 21
15.0744
 31
0.0
  0
LINE
  8
0
 62
     0
 10
160.275
 20
15.0744
 30
0.0
 11
160.275
 21
17.8649
 31
0.0
  0
LINE
  8
0
 62
     0
 10
160.275
 20
17.8649
 30
0.0
 11
159.45
 21
17.8649
 31
0.0
  0
LINE
  8
0
 62
     0
 10
159.45
 20
17.8649
 30
0.0
 11
159.45
 21
21.095
 31
0.0
  0
LINE
  8
0
 62
     0
 10
159.45
 20
21.095
 30
0.0
 11
152.71
 21
21.095
 31
0.0
  0
LINE
  8
0
 62
     0
 10
152.71
 20
21.095
 30
0.0
 11
152.71
 21
17.8649
 31
0.0
  0
LINE
  8
0
 62
     0
 10
152.71
 20
17.8649
 30
0.0
 11
151.976
 21
17.8649
 31
0.0
  0
LINE
  8
0
 62
     0
 10
151.976
 20
17.8649
 30
0.0
 11
151.976
 21
21.9645
 31
0.0
  0
LINE
  8
0
 62
     0
 10
151.976
 20
21.9645
 30
0.0
 11
151.175
 21
21.9645
 31
0.0
  0
LINE
  8
0
 62
     0
 10
151.175
 20
21.9645
 30
0.0
 11
151.175
 21
22.5654
 31
0.0
  0
LINE
  8
0
 62
     0
 10
151.175
 20
22.5654
 30
0.0
 11
137.185
 21
22.5654
 31
0.0
  0
LINE
  8
0
 62
     0
 10
10.9788
 20
22.5654
 30
0.0
 11
10.9788
 21
21.9645
 31
0.0
  0
LINE
  8
0
 62
     0
 10
10.9788
 20
21.9645
 30
0.0
 11
10.1796
 21
21.9645
 31
0.0
  0
LINE
  8
0
 62
     0
 10
10.1796
 20
21.9645
 30
0.0
 11
10.1796
 21
9.17497
 31
0.0
  0
LINE
  8
0
 62
     0
 10
10.1796
 20
9.17497
 30
0.0
 11
10.9788
 21
9.17497
 31
0.0
  0
LINE
  8
0
 62
     0
 10
10.9788
 20
9.17497
 30
0.0
 11
10.9788
 21
8.57416
 31
0.0
  0
LINE
  8
0
 62
     0
 10
10.9788
 20
8.57416
 30
0.0
 11
24.9701
 21
8.57416
 31
0.0
  0
LINE
  8
0
 62
     0
 10
24.9701
 20
8.57416
 30
0.0
 11
24.9701
 21
9.17497
 31
0.0
  0
LINE
  8
0
 62
     0
 10
24.9701
 20
9.17497
 30
0.0
 11
25.7693
 21
9.17497
 31
0.0
  0
LINE
  8
0
 62
     0
 10
25.7693
 20
9.17497
 30
0.0
 11
25.7693
 21
21.9645
 31
0.0
  0
LINE
  8
0
 62
     0
 10
25.7693
 20
21.9645
 30
0.0
 11
24.9701
 21
21.9645
 31
0.0
  0
LINE
  8
0
 62
     0
 10
24.9701
 20
21.9645
 30
0.0
 11
24.9701
 21
22.5654
 31
0.0
  0
LINE
  8
0
 62
     0
 10
24.9701
 20
22.5654
 30
0.0
 11
10.9788
 21
22.5654
 31
0.0
  0
LINE
  8
0
 62
     0
 10
32.4101
 20
22.5654
 30
0.0
 11
32.4101
 21
21.9645
 31
0.0
  0
LINE
  8
0
 62
     0
 10
32.4101
 20
21.9645
 30
0.0
 11
31.6108
 21
21.9645
 31
0.0
  0
LINE
  8
0
 62
     0
 10
31.6108
 20
21.9645
 30
0.0
 11
31.6108
 21
9.17497
 31
0.0
  0
LINE
  8
0
 62
     0
 10
31.6108
 20
9.17497
 30
0.0
 11
32.4101
 21
9.17497
 31
0.0
  0
LINE
  8
0
 62
     0
 10
32.4101
 20
9.17497
 30
0.0
 11
32.4101
 21
8.57416
 31
0.0
  0
LINE
  8
0
 62
     0
 10
32.4101
 20
8.57416
 30
0.0
 11
46.3998
 21
8.57416
 31
0.0
  0
LINE
  8
0
 62
     0
 10
46.3998
 20
8.57416
 30
0.0
 11
46.3998
 21
9.17497
 31
0.0
  0
LINE
  8
0
 62
     0
 10
46.3998
 20
9.17497
 30
0.0
 11
47.2006
 21
9.17497
 31
0.0
  0
LINE
  8
0
 62
     0
 10
47.2006
 20
9.17497
 30
0.0
 11
47.2006
 21
21.9645
 31
0.0
  0
LINE
  8
0
 62
     0
 10
47.2006
 20
21.9645
 30
0.0
 11
46.3998
 21
21.9645
 31
0.0
  0
LINE
  8
0
 62
     0
 10
46.3998
 20
21.9645
 30
0.0
 11
46.3998
 21
22.5654
 31
0.0
  0
LINE
  8
0
 62
     0
 10
46.3998
 20
22.5654
 30
0.0
 11
32.4101
 21
22.5654
 31
0.0
  0
LINE
  8
0
 62
     0
 10
51.46
 20
22.5654
 30
0.0
 11
51.46
 21
21.9645
 31
0.0
  0
LINE
  8
0
 62
     0
 10
51.46
 20
21.9645
 30
0.0
 11
50.6607
 21
21.9645
 31
0.0
  0
LINE
  8
0
 62
     0
 10
50.6607
 20
21.9645
 30
0.0
 11
50.6607
 21
9.17497
 31
0.0
  0
LINE
  8
0
 62
     0
 10
50.6607
 20
9.17497
 30
0.0
 11
51.46
 21
9.17497
 31
0.0
  0
LINE
  8
0
 62
     0
 10
51.46
 20
9.17497
 30
0.0
 11
51.46
 21
8.57416
 31
0.0
  0
LINE
  8
0
 62
     0
 10
51.46
 20
8.57416
 30
0.0
 11
65.4498
 21
8.57416
 31
0.0
  0
LINE
  8
0
 62
     0
 10
65.4498
 20
8.57416
 30
0.0
 11
65.4498
 21
9.17497
 31
0.0
  0
LINE
  8
0
 62
     0
 10
65.4498
 20
9.17497
 30
0.0
 11
66.2506
 21
9.17497
 31
0.0
  0
LINE
  8
0
 62
     0
 10
66.2506
 20
9.17497
 30
0.0
 11
66.2506
 21
21.9645
 31
0.0
  0
LINE
  8
0
 62
     0
 10
66.2506
 20
21.9645
 30
0.0
 11
65.4498
 21
21.9645
 31
0.0
  0
LINE
  8
0
 62
     0
 10
65.4498
 20
21.9645
 30
0.0
 11
65.4498
 21
22.5654
 31
0.0
  0
LINE
  8
0
 62
     0
 10
65.4498
 20
22.5654
 30
0.0
 11
51.46
 21
22.5654
 31
0.0
  0
LINE
  8
0
 62
     0
 10
72.8913
 20
22.5654
 30
0.0
 11
72.8913
 21
21.9645
 31
0.0
  0
LINE
  8
0
 62
     0
 10
72.8913
 20
21.9645
 30
0.0
 11
72.0919
 21
21.9645
 31
0.0
  0
LINE
  8
0
 62
     0
 10
72.0919
 20
21.9645
 30
0.0
 11
72.0919
 21
9.17497
 31
0.0
  0
LINE
  8
0
 62
     0
 10
72.0919
 20
9.17497
 30
0.0
 11
72.8913
 21
9.17497
 31
0.0
  0
LINE
  8
0
 62
     0
 10
72.8913
 20
9.17497
 30
0.0
 11
72.8913
 21
8.57416
 31
0.0
  0
LINE
  8
0
 62
     0
 10
72.8913
 20
8.57416
 30
0.0
 11
86.8811
 21
8.57416
 31
0.0
  0
LINE
  8
0
 62
     0
 10
86.8811
 20
8.57416
 30
0.0
 11
86.8811
 21
9.17497
 31
0.0
  0
LINE
  8
0
 62
     0
 10
86.8811
 20
9.17497
 30
0.0
 11
87.6819
 21
9.17497
 31
0.0
  0
LINE
  8
0
 62
     0
 10
87.6819
 20
9.17497
 30
0.0
 11
87.6819
 21
21.9645
 31
0.0
  0
LINE
  8
0
 62
     0
 10
87.6819
 20
21.9645
 30
0.0
 11
86.8811
 21
21.9645
 31
0.0
  0
LINE
  8
0
 62
     0
 10
86.8811
 20
21.9645
 30
0.0
 11
86.8811
 21
22.5654
 31
0.0
  0
LINE
  8
0
 62
     0
 10
86.8811
 20
22.5654
 30
0.0
 11
72.8913
 21
22.5654
 31
0.0
  0
LINE
  8
0
 62
     0
 10
101.466
 20
22.5654
 30
0.0
 11
101.466
 21
21.9645
 31
0.0
  0
LINE
  8
0
 62
     0
 10
101.466
 20
21.9645
 30
0.0
 11
100.667
 21
21.9645
 31
0.0
  0
LINE
  8
0
 62
     0
 10
100.667
 20
21.9645
 30
0.0
 11
100.667
 21
9.17497
 31
0.0
  0
LINE
  8
0
 62
     0
 10
100.667
 20
9.17497
 30
0.0
 11
101.466
 21
9.17497
 31
0.0
  0
LINE
  8
0
 62
     0
 10
101.466
 20
9.17497
 30
0.0
 11
101.466
 21
8.57416
 31
0.0
  0
LINE
  8
0
 62
     0
 10
101.466
 20
8.57416
 30
0.0
 11
115.456
 21
8.57416
 31
0.0
  0
LINE
  8
0
 62
     0
 10
115.456
 20
8.57416
 30
0.0
 11
115.456
 21
9.17497
 31
0.0
  0
LINE
  8
0
 62
     0
 10
115.456
 20
9.17497
 30
0.0
 11
116.257
 21
9.17497
 31
0.0
  0
LINE
  8
0
 62
     0
 10
116.257
 20
9.17497
 30
0.0
 11
116.257
 21
21.9645
 31
0.0
  0
LINE
  8
0
 62
     0
 10
116.257
 20
21.9645
 30
0.0
 11
115.456
 21
21.9645
 31
0.0
  0
LINE
  8
0
 62
     0
 10
115.456
 20
21.9645
 30
0.0
 11
115.456
 21
22.5654
 31
0.0
  0
LINE
  8
0
 62
     0
 10
115.456
 20
22.5654
 30
0.0
 11
101.466
 21
22.5654
 31
0.0
  0
LINE
  8
0
 62
     0
 10
165.76
 20
22.5654
 30
0.0
 11
165.76
 21
21.9645
 31
0.0
  0
LINE
  8
0
 62
     0
 10
165.76
 20
21.9645
 30
0.0
 11
164.961
 21
21.9645
 31
0.0
  0
LINE
  8
0
 62
     0
 10
164.961
 20
21.9645
 30
0.0
 11
164.961
 21
9.17497
 31
0.0
  0
LINE
  8
0
 62
     0
 10
164.961
 20
9.17497
 30
0.0
 11
165.76
 21
9.17497
 31
0.0
  0
LINE
  8
0
 62
     0
 10
165.76
 20
9.17497
 30
0.0
 11
165.76
 21
8.57416
 31
0.0
  0
LINE
  8
0
 62
     0
 10
165.76
 20
8.57416
 30
0.0
 11
179.75
 21
8.57416
 31
0.0
  0
LINE
  8
0
 62
     0
 10
179.75
 20
8.57416
 30
0.0
 11
179.75
 21
9.17497
 31
0.0
  0
LINE
  8
0
 62
     0
 10
179.75
 20
9.17497
 30
0.0
 11
180.551
 21
9.17497
 31
0.0
  0
LINE
  8
0
 62
     0
 10
180.551
 20
9.17497
 30
0.0
 11
180.551
 21
21.9645
 31
0.0
  0
LINE
  8
0
 62
     0
 10
180.551
 20
21.9645
 30
0.0
 11
179.75
 21
21.9645
 31
0.0
  0
LINE
  8
0
 62
     0
 10
179.75
 20
21.9645
 30
0.0
 11
179.75
 21
22.5654
 31
0.0
  0
LINE
  8
0
 62
     0
 10
179.75
 20
22.5654
 30
0.0
 11
165.76
 21
22.5654
 31
0.0
  0
LINE
  8
0
 62
     0
 10
184.81
 20
22.5654
 30
0.0
 11
184.81
 21
21.9645
 31
0.0
  0
LINE
  8
0
 62
     0
 10
184.81
 20
21.9645
 30
0.0
 11
184.011
 21
21.9645
 31
0.0
  0
LINE
  8
0
 62
     0
 10
184.011
 20
21.9645
 30
0.0
 11
184.011
 21
9.17497
 31
0.0
  0
LINE
  8
0
 62
     0
 10
184.011
 20
9.17497
 30
0.0
 11
184.81
 21
9.17497
 31
0.0
  0
LINE
  8
0
 62
     0
 10
184.81
 20
9.17497
 30
0.0
 11
184.81
 21
8.57416
 31
0.0
  0
LINE
  8
0
 62
     0
 10
184.81
 20
8.57416
 30
0.0
 11
198.8
 21
8.57416
 31
0.0
  0
LINE
  8
0
 62
     0
 10
198.8
 20
8.57416
 30
0.0
 11
198.8
 21
9.17497
 31
0.0
  0
LINE
  8
0
 62
     0
 10
198.8
 20
9.17497
 30
0.0
 11
199.601
 21
9.17497
 31
0.0
  0
LINE
  8
0
 62
     0
 10
199.601
 20
9.17497
 30
0.0
 11
199.601
 21
21.9645
 31
0.0
  0
LINE
  8
0
 62
     0
 10
199.601
 20
21.9645
 30
0.0
 11
198.8
 21
21.9645
 31
0.0
  0
LINE
  8
0
 62
     0
 10
198.8
 20
21.9645
 30
0.0
 11
198.8
 21
22.5654
 31
0.0
  0
LINE
  8
0
 62
     0
 10
198.8
 20
22.5654
 30
0.0
 11
184.81
 21
22.5654
 31
0.0
  0
LINE
  8
0
 62
     0
 10
203.86
 20
22.5654
 30
0.0
 11
203.86
 21
21.9645
 31
0.0
  0
LINE
  8
0
 62
     0
 10
203.86
 20
21.9645
 30
0.0
 11
203.061
 21
21.9645
 31
0.0
  0
LINE
  8
0
 62
     0
 10
203.061
 20
21.9645
 30
0.0
 11
203.061
 21
9.17497
 31
0.0
  0
LINE
  8
0
 62
     0
 10
203.061
 20
9.17497
 30
0.0
 11
203.86
 21
9.17497
 31
0.0
  0
LINE
  8
0
 62
     0
 10
203.86
 20
9.17497
 30
0.0
 11
203.86
 21
8.57416
 31
0.0
  0
LINE
  8
0
 62
     0
 10
203.86
 20
8.57416
 30
0.0
 11
217.85
 21
8.57416
 31
0.0
  0
LINE
  8
0
 62
     0
 10
217.85
 20
8.57416
 30
0.0
 11
217.85
 21
9.17497
 31
0.0
  0
LINE
  8
0
 62
     0
 10
217.85
 20
9.17497
 30
0.0
 11
218.651
 21
9.17497
 31
0.0
  0
LINE
  8
0
 62
     0
 10
218.651
 20
9.17497
 30
0.0
 11
218.651
 21
21.9645
 31
0.0
  0
LINE
  8
0
 62
     0
 10
218.651
 20
21.9645
 30
0.0
 11
217.85
 21
21.9645
 31
0.0
  0
LINE
  8
0
 62
     0
 10
217.85
 20
21.9645
 30
0.0
 11
217.85
 21
22.5654
 31
0.0
  0
LINE
  8
0
 62
     0
 10
217.85
 20
22.5654
 30
0.0
 11
203.86
 21
22.5654
 31
0.0
  0
LINE
  8
0
 62
     0
 10
222.91
 20
22.5654
 30
0.0
 11
222.91
 21
21.9645
 31
0.0
  0
LINE
  8
0
 62
     0
 10
222.91
 20
21.9645
 30
0.0
 11
222.111
 21
21.9645
 31
0.0
  0
LINE
  8
0
 62
     0
 10
222.111
 20
21.9645
 30
0.0
 11
222.111
 21
9.17497
 31
0.0
  0
LINE
  8
0
 62
     0
 10
222.111
 20
9.17497
 30
0.0
 11
222.91
 21
9.17497
 31
0.0
  0
LINE
  8
0
 62
     0
 10
222.91
 20
9.17497
 30
0.0
 11
222.91
 21
8.57416
 31
0.0
  0
LINE
  8
0
 62
     0
 10
222.91
 20
8.57416
 30
0.0
 11
236.9
 21
8.57416
 31
0.0
  0
LINE
  8
0
 62
     0
 10
236.9
 20
8.57416
 30
0.0
 11
236.9
 21
9.17497
 31
0.0
  0
LINE
  8
0
 62
     0
 10
236.9
 20
9.17497
 30
0.0
 11
237.701
 21
9.17497
 31
0.0
  0
LINE
  8
0
 62
     0
 10
237.701
 20
9.17497
 30
0.0
 11
237.701
 21
21.9645
 31
0.0
  0
LINE
  8
0
 62
     0
 10
237.701
 20
21.9645
 30
0.0
 11
236.9
 21
21.9645
 31
0.0
  0
LINE
  8
0
 62
     0
 10
236.9
 20
21.9645
 30
0.0
 11
236.9
 21
22.5654
 31
0.0
  0
LINE
  8
0
 62
     0
 10
236.9
 20
22.5654
 30
0.0
 11
222.91
 21
22.5654
 31
0.0
  0
LINE
  8
0
 62
     0
 10
15.7413
 20
41.614
 30
0.0
 11
15.7413
 21
41.0161
 31
0.0
  0
LINE
  8
0
 62
     0
 10
15.7413
 20
41.0161
 30
0.0
 11
14.9421
 21
41.0161
 31
0.0
  0
LINE
  8
0
 62
     0
 10
14.9421
 20
41.0161
 30
0.0
 11
14.9421
 21
28.225
 31
0.0
  0
LINE
  8
0
 62
     0
 10
14.9421
 20
28.225
 30
0.0
 11
15.7413
 21
28.225
 31
0.0
  0
LINE
  8
0
 62
     0
 10
15.7413
 20
28.225
 30
0.0
 11
15.7413
 21
27.6242
 31
0.0
  0
LINE
  8
0
 62
     0
 10
15.7413
 20
27.6242
 30
0.0
 11
29.7312
 21
27.6242
 31
0.0
  0
LINE
  8
0
 62
     0
 10
29.7312
 20
27.6242
 30
0.0
 11
29.7312
 21
28.225
 31
0.0
  0
LINE
  8
0
 62
     0
 10
29.7312
 20
28.225
 30
0.0
 11
30.5318
 21
28.225
 31
0.0
  0
LINE
  8
0
 62
     0
 10
30.5318
 20
28.225
 30
0.0
 11
30.5318
 21
41.0161
 31
0.0
  0
LINE
  8
0
 62
     0
 10
30.5318
 20
41.0161
 30
0.0
 11
29.7312
 21
41.0161
 31
0.0
  0
LINE
  8
0
 62
     0
 10
29.7312
 20
41.0161
 30
0.0
 11
29.7312
 21
41.614
 31
0.0
  0
LINE
  8
0
 62
     0
 10
29.7312
 20
41.614
 30
0.0
 11
15.7413
 21
41.614
 31
0.0
  0
LINE
  8
0
 62
     0
 10
41.935
 20
41.614
 30
0.0
 11
41.935
 21
41.0161
 31
0.0
  0
LINE
  8
0
 62
     0
 10
41.935
 20
41.0161
 30
0.0
 11
41.1357
 21
41.0161
 31
0.0
  0
LINE
  8
0
 62
     0
 10
41.1357
 20
41.0161
 30
0.0
 11
41.1357
 21
28.225
 31
0.0
  0
LINE
  8
0
 62
     0
 10
41.1357
 20
28.225
 30
0.0
 11
41.935
 21
28.225
 31
0.0
  0
LINE
  8
0
 62
     0
 10
41.935
 20
28.225
 30
0.0
 11
41.935
 21
27.6242
 31
0.0
  0
LINE
  8
0
 62
     0
 10
41.935
 20
27.6242
 30
0.0
 11
55.9248
 21
27.6242
 31
0.0
  0
LINE
  8
0
 62
     0
 10
55.9248
 20
27.6242
 30
0.0
 11
55.9248
 21
28.225
 31
0.0
  0
LINE
  8
0
 62
     0
 10
55.9248
 20
28.225
 30
0.0
 11
56.7256
 21
28.225
 31
0.0
  0
LINE
  8
0
 62
     0
 10
56.7256
 20
28.225
 30
0.0
 11
56.7256
 21
41.0161
 31
0.0
  0
LINE
  8
0
 62
     0
 10
56.7256
 20
41.0161
 30
0.0
 11
55.9248
 21
41.0161
 31
0.0
  0
LINE
  8
0
 62
     0
 10
55.9248
 20
41.0161
 30
0.0
 11
55.9248
 21
41.614
 31
0.0
  0
LINE
  8
0
 62
     0
 10
55.9248
 20
41.614
 30
0.0
 11
41.935
 21
41.614
 31
0.0
  0
LINE
  8
0
 62
     0
 10
60.985
 20
41.614
 30
0.0
 11
60.985
 21
41.0161
 31
0.0
  0
LINE
  8
0
 62
     0
 10
60.985
 20
41.0161
 30
0.0
 11
60.1857
 21
41.0161
 31
0.0
  0
LINE
  8
0
 62
     0
 10
60.1857
 20
41.0161
 30
0.0
 11
60.1857
 21
28.225
 31
0.0
  0
LINE
  8
0
 62
     0
 10
60.1857
 20
28.225
 30
0.0
 11
60.985
 21
28.225
 31
0.0
  0
LINE
  8
0
 62
     0
 10
60.985
 20
28.225
 30
0.0
 11
60.985
 21
27.6242
 31
0.0
  0
LINE
  8
0
 62
     0
 10
60.985
 20
27.6242
 30
0.0
 11
74.9748
 21
27.6242
 31
0.0
  0
LINE
  8
0
 62
     0
 10
74.9748
 20
27.6242
 30
0.0
 11
74.9748
 21
28.225
 31
0.0
  0
LINE
  8
0
 62
     0
 10
74.9748
 20
28.225
 30
0.0
 11
75.7756
 21
28.225
 31
0.0
  0
LINE
  8
0
 62
     0
 10
75.7756
 20
28.225
 30
0.0
 11
75.7756
 21
41.0161
 31
0.0
  0
LINE
  8
0
 62
     0
 10
75.7756
 20
41.0161
 30
0.0
 11
74.9748
 21
41.0161
 31
0.0
  0
LINE
  8
0
 62
     0
 10
74.9748
 20
41.0161
 30
0.0
 11
74.9748
 21
41.614
 31
0.0
  0
LINE
  8
0
 62
     0
 10
74.9748
 20
41.614
 30
0.0
 11
60.985
 21
41.614
 31
0.0
  0
LINE
  8
0
 62
     0
 10
80.035
 20
41.614
 30
0.0
 11
80.035
 21
41.0161
 31
0.0
  0
LINE
  8
0
 62
     0
 10
80.035
 20
41.0161
 30
0.0
 11
79.2357
 21
41.0161
 31
0.0
  0
LINE
  8
0
 62
     0
 10
79.2357
 20
41.0161
 30
0.0
 11
79.2357
 21
28.225
 31
0.0
  0
LINE
  8
0
 62
     0
 10
79.2357
 20
28.225
 30
0.0
 11
80.035
 21
28.225
 31
0.0
  0
LINE
  8
0
 62
     0
 10
80.035
 20
28.225
 30
0.0
 11
80.035
 21
27.6242
 31
0.0
  0
LINE
  8
0
 62
     0
 10
80.035
 20
27.6242
 30
0.0
 11
94.0248
 21
27.6242
 31
0.0
  0
LINE
  8
0
 62
     0
 10
94.0248
 20
27.6242
 30
0.0
 11
94.0248
 21
28.225
 31
0.0
  0
LINE
  8
0
 62
     0
 10
94.0248
 20
28.225
 30
0.0
 11
94.8256
 21
28.225
 31
0.0
  0
LINE
  8
0
 62
     0
 10
94.8256
 20
28.225
 30
0.0
 11
94.8256
 21
41.0161
 31
0.0
  0
LINE
  8
0
 62
     0
 10
94.8256
 20
41.0161
 30
0.0
 11
94.0248
 21
41.0161
 31
0.0
  0
LINE
  8
0
 62
     0
 10
94.0248
 20
41.0161
 30
0.0
 11
94.0248
 21
41.614
 31
0.0
  0
LINE
  8
0
 62
     0
 10
94.0248
 20
41.614
 30
0.0
 11
80.035
 21
41.614
 31
0.0
  0
LINE
  8
0
 62
     0
 10
99.085
 20
41.614
 30
0.0
 11
99.085
 21
41.0161
 31
0.0
  0
LINE
  8
0
 62
     0
 10
99.085
 20
41.0161
 30
0.0
 11
98.2857
 21
41.0161
 31
0.0
  0
LINE
  8
0
 62
     0
 10
98.2857
 20
41.0161
 30
0.0
 11
98.2857
 21
28.225
 31
0.0
  0
LINE
  8
0
 62
     0
 10
98.2857
 20
28.225
 30
0.0
 11
99.085
 21
28.225
 31
0.0
  0
LINE
  8
0
 62
     0
 10
99.085
 20
28.225
 30
0.0
 11
99.085
 21
27.6242
 31
0.0
  0
LINE
  8
0
 62
     0
 10
99.085
 20
27.6242
 30
0.0
 11
113.075
 21
27.6242
 31
0.0
  0
LINE
  8
0
 62
     0
 10
113.075
 20
27.6242
 30
0.0
 11
113.075
 21
28.225
 31
0.0
  0
LINE
  8
0
 62
     0
 10
113.075
 20
28.225
 30
0.0
 11
113.876
 21
28.225
 31
0.0
  0
LINE
  8
0
 62
     0
 10
113.876
 20
28.225
 30
0.0
 11
113.876
 21
41.0161
 31
0.0
  0
LINE
  8
0
 62
     0
 10
113.876
 20
41.0161
 30
0.0
 11
113.075
 21
41.0161
 31
0.0
  0
LINE
  8
0
 62
     0
 10
113.075
 20
41.0161
 30
0.0
 11
113.075
 21
41.614
 31
0.0
  0
LINE
  8
0
 62
     0
 10
113.075
 20
41.614
 30
0.0
 11
99.085
 21
41.614
 31
0.0
  0
LINE
  8
0
 62
     0
 10
118.135
 20
41.614
 30
0.0
 11
118.135
 21
41.0161
 31
0.0
  0
LINE
  8
0
 62
     0
 10
118.135
 20
41.0161
 30
0.0
 11
117.336
 21
41.0161
 31
0.0
  0
LINE
  8
0
 62
     0
 10
117.336
 20
41.0161
 30
0.0
 11
117.336
 21
28.225
 31
0.0
  0
LINE
  8
0
 62
     0
 10
117.336
 20
28.225
 30
0.0
 11
118.135
 21
28.225
 31
0.0
  0
LINE
  8
0
 62
     0
 10
118.135
 20
28.225
 30
0.0
 11
118.135
 21
27.6242
 31
0.0
  0
LINE
  8
0
 62
     0
 10
118.135
 20
27.6242
 30
0.0
 11
132.125
 21
27.6242
 31
0.0
  0
LINE
  8
0
 62
     0
 10
132.125
 20
27.6242
 30
0.0
 11
132.125
 21
28.225
 31
0.0
  0
LINE
  8
0
 62
     0
 10
132.125
 20
28.225
 30
0.0
 11
132.926
 21
28.225
 31
0.0
  0
LINE
  8
0
 62
     0
 10
132.926
 20
28.225
 30
0.0
 11
132.926
 21
41.0161
 31
0.0
  0
LINE
  8
0
 62
     0
 10
132.926
 20
41.0161
 30
0.0
 11
132.125
 21
41.0161
 31
0.0
  0
LINE
  8
0
 62
     0
 10
132.125
 20
41.0161
 30
0.0
 11
132.125
 21
41.614
 31
0.0
  0
LINE
  8
0
 62
     0
 10
132.125
 20
41.614
 30
0.0
 11
118.135
 21
41.614
 31
0.0
  0
LINE
  8
0
 62
     0
 10
137.185
 20
41.614
 30
0.0
 11
137.185
 21
41.0161
 31
0.0
  0
LINE
  8
0
 62
     0
 10
137.185
 20
41.0161
 30
0.0
 11
136.386
 21
41.0161
 31
0.0
  0
LINE
  8
0
 62
     0
 10
136.386
 20
41.0161
 30
0.0
 11
136.386
 21
28.225
 31
0.0
  0
LINE
  8
0
 62
     0
 10
136.386
 20
28.225
 30
0.0
 11
137.185
 21
28.225
 31
0.0
  0
LINE
  8
0
 62
     0
 10
137.185
 20
28.225
 30
0.0
 11
137.185
 21
27.6242
 31
0.0
  0
LINE
  8
0
 62
     0
 10
137.185
 20
27.6242
 30
0.0
 11
151.175
 21
27.6242
 31
0.0
  0
LINE
  8
0
 62
     0
 10
151.175
 20
27.6242
 30
0.0
 11
151.175
 21
28.225
 31
0.0
  0
LINE
  8
0
 62
     0
 10
151.175
 20
28.225
 30
0.0
 11
151.976
 21
28.225
 31
0.0
  0
LINE
  8
0
 62
     0
 10
151.976
 20
28.225
 30
0.0
 11
151.976
 21
41.0161
 31
0.0
  0
LINE
  8
0
 62
     0
 10
151.976
 20
41.0161
 30
0.0
 11
151.175
 21
41.0161
 31
0.0
  0
LINE
  8
0
 62
     0
 10
151.175
 20
41.0161
 30
0.0
 11
151.175
 21
41.614
 31
0.0
  0
LINE
  8
0
 62
     0
 10
151.175
 20
41.614
 30
0.0
 11
137.185
 21
41.614
 31
0.0
  0
LINE
  8
0
 62
     0
 10
156.235
 20
41.614
 30
0.0
 11
156.235
 21
41.0161
 31
0.0
  0
LINE
  8
0
 62
     0
 10
156.235
 20
41.0161
 30
0.0
 11
155.436
 21
41.0161
 31
0.0
  0
LINE
  8
0
 62
     0
 10
155.436
 20
41.0161
 30
0.0
 11
155.436
 21
28.225
 31
0.0
  0
LINE
  8
0
 62
     0
 10
155.436
 20
28.225
 30
0.0
 11
156.235
 21
28.225
 31
0.0
  0
LINE
  8
0
 62
     0
 10
156.235
 20
28.225
 30
0.0
 11
156.235
 21
27.6242
 31
0.0
  0
LINE
  8
0
 62
     0
 10
156.235
 20
27.6242
 30
0.0
 11
170.225
 21
27.6242
 31
0.0
  0
LINE
  8
0
 62
     0
 10
170.225
 20
27.6242
 30
0.0
 11
170.225
 21
28.225
 31
0.0
  0
LINE
  8
0
 62
     0
 10
170.225
 20
28.225
 30
0.0
 11
171.026
 21
28.225
 31
0.0
  0
LINE
  8
0
 62
     0
 10
171.026
 20
28.225
 30
0.0
 11
171.026
 21
41.0161
 31
0.0
  0
LINE
  8
0
 62
     0
 10
171.026
 20
41.0161
 30
0.0
 11
170.225
 21
41.0161
 31
0.0
  0
LINE
  8
0
 62
     0
 10
170.225
 20
41.0161
 30
0.0
 11
170.225
 21
41.614
 31
0.0
  0
LINE
  8
0
 62
     0
 10
170.225
 20
41.614
 30
0.0
 11
156.235
 21
41.614
 31
0.0
  0
LINE
  8
0
 62
     0
 10
175.285
 20
41.614
 30
0.0
 11
175.285
 21
41.0161
 31
0.0
  0
LINE
  8
0
 62
     0
 10
175.285
 20
41.0161
 30
0.0
 11
174.486
 21
41.0161
 31
0.0
  0
LINE
  8
0
 62
     0
 10
174.486
 20
41.0161
 30
0.0
 11
174.486
 21
28.225
 31
0.0
  0
LINE
  8
0
 62
     0
 10
174.486
 20
28.225
 30
0.0
 11
175.285
 21
28.225
 31
0.0
  0
LINE
  8
0
 62
     0
 10
175.285
 20
28.225
 30
0.0
 11
175.285
 21
27.6242
 31
0.0
  0
LINE
  8
0
 62
     0
 10
175.285
 20
27.6242
 30
0.0
 11
189.275
 21
27.6242
 31
0.0
  0
LINE
  8
0
 62
     0
 10
189.275
 20
27.6242
 30
0.0
 11
189.275
 21
28.225
 31
0.0
  0
LINE
  8
0
 62
     0
 10
189.275
 20
28.225
 30
0.0
 11
190.076
 21
28.225
 31
0.0
  0
LINE
  8
0
 62
     0
 10
190.076
 20
28.225
 30
0.0
 11
190.076
 21
41.0161
 31
0.0
  0
LINE
  8
0
 62
     0
 10
190.076
 20
41.0161
 30
0.0
 11
189.275
 21
41.0161
 31
0.0
  0
LINE
  8
0
 62
     0
 10
189.275
 20
41.0161
 30
0.0
 11
189.275
 21
41.614
 31
0.0
  0
LINE
  8
0
 62
     0
 10
189.275
 20
41.614
 30
0.0
 11
175.285
 21
41.614
 31
0.0
  0
LINE
  8
0
 62
     0
 10
194.335
 20
41.614
 30
0.0
 11
194.335
 21
41.0161
 31
0.0
  0
LINE
  8
0
 62
     0
 10
194.335
 20
41.0161
 30
0.0
 11
193.536
 21
41.0161
 31
0.0
  0
LINE
  8
0
 62
     0
 10
193.536
 20
41.0161
 30
0.0
 11
193.536
 21
28.225
 31
0.0
  0
LINE
  8
0
 62
     0
 10
193.536
 20
28.225
 30
0.0
 11
194.335
 21
28.225
 31
0.0
  0
LINE
  8
0
 62
     0
 10
194.335
 20
28.225
 30
0.0
 11
194.335
 21
27.6242
 31
0.0
  0
LINE
  8
0
 62
     0
 10
194.335
 20
27.6242
 30
0.0
 11
208.325
 21
27.6242
 31
0.0
  0
LINE
  8
0
 62
     0
 10
208.325
 20
27.6242
 30
0.0
 11
208.325
 21
28.225
 31
0.0
  0
LINE
  8
0
 62
     0
 10
208.325
 20
28.225
 30
0.0
 11
209.126
 21
28.225
 31
0.0
  0
LINE
  8
0
 62
     0
 10
209.126
 20
28.225
 30
0.0
 11
209.126
 21
41.0161
 31
0.0
  0
LINE
  8
0
 62
     0
 10
209.126
 20
41.0161
 30
0.0
 11
208.325
 21
41.0161
 31
0.0
  0
LINE
  8
0
 62
     0
 10
208.325
 20
41.0161
 30
0.0
 11
208.325
 21
41.614
 31
0.0
  0
LINE
  8
0
 62
     0
 10
208.325
 20
41.614
 30
0.0
 11
194.335
 21
41.614
 31
0.0
  0
LINE
  8
0
 62
     0
 10
218.149
 20
41.614
 30
0.0
 11
218.149
 21
41.0161
 31
0.0
  0
LINE
  8
0
 62
     0
 10
218.149
 20
41.0161
 30
0.0
 11
217.348
 21
41.0161
 31
0.0
  0
LINE
  8
0
 62
     0
 10
217.348
 20
41.0161
 30
0.0
 11
217.348
 21
28.225
 31
0.0
  0
LINE
  8
0
 62
     0
 10
217.348
 20
28.225
 30
0.0
 11
218.149
 21
28.225
 31
0.0
  0
LINE
  8
0
 62
     0
 10
218.149
 20
28.225
 30
0.0
 11
218.149
 21
27.6242
 31
0.0
  0
LINE
  8
0
 62
     0
 10
218.149
 20
27.6242
 30
0.0
 11
232.139
 21
27.6242
 31
0.0
  0
LINE
  8
0
 62
     0
 10
232.139
 20
27.6242
 30
0.0
 11
232.139
 21
28.225
 31
0.0
  0
LINE
  8
0
 62
     0
 10
232.139
 20
28.225
 30
0.0
 11
232.938
 21
28.225
 31
0.0
  0
LINE
  8
0
 62
     0
 10
232.938
 20
28.225
 30
0.0
 11
232.938
 21
41.0161
 31
0.0
  0
LINE
  8
0
 62
     0
 10
232.938
 20
41.0161
 30
0.0
 11
232.139
 21
41.0161
 31
0.0
  0
LINE
  8
0
 62
     0
 10
232.139
 20
41.0161
 30
0.0
 11
232.139
 21
41.614
 31
0.0
  0
LINE
  8
0
 62
     0
 10
232.139
 20
41.614
 30
0.0
 11
218.149
 21
41.614
 31
0.0
  0
LINE
  8
0
 62
     0
 10
10.9788
 20
60.664
 30
0.0
 11
10.9788
 21
60.0661
 31
0.0
  0
LINE
  8
0
 62
     0
 10
10.9788
 20
60.0661
 30
0.0
 11
10.1796
 21
60.0661
 31
0.0
  0
LINE
  8
0
 62
     0
 10
10.1796
 20
60.0661
 30
0.0
 11
10.1796
 21
47.275
 31
0.0
  0
LINE
  8
0
 62
     0
 10
10.1796
 20
47.275
 30
0.0
 11
10.9788
 21
47.275
 31
0.0
  0
LINE
  8
0
 62
     0
 10
10.9788
 20
47.275
 30
0.0
 11
10.9788
 21
46.6757
 31
0.0
  0
LINE
  8
0
 62
     0
 10
10.9788
 20
46.6757
 30
0.0
 11
24.9701
 21
46.6757
 31
0.0
  0
LINE
  8
0
 62
     0
 10
24.9701
 20
46.6757
 30
0.0
 11
24.9701
 21
47.275
 31
0.0
  0
LINE
  8
0
 62
     0
 10
24.9701
 20
47.275
 30
0.0
 11
25.7693
 21
47.275
 31
0.0
  0
LINE
  8
0
 62
     0
 10
25.7693
 20
47.275
 30
0.0
 11
25.7693
 21
60.0661
 31
0.0
  0
LINE
  8
0
 62
     0
 10
25.7693
 20
60.0661
 30
0.0
 11
24.9701
 21
60.0661
 31
0.0
  0
LINE
  8
0
 62
     0
 10
24.9701
 20
60.0661
 30
0.0
 11
24.9701
 21
60.664
 31
0.0
  0
LINE
  8
0
 62
     0
 10
24.9701
 20
60.664
 30
0.0
 11
10.9788
 21
60.664
 31
0.0
  0
LINE
  8
0
 62
     0
 10
32.4101
 20
60.664
 30
0.0
 11
32.4101
 21
60.0661
 31
0.0
  0
LINE
  8
0
 62
     0
 10
32.4101
 20
60.0661
 30
0.0
 11
31.6108
 21
60.0661
 31
0.0
  0
LINE
  8
0
 62
     0
 10
31.6108
 20
60.0661
 30
0.0
 11
31.6108
 21
47.275
 31
0.0
  0
LINE
  8
0
 62
     0
 10
31.6108
 20
47.275
 30
0.0
 11
32.4101
 21
47.275
 31
0.0
  0
LINE
  8
0
 62
     0
 10
32.4101
 20
47.275
 30
0.0
 11
32.4101
 21
46.6757
 31
0.0
  0
LINE
  8
0
 62
     0
 10
32.4101
 20
46.6757
 30
0.0
 11
46.3998
 21
46.6757
 31
0.0
  0
LINE
  8
0
 62
     0
 10
46.3998
 20
46.6757
 30
0.0
 11
46.3998
 21
47.275
 31
0.0
  0
LINE
  8
0
 62
     0
 10
46.3998
 20
47.275
 30
0.0
 11
47.2006
 21
47.275
 31
0.0
  0
LINE
  8
0
 62
     0
 10
47.2006
 20
47.275
 30
0.0
 11
47.2006
 21
60.0661
 31
0.0
  0
LINE
  8
0
 62
     0
 10
47.2006
 20
60.0661
 30
0.0
 11
46.3998
 21
60.0661
 31
0.0
  0
LINE
  8
0
 62
     0
 10
46.3998
 20
60.0661
 30
0.0
 11
46.3998
 21
60.664
 31
0.0
  0
LINE
  8
0
 62
     0
 10
46.3998
 20
60.664
 30
0.0
 11
32.4101
 21
60.664
 31
0.0
  0
LINE
  8
0
 62
     0
 10
51.46
 20
60.664
 30
0.0
 11
51.46
 21
60.0661
 31
0.0
  0
LINE
  8
0
 62
     0
 10
51.46
 20
60.0661
 30
0.0
 11
50.6607
 21
60.0661
 31
0.0
  0
LINE
  8
0
 62
     0
 10
50.6607
 20
60.0661
 30
0.0
 11
50.6607
 21
47.275
 31
0.0
  0
LINE
  8
0
 62
     0
 10
50.6607
 20
47.275
 30
0.0
 11
51.46
 21
47.275
 31
0.0
  0
LINE
  8
0
 62
     0
 10
51.46
 20
47.275
 30
0.0
 11
51.46
 21
46.6757
 31
0.0
  0
LINE
  8
0
 62
     0
 10
51.46
 20
46.6757
 30
0.0
 11
65.4498
 21
46.6757
 31
0.0
  0
LINE
  8
0
 62
     0
 10
65.4498
 20
46.6757
 30
0.0
 11
65.4498
 21
47.275
 31
0.0
  0
LINE
  8
0
 62
     0
 10
65.4498
 20
47.275
 30
0.0
 11
66.2506
 21
47.275
 31
0.0
  0
LINE
  8
0
 62
     0
 10
66.2506
 20
47.275
 30
0.0
 11
66.2506
 21
60.0661
 31
0.0
  0
LINE
  8
0
 62
     0
 10
66.2506
 20
60.0661
 30
0.0
 11
65.4498
 21
60.0661
 31
0.0
  0
LINE
  8
0
 62
     0
 10
65.4498
 20
60.0661
 30
0.0
 11
65.4498
 21
60.664
 31
0.0
  0
LINE
  8
0
 62
     0
 10
65.4498
 20
60.664
 30
0.0
 11
51.46
 21
60.664
 31
0.0
  0
LINE
  8
0
 62
     0
 10
70.51
 20
60.664
 30
0.0
 11
70.51
 21
60.0661
 31
0.0
  0
LINE
  8
0
 62
     0
 10
70.51
 20
60.0661
 30
0.0
 11
69.7107
 21
60.0661
 31
0.0
  0
LINE
  8
0
 62
     0
 10
69.7107
 20
60.0661
 30
0.0
 11
69.7107
 21
47.275
 31
0.0
  0
LINE
  8
0
 62
     0
 10
69.7107
 20
47.275
 30
0.0
 11
70.51
 21
47.275
 31
0.0
  0
LINE
  8
0
 62
     0
 10
70.51
 20
47.275
 30
0.0
 11
70.51
 21
46.6757
 31
0.0
  0
LINE
  8
0
 62
     0
 10
70.51
 20
46.6757
 30
0.0
 11
84.4998
 21
46.6757
 31
0.0
  0
LINE
  8
0
 62
     0
 10
84.4998
 20
46.6757
 30
0.0
 11
84.4998
 21
47.275
 31
0.0
  0
LINE
  8
0
 62
     0
 10
84.4998
 20
47.275
 30
0.0
 11
85.3006
 21
47.275
 31
0.0
  0
LINE
  8
0
 62
     0
 10
85.3006
 20
47.275
 30
0.0
 11
85.3006
 21
60.0661
 31
0.0
  0
LINE
  8
0
 62
     0
 10
85.3006
 20
60.0661
 30
0.0
 11
84.4998
 21
60.0661
 31
0.0
  0
LINE
  8
0
 62
     0
 10
84.4998
 20
60.0661
 30
0.0
 11
84.4998
 21
60.664
 31
0.0
  0
LINE
  8
0
 62
     0
 10
84.4998
 20
60.664
 30
0.0
 11
70.51
 21
60.664
 31
0.0
  0
LINE
  8
0
 62
     0
 10
89.56
 20
60.664
 30
0.0
 11
89.56
 21
60.0661
 31
0.0
  0
LINE
  8
0
 62
     0
 10
89.56
 20
60.0661
 30
0.0
 11
88.7607
 21
60.0661
 31
0.0
  0
LINE
  8
0
 62
     0
 10
88.7607
 20
60.0661
 30
0.0
 11
88.7607
 21
47.275
 31
0.0
  0
LINE
  8
0
 62
     0
 10
88.7607
 20
47.275
 30
0.0
 11
89.56
 21
47.275
 31
0.0
  0
LINE
  8
0
 62
     0
 10
89.56
 20
47.275
 30
0.0
 11
89.56
 21
46.6757
 31
0.0
  0
LINE
  8
0
 62
     0
 10
89.56
 20
46.6757
 30
0.0
 11
103.55
 21
46.6757
 31
0.0
  0
LINE
  8
0
 62
     0
 10
103.55
 20
46.6757
 30
0.0
 11
103.55
 21
47.275
 31
0.0
  0
LINE
  8
0
 62
     0
 10
103.55
 20
47.275
 30
0.0
 11
104.351
 21
47.275
 31
0.0
  0
LINE
  8
0
 62
     0
 10
104.351
 20
47.275
 30
0.0
 11
104.351
 21
60.0661
 31
0.0
  0
LINE
  8
0
 62
     0
 10
104.351
 20
60.0661
 30
0.0
 11
103.55
 21
60.0661
 31
0.0
  0
LINE
  8
0
 62
     0
 10
103.55
 20
60.0661
 30
0.0
 11
103.55
 21
60.664
 31
0.0
  0
LINE
  8
0
 62
     0
 10
103.55
 20
60.664
 30
0.0
 11
89.56
 21
60.664
 31
0.0
  0
LINE
  8
0
 62
     0
 10
108.61
 20
60.664
 30
0.0
 11
108.61
 21
60.0661
 31
0.0
  0
LINE
  8
0
 62
     0
 10
108.61
 20
60.0661
 30
0.0
 11
107.811
 21
60.0661
 31
0.0
  0
LINE
  8
0
 62
     0
 10
107.811
 20
60.0661
 30
0.0
 11
107.811
 21
47.275
 31
0.0
  0
LINE
  8
0
 62
     0
 10
107.811
 20
47.275
 30
0.0
 11
108.61
 21
47.275
 31
0.0
  0
LINE
  8
0
 62
     0
 10
108.61
 20
47.275
 30
0.0
 11
108.61
 21
46.6757
 31
0.0
  0
LINE
  8
0
 62
     0
 10
108.61
 20
46.6757
 30
0.0
 11
122.6
 21
46.6757
 31
0.0
  0
LINE
  8
0
 62
     0
 10
122.6
 20
46.6757
 30
0.0
 11
122.6
 21
47.275
 31
0.0
  0
LINE
  8
0
 62
     0
 10
122.6
 20
47.275
 30
0.0
 11
123.399
 21
47.275
 31
0.0
  0
LINE
  8
0
 62
     0
 10
123.399
 20
47.275
 30
0.0
 11
123.399
 21
60.0661
 31
0.0
  0
LINE
  8
0
 62
     0
 10
123.399
 20
60.0661
 30
0.0
 11
122.6
 21
60.0661
 31
0.0
  0
LINE
  8
0
 62
     0
 10
122.6
 20
60.0661
 30
0.0
 11
122.6
 21
60.664
 31
0.0
  0
LINE
  8
0
 62
     0
 10
122.6
 20
60.664
 30
0.0
 11
108.61
 21
60.664
 31
0.0
  0
LINE
  8
0
 62
     0
 10
127.66
 20
60.664
 30
0.0
 11
127.66
 21
60.0661
 31
0.0
  0
LINE
  8
0
 62
     0
 10
127.66
 20
60.0661
 30
0.0
 11
126.861
 21
60.0661
 31
0.0
  0
LINE
  8
0
 62
     0
 10
126.861
 20
60.0661
 30
0.0
 11
126.861
 21
47.275
 31
0.0
  0
LINE
  8
0
 62
     0
 10
126.861
 20
47.275
 30
0.0
 11
127.66
 21
47.275
 31
0.0
  0
LINE
  8
0
 62
     0
 10
127.66
 20
47.275
 30
0.0
 11
127.66
 21
46.6757
 31
0.0
  0
LINE
  8
0
 62
     0
 10
127.66
 20
46.6757
 30
0.0
 11
141.65
 21
46.6757
 31
0.0
  0
LINE
  8
0
 62
     0
 10
141.65
 20
46.6757
 30
0.0
 11
141.65
 21
47.275
 31
0.0
  0
LINE
  8
0
 62
     0
 10
141.65
 20
47.275
 30
0.0
 11
142.451
 21
47.275
 31
0.0
  0
LINE
  8
0
 62
     0
 10
142.451
 20
47.275
 30
0.0
 11
142.451
 21
60.0661
 31
0.0
  0
LINE
  8
0
 62
     0
 10
142.451
 20
60.0661
 30
0.0
 11
141.65
 21
60.0661
 31
0.0
  0
LINE
  8
0
 62
     0
 10
141.65
 20
60.0661
 30
0.0
 11
141.65
 21
60.664
 31
0.0
  0
LINE
  8
0
 62
     0
 10
141.65
 20
60.664
 30
0.0
 11
127.66
 21
60.664
 31
0.0
  0
LINE
  8
0
 62
     0
 10
146.71
 20
60.664
 30
0.0
 11
146.71
 21
60.0661
 31
0.0
  0
LINE
  8
0
 62
     0
 10
146.71
 20
60.0661
 30
0.0
 11
145.911
 21
60.0661
 31
0.0
  0
LINE
  8
0
 62
     0
 10
145.911
 20
60.0661
 30
0.0
 11
145.911
 21
47.275
 31
0.0
  0
LINE
  8
0
 62
     0
 10
145.911
 20
47.275
 30
0.0
 11
146.71
 21
47.275
 31
0.0
  0
LINE
  8
0
 62
     0
 10
146.71
 20
47.275
 30
0.0
 11
146.71
 21
46.6757
 31
0.0
  0
LINE
  8
0
 62
     0
 10
146.71
 20
46.6757
 30
0.0
 11
160.7
 21
46.6757
 31
0.0
  0
LINE
  8
0
 62
     0
 10
160.7
 20
46.6757
 30
0.0
 11
160.7
 21
47.275
 31
0.0
  0
LINE
  8
0
 62
     0
 10
160.7
 20
47.275
 30
0.0
 11
161.501
 21
47.275
 31
0.0
  0
LINE
  8
0
 62
     0
 10
161.501
 20
47.275
 30
0.0
 11
161.501
 21
60.0661
 31
0.0
  0
LINE
  8
0
 62
     0
 10
161.501
 20
60.0661
 30
0.0
 11
160.7
 21
60.0661
 31
0.0
  0
LINE
  8
0
 62
     0
 10
160.7
 20
60.0661
 30
0.0
 11
160.7
 21
60.664
 31
0.0
  0
LINE
  8
0
 62
     0
 10
160.7
 20
60.664
 30
0.0
 11
146.71
 21
60.664
 31
0.0
  0
LINE
  8
0
 62
     0
 10
165.76
 20
60.664
 30
0.0
 11
165.76
 21
60.0661
 31
0.0
  0
LINE
  8
0
 62
     0
 10
165.76
 20
60.0661
 30
0.0
 11
164.961
 21
60.0661
 31
0.0
  0
LINE
  8
0
 62
     0
 10
164.961
 20
60.0661
 30
0.0
 11
164.961
 21
47.275
 31
0.0
  0
LINE
  8
0
 62
     0
 10
164.961
 20
47.275
 30
0.0
 11
165.76
 21
47.275
 31
0.0
  0
LINE
  8
0
 62
     0
 10
165.76
 20
47.275
 30
0.0
 11
165.76
 21
46.6757
 31
0.0
  0
LINE
  8
0
 62
     0
 10
165.76
 20
46.6757
 30
0.0
 11
179.75
 21
46.6757
 31
0.0
  0
LINE
  8
0
 62
     0
 10
179.75
 20
46.6757
 30
0.0
 11
179.75
 21
47.275
 31
0.0
  0
LINE
  8
0
 62
     0
 10
179.75
 20
47.275
 30
0.0
 11
180.551
 21
47.275
 31
0.0
  0
LINE
  8
0
 62
     0
 10
180.551
 20
47.275
 30
0.0
 11
180.551
 21
60.0661
 31
0.0
  0
LINE
  8
0
 62
     0
 10
180.551
 20
60.0661
 30
0.0
 11
179.75
 21
60.0661
 31
0.0
  0
LINE
  8
0
 62
     0
 10
179.75
 20
60.0661
 30
0.0
 11
179.75
 21
60.664
 31
0.0
  0
LINE
  8
0
 62
     0
 10
179.75
 20
60.664
 30
0.0
 11
165.76
 21
60.664
 31
0.0
  0
LINE
  8
0
 62
     0
 10
184.81
 20
60.664
 30
0.0
 11
184.81
 21
60.0661
 31
0.0
  0
LINE
  8
0
 62
     0
 10
184.81
 20
60.0661
 30
0.0
 11
184.011
 21
60.0661
 31
0.0
  0
LINE
  8
0
 62
     0
 10
184.011
 20
60.0661
 30
0.0
 11
184.011
 21
47.275
 31
0.0
  0
LINE
  8
0
 62
     0
 10
184.011
 20
47.275
 30
0.0
 11
184.81
 21
47.275
 31
0.0
  0
LINE
  8
0
 62
     0
 10
184.81
 20
47.275
 30
0.0
 11
184.81
 21
46.6757
 31
0.0
  0
LINE
  8
0
 62
     0
 10
184.81
 20
46.6757
 30
0.0
 11
198.8
 21
46.6757
 31
0.0
  0
LINE
  8
0
 62
     0
 10
198.8
 20
46.6757
 30
0.0
 11
198.8
 21
47.275
 31
0.0
  0
LINE
  8
0
 62
     0
 10
198.8
 20
47.275
 30
0.0
 11
199.601
 21
47.275
 31
0.0
  0
LINE
  8
0
 62
     0
 10
199.601
 20
47.275
 30
0.0
 11
199.601
 21
60.0661
 31
0.0
  0
LINE
  8
0
 62
     0
 10
199.601
 20
60.0661
 30
0.0
 11
198.8
 21
60.0661
 31
0.0
  0
LINE
  8
0
 62
     0
 10
198.8
 20
60.0661
 30
0.0
 11
198.8
 21
60.664
 31
0.0
  0
LINE
  8
0
 62
     0
 10
198.8
 20
60.664
 30
0.0
 11
184.81
 21
60.664
 31
0.0
  0
LINE
  8
0
 62
     0
 10
203.86
 20
60.664
 30
0.0
 11
203.86
 21
60.0661
 31
0.0
  0
LINE
  8
0
 62
     0
 10
203.86
 20
60.0661
 30
0.0
 11
203.061
 21
60.0661
 31
0.0
  0
LINE
  8
0
 62
     0
 10
203.061
 20
60.0661
 30
0.0
 11
203.061
 21
47.275
 31
0.0
  0
LINE
  8
0
 62
     0
 10
203.061
 20
47.275
 30
0.0
 11
203.86
 21
47.275
 31
0.0
  0
LINE
  8
0
 62
     0
 10
203.86
 20
47.275
 30
0.0
 11
203.86
 21
46.6757
 31
0.0
  0
LINE
  8
0
 62
     0
 10
203.86
 20
46.6757
 30
0.0
 11
217.85
 21
46.6757
 31
0.0
  0
LINE
  8
0
 62
     0
 10
217.85
 20
46.6757
 30
0.0
 11
217.85
 21
47.275
 31
0.0
  0
LINE
  8
0
 62
     0
 10
217.85
 20
47.275
 30
0.0
 11
218.651
 21
47.275
 31
0.0
  0
LINE
  8
0
 62
     0
 10
218.651
 20
47.275
 30
0.0
 11
218.651
 21
60.0661
 31
0.0
  0
LINE
  8
0
 62
     0
 10
218.651
 20
60.0661
 30
0.0
 11
217.85
 21
60.0661
 31
0.0
  0
LINE
  8
0
 62
     0
 10
217.85
 20
60.0661
 30
0.0
 11
217.85
 21
60.664
 31
0.0
  0
LINE
  8
0
 62
     0
 10
217.85
 20
60.664
 30
0.0
 11
203.86
 21
60.664
 31
0.0
  0
LINE
  8
0
 62
     0
 10
222.91
 20
60.664
 30
0.0
 11
222.91
 21
60.0661
 31
0.0
  0
LINE
  8
0
 62
     0
 10
222.91
 20
60.0661
 30
0.0
 11
222.111
 21
60.0661
 31
0.0
  0
LINE
  8
0
 62
     0
 10
222.111
 20
60.0661
 30
0.0
 11
222.111
 21
47.275
 31
0.0
  0
LINE
  8
0
 62
     0
 10
222.111
 20
47.275
 30
0.0
 11
222.91
 21
47.275
 31
0.0
  0
LINE
  8
0
 62
     0
 10
222.91
 20
47.275
 30
0.0
 11
222.91
 21
46.6757
 31
0.0
  0
LINE
  8
0
 62
     0
 10
222.91
 20
46.6757
 30
0.0
 11
236.9
 21
46.6757
 31
0.0
  0
LINE
  8
0
 62
     0
 10
236.9
 20
46.6757
 30
0.0
 11
236.9
 21
47.275
 31
0.0
  0
LINE
  8
0
 62
     0
 10
236.9
 20
47.275
 30
0.0
 11
237.701
 21
47.275
 31
0.0
  0
LINE
  8
0
 62
     0
 10
237.701
 20
47.275
 30
0.0
 11
237.701
 21
60.0661
 31
0.0
  0
LINE
  8
0
 62
     0
 10
237.701
 20
60.0661
 30
0.0
 11
236.9
 21
60.0661
 31
0.0
  0
LINE
  8
0
 62
     0
 10
236.9
 20
60.0661
 30
0.0
 11
236.9
 21
60.664
 31
0.0
  0
LINE
  8
0
 62
     0
 10
236.9
 20
60.664
 30
0.0
 11
222.91
 21
60.664
 31
0.0
  0
LINE
  8
0
 62
     0
 10
8.59896
 20
79.714
 30
0.0
 11
8.59896
 21
79.1146
 31
0.0
  0
LINE
  8
0
 62
     0
 10
8.59896
 20
79.1146
 30
0.0
 11
7.79833
 21
79.1146
 31
0.0
  0
LINE
  8
0
 62
     0
 10
7.79833
 20
79.1146
 30
0.0
 11
7.79833
 21
66.325
 31
0.0
  0
LINE
  8
0
 62
     0
 10
7.79833
 20
66.325
 30
0.0
 11
8.59896
 21
66.325
 31
0.0
  0
LINE
  8
0
 62
     0
 10
8.59896
 20
66.325
 30
0.0
 11
8.59896
 21
65.7243
 31
0.0
  0
LINE
  8
0
 62
     0
 10
8.59896
 20
65.7243
 30
0.0
 11
22.5888
 21
65.7243
 31
0.0
  0
LINE
  8
0
 62
     0
 10
22.5888
 20
65.7243
 30
0.0
 11
22.5888
 21
66.325
 31
0.0
  0
LINE
  8
0
 62
     0
 10
22.5888
 20
66.325
 30
0.0
 11
23.3881
 21
66.325
 31
0.0
  0
LINE
  8
0
 62
     0
 10
23.3881
 20
66.325
 30
0.0
 11
23.3881
 21
79.1146
 31
0.0
  0
LINE
  8
0
 62
     0
 10
23.3881
 20
79.1146
 30
0.0
 11
22.5888
 21
79.1146
 31
0.0
  0
LINE
  8
0
 62
     0
 10
22.5888
 20
79.1146
 30
0.0
 11
22.5888
 21
79.714
 31
0.0
  0
LINE
  8
0
 62
     0
 10
22.5888
 20
79.714
 30
0.0
 11
8.59896
 21
79.714
 31
0.0
  0
LINE
  8
0
 62
     0
 10
27.649
 20
79.714
 30
0.0
 11
27.649
 21
79.1146
 31
0.0
  0
LINE
  8
0
 62
     0
 10
27.649
 20
79.1146
 30
0.0
 11
26.847
 21
79.1146
 31
0.0
  0
LINE
  8
0
 62
     0
 10
26.847
 20
79.1146
 30
0.0
 11
26.847
 21
66.325
 31
0.0
  0
LINE
  8
0
 62
     0
 10
26.847
 20
66.325
 30
0.0
 11
27.649
 21
66.325
 31
0.0
  0
LINE
  8
0
 62
     0
 10
27.649
 20
66.325
 30
0.0
 11
27.649
 21
65.7243
 31
0.0
  0
LINE
  8
0
 62
     0
 10
27.649
 20
65.7243
 30
0.0
 11
41.6373
 21
65.7243
 31
0.0
  0
LINE
  8
0
 62
     0
 10
41.6373
 20
65.7243
 30
0.0
 11
41.6373
 21
66.325
 31
0.0
  0
LINE
  8
0
 62
     0
 10
41.6373
 20
66.325
 30
0.0
 11
42.4381
 21
66.325
 31
0.0
  0
LINE
  8
0
 62
     0
 10
42.4381
 20
66.325
 30
0.0
 11
42.4381
 21
79.1146
 31
0.0
  0
LINE
  8
0
 62
     0
 10
42.4381
 20
79.1146
 30
0.0
 11
41.6373
 21
79.1146
 31
0.0
  0
LINE
  8
0
 62
     0
 10
41.6373
 20
79.1146
 30
0.0
 11
41.6373
 21
79.714
 31
0.0
  0
LINE
  8
0
 62
     0
 10
41.6373
 20
79.714
 30
0.0
 11
27.649
 21
79.714
 31
0.0
  0
LINE
  8
0
 62
     0
 10
46.699
 20
79.714
 30
0.0
 11
46.699
 21
79.1146
 31
0.0
  0
LINE
  8
0
 62
     0
 10
46.699
 20
79.1146
 30
0.0
 11
45.8971
 21
79.1146
 31
0.0
  0
LINE
  8
0
 62
     0
 10
45.8971
 20
79.1146
 30
0.0
 11
45.8971
 21
66.325
 31
0.0
  0
LINE
  8
0
 62
     0
 10
45.8971
 20
66.325
 30
0.0
 11
46.699
 21
66.325
 31
0.0
  0
LINE
  8
0
 62
     0
 10
46.699
 20
66.325
 30
0.0
 11
46.699
 21
65.7243
 31
0.0
  0
LINE
  8
0
 62
     0
 10
46.699
 20
65.7243
 30
0.0
 11
60.6887
 21
65.7243
 31
0.0
  0
LINE
  8
0
 62
     0
 10
60.6887
 20
65.7243
 30
0.0
 11
60.6887
 21
66.325
 31
0.0
  0
LINE
  8
0
 62
     0
 10
60.6887
 20
66.325
 30
0.0
 11
61.4881
 21
66.325
 31
0.0
  0
LINE
  8
0
 62
     0
 10
61.4881
 20
66.325
 30
0.0
 11
61.4881
 21
79.1146
 31
0.0
  0
LINE
  8
0
 62
     0
 10
61.4881
 20
79.1146
 30
0.0
 11
60.6887
 21
79.1146
 31
0.0
  0
LINE
  8
0
 62
     0
 10
60.6887
 20
79.1146
 30
0.0
 11
60.6887
 21
79.714
 31
0.0
  0
LINE
  8
0
 62
     0
 10
60.6887
 20
79.714
 30
0.0
 11
46.699
 21
79.714
 31
0.0
  0
LINE
  8
0
 62
     0
 10
65.7475
 20
79.714
 30
0.0
 11
65.7475
 21
79.1146
 31
0.0
  0
LINE
  8
0
 62
     0
 10
65.7475
 20
79.1146
 30
0.0
 11
64.9471
 21
79.1146
 31
0.0
  0
LINE
  8
0
 62
     0
 10
64.9471
 20
79.1146
 30
0.0
 11
64.9471
 21
66.325
 31
0.0
  0
LINE
  8
0
 62
     0
 10
64.9471
 20
66.325
 30
0.0
 11
65.7475
 21
66.325
 31
0.0
  0
LINE
  8
0
 62
     0
 10
65.7475
 20
66.325
 30
0.0
 11
65.7475
 21
65.7243
 31
0.0
  0
LINE
  8
0
 62
     0
 10
65.7475
 20
65.7243
 30
0.0
 11
79.7387
 21
65.7243
 31
0.0
  0
LINE
  8
0
 62
     0
 10
79.7387
 20
65.7243
 30
0.0
 11
79.7387
 21
66.325
 31
0.0
  0
LINE
  8
0
 62
     0
 10
79.7387
 20
66.325
 30
0.0
 11
80.5381
 21
66.325
 31
0.0
  0
LINE
  8
0
 62
     0
 10
80.5381
 20
66.325
 30
0.0
 11
80.5381
 21
79.1146
 31
0.0
  0
LINE
  8
0
 62
     0
 10
80.5381
 20
79.1146
 30
0.0
 11
79.7387
 21
79.1146
 31
0.0
  0
LINE
  8
0
 62
     0
 10
79.7387
 20
79.1146
 30
0.0
 11
79.7387
 21
79.714
 31
0.0
  0
LINE
  8
0
 62
     0
 10
79.7387
 20
79.714
 30
0.0
 11
65.7475
 21
79.714
 31
0.0
  0
LINE
  8
0
 62
     0
 10
84.7975
 20
79.714
 30
0.0
 11
84.7975
 21
79.1146
 31
0.0
  0
LINE
  8
0
 62
     0
 10
84.7975
 20
79.1146
 30
0.0
 11
83.9971
 21
79.1146
 31
0.0
  0
LINE
  8
0
 62
     0
 10
83.9971
 20
79.1146
 30
0.0
 11
83.9971
 21
66.325
 31
0.0
  0
LINE
  8
0
 62
     0
 10
83.9971
 20
66.325
 30
0.0
 11
84.7975
 21
66.325
 31
0.0
  0
LINE
  8
0
 62
     0
 10
84.7975
 20
66.325
 30
0.0
 11
84.7975
 21
65.7243
 31
0.0
  0
LINE
  8
0
 62
     0
 10
84.7975
 20
65.7243
 30
0.0
 11
98.7887
 21
65.7243
 31
0.0
  0
LINE
  8
0
 62
     0
 10
98.7887
 20
65.7243
 30
0.0
 11
98.7887
 21
66.325
 31
0.0
  0
LINE
  8
0
 62
     0
 10
98.7887
 20
66.325
 30
0.0
 11
99.5881
 21
66.325
 31
0.0
  0
LINE
  8
0
 62
     0
 10
99.5881
 20
66.325
 30
0.0
 11
99.5881
 21
79.1146
 31
0.0
  0
LINE
  8
0
 62
     0
 10
99.5881
 20
79.1146
 30
0.0
 11
98.7887
 21
79.1146
 31
0.0
  0
LINE
  8
0
 62
     0
 10
98.7887
 20
79.1146
 30
0.0
 11
98.7887
 21
79.714
 31
0.0
  0
LINE
  8
0
 62
     0
 10
98.7887
 20
79.714
 30
0.0
 11
84.7975
 21
79.714
 31
0.0
  0
LINE
  8
0
 62
     0
 10
103.848
 20
79.714
 30
0.0
 11
103.848
 21
79.1146
 31
0.0
  0
LINE
  8
0
 62
     0
 10
103.848
 20
79.1146
 30
0.0
 11
103.047
 21
79.1146
 31
0.0
  0
LINE
  8
0
 62
     0
 10
103.047
 20
79.1146
 30
0.0
 11
103.047
 21
66.325
 31
0.0
  0
LINE
  8
0
 62
     0
 10
103.047
 20
66.325
 30
0.0
 11
103.848
 21
66.325
 31
0.0
  0
LINE
  8
0
 62
     0
 10
103.848
 20
66.325
 30
0.0
 11
103.848
 21
65.7243
 31
0.0
  0
LINE
  8
0
 62
     0
 10
103.848
 20
65.7243
 30
0.0
 11
117.837
 21
65.7243
 31
0.0
  0
LINE
  8
0
 62
     0
 10
117.837
 20
65.7243
 30
0.0
 11
117.837
 21
66.325
 31
0.0
  0
LINE
  8
0
 62
     0
 10
117.837
 20
66.325
 30
0.0
 11
118.638
 21
66.325
 31
0.0
  0
LINE
  8
0
 62
     0
 10
118.638
 20
66.325
 30
0.0
 11
118.638
 21
79.1146
 31
0.0
  0
LINE
  8
0
 62
     0
 10
118.638
 20
79.1146
 30
0.0
 11
117.837
 21
79.1146
 31
0.0
  0
LINE
  8
0
 62
     0
 10
117.837
 20
79.1146
 30
0.0
 11
117.837
 21
79.714
 31
0.0
  0
LINE
  8
0
 62
     0
 10
117.837
 20
79.714
 30
0.0
 11
103.848
 21
79.714
 31
0.0
  0
LINE
  8
0
 62
     0
 10
122.898
 20
79.714
 30
0.0
 11
122.898
 21
79.1146
 31
0.0
  0
LINE
  8
0
 62
     0
 10
122.898
 20
79.1146
 30
0.0
 11
122.097
 21
79.1146
 31
0.0
  0
LINE
  8
0
 62
     0
 10
122.097
 20
79.1146
 30
0.0
 11
122.097
 21
66.325
 31
0.0
  0
LINE
  8
0
 62
     0
 10
122.097
 20
66.325
 30
0.0
 11
122.898
 21
66.325
 31
0.0
  0
LINE
  8
0
 62
     0
 10
122.898
 20
66.325
 30
0.0
 11
122.898
 21
65.7243
 31
0.0
  0
LINE
  8
0
 62
     0
 10
122.898
 20
65.7243
 30
0.0
 11
136.889
 21
65.7243
 31
0.0
  0
LINE
  8
0
 62
     0
 10
136.889
 20
65.7243
 30
0.0
 11
136.889
 21
66.325
 31
0.0
  0
LINE
  8
0
 62
     0
 10
136.889
 20
66.325
 30
0.0
 11
137.688
 21
66.325
 31
0.0
  0
LINE
  8
0
 62
     0
 10
137.688
 20
66.325
 30
0.0
 11
137.688
 21
79.1146
 31
0.0
  0
LINE
  8
0
 62
     0
 10
137.688
 20
79.1146
 30
0.0
 11
136.889
 21
79.1146
 31
0.0
  0
LINE
  8
0
 62
     0
 10
136.889
 20
79.1146
 30
0.0
 11
136.889
 21
79.714
 31
0.0
  0
LINE
  8
0
 62
     0
 10
136.889
 20
79.714
 30
0.0
 11
122.898
 21
79.714
 31
0.0
  0
LINE
  8
0
 62
     0
 10
141.949
 20
79.714
 30
0.0
 11
141.949
 21
79.1146
 31
0.0
  0
LINE
  8
0
 62
     0
 10
141.949
 20
79.1146
 30
0.0
 11
141.148
 21
79.1146
 31
0.0
  0
LINE
  8
0
 62
     0
 10
141.148
 20
79.1146
 30
0.0
 11
141.148
 21
66.325
 31
0.0
  0
LINE
  8
0
 62
     0
 10
141.148
 20
66.325
 30
0.0
 11
141.949
 21
66.325
 31
0.0
  0
LINE
  8
0
 62
     0
 10
141.949
 20
66.325
 30
0.0
 11
141.949
 21
65.7243
 31
0.0
  0
LINE
  8
0
 62
     0
 10
141.949
 20
65.7243
 30
0.0
 11
155.939
 21
65.7243
 31
0.0
  0
LINE
  8
0
 62
     0
 10
155.939
 20
65.7243
 30
0.0
 11
155.939
 21
66.325
 31
0.0
  0
LINE
  8
0
 62
     0
 10
155.939
 20
66.325
 30
0.0
 11
156.738
 21
66.325
 31
0.0
  0
LINE
  8
0
 62
     0
 10
156.738
 20
66.325
 30
0.0
 11
156.738
 21
79.1146
 31
0.0
  0
LINE
  8
0
 62
     0
 10
156.738
 20
79.1146
 30
0.0
 11
155.939
 21
79.1146
 31
0.0
  0
LINE
  8
0
 62
     0
 10
155.939
 20
79.1146
 30
0.0
 11
155.939
 21
79.714
 31
0.0
  0
LINE
  8
0
 62
     0
 10
155.939
 20
79.714
 30
0.0
 11
141.949
 21
79.714
 31
0.0
  0
LINE
  8
0
 62
     0
 10
160.999
 20
79.714
 30
0.0
 11
160.999
 21
79.1146
 31
0.0
  0
LINE
  8
0
 62
     0
 10
160.999
 20
79.1146
 30
0.0
 11
160.198
 21
79.1146
 31
0.0
  0
LINE
  8
0
 62
     0
 10
160.198
 20
79.1146
 30
0.0
 11
160.198
 21
66.325
 31
0.0
  0
LINE
  8
0
 62
     0
 10
160.198
 20
66.325
 30
0.0
 11
160.999
 21
66.325
 31
0.0
  0
LINE
  8
0
 62
     0
 10
160.999
 20
66.325
 30
0.0
 11
160.999
 21
65.7243
 31
0.0
  0
LINE
  8
0
 62
     0
 10
160.999
 20
65.7243
 30
0.0
 11
174.989
 21
65.7243
 31
0.0
  0
LINE
  8
0
 62
     0
 10
174.989
 20
65.7243
 30
0.0
 11
174.989
 21
66.325
 31
0.0
  0
LINE
  8
0
 62
     0
 10
174.989
 20
66.325
 30
0.0
 11
175.788
 21
66.325
 31
0.0
  0
LINE
  8
0
 62
     0
 10
175.788
 20
66.325
 30
0.0
 11
175.788
 21
79.1146
 31
0.0
  0
LINE
  8
0
 62
     0
 10
175.788
 20
79.1146
 30
0.0
 11
174.989
 21
79.1146
 31
0.0
  0
LINE
  8
0
 62
     0
 10
174.989
 20
79.1146
 30
0.0
 11
174.989
 21
79.714
 31
0.0
  0
LINE
  8
0
 62
     0
 10
174.989
 20
79.714
 30
0.0
 11
160.999
 21
79.714
 31
0.0
  0
LINE
  8
0
 62
     0
 10
180.049
 20
79.714
 30
0.0
 11
180.049
 21
79.1146
 31
0.0
  0
LINE
  8
0
 62
     0
 10
180.049
 20
79.1146
 30
0.0
 11
179.248
 21
79.1146
 31
0.0
  0
LINE
  8
0
 62
     0
 10
179.248
 20
79.1146
 30
0.0
 11
179.248
 21
66.325
 31
0.0
  0
LINE
  8
0
 62
     0
 10
179.248
 20
66.325
 30
0.0
 11
180.049
 21
66.325
 31
0.0
  0
LINE
  8
0
 62
     0
 10
180.049
 20
66.325
 30
0.0
 11
180.049
 21
65.7243
 31
0.0
  0
LINE
  8
0
 62
     0
 10
180.049
 20
65.7243
 30
0.0
 11
194.039
 21
65.7243
 31
0.0
  0
LINE
  8
0
 62
     0
 10
194.039
 20
65.7243
 30
0.0
 11
194.039
 21
66.325
 31
0.0
  0
LINE
  8
0
 62
     0
 10
194.039
 20
66.325
 30
0.0
 11
194.838
 21
66.325
 31
0.0
  0
LINE
  8
0
 62
     0
 10
194.838
 20
66.325
 30
0.0
 11
194.838
 21
79.1146
 31
0.0
  0
LINE
  8
0
 62
     0
 10
194.838
 20
79.1146
 30
0.0
 11
194.039
 21
79.1146
 31
0.0
  0
LINE
  8
0
 62
     0
 10
194.039
 20
79.1146
 30
0.0
 11
194.039
 21
79.714
 31
0.0
  0
LINE
  8
0
 62
     0
 10
194.039
 20
79.714
 30
0.0
 11
180.049
 21
79.714
 31
0.0
  0
LINE
  8
0
 62
     0
 10
199.099
 20
79.714
 30
0.0
 11
199.099
 21
79.1146
 31
0.0
  0
LINE
  8
0
 62
     0
 10
199.099
 20
79.1146
 30
0.0
 11
198.298
 21
79.1146
 31
0.0
  0
LINE
  8
0
 62
     0
 10
198.298
 20
79.1146
 30
0.0
 11
198.298
 21
66.325
 31
0.0
  0
LINE
  8
0
 62
     0
 10
198.298
 20
66.325
 30
0.0
 11
199.099
 21
66.325
 31
0.0
  0
LINE
  8
0
 62
     0
 10
199.099
 20
66.325
 30
0.0
 11
199.099
 21
65.7243
 31
0.0
  0
LINE
  8
0
 62
     0
 10
199.099
 20
65.7243
 30
0.0
 11
213.089
 21
65.7243
 31
0.0
  0
LINE
  8
0
 62
     0
 10
213.089
 20
65.7243
 30
0.0
 11
213.089
 21
66.325
 31
0.0
  0
LINE
  8
0
 62
     0
 10
213.089
 20
66.325
 30
0.0
 11
213.888
 21
66.325
 31
0.0
  0
LINE
  8
0
 62
     0
 10
213.888
 20
66.325
 30
0.0
 11
213.888
 21
79.1146
 31
0.0
  0
LINE
  8
0
 62
     0
 10
213.888
 20
79.1146
 30
0.0
 11
213.089
 21
79.1146
 31
0.0
  0
LINE
  8
0
 62
     0
 10
213.089
 20
79.1146
 30
0.0
 11
213.089
 21
79.714
 31
0.0
  0
LINE
  8
0
 62
     0
 10
213.089
 20
79.714
 30
0.0
 11
199.099
 21
79.714
 31
0.0
  0
LINE
  8
0
 62
     0
 10
220.529
 20
79.714
 30
0.0
 11
220.529
 21
79.1146
 31
0.0
  0
LINE
  8
0
 62
     0
 10
220.529
 20
79.1146
 30
0.0
 11
219.729
 21
79.1146
 31
0.0
  0
LINE
  8
0
 62
     0
 10
219.729
 20
79.1146
 30
0.0
 11
219.729
 21
66.325
 31
0.0
  0
LINE
  8
0
 62
     0
 10
219.729
 20
66.325
 30
0.0
 11
220.529
 21
66.325
 31
0.0
  0
LINE
  8
0
 62
     0
 10
220.529
 20
66.325
 30
0.0
 11
220.529
 21
65.7243
 31
0.0
  0
LINE
  8
0
 62
     0
 10
220.529
 20
65.7243
 30
0.0
 11
234.52
 21
65.7243
 31
0.0
  0
LINE
  8
0
 62
     0
 10
234.52
 20
65.7243
 30
0.0
 11
234.52
 21
66.325
 31
0.0
  0
LINE
  8
0
 62
     0
 10
234.52
 20
66.325
 30
0.0
 11
235.319
 21
66.325
 31
0.0
  0
LINE
  8
0
 62
     0
 10
235.319
 20
66.325
 30
0.0
 11
235.319
 21
79.1146
 31
0.0
  0
LINE
  8
0
 62
     0
 10
235.319
 20
79.1146
 30
0.0
 11
234.52
 21
79.1146
 31
0.0
  0
LINE
  8
0
 62
     0
 10
234.52
 20
79.1146
 30
0.0
 11
234.52
 21
79.714
 31
0.0
  0
LINE
  8
0
 62
     0
 10
234.52
 20
79.714
 30
0.0
 11
220.529
 21
79.714
 31
0.0
  0
LINE
  8
0
 62
     0
 10
82.3627
 20
86.7615
 30
0.0
 11
81.9189
 21
86.5353
 31
0.0
  0
LINE
  8
0
 62
     0
 10
81.9189
 20
86.5353
 30
0.0
 11
81.5661
 21
86.1826
 31
0.0
  0
LINE
  8
0
 62
     0
 10
81.5661
 20
86.1826
 30
0.0
 11
81.3386
 21
85.7373
 31
0.0
  0
LINE
  8
0
 62
     0
 10
81.3386
 20
85.7373
 30
0.0
 11
81.2602
 21
85.2442
 31
0.0
  0
LINE
  8
0
 62
     0
 10
81.2602
 20
85.2442
 30
0.0
 11
81.3386
 21
84.752
 31
0.0
  0
LINE
  8
0
 62
     0
 10
81.3386
 20
84.752
 30
0.0
 11
81.5661
 21
84.3068
 31
0.0
  0
LINE
  8
0
 62
     0
 10
81.5661
 20
84.3068
 30
0.0
 11
81.9189
 21
83.9541
 31
0.0
  0
LINE
  8
0
 62
     0
 10
81.9189
 20
83.9541
 30
0.0
 11
82.3627
 21
83.7283
 31
0.0
  0
LINE
  8
0
 62
     0
 10
82.3627
 20
83.7283
 30
0.0
 11
82.8559
 21
83.6496
 31
0.0
  0
LINE
  8
0
 62
     0
 10
82.8559
 20
83.6496
 30
0.0
 11
83.348
 21
83.7283
 31
0.0
  0
LINE
  8
0
 62
     0
 10
83.348
 20
83.7283
 30
0.0
 11
83.7928
 21
83.9541
 31
0.0
  0
LINE
  8
0
 62
     0
 10
83.7928
 20
83.9541
 30
0.0
 11
84.147
 21
84.3068
 31
0.0
  0
LINE
  8
0
 62
     0
 10
84.147
 20
84.3068
 30
0.0
 11
84.3732
 21
84.752
 31
0.0
  0
LINE
  8
0
 62
     0
 10
84.3732
 20
84.752
 30
0.0
 11
84.4504
 21
85.2442
 31
0.0
  0
LINE
  8
0
 62
     0
 10
84.4504
 20
85.2442
 30
0.0
 11
84.3732
 21
85.7373
 31
0.0
  0
LINE
  8
0
 62
     0
 10
84.3732
 20
85.7373
 30
0.0
 11
84.147
 21
86.1826
 31
0.0
  0
LINE
  8
0
 62
     0
 10
84.147
 20
86.1826
 30
0.0
 11
83.7928
 21
86.5353
 31
0.0
  0
LINE
  8
0
 62
     0
 10
83.7928
 20
86.5353
 30
0.0
 11
83.348
 21
86.7615
 31
0.0
  0
LINE
  8
0
 62
     0
 10
83.348
 20
86.7615
 30
0.0
 11
82.8559
 21
86.8398
 31
0.0
  0
LINE
  8
0
 62
     0
 10
82.8559
 20
86.8398
 30
0.0
 11
82.3627
 21
86.7615
 31
0.0
  0
LINE
  8
0
 62
     0
 10
162.151
 20
86.7615
 30
0.0
 11
161.706
 21
86.5353
 31
0.0
  0
LINE
  8
0
 62
     0
 10
161.706
 20
86.5353
 30
0.0
 11
161.353
 21
86.1826
 31
0.0
  0
LINE
  8
0
 62
     0
 10
161.353
 20
86.1826
 30
0.0
 11
161.127
 21
85.7373
 31
0.0
  0
LINE
  8
0
 62
     0
 10
161.127
 20
85.7373
 30
0.0
 11
161.049
 21
85.2442
 31
0.0
  0
LINE
  8
0
 62
     0
 10
161.049
 20
85.2442
 30
0.0
 11
161.127
 21
84.752
 31
0.0
  0
LINE
  8
0
 62
     0
 10
161.127
 20
84.752
 30
0.0
 11
161.353
 21
84.3068
 31
0.0
  0
LINE
  8
0
 62
     0
 10
161.353
 20
84.3068
 30
0.0
 11
161.706
 21
83.9541
 31
0.0
  0
LINE
  8
0
 62
     0
 10
161.706
 20
83.9541
 30
0.0
 11
162.151
 21
83.7283
 31
0.0
  0
LINE
  8
0
 62
     0
 10
162.151
 20
83.7283
 30
0.0
 11
162.643
 21
83.6496
 31
0.0
  0
LINE
  8
0
 62
     0
 10
162.643
 20
83.6496
 30
0.0
 11
163.136
 21
83.7283
 31
0.0
  0
LINE
  8
0
 62
     0
 10
163.136
 20
83.7283
 30
0.0
 11
163.581
 21
83.9541
 31
0.0
  0
LINE
  8
0
 62
     0
 10
163.581
 20
83.9541
 30
0.0
 11
163.934
 21
84.3068
 31
0.0
  0
LINE
  8
0
 62
     0
 10
163.934
 20
84.3068
 30
0.0
 11
164.16
 21
84.752
 31
0.0
  0
LINE
  8
0
 62
     0
 10
164.16
 20
84.752
 30
0.0
 11
164.239
 21
85.2442
 31
0.0
  0
LINE
  8
0
 62
     0
 10
164.239
 20
85.2442
 30
0.0
 11
164.16
 21
85.7373
 31
0.0
  0
LINE
  8
0
 62
     0
 10
164.16
 20
85.7373
 30
0.0
 11
163.934
 21
86.1826
 31
0.0
  0
LINE
  8
0
 62
     0
 10
163.934
 20
86.1826
 30
0.0
 11
163.581
 21
86.5353
 31
0.0
  0
LINE
  8
0
 62
     0
 10
163.581
 20
86.5353
 30
0.0
 11
163.136
 21
86.7615
 31
0.0
  0
LINE
  8
0
 62
     0
 10
163.136
 20
86.7615
 30
0.0
 11
162.643
 21
86.8398
 31
0.0
  0
LINE
  8
0
 62
     0
 10
162.643
 20
86.8398
 30
0.0
 11
162.151
 21
86.7615
 31
0.0
  0
LINE
  8
0
 62
     0
 10
241.938
 20
86.7615
 30
0.0
 11
241.493
 21
86.5353
 31
0.0
  0
LINE
  8
0
 62
     0
 10
241.493
 20
86.5353
 30
0.0
 11
241.142
 21
86.1826
 31
0.0
  0
LINE
  8
0
 62
     0
 10
241.142
 20
86.1826
 30
0.0
 11
240.914
 21
85.7373
 31
0.0
  0
LINE
  8
0
 62
     0
 10
240.914
 20
85.7373
 30
0.0
 11
240.837
 21
85.2442
 31
0.0
  0
LINE
  8
0
 62
     0
 10
240.837
 20
85.2442
 30
0.0
 11
240.914
 21
84.752
 31
0.0
  0
LINE
  8
0
 62
     0
 10
240.914
 20
84.752
 30
0.0
 11
241.142
 21
84.3068
 31
0.0
  0
LINE
  8
0
 62
     0
 10
241.142
 20
84.3068
 30
0.0
 11
241.493
 21
83.9541
 31
0.0
  0
LINE
  8
0
 62
     0
 10
241.493
 20
83.9541
 30
0.0
 11
241.938
 21
83.7283
 31
0.0
  0
LINE
  8
0
 62
     0
 10
241.938
 20
83.7283
 30
0.0
 11
242.431
 21
83.6496
 31
0.0
  0
LINE
  8
0
 62
     0
 10
242.431
 20
83.6496
 30
0.0
 11
242.925
 21
83.7283
 31
0.0
  0
LINE
  8
0
 62
     0
 10
242.925
 20
83.7283
 30
0.0
 11
243.37
 21
83.9541
 31
0.0
  0
LINE
  8
0
 62
     0
 10
243.37
 20
83.9541
 30
0.0
 11
243.721
 21
84.3068
 31
0.0
  0
LINE
  8
0
 62
     0
 10
243.721
 20
84.3068
 30
0.0
 11
243.949
 21
84.752
 31
0.0
  0
LINE
  8
0
 62
     0
 10
243.949
 20
84.752
 30
0.0
 11
244.027
 21
85.2442
 31
0.0
  0
LINE
  8
0
 62
     0
 10
244.027
 20
85.2442
 30
0.0
 11
243.949
 21
85.7373
 31
0.0
  0
LINE
  8
0
 62
     0
 10
243.949
 20
85.7373
 30
0.0
 11
243.721
 21
86.1826
 31
0.0
  0
LINE
  8
0
 62
     0
 10
243.721
 20
86.1826
 30
0.0
 11
243.37
 21
86.5353
 31
0.0
  0
LINE
  8
0
 62
     0
 10
243.37
 20
86.5353
 30
0.0
 11
242.925
 21
86.7615
 31
0.0
  0
LINE
  8
0
 62
     0
 10
242.925
 20
86.7615
 30
0.0
 11
242.431
 21
86.8398
 31
0.0
  0
LINE
  8
0
 62
     0
 10
242.431
 20
86.8398
 30
0.0
 11
241.938
 21
86.7615
 31
0.0
  0
LINE
  8
0
 62
     0
 10
2.57555
 20
86.7615
 30
0.0
 11
2.13045
 21
86.5353
 31
0.0
  0
LINE
  8
0
 62
     0
 10
2.13045
 20
86.5353
 30
0.0
 11
1.77767
 21
86.1826
 31
0.0
  0
LINE
  8
0
 62
     0
 10
1.77767
 20
86.1826
 30
0.0
 11
1.55167
 21
85.7373
 31
0.0
  0
LINE
  8
0
 62
     0
 10
1.55167
 20
85.7373
 30
0.0
 11
1.47312
 21
85.2456
 31
0.0
  0
LINE
  8
0
 62
     0
 10
1.47312
 20
85.2456
 30
0.0
 11
1.55167
 21
84.752
 31
0.0
  0
LINE
  8
0
 62
     0
 10
1.55167
 20
84.752
 30
0.0
 11
1.77767
 21
84.3068
 31
0.0
  0
LINE
  8
0
 62
     0
 10
1.77767
 20
84.3068
 30
0.0
 11
2.13045
 21
83.9541
 31
0.0
  0
LINE
  8
0
 62
     0
 10
2.13045
 20
83.9541
 30
0.0
 11
2.57555
 21
83.7283
 31
0.0
  0
LINE
  8
0
 62
     0
 10
2.57555
 20
83.7283
 30
0.0
 11
3.06751
 21
83.651
 31
0.0
  0
LINE
  8
0
 62
     0
 10
3.06751
 20
83.651
 30
0.0
 11
3.56087
 21
83.7283
 31
0.0
  0
LINE
  8
0
 62
     0
 10
3.56087
 20
83.7283
 30
0.0
 11
4.00597
 21
83.9541
 31
0.0
  0
LINE
  8
0
 62
     0
 10
4.00597
 20
83.9541
 30
0.0
 11
4.35875
 21
84.3068
 31
0.0
  0
LINE
  8
0
 62
     0
 10
4.35875
 20
84.3068
 30
0.0
 11
4.58474
 21
84.752
 31
0.0
  0
LINE
  8
0
 62
     0
 10
4.58474
 20
84.752
 30
0.0
 11
4.66189
 21
85.2456
 31
0.0
  0
LINE
  8
0
 62
     0
 10
4.66189
 20
85.2456
 30
0.0
 11
4.58474
 21
85.7373
 31
0.0
  0
LINE
  8
0
 62
     0
 10
4.58474
 20
85.7373
 30
0.0
 11
4.35875
 21
86.1826
 31
0.0
  0
LINE
  8
0
 62
     0
 10
4.35875
 20
86.1826
 30
0.0
 11
4.00597
 21
86.5353
 31
0.0
  0
LINE
  8
0
 62
     0
 10
4.00597
 20
86.5353
 30
0.0
 11
3.56087
 21
86.7615
 31
0.0
  0
LINE
  8
0
 62
     0
 10
3.56087
 20
86.7615
 30
0.0
 11
3.06751
 21
86.8398
 31
0.0
  0
LINE
  8
0
 62
     0
 10
3.06751
 20
86.8398
 30
0.0
 11
2.57555
 21
86.7615
 31
0.0
  0
ENDSEC
  0
EOF
