<?xml version="1.0"?>
<!-- Generated by SVGo -->
<svg width="255.374mm" height="98.212mm"
     viewBox="0.000 0.000 255.374 98.212"
     xmlns="http://www.w3.org/2000/svg" 
     xmlns:xlink="http://www.w3.org/1999/xlink">
<polygon points="247.874,5.001 248.070,5.008 248.265,5.031 248.458,5.070 248.647,5.123 248.831,5.191 249.009,5.273 249.180,5.369 249.343,5.478 249.498,5.599 249.642,5.733 249.775,5.877 249.897,6.031 250.006,6.194 250.102,6.366 250.184,6.544 250.252,6.728 250.305,6.917 250.343,7.109 250.366,7.304 250.374,7.501 250.374,90.711 250.366,90.908 250.343,91.103 250.305,91.295 250.252,91.484 250.184,91.668 250.102,91.846 250.006,92.018 249.897,92.181 249.775,92.335 249.642,92.479 249.498,92.613 249.343,92.734 249.180,92.843 249.009,92.939 248.831,93.021 248.647,93.089 248.458,93.142 248.265,93.181 248.070,93.204 247.874,93.212 7.501,93.211 7.304,93.204 7.109,93.181 6.917,93.142 6.728,93.089 6.544,93.021 6.366,92.939 6.194,92.843 6.031,92.734 5.877,92.613 5.733,92.479 5.599,92.335 5.478,92.181 5.369,92.018 5.273,91.846 5.191,91.668 5.123,91.484 5.070,91.295 5.031,91.103 5.008,90.908 5.000,90.711 5.001,7.501 5.008,7.304 5.031,7.109 5.070,6.917 5.123,6.728 5.191,6.544 5.273,6.366 5.369,6.194 5.478,6.031 5.599,5.877 5.733,5.733 5.877,5.599 6.031,5.478 6.194,5.369 6.366,5.273 6.544,5.191 6.728,5.123 6.917,5.070 7.109,5.031 7.304,5.008 7.501,5.000" style="fill:none;stroke-width:0.010000mm;stroke:black"/>
<polygon points="246.876,88.690 246.431,88.916 246.079,89.269 245.852,89.714 245.774,90.207 245.852,90.699 246.079,91.144 246.431,91.497 246.876,91.723 247.369,91.802 247.862,91.723 248.307,91.497 248.659,91.144 248.886,90.699 248.964,90.207 248.886,89.714 248.659,89.269 248.307,88.916 247.862,88.690 247.369,88.611" style="fill:none;stroke-width:0.010000mm;stroke:black"/>
<polygon points="167.088,88.690 166.644,88.916 166.291,89.269 166.064,89.714 165.986,90.207 166.064,90.699 166.291,91.144 166.644,91.497 167.088,91.723 167.581,91.802 168.074,91.723 168.519,91.497 168.872,91.144 169.098,90.699 169.176,90.207 169.098,89.714 168.872,89.269 168.519,88.916 168.074,88.690 167.581,88.611" style="fill:none;stroke-width:0.010000mm;stroke:black"/>
<polygon points="87.300,88.690 86.856,88.916 86.503,89.269 86.276,89.714 86.198,90.207 86.276,90.699 86.503,91.144 86.856,91.497 87.300,91.723 87.793,91.802 88.286,91.723 88.731,91.497 89.084,91.144 89.310,90.699 89.388,90.207 89.310,89.714 89.084,89.269 88.731,88.916 88.286,88.690 87.793,88.611" style="fill:none;stroke-width:0.010000mm;stroke:black"/>
<polygon points="7.513,88.690 7.068,88.916 6.715,89.269 6.489,89.714 6.410,90.207 6.489,90.699 6.715,91.144 7.068,91.497 7.513,91.723 8.005,91.802 8.498,91.723 8.943,91.497 9.296,91.144 9.522,90.699 9.600,90.207 9.522,89.714 9.296,89.269 8.943,88.916 8.498,88.690 8.005,88.611" style="fill:none;stroke-width:0.010000mm;stroke:black"/>
<polygon points="11.005,11.005 11.005,49.105 11.004,49.105 11.004,68.156 11.005,68.156 11.005,87.206 244.369,87.206 244.369,11.005" style="fill:none;stroke-width:0.010000mm;stroke:black"/>
<polygon points="87.300,6.489 86.856,6.715 86.503,7.068 86.276,7.513 86.198,8.006 86.276,8.498 86.503,8.943 86.856,9.296 87.300,9.522 87.793,9.601 88.286,9.522 88.731,9.296 89.084,8.943 89.310,8.498 89.388,8.006 89.310,7.513 89.084,7.068 88.731,6.715 88.286,6.489 87.793,6.411" style="fill:none;stroke-width:0.010000mm;stroke:black"/>
<polygon points="167.088,6.489 166.644,6.715 166.291,7.068 166.064,7.513 165.986,8.006 166.064,8.498 166.291,8.943 166.644,9.296 167.088,9.522 167.581,9.601 168.074,9.522 168.519,9.296 168.872,8.943 169.098,8.498 169.176,8.006 169.098,7.513 168.872,7.068 168.519,6.715 168.074,6.489 167.581,6.411" style="fill:none;stroke-width:0.010000mm;stroke:black"/>
<polygon points="246.876,6.489 246.431,6.715 246.079,7.068 245.852,7.513 245.774,8.006 245.852,8.498 246.079,8.943 246.431,9.296 246.876,9.522 247.369,9.601 247.862,9.522 248.307,9.296 248.659,8.943 248.886,8.498 248.964,8.006 248.886,7.513 248.659,7.068 248.307,6.715 247.862,6.489 247.369,6.411" style="fill:none;stroke-width:0.010000mm;stroke:black"/>
<polygon points="7.513,6.489 7.068,6.715 6.715,7.068 6.489,7.513 6.410,8.005 6.489,8.498 6.715,8.943 7.068,9.296 7.513,9.522 8.005,9.600 8.498,9.522 8.943,9.296 9.296,8.943 9.522,8.498 9.600,8.005 9.522,7.513 9.296,7.068 8.943,6.715 8.498,6.489 8.005,6.410" style="fill:none;stroke-width:0.010000mm;stroke:black"/>
</svg>
