<?xml version="1.0"?>
<!-- Generated by SVGo -->
<svg width="253.364mm" height="96.202mm"
     viewBox="0.000 0.000 253.364 96.202"
     xmlns="http://www.w3.org/2000/svg" 
     xmlns:xlink="http://www.w3.org/1999/xlink">
<polygon points="245.364,5.001 245.599,5.010 245.833,5.037 246.064,5.083 246.291,5.147 246.512,5.229 246.726,5.327 246.931,5.443 247.127,5.573 247.312,5.719 247.485,5.879 247.645,6.052 247.791,6.237 247.922,6.433 248.037,6.639 248.136,6.852 248.217,7.073 248.281,7.300 248.327,7.531 248.355,7.765 248.364,8.001 248.364,88.202 248.355,88.437 248.327,88.671 248.281,88.902 248.217,89.129 248.136,89.350 248.037,89.563 247.922,89.769 247.791,89.965 247.645,90.150 247.485,90.323 247.312,90.483 247.127,90.629 246.931,90.759 246.726,90.875 246.512,90.973 246.291,91.055 246.064,91.119 245.833,91.165 245.599,91.192 245.364,91.202 8.001,91.202 7.765,91.192 7.531,91.165 7.300,91.119 7.073,91.055 6.852,90.973 6.639,90.875 6.433,90.759 6.237,90.629 6.052,90.483 5.879,90.323 5.719,90.150 5.573,89.965 5.443,89.769 5.327,89.563 5.229,89.350 5.147,89.129 5.083,88.902 5.037,88.671 5.010,88.437 5.000,88.201 5.001,8.001 5.010,7.765 5.037,7.531 5.083,7.300 5.147,7.073 5.229,6.852 5.327,6.639 5.443,6.433 5.573,6.237 5.719,6.052 5.879,5.879 6.052,5.719 6.237,5.573 6.433,5.443 6.639,5.327 6.852,5.229 7.073,5.147 7.300,5.083 7.531,5.037 7.765,5.010 8.001,5.000" style="fill:none;stroke-width:0.050000mm;stroke:black"/>
<polygon points="245.555,87.750 245.276,87.892 245.055,88.114 244.913,88.392 244.864,88.702 244.913,89.011 245.055,89.289 245.276,89.511 245.555,89.653 245.864,89.702 246.173,89.653 246.452,89.511 246.673,89.289 246.815,89.011 246.864,88.702 246.815,88.392 246.673,88.114 246.452,87.892 246.173,87.750 245.864,87.702" style="fill:none;stroke-width:0.050000mm;stroke:black"/>
<polygon points="126.373,87.750 126.094,87.892 125.873,88.114 125.731,88.392 125.682,88.702 125.731,89.011 125.873,89.289 126.094,89.511 126.373,89.653 126.682,89.702 126.991,89.653 127.270,89.511 127.491,89.289 127.633,89.011 127.682,88.702 127.633,88.392 127.491,88.114 127.270,87.892 126.991,87.750 126.682,87.702" style="fill:none;stroke-width:0.050000mm;stroke:black"/>
<polygon points="7.191,87.750 6.913,87.892 6.691,88.114 6.549,88.392 6.500,88.702 6.549,89.011 6.691,89.289 6.913,89.511 7.191,89.653 7.500,89.702 7.810,89.653 8.088,89.511 8.310,89.289 8.452,89.011 8.501,88.702 8.452,88.392 8.310,88.114 8.088,87.892 7.810,87.750 7.501,87.702" style="fill:none;stroke-width:0.050000mm;stroke:black"/>
<polygon points="141.113,69.676 141.113,70.275 140.313,70.275 140.313,74.376 139.588,74.376 139.588,71.146 132.838,71.146 132.838,74.376 132.013,74.376 132.013,77.176 132.838,77.176 132.838,83.446 134.563,83.446 134.563,84.646 137.863,84.646 137.863,83.446 139.588,83.446 139.588,78.976 140.313,78.976 140.313,83.076 141.113,83.076 141.113,83.676 155.113,83.676 155.113,83.076 155.913,83.076 155.913,78.976 156.638,78.976 156.638,83.446 158.363,83.446 158.363,84.646 161.663,84.646 161.663,83.446 163.388,83.446 163.388,77.176 164.213,77.176 164.213,74.376 163.388,74.376 163.388,71.146 156.638,71.146 156.638,74.376 155.913,74.376 155.913,70.275 155.113,70.275 155.113,69.676" style="fill:none;stroke-width:0.050000mm;stroke:black"/>
<polygon points="14.907,69.676 14.907,70.275 14.107,70.275 14.107,83.076 14.907,83.076 14.907,83.676 28.907,83.676 28.907,83.076 29.707,83.076 29.707,70.275 28.907,70.275 28.907,69.676" style="fill:none;stroke-width:0.050000mm;stroke:black"/>
<polygon points="36.338,69.676 36.338,70.275 35.538,70.275 35.538,83.076 36.338,83.076 36.338,83.676 50.338,83.676 50.338,83.076 51.138,83.076 51.138,70.275 50.338,70.275 50.338,69.676" style="fill:none;stroke-width:0.050000mm;stroke:black"/>
<polygon points="55.388,69.676 55.388,70.275 54.588,70.275 54.588,83.076 55.388,83.076 55.388,83.676 69.388,83.676 69.388,83.076 70.188,83.076 70.188,70.275 69.388,70.275 69.388,69.676" style="fill:none;stroke-width:0.050000mm;stroke:black"/>
<polygon points="76.819,69.676 76.819,70.275 76.019,70.275 76.019,83.076 76.819,83.076 76.819,83.676 90.819,83.676 90.819,83.076 91.619,83.076 91.619,70.275 90.819,70.275 90.819,69.676" style="fill:none;stroke-width:0.050000mm;stroke:black"/>
<polygon points="105.394,69.676 105.394,70.275 104.594,70.275 104.594,83.076 105.394,83.076 105.394,83.676 119.394,83.676 119.394,83.076 120.194,83.076 120.194,70.275 119.394,70.275 119.394,69.676" style="fill:none;stroke-width:0.050000mm;stroke:black"/>
<polygon points="169.688,69.676 169.688,70.275 168.888,70.275 168.888,83.076 169.688,83.076 169.688,83.676 183.688,83.676 183.688,83.076 184.488,83.076 184.488,70.275 183.688,70.275 183.688,69.676" style="fill:none;stroke-width:0.050000mm;stroke:black"/>
<polygon points="188.738,69.676 188.738,70.275 187.938,70.275 187.938,83.076 188.738,83.076 188.738,83.676 202.738,83.676 202.738,83.076 203.538,83.076 203.538,70.275 202.738,70.275 202.738,69.676" style="fill:none;stroke-width:0.050000mm;stroke:black"/>
<polygon points="207.788,69.676 207.788,70.275 206.988,70.275 206.988,83.076 207.788,83.076 207.788,83.676 221.788,83.676 221.788,83.076 222.588,83.076 222.588,70.275 221.788,70.275 221.788,69.676" style="fill:none;stroke-width:0.050000mm;stroke:black"/>
<polygon points="226.838,69.676 226.838,70.275 226.038,70.275 226.038,83.076 226.838,83.076 226.838,83.676 240.838,83.676 240.838,83.076 241.638,83.076 241.638,70.275 240.838,70.275 240.838,69.676" style="fill:none;stroke-width:0.050000mm;stroke:black"/>
<polygon points="19.669,50.626 19.669,51.226 18.869,51.226 18.869,64.026 19.669,64.026 19.669,64.626 33.669,64.626 33.669,64.026 34.469,64.026 34.469,51.226 33.669,51.226 33.669,50.626" style="fill:none;stroke-width:0.050000mm;stroke:black"/>
<polygon points="45.863,50.626 45.863,51.226 45.063,51.226 45.063,64.026 45.863,64.026 45.863,64.626 59.863,64.626 59.863,64.026 60.663,64.026 60.663,51.226 59.863,51.226 59.863,50.626" style="fill:none;stroke-width:0.050000mm;stroke:black"/>
<polygon points="64.913,50.626 64.913,51.226 64.112,51.226 64.112,64.026 64.913,64.026 64.913,64.626 78.913,64.626 78.913,64.026 79.713,64.026 79.713,51.226 78.913,51.226 78.913,50.626" style="fill:none;stroke-width:0.050000mm;stroke:black"/>
<polygon points="83.963,50.626 83.963,51.226 83.163,51.226 83.163,64.026 83.963,64.026 83.963,64.626 97.963,64.626 97.963,64.026 98.763,64.026 98.763,51.226 97.963,51.226 97.963,50.626" style="fill:none;stroke-width:0.050000mm;stroke:black"/>
<polygon points="103.013,50.626 103.013,51.226 102.213,51.226 102.213,64.026 103.013,64.026 103.013,64.626 117.013,64.626 117.013,64.026 117.813,64.026 117.813,51.226 117.013,51.226 117.013,50.626" style="fill:none;stroke-width:0.050000mm;stroke:black"/>
<polygon points="122.063,50.626 122.063,51.226 121.263,51.226 121.263,64.026 122.063,64.026 122.063,64.626 136.063,64.626 136.063,64.026 136.863,64.026 136.863,51.226 136.063,51.226 136.063,50.626" style="fill:none;stroke-width:0.050000mm;stroke:black"/>
<polygon points="141.113,50.626 141.113,51.226 140.313,51.226 140.313,64.026 141.113,64.026 141.113,64.626 155.113,64.626 155.113,64.026 155.913,64.026 155.913,51.226 155.113,51.226 155.113,50.626" style="fill:none;stroke-width:0.050000mm;stroke:black"/>
<polygon points="160.163,50.626 160.163,51.226 159.363,51.226 159.363,64.026 160.163,64.026 160.163,64.626 174.163,64.626 174.163,64.026 174.963,64.026 174.963,51.226 174.163,51.226 174.163,50.626" style="fill:none;stroke-width:0.050000mm;stroke:black"/>
<polygon points="179.213,50.626 179.213,51.226 178.413,51.226 178.413,64.026 179.213,64.026 179.213,64.626 193.213,64.626 193.213,64.026 194.013,64.026 194.013,51.226 193.213,51.226 193.213,50.626" style="fill:none;stroke-width:0.050000mm;stroke:black"/>
<polygon points="198.263,50.626 198.263,51.226 197.463,51.226 197.463,64.026 198.263,64.026 198.263,64.626 212.263,64.626 212.263,64.026 213.063,64.026 213.063,51.226 212.263,51.226 212.263,50.626" style="fill:none;stroke-width:0.050000mm;stroke:black"/>
<polygon points="222.076,50.626 222.076,51.226 221.276,51.226 221.276,64.026 222.076,64.026 222.076,64.626 236.076,64.626 236.076,64.026 236.876,64.026 236.876,51.226 236.076,51.226 236.076,50.626" style="fill:none;stroke-width:0.050000mm;stroke:black"/>
<polygon points="14.907,31.576 14.907,32.175 14.107,32.175 14.107,44.976 14.907,44.976 14.907,45.576 28.907,45.576 28.907,44.976 29.707,44.976 29.707,32.175 28.907,32.175 28.907,31.576" style="fill:none;stroke-width:0.050000mm;stroke:black"/>
<polygon points="36.338,31.576 36.338,32.175 35.538,32.175 35.538,44.976 36.338,44.976 36.338,45.576 50.338,45.576 50.338,44.976 51.138,44.976 51.138,32.175 50.338,32.175 50.338,31.576" style="fill:none;stroke-width:0.050000mm;stroke:black"/>
<polygon points="55.388,31.576 55.388,32.175 54.588,32.175 54.588,44.976 55.388,44.976 55.388,45.576 69.388,45.576 69.388,44.976 70.188,44.976 70.188,32.175 69.388,32.175 69.388,31.576" style="fill:none;stroke-width:0.050000mm;stroke:black"/>
<polygon points="74.438,31.576 74.438,32.175 73.638,32.175 73.638,44.976 74.438,44.976 74.438,45.576 88.438,45.576 88.438,44.976 89.238,44.976 89.238,32.175 88.438,32.175 88.438,31.576" style="fill:none;stroke-width:0.050000mm;stroke:black"/>
<polygon points="93.488,31.576 93.488,32.175 92.688,32.175 92.688,44.976 93.488,44.976 93.488,45.576 107.488,45.576 107.488,44.976 108.288,44.976 108.288,32.175 107.488,32.175 107.488,31.576" style="fill:none;stroke-width:0.050000mm;stroke:black"/>
<polygon points="112.538,31.576 112.538,32.175 111.738,32.175 111.738,44.976 112.538,44.976 112.538,45.576 126.538,45.576 126.538,44.976 127.338,44.976 127.338,32.175 126.538,32.175 126.538,31.576" style="fill:none;stroke-width:0.050000mm;stroke:black"/>
<polygon points="131.588,31.576 131.588,32.175 130.788,32.175 130.788,44.976 131.588,44.976 131.588,45.576 145.588,45.576 145.588,44.976 146.388,44.976 146.388,32.175 145.588,32.175 145.588,31.576" style="fill:none;stroke-width:0.050000mm;stroke:black"/>
<polygon points="150.638,31.576 150.638,32.175 149.838,32.175 149.838,44.976 150.638,44.976 150.638,45.576 164.638,45.576 164.638,44.976 165.438,44.976 165.438,32.175 164.638,32.175 164.638,31.576" style="fill:none;stroke-width:0.050000mm;stroke:black"/>
<polygon points="169.688,31.576 169.688,32.175 168.888,32.175 168.888,44.976 169.688,44.976 169.688,45.576 183.688,45.576 183.688,44.976 184.488,44.976 184.488,32.175 183.688,32.175 183.688,31.576" style="fill:none;stroke-width:0.050000mm;stroke:black"/>
<polygon points="188.738,31.576 188.738,32.175 187.938,32.175 187.938,44.976 188.738,44.976 188.738,45.576 202.738,45.576 202.738,44.976 203.538,44.976 203.538,32.175 202.738,32.175 202.738,31.576" style="fill:none;stroke-width:0.050000mm;stroke:black"/>
<polygon points="207.788,31.576 207.788,32.175 206.988,32.175 206.988,44.976 207.788,44.976 207.788,45.576 221.788,45.576 221.788,44.976 222.588,44.976 222.588,32.175 221.788,32.175 221.788,31.576" style="fill:none;stroke-width:0.050000mm;stroke:black"/>
<polygon points="226.838,31.576 226.838,32.175 226.038,32.175 226.038,44.976 226.838,44.976 226.838,45.576 240.838,45.576 240.838,44.976 241.638,44.976 241.638,32.175 240.838,32.175 240.838,31.576" style="fill:none;stroke-width:0.050000mm;stroke:black"/>
<polygon points="12.525,12.525 12.525,13.125 11.725,13.125 11.725,25.925 12.525,25.925 12.525,26.526 26.526,26.526 26.526,25.925 27.326,25.925 27.326,13.125 26.526,13.125 26.526,12.525" style="fill:none;stroke-width:0.050000mm;stroke:black"/>
<polygon points="31.576,12.525 31.576,13.125 30.776,13.125 30.776,25.925 31.576,25.925 31.576,26.526 45.576,26.526 45.576,25.925 46.376,25.925 46.376,13.125 45.576,13.125 45.576,12.525" style="fill:none;stroke-width:0.050000mm;stroke:black"/>
<polygon points="50.626,12.525 50.626,13.125 49.826,13.125 49.826,25.925 50.626,25.925 50.626,26.526 64.626,26.526 64.626,25.925 65.426,25.925 65.426,13.125 64.626,13.125 64.626,12.525" style="fill:none;stroke-width:0.050000mm;stroke:black"/>
<polygon points="69.676,12.525 69.676,13.125 68.876,13.125 68.876,25.925 69.676,25.925 69.676,26.526 83.676,26.526 83.676,25.925 84.476,25.925 84.476,13.125 83.676,13.125 83.676,12.525" style="fill:none;stroke-width:0.050000mm;stroke:black"/>
<polygon points="88.726,12.525 88.726,13.125 87.926,13.125 87.926,25.925 88.726,25.925 88.726,26.526 102.726,26.526 102.726,25.925 103.525,25.925 103.525,13.125 102.726,13.125 102.726,12.525" style="fill:none;stroke-width:0.050000mm;stroke:black"/>
<polygon points="107.775,12.525 107.775,13.125 106.976,13.125 106.976,25.925 107.775,25.925 107.775,26.526 121.775,26.526 121.775,25.925 122.575,25.925 122.575,13.125 121.775,13.125 121.775,12.525" style="fill:none;stroke-width:0.050000mm;stroke:black"/>
<polygon points="126.825,12.525 126.825,13.125 126.025,13.125 126.025,25.925 126.825,25.925 126.825,26.526 140.826,26.526 140.826,25.925 141.626,25.925 141.626,13.125 140.826,13.125 140.826,12.525" style="fill:none;stroke-width:0.050000mm;stroke:black"/>
<polygon points="145.876,12.525 145.876,13.125 145.076,13.125 145.076,25.925 145.876,25.925 145.876,26.526 159.876,26.526 159.876,25.925 160.676,25.925 160.676,13.125 159.876,13.125 159.876,12.525" style="fill:none;stroke-width:0.050000mm;stroke:black"/>
<polygon points="164.926,12.525 164.926,13.125 164.126,13.125 164.126,25.925 164.926,25.925 164.926,26.526 178.926,26.526 178.926,25.925 179.726,25.925 179.726,13.125 178.926,13.125 178.926,12.525" style="fill:none;stroke-width:0.050000mm;stroke:black"/>
<polygon points="183.976,12.525 183.976,13.125 183.176,13.125 183.176,25.925 183.976,25.925 183.976,26.526 197.976,26.526 197.976,25.925 198.776,25.925 198.776,13.125 197.976,13.125 197.976,12.525" style="fill:none;stroke-width:0.050000mm;stroke:black"/>
<polygon points="203.026,12.525 203.026,13.125 202.226,13.125 202.226,25.925 203.026,25.925 203.026,26.526 217.026,26.526 217.026,25.925 217.826,25.925 217.826,13.125 217.026,13.125 217.026,12.525" style="fill:none;stroke-width:0.050000mm;stroke:black"/>
<polygon points="224.457,12.525 224.457,13.125 223.657,13.125 223.657,25.925 224.457,25.925 224.457,26.526 238.457,26.526 238.457,25.925 239.257,25.925 239.257,13.125 238.457,13.125 238.457,12.525" style="fill:none;stroke-width:0.050000mm;stroke:black"/>
<polygon points="126.373,6.549 126.094,6.691 125.873,6.913 125.731,7.191 125.682,7.500 125.731,7.810 125.873,8.088 126.094,8.310 126.373,8.452 126.682,8.501 126.991,8.452 127.270,8.310 127.491,8.088 127.633,7.810 127.682,7.501 127.633,7.191 127.491,6.913 127.270,6.691 126.991,6.549 126.682,6.501" style="fill:none;stroke-width:0.050000mm;stroke:black"/>
<polygon points="245.555,6.549 245.276,6.691 245.055,6.913 244.913,7.191 244.864,7.500 244.913,7.810 245.055,8.088 245.276,8.310 245.555,8.452 245.864,8.501 246.173,8.452 246.452,8.310 246.673,8.088 246.815,7.810 246.864,7.501 246.815,7.191 246.673,6.913 246.452,6.691 246.173,6.549 245.864,6.501" style="fill:none;stroke-width:0.050000mm;stroke:black"/>
<polygon points="7.191,6.549 6.913,6.691 6.691,6.913 6.549,7.191 6.500,7.500 6.549,7.810 6.691,8.088 6.913,8.310 7.191,8.452 7.500,8.501 7.810,8.452 8.088,8.310 8.310,8.088 8.452,7.810 8.501,7.501 8.452,7.191 8.310,6.913 8.088,6.691 7.810,6.549 7.501,6.501" style="fill:none;stroke-width:0.050000mm;stroke:black"/>
</svg>
