  0
SECTION
  2
HEADER
  9
$ACADVER
  1
AC1009
  9
$EXTMIN
 10
0.0
 20
0.0
 30
0.0
  9
$EXTMAX
 10
1000.0
 20
1000.0
 30
0.0
  9
$FILLMODE
 70
 0
  9
$SPLFRAME
 70
 1
  0
ENDSEC
  0
SECTION
  2
TABLES
  0
TABLE
  2
LAYER
 70
1
  0
LAYER
  2
0
 70
     0
 62
     7
  6
CONTINUOUS
  0
ENDTAB
  0
ENDSEC
  0
SECTION
  2
ENTITIES
  0
LINE
  8
0
 62
     0
 10
242.937
 20
88.2495
 30
0.0
 11
243.133
 21
88.2428
 31
0.0
  0
LINE
  8
0
 62
     0
 10
243.133
 20
88.2428
 30
0.0
 11
243.327
 21
88.2191
 31
0.0
  0
LINE
  8
0
 62
     0
 10
243.327
 20
88.2191
 30
0.0
 11
243.52
 21
88.1807
 31
0.0
  0
LINE
  8
0
 62
     0
 10
243.52
 20
88.1807
 30
0.0
 11
243.709
 21
88.1271
 31
0.0
  0
LINE
  8
0
 62
     0
 10
243.709
 20
88.1271
 30
0.0
 11
243.894
 21
88.0593
 31
0.0
  0
LINE
  8
0
 62
     0
 10
243.894
 20
88.0593
 30
0.0
 11
244.071
 21
87.9782
 31
0.0
  0
LINE
  8
0
 62
     0
 10
244.071
 20
87.9782
 30
0.0
 11
244.242
 21
87.8815
 31
0.0
  0
LINE
  8
0
 62
     0
 10
244.242
 20
87.8815
 30
0.0
 11
244.406
 21
87.7729
 31
0.0
  0
LINE
  8
0
 62
     0
 10
244.406
 20
87.7729
 30
0.0
 11
244.56
 21
87.6515
 31
0.0
  0
LINE
  8
0
 62
     0
 10
244.56
 20
87.6515
 30
0.0
 11
244.705
 21
87.5178
 31
0.0
  0
LINE
  8
0
 62
     0
 10
244.705
 20
87.5178
 30
0.0
 11
244.837
 21
87.3732
 31
0.0
  0
LINE
  8
0
 62
     0
 10
244.837
 20
87.3732
 30
0.0
 11
244.96
 21
87.2187
 31
0.0
  0
LINE
  8
0
 62
     0
 10
244.96
 20
87.2187
 30
0.0
 11
245.069
 21
87.056
 31
0.0
  0
LINE
  8
0
 62
     0
 10
245.069
 20
87.056
 30
0.0
 11
245.164
 21
86.8839
 31
0.0
  0
LINE
  8
0
 62
     0
 10
245.164
 20
86.8839
 30
0.0
 11
245.247
 21
86.7061
 31
0.0
  0
LINE
  8
0
 62
     0
 10
245.247
 20
86.7061
 30
0.0
 11
245.314
 21
86.523
 31
0.0
  0
LINE
  8
0
 62
     0
 10
245.314
 20
86.523
 30
0.0
 11
245.368
 21
86.3342
 31
0.0
  0
LINE
  8
0
 62
     0
 10
245.368
 20
86.3342
 30
0.0
 11
245.405
 21
86.1413
 31
0.0
  0
LINE
  8
0
 62
     0
 10
245.405
 20
86.1413
 30
0.0
 11
245.429
 21
85.9469
 31
0.0
  0
LINE
  8
0
 62
     0
 10
245.429
 20
85.9469
 30
0.0
 11
245.437
 21
85.7497
 31
0.0
  0
LINE
  8
0
 62
     0
 10
245.437
 20
85.7497
 30
0.0
 11
245.437
 21
2.53972
 31
0.0
  0
LINE
  8
0
 62
     0
 10
245.437
 20
2.53972
 30
0.0
 11
245.429
 21
2.34267
 31
0.0
  0
LINE
  8
0
 62
     0
 10
245.429
 20
2.34267
 30
0.0
 11
245.405
 21
2.14698
 31
0.0
  0
LINE
  8
0
 62
     0
 10
245.405
 20
2.14698
 30
0.0
 11
245.368
 21
1.95544
 31
0.0
  0
LINE
  8
0
 62
     0
 10
245.368
 20
1.95544
 30
0.0
 11
245.314
 21
1.76664
 31
0.0
  0
LINE
  8
0
 62
     0
 10
245.314
 20
1.76664
 30
0.0
 11
245.247
 21
1.58199
 31
0.0
  0
LINE
  8
0
 62
     0
 10
245.247
 20
1.58199
 30
0.0
 11
245.164
 21
1.40422
 31
0.0
  0
LINE
  8
0
 62
     0
 10
245.164
 20
1.40422
 30
0.0
 11
245.069
 21
1.23197
 31
0.0
  0
LINE
  8
0
 62
     0
 10
245.069
 20
1.23197
 30
0.0
 11
244.96
 21
1.06936
 31
0.0
  0
LINE
  8
0
 62
     0
 10
244.96
 20
1.06936
 30
0.0
 11
244.837
 21
0.915017
 31
0.0
  0
LINE
  8
0
 62
     0
 10
244.837
 20
0.915017
 30
0.0
 11
244.705
 21
0.771701
 31
0.0
  0
LINE
  8
0
 62
     0
 10
244.705
 20
0.771701
 30
0.0
 11
244.56
 21
0.63803
 31
0.0
  0
LINE
  8
0
 62
     0
 10
244.56
 20
0.63803
 30
0.0
 11
244.406
 21
0.516763
 31
0.0
  0
LINE
  8
0
 62
     0
 10
244.406
 20
0.516763
 30
0.0
 11
244.242
 21
0.407899
 31
0.0
  0
LINE
  8
0
 62
     0
 10
244.242
 20
0.407899
 30
0.0
 11
244.071
 21
0.311437
 31
0.0
  0
LINE
  8
0
 62
     0
 10
244.071
 20
0.311437
 30
0.0
 11
243.894
 21
0.230132
 31
0.0
  0
LINE
  8
0
 62
     0
 10
243.894
 20
0.230132
 30
0.0
 11
243.709
 21
0.16123
 31
0.0
  0
LINE
  8
0
 62
     0
 10
243.709
 20
0.16123
 30
0.0
 11
243.52
 21
0.108865
 31
0.0
  0
LINE
  8
0
 62
     0
 10
243.52
 20
0.108865
 30
0.0
 11
243.327
 21
0.0689021
 31
0.0
  0
LINE
  8
0
 62
     0
 10
243.327
 20
0.0689021
 30
0.0
 11
243.133
 21
0.0468535
 31
0.0
  0
LINE
  8
0
 62
     0
 10
243.133
 20
0.0468535
 30
0.0
 11
242.937
 21
0.0385851
 31
0.0
  0
LINE
  8
0
 62
     0
 10
242.937
 20
0.0385851
 30
0.0
 11
2.56315
 21
0.039963
 31
0.0
  0
LINE
  8
0
 62
     0
 10
2.56315
 20
0.039963
 30
0.0
 11
2.36609
 21
0.0468535
 31
0.0
  0
LINE
  8
0
 62
     0
 10
2.36609
 20
0.0468535
 30
0.0
 11
2.17179
 21
0.0689021
 31
0.0
  0
LINE
  8
0
 62
     0
 10
2.17179
 20
0.0689021
 30
0.0
 11
1.97886
 21
0.108865
 31
0.0
  0
LINE
  8
0
 62
     0
 10
1.97886
 20
0.108865
 30
0.0
 11
1.79007
 21
0.16123
 31
0.0
  0
LINE
  8
0
 62
     0
 10
1.79007
 20
0.16123
 30
0.0
 11
1.60679
 21
0.230132
 31
0.0
  0
LINE
  8
0
 62
     0
 10
1.60679
 20
0.230132
 30
0.0
 11
1.42903
 21
0.311437
 31
0.0
  0
LINE
  8
0
 62
     0
 10
1.42903
 20
0.311437
 30
0.0
 11
1.25677
 21
0.407899
 31
0.0
  0
LINE
  8
0
 62
     0
 10
1.25677
 20
0.407899
 30
0.0
 11
1.09416
 21
0.516763
 31
0.0
  0
LINE
  8
0
 62
     0
 10
1.09416
 20
0.516763
 30
0.0
 11
0.939821
 21
0.63803
 31
0.0
  0
LINE
  8
0
 62
     0
 10
0.939821
 20
0.63803
 30
0.0
 11
0.795129
 21
0.771701
 31
0.0
  0
LINE
  8
0
 62
     0
 10
0.795129
 20
0.771701
 30
0.0
 11
0.661458
 21
0.915017
 31
0.0
  0
LINE
  8
0
 62
     0
 10
0.661458
 20
0.915017
 30
0.0
 11
0.540191
 21
1.06936
 31
0.0
  0
LINE
  8
0
 62
     0
 10
0.540191
 20
1.06936
 30
0.0
 11
0.431327
 21
1.23197
 31
0.0
  0
LINE
  8
0
 62
     0
 10
0.431327
 20
1.23197
 30
0.0
 11
0.334863
 21
1.40422
 31
0.0
  0
LINE
  8
0
 62
     0
 10
0.334863
 20
1.40422
 30
0.0
 11
0.253559
 21
1.58199
 31
0.0
  0
LINE
  8
0
 62
     0
 10
0.253559
 20
1.58199
 30
0.0
 11
0.186035
 21
1.76664
 31
0.0
  0
LINE
  8
0
 62
     0
 10
0.186035
 20
1.76664
 30
0.0
 11
0.132292
 21
1.95544
 31
0.0
  0
LINE
  8
0
 62
     0
 10
0.132292
 20
1.95544
 30
0.0
 11
0.0937066
 21
2.14698
 31
0.0
  0
LINE
  8
0
 62
     0
 10
0.0937066
 20
2.14698
 30
0.0
 11
0.07028
 21
2.34267
 31
0.0
  0
LINE
  8
0
 62
     0
 10
0.07028
 20
2.34267
 30
0.0
 11
0.0620116
 21
2.53972
 31
0.0
  0
LINE
  8
0
 62
     0
 10
0.0620116
 20
2.53972
 30
0.0
 11
0.0633899
 21
85.7497
 31
0.0
  0
LINE
  8
0
 62
     0
 10
0.0633899
 20
85.7497
 30
0.0
 11
0.07028
 21
85.9469
 31
0.0
  0
LINE
  8
0
 62
     0
 10
0.07028
 20
85.9469
 30
0.0
 11
0.0937066
 21
86.1413
 31
0.0
  0
LINE
  8
0
 62
     0
 10
0.0937066
 20
86.1413
 30
0.0
 11
0.132292
 21
86.3342
 31
0.0
  0
LINE
  8
0
 62
     0
 10
0.132292
 20
86.3342
 30
0.0
 11
0.186035
 21
86.523
 31
0.0
  0
LINE
  8
0
 62
     0
 10
0.186035
 20
86.523
 30
0.0
 11
0.253559
 21
86.7061
 31
0.0
  0
LINE
  8
0
 62
     0
 10
0.253559
 20
86.7061
 30
0.0
 11
0.334863
 21
86.8839
 31
0.0
  0
LINE
  8
0
 62
     0
 10
0.334863
 20
86.8839
 30
0.0
 11
0.431327
 21
87.056
 31
0.0
  0
LINE
  8
0
 62
     0
 10
0.431327
 20
87.056
 30
0.0
 11
0.540191
 21
87.2187
 31
0.0
  0
LINE
  8
0
 62
     0
 10
0.540191
 20
87.2187
 30
0.0
 11
0.661458
 21
87.3732
 31
0.0
  0
LINE
  8
0
 62
     0
 10
0.661458
 20
87.3732
 30
0.0
 11
0.795129
 21
87.5178
 31
0.0
  0
LINE
  8
0
 62
     0
 10
0.795129
 20
87.5178
 30
0.0
 11
0.939821
 21
87.6515
 31
0.0
  0
LINE
  8
0
 62
     0
 10
0.939821
 20
87.6515
 30
0.0
 11
1.09416
 21
87.7729
 31
0.0
  0
LINE
  8
0
 62
     0
 10
1.09416
 20
87.7729
 30
0.0
 11
1.25677
 21
87.8815
 31
0.0
  0
LINE
  8
0
 62
     0
 10
1.25677
 20
87.8815
 30
0.0
 11
1.42903
 21
87.9782
 31
0.0
  0
LINE
  8
0
 62
     0
 10
1.42903
 20
87.9782
 30
0.0
 11
1.60679
 21
88.0593
 31
0.0
  0
LINE
  8
0
 62
     0
 10
1.60679
 20
88.0593
 30
0.0
 11
1.79007
 21
88.1271
 31
0.0
  0
LINE
  8
0
 62
     0
 10
1.79007
 20
88.1271
 30
0.0
 11
1.97886
 21
88.1807
 31
0.0
  0
LINE
  8
0
 62
     0
 10
1.97886
 20
88.1807
 30
0.0
 11
2.17179
 21
88.2191
 31
0.0
  0
LINE
  8
0
 62
     0
 10
2.17179
 20
88.2191
 30
0.0
 11
2.36609
 21
88.2428
 31
0.0
  0
LINE
  8
0
 62
     0
 10
2.36609
 20
88.2428
 30
0.0
 11
2.56315
 21
88.2509
 31
0.0
  0
LINE
  8
0
 62
     0
 10
2.56315
 20
88.2509
 30
0.0
 11
242.937
 21
88.2495
 31
0.0
  0
LINE
  8
0
 62
     0
 10
242.189
 20
4.31052
 30
0.0
 11
241.744
 21
4.0845
 31
0.0
  0
LINE
  8
0
 62
     0
 10
241.744
 20
4.0845
 30
0.0
 11
241.391
 21
3.73172
 31
0.0
  0
LINE
  8
0
 62
     0
 10
241.391
 20
3.73172
 30
0.0
 11
241.165
 21
3.28662
 31
0.0
  0
LINE
  8
0
 62
     0
 10
241.165
 20
3.28662
 30
0.0
 11
241.087
 21
2.79328
 31
0.0
  0
LINE
  8
0
 62
     0
 10
241.087
 20
2.79328
 30
0.0
 11
241.165
 21
2.30132
 31
0.0
  0
LINE
  8
0
 62
     0
 10
241.165
 20
2.30132
 30
0.0
 11
241.391
 21
1.85622
 31
0.0
  0
LINE
  8
0
 62
     0
 10
241.391
 20
1.85622
 30
0.0
 11
241.744
 21
1.50344
 31
0.0
  0
LINE
  8
0
 62
     0
 10
241.744
 20
1.50344
 30
0.0
 11
242.189
 21
1.27744
 31
0.0
  0
LINE
  8
0
 62
     0
 10
242.189
 20
1.27744
 30
0.0
 11
242.682
 21
1.19889
 31
0.0
  0
LINE
  8
0
 62
     0
 10
242.682
 20
1.19889
 30
0.0
 11
243.174
 21
1.27744
 31
0.0
  0
LINE
  8
0
 62
     0
 10
243.174
 20
1.27744
 30
0.0
 11
243.619
 21
1.50344
 31
0.0
  0
LINE
  8
0
 62
     0
 10
243.619
 20
1.50344
 30
0.0
 11
243.972
 21
1.85622
 31
0.0
  0
LINE
  8
0
 62
     0
 10
243.972
 20
1.85622
 30
0.0
 11
244.198
 21
2.30132
 31
0.0
  0
LINE
  8
0
 62
     0
 10
244.198
 20
2.30132
 30
0.0
 11
244.277
 21
2.79328
 31
0.0
  0
LINE
  8
0
 62
     0
 10
244.277
 20
2.79328
 30
0.0
 11
244.198
 21
3.28662
 31
0.0
  0
LINE
  8
0
 62
     0
 10
244.198
 20
3.28662
 30
0.0
 11
243.972
 21
3.73172
 31
0.0
  0
LINE
  8
0
 62
     0
 10
243.972
 20
3.73172
 30
0.0
 11
243.619
 21
4.0845
 31
0.0
  0
LINE
  8
0
 62
     0
 10
243.619
 20
4.0845
 30
0.0
 11
243.174
 21
4.31052
 31
0.0
  0
LINE
  8
0
 62
     0
 10
243.174
 20
4.31052
 30
0.0
 11
242.682
 21
4.38905
 31
0.0
  0
LINE
  8
0
 62
     0
 10
242.682
 20
4.38905
 30
0.0
 11
242.189
 21
4.31052
 31
0.0
  0
LINE
  8
0
 62
     0
 10
162.235
 20
4.31052
 30
0.0
 11
161.79
 21
4.0845
 31
0.0
  0
LINE
  8
0
 62
     0
 10
161.79
 20
4.0845
 30
0.0
 11
161.437
 21
3.73172
 31
0.0
  0
LINE
  8
0
 62
     0
 10
161.437
 20
3.73172
 30
0.0
 11
161.211
 21
3.28662
 31
0.0
  0
LINE
  8
0
 62
     0
 10
161.211
 20
3.28662
 30
0.0
 11
161.133
 21
2.79328
 31
0.0
  0
LINE
  8
0
 62
     0
 10
161.133
 20
2.79328
 30
0.0
 11
161.211
 21
2.30132
 31
0.0
  0
LINE
  8
0
 62
     0
 10
161.211
 20
2.30132
 30
0.0
 11
161.437
 21
1.85622
 31
0.0
  0
LINE
  8
0
 62
     0
 10
161.437
 20
1.85622
 30
0.0
 11
161.79
 21
1.50344
 31
0.0
  0
LINE
  8
0
 62
     0
 10
161.79
 20
1.50344
 30
0.0
 11
162.235
 21
1.27744
 31
0.0
  0
LINE
  8
0
 62
     0
 10
162.235
 20
1.27744
 30
0.0
 11
162.727
 21
1.19889
 31
0.0
  0
LINE
  8
0
 62
     0
 10
162.727
 20
1.19889
 30
0.0
 11
163.219
 21
1.27744
 31
0.0
  0
LINE
  8
0
 62
     0
 10
163.219
 20
1.27744
 30
0.0
 11
163.664
 21
1.50344
 31
0.0
  0
LINE
  8
0
 62
     0
 10
163.664
 20
1.50344
 30
0.0
 11
164.017
 21
1.85622
 31
0.0
  0
LINE
  8
0
 62
     0
 10
164.017
 20
1.85622
 30
0.0
 11
164.243
 21
2.30132
 31
0.0
  0
LINE
  8
0
 62
     0
 10
164.243
 20
2.30132
 30
0.0
 11
164.323
 21
2.79328
 31
0.0
  0
LINE
  8
0
 62
     0
 10
164.323
 20
2.79328
 30
0.0
 11
164.243
 21
3.28662
 31
0.0
  0
LINE
  8
0
 62
     0
 10
164.243
 20
3.28662
 30
0.0
 11
164.017
 21
3.73172
 31
0.0
  0
LINE
  8
0
 62
     0
 10
164.017
 20
3.73172
 30
0.0
 11
163.664
 21
4.0845
 31
0.0
  0
LINE
  8
0
 62
     0
 10
163.664
 20
4.0845
 30
0.0
 11
163.219
 21
4.31052
 31
0.0
  0
LINE
  8
0
 62
     0
 10
163.219
 20
4.31052
 30
0.0
 11
162.727
 21
4.38905
 31
0.0
  0
LINE
  8
0
 62
     0
 10
162.727
 20
4.38905
 30
0.0
 11
162.235
 21
4.31052
 31
0.0
  0
LINE
  8
0
 62
     0
 10
82.2798
 20
4.31052
 30
0.0
 11
81.8349
 21
4.0845
 31
0.0
  0
LINE
  8
0
 62
     0
 10
81.8349
 20
4.0845
 30
0.0
 11
81.4821
 21
3.73172
 31
0.0
  0
LINE
  8
0
 62
     0
 10
81.4821
 20
3.73172
 30
0.0
 11
81.256
 21
3.28662
 31
0.0
  0
LINE
  8
0
 62
     0
 10
81.256
 20
3.28662
 30
0.0
 11
81.1773
 21
2.79328
 31
0.0
  0
LINE
  8
0
 62
     0
 10
81.1773
 20
2.79328
 30
0.0
 11
81.256
 21
2.30132
 31
0.0
  0
LINE
  8
0
 62
     0
 10
81.256
 20
2.30132
 30
0.0
 11
81.4821
 21
1.85622
 31
0.0
  0
LINE
  8
0
 62
     0
 10
81.4821
 20
1.85622
 30
0.0
 11
81.8349
 21
1.50344
 31
0.0
  0
LINE
  8
0
 62
     0
 10
81.8349
 20
1.50344
 30
0.0
 11
82.2798
 21
1.27744
 31
0.0
  0
LINE
  8
0
 62
     0
 10
82.2798
 20
1.27744
 30
0.0
 11
82.7719
 21
1.19889
 31
0.0
  0
LINE
  8
0
 62
     0
 10
82.7719
 20
1.19889
 30
0.0
 11
83.2651
 21
1.27744
 31
0.0
  0
LINE
  8
0
 62
     0
 10
83.2651
 20
1.27744
 30
0.0
 11
83.7103
 21
1.50344
 31
0.0
  0
LINE
  8
0
 62
     0
 10
83.7103
 20
1.50344
 30
0.0
 11
84.0631
 21
1.85622
 31
0.0
  0
LINE
  8
0
 62
     0
 10
84.0631
 20
1.85622
 30
0.0
 11
84.2892
 21
2.30132
 31
0.0
  0
LINE
  8
0
 62
     0
 10
84.2892
 20
2.30132
 30
0.0
 11
84.3675
 21
2.79328
 31
0.0
  0
LINE
  8
0
 62
     0
 10
84.3675
 20
2.79328
 30
0.0
 11
84.2892
 21
3.28662
 31
0.0
  0
LINE
  8
0
 62
     0
 10
84.2892
 20
3.28662
 30
0.0
 11
84.0631
 21
3.73172
 31
0.0
  0
LINE
  8
0
 62
     0
 10
84.0631
 20
3.73172
 30
0.0
 11
83.7103
 21
4.0845
 31
0.0
  0
LINE
  8
0
 62
     0
 10
83.7103
 20
4.0845
 30
0.0
 11
83.2651
 21
4.31052
 31
0.0
  0
LINE
  8
0
 62
     0
 10
83.2651
 20
4.31052
 30
0.0
 11
82.7719
 21
4.38905
 31
0.0
  0
LINE
  8
0
 62
     0
 10
82.7719
 20
4.38905
 30
0.0
 11
82.2798
 21
4.31052
 31
0.0
  0
LINE
  8
0
 62
     0
 10
2.32613
 20
4.31052
 30
0.0
 11
1.88102
 21
4.0845
 31
0.0
  0
LINE
  8
0
 62
     0
 10
1.88102
 20
4.0845
 30
0.0
 11
1.52687
 21
3.73172
 31
0.0
  0
LINE
  8
0
 62
     0
 10
1.52687
 20
3.73172
 30
0.0
 11
1.30087
 21
3.28662
 31
0.0
  0
LINE
  8
0
 62
     0
 10
1.30087
 20
3.28662
 30
0.0
 11
1.22232
 21
2.79328
 31
0.0
  0
LINE
  8
0
 62
     0
 10
1.22232
 20
2.79328
 30
0.0
 11
1.30087
 21
2.30132
 31
0.0
  0
LINE
  8
0
 62
     0
 10
1.30087
 20
2.30132
 30
0.0
 11
1.52687
 21
1.85622
 31
0.0
  0
LINE
  8
0
 62
     0
 10
1.52687
 20
1.85622
 30
0.0
 11
1.88102
 21
1.50344
 31
0.0
  0
LINE
  8
0
 62
     0
 10
1.88102
 20
1.50344
 30
0.0
 11
2.32613
 21
1.27744
 31
0.0
  0
LINE
  8
0
 62
     0
 10
2.32613
 20
1.27744
 30
0.0
 11
2.81809
 21
1.19889
 31
0.0
  0
LINE
  8
0
 62
     0
 10
2.81809
 20
1.19889
 30
0.0
 11
3.31005
 21
1.27744
 31
0.0
  0
LINE
  8
0
 62
     0
 10
3.31005
 20
1.27744
 30
0.0
 11
3.75514
 21
1.50344
 31
0.0
  0
LINE
  8
0
 62
     0
 10
3.75514
 20
1.50344
 30
0.0
 11
4.10792
 21
1.85622
 31
0.0
  0
LINE
  8
0
 62
     0
 10
4.10792
 20
1.85622
 30
0.0
 11
4.33395
 21
2.30132
 31
0.0
  0
LINE
  8
0
 62
     0
 10
4.33395
 20
2.30132
 30
0.0
 11
4.41247
 21
2.79328
 31
0.0
  0
LINE
  8
0
 62
     0
 10
4.41247
 20
2.79328
 30
0.0
 11
4.33395
 21
3.28662
 31
0.0
  0
LINE
  8
0
 62
     0
 10
4.33395
 20
3.28662
 30
0.0
 11
4.10792
 21
3.73172
 31
0.0
  0
LINE
  8
0
 62
     0
 10
4.10792
 20
3.73172
 30
0.0
 11
3.75514
 21
4.0845
 31
0.0
  0
LINE
  8
0
 62
     0
 10
3.75514
 20
4.0845
 30
0.0
 11
3.31005
 21
4.31052
 31
0.0
  0
LINE
  8
0
 62
     0
 10
3.31005
 20
4.31052
 30
0.0
 11
2.81809
 21
4.38905
 31
0.0
  0
LINE
  8
0
 62
     0
 10
2.81809
 20
4.38905
 30
0.0
 11
2.32613
 21
4.31052
 31
0.0
  0
LINE
  8
0
 62
     0
 10
6.0675
 20
82.2456
 30
0.0
 11
6.0675
 21
44.1456
 31
0.0
  0
LINE
  8
0
 62
     0
 10
6.0675
 20
44.1456
 30
0.0
 11
6.06612
 21
44.1456
 31
0.0
  0
LINE
  8
0
 62
     0
 10
6.06612
 20
44.1456
 30
0.0
 11
6.06612
 21
25.0941
 31
0.0
  0
LINE
  8
0
 62
     0
 10
6.06612
 20
25.0941
 30
0.0
 11
6.0675
 21
25.0941
 31
0.0
  0
LINE
  8
0
 62
     0
 10
6.0675
 20
25.0941
 30
0.0
 11
6.0675
 21
6.04407
 31
0.0
  0
LINE
  8
0
 62
     0
 10
6.0675
 20
6.04407
 30
0.0
 11
239.431
 21
6.04407
 31
0.0
  0
LINE
  8
0
 62
     0
 10
239.431
 20
6.04407
 30
0.0
 11
239.431
 21
82.2456
 31
0.0
  0
LINE
  8
0
 62
     0
 10
239.431
 20
82.2456
 30
0.0
 11
6.0675
 21
82.2456
 31
0.0
  0
LINE
  8
0
 62
     0
 10
82.2798
 20
87.0119
 30
0.0
 11
81.8349
 21
86.7862
 31
0.0
  0
LINE
  8
0
 62
     0
 10
81.8349
 20
86.7862
 30
0.0
 11
81.4821
 21
86.432
 31
0.0
  0
LINE
  8
0
 62
     0
 10
81.4821
 20
86.432
 30
0.0
 11
81.256
 21
85.9868
 31
0.0
  0
LINE
  8
0
 62
     0
 10
81.256
 20
85.9868
 30
0.0
 11
81.1773
 21
85.495
 31
0.0
  0
LINE
  8
0
 62
     0
 10
81.1773
 20
85.495
 30
0.0
 11
81.256
 21
85.0029
 31
0.0
  0
LINE
  8
0
 62
     0
 10
81.256
 20
85.0029
 30
0.0
 11
81.4821
 21
84.5577
 31
0.0
  0
LINE
  8
0
 62
     0
 10
81.4821
 20
84.5577
 30
0.0
 11
81.8349
 21
84.2049
 31
0.0
  0
LINE
  8
0
 62
     0
 10
81.8349
 20
84.2049
 30
0.0
 11
82.2798
 21
83.9791
 31
0.0
  0
LINE
  8
0
 62
     0
 10
82.2798
 20
83.9791
 30
0.0
 11
82.7719
 21
83.899
 31
0.0
  0
LINE
  8
0
 62
     0
 10
82.7719
 20
83.899
 30
0.0
 11
83.2651
 21
83.9791
 31
0.0
  0
LINE
  8
0
 62
     0
 10
83.2651
 20
83.9791
 30
0.0
 11
83.7103
 21
84.2049
 31
0.0
  0
LINE
  8
0
 62
     0
 10
83.7103
 20
84.2049
 30
0.0
 11
84.0631
 21
84.5577
 31
0.0
  0
LINE
  8
0
 62
     0
 10
84.0631
 20
84.5577
 30
0.0
 11
84.2892
 21
85.0029
 31
0.0
  0
LINE
  8
0
 62
     0
 10
84.2892
 20
85.0029
 30
0.0
 11
84.3675
 21
85.495
 31
0.0
  0
LINE
  8
0
 62
     0
 10
84.3675
 20
85.495
 30
0.0
 11
84.2892
 21
85.9868
 31
0.0
  0
LINE
  8
0
 62
     0
 10
84.2892
 20
85.9868
 30
0.0
 11
84.0631
 21
86.432
 31
0.0
  0
LINE
  8
0
 62
     0
 10
84.0631
 20
86.432
 30
0.0
 11
83.7103
 21
86.7862
 31
0.0
  0
LINE
  8
0
 62
     0
 10
83.7103
 20
86.7862
 30
0.0
 11
83.2651
 21
87.0119
 31
0.0
  0
LINE
  8
0
 62
     0
 10
83.2651
 20
87.0119
 30
0.0
 11
82.7719
 21
87.0892
 31
0.0
  0
LINE
  8
0
 62
     0
 10
82.7719
 20
87.0892
 30
0.0
 11
82.2798
 21
87.0119
 31
0.0
  0
LINE
  8
0
 62
     0
 10
162.235
 20
87.0119
 30
0.0
 11
161.79
 21
86.7862
 31
0.0
  0
LINE
  8
0
 62
     0
 10
161.79
 20
86.7862
 30
0.0
 11
161.437
 21
86.432
 31
0.0
  0
LINE
  8
0
 62
     0
 10
161.437
 20
86.432
 30
0.0
 11
161.211
 21
85.9868
 31
0.0
  0
LINE
  8
0
 62
     0
 10
161.211
 20
85.9868
 30
0.0
 11
161.133
 21
85.495
 31
0.0
  0
LINE
  8
0
 62
     0
 10
161.133
 20
85.495
 30
0.0
 11
161.211
 21
85.0029
 31
0.0
  0
LINE
  8
0
 62
     0
 10
161.211
 20
85.0029
 30
0.0
 11
161.437
 21
84.5577
 31
0.0
  0
LINE
  8
0
 62
     0
 10
161.437
 20
84.5577
 30
0.0
 11
161.79
 21
84.2049
 31
0.0
  0
LINE
  8
0
 62
     0
 10
161.79
 20
84.2049
 30
0.0
 11
162.235
 21
83.9791
 31
0.0
  0
LINE
  8
0
 62
     0
 10
162.235
 20
83.9791
 30
0.0
 11
162.727
 21
83.899
 31
0.0
  0
LINE
  8
0
 62
     0
 10
162.727
 20
83.899
 30
0.0
 11
163.219
 21
83.9791
 31
0.0
  0
LINE
  8
0
 62
     0
 10
163.219
 20
83.9791
 30
0.0
 11
163.664
 21
84.2049
 31
0.0
  0
LINE
  8
0
 62
     0
 10
163.664
 20
84.2049
 30
0.0
 11
164.017
 21
84.5577
 31
0.0
  0
LINE
  8
0
 62
     0
 10
164.017
 20
84.5577
 30
0.0
 11
164.243
 21
85.0029
 31
0.0
  0
LINE
  8
0
 62
     0
 10
164.243
 20
85.0029
 30
0.0
 11
164.323
 21
85.495
 31
0.0
  0
LINE
  8
0
 62
     0
 10
164.323
 20
85.495
 30
0.0
 11
164.243
 21
85.9868
 31
0.0
  0
LINE
  8
0
 62
     0
 10
164.243
 20
85.9868
 30
0.0
 11
164.017
 21
86.432
 31
0.0
  0
LINE
  8
0
 62
     0
 10
164.017
 20
86.432
 30
0.0
 11
163.664
 21
86.7862
 31
0.0
  0
LINE
  8
0
 62
     0
 10
163.664
 20
86.7862
 30
0.0
 11
163.219
 21
87.0119
 31
0.0
  0
LINE
  8
0
 62
     0
 10
163.219
 20
87.0119
 30
0.0
 11
162.727
 21
87.0892
 31
0.0
  0
LINE
  8
0
 62
     0
 10
162.727
 20
87.0892
 30
0.0
 11
162.235
 21
87.0119
 31
0.0
  0
LINE
  8
0
 62
     0
 10
242.189
 20
87.0119
 30
0.0
 11
241.744
 21
86.7862
 31
0.0
  0
LINE
  8
0
 62
     0
 10
241.744
 20
86.7862
 30
0.0
 11
241.391
 21
86.432
 31
0.0
  0
LINE
  8
0
 62
     0
 10
241.391
 20
86.432
 30
0.0
 11
241.165
 21
85.9868
 31
0.0
  0
LINE
  8
0
 62
     0
 10
241.165
 20
85.9868
 30
0.0
 11
241.087
 21
85.495
 31
0.0
  0
LINE
  8
0
 62
     0
 10
241.087
 20
85.495
 30
0.0
 11
241.165
 21
85.0029
 31
0.0
  0
LINE
  8
0
 62
     0
 10
241.165
 20
85.0029
 30
0.0
 11
241.391
 21
84.5577
 31
0.0
  0
LINE
  8
0
 62
     0
 10
241.391
 20
84.5577
 30
0.0
 11
241.744
 21
84.2049
 31
0.0
  0
LINE
  8
0
 62
     0
 10
241.744
 20
84.2049
 30
0.0
 11
242.189
 21
83.9791
 31
0.0
  0
LINE
  8
0
 62
     0
 10
242.189
 20
83.9791
 30
0.0
 11
242.682
 21
83.899
 31
0.0
  0
LINE
  8
0
 62
     0
 10
242.682
 20
83.899
 30
0.0
 11
243.174
 21
83.9791
 31
0.0
  0
LINE
  8
0
 62
     0
 10
243.174
 20
83.9791
 30
0.0
 11
243.619
 21
84.2049
 31
0.0
  0
LINE
  8
0
 62
     0
 10
243.619
 20
84.2049
 30
0.0
 11
243.972
 21
84.5577
 31
0.0
  0
LINE
  8
0
 62
     0
 10
243.972
 20
84.5577
 30
0.0
 11
244.198
 21
85.0029
 31
0.0
  0
LINE
  8
0
 62
     0
 10
244.198
 20
85.0029
 30
0.0
 11
244.277
 21
85.495
 31
0.0
  0
LINE
  8
0
 62
     0
 10
244.277
 20
85.495
 30
0.0
 11
244.198
 21
85.9868
 31
0.0
  0
LINE
  8
0
 62
     0
 10
244.198
 20
85.9868
 30
0.0
 11
243.972
 21
86.432
 31
0.0
  0
LINE
  8
0
 62
     0
 10
243.972
 20
86.432
 30
0.0
 11
243.619
 21
86.7862
 31
0.0
  0
LINE
  8
0
 62
     0
 10
243.619
 20
86.7862
 30
0.0
 11
243.174
 21
87.0119
 31
0.0
  0
LINE
  8
0
 62
     0
 10
243.174
 20
87.0119
 30
0.0
 11
242.682
 21
87.0892
 31
0.0
  0
LINE
  8
0
 62
     0
 10
242.682
 20
87.0892
 30
0.0
 11
242.189
 21
87.0119
 31
0.0
  0
LINE
  8
0
 62
     0
 10
2.32613
 20
87.0119
 30
0.0
 11
1.88102
 21
86.7862
 31
0.0
  0
LINE
  8
0
 62
     0
 10
1.88102
 20
86.7862
 30
0.0
 11
1.52687
 21
86.432
 31
0.0
  0
LINE
  8
0
 62
     0
 10
1.52687
 20
86.432
 30
0.0
 11
1.30087
 21
85.9868
 31
0.0
  0
LINE
  8
0
 62
     0
 10
1.30087
 20
85.9868
 30
0.0
 11
1.22232
 21
85.495
 31
0.0
  0
LINE
  8
0
 62
     0
 10
1.22232
 20
85.495
 30
0.0
 11
1.30087
 21
85.0029
 31
0.0
  0
LINE
  8
0
 62
     0
 10
1.30087
 20
85.0029
 30
0.0
 11
1.52687
 21
84.5577
 31
0.0
  0
LINE
  8
0
 62
     0
 10
1.52687
 20
84.5577
 30
0.0
 11
1.88102
 21
84.2049
 31
0.0
  0
LINE
  8
0
 62
     0
 10
1.88102
 20
84.2049
 30
0.0
 11
2.32613
 21
83.9791
 31
0.0
  0
LINE
  8
0
 62
     0
 10
2.32613
 20
83.9791
 30
0.0
 11
2.81809
 21
83.9004
 31
0.0
  0
LINE
  8
0
 62
     0
 10
2.81809
 20
83.9004
 30
0.0
 11
3.31005
 21
83.9791
 31
0.0
  0
LINE
  8
0
 62
     0
 10
3.31005
 20
83.9791
 30
0.0
 11
3.75514
 21
84.2049
 31
0.0
  0
LINE
  8
0
 62
     0
 10
3.75514
 20
84.2049
 30
0.0
 11
4.10792
 21
84.5577
 31
0.0
  0
LINE
  8
0
 62
     0
 10
4.10792
 20
84.5577
 30
0.0
 11
4.33395
 21
85.0029
 31
0.0
  0
LINE
  8
0
 62
     0
 10
4.33395
 20
85.0029
 30
0.0
 11
4.41247
 21
85.495
 31
0.0
  0
LINE
  8
0
 62
     0
 10
4.41247
 20
85.495
 30
0.0
 11
4.33395
 21
85.9868
 31
0.0
  0
LINE
  8
0
 62
     0
 10
4.33395
 20
85.9868
 30
0.0
 11
4.10792
 21
86.432
 31
0.0
  0
LINE
  8
0
 62
     0
 10
4.10792
 20
86.432
 30
0.0
 11
3.75514
 21
86.7862
 31
0.0
  0
LINE
  8
0
 62
     0
 10
3.75514
 20
86.7862
 30
0.0
 11
3.31005
 21
87.0119
 31
0.0
  0
LINE
  8
0
 62
     0
 10
3.31005
 20
87.0119
 30
0.0
 11
2.81809
 21
87.0906
 31
0.0
  0
LINE
  8
0
 62
     0
 10
2.81809
 20
87.0906
 30
0.0
 11
2.32613
 21
87.0119
 31
0.0
  0
ENDSEC
  0
EOF
