<?xml version="1.0"?>
<!-- Generated by SVGo -->
<svg width="253.364mm" height="96.202mm"
     viewBox="0.000 0.000 253.364 96.202"
     xmlns="http://www.w3.org/2000/svg" 
     xmlns:xlink="http://www.w3.org/1999/xlink">
<polygon points="245.364,5.001 245.599,5.010 245.833,5.037 246.064,5.083 246.291,5.147 246.512,5.229 246.726,5.327 246.931,5.443 247.127,5.573 247.312,5.719 247.485,5.879 247.645,6.052 247.791,6.237 247.922,6.433 248.037,6.639 248.136,6.852 248.217,7.073 248.281,7.300 248.327,7.531 248.355,7.765 248.364,8.001 248.364,88.202 248.355,88.437 248.327,88.671 248.281,88.902 248.217,89.129 248.136,89.350 248.037,89.563 247.922,89.769 247.791,89.965 247.645,90.150 247.485,90.323 247.312,90.483 247.127,90.629 246.931,90.759 246.726,90.875 246.512,90.973 246.291,91.055 246.064,91.119 245.833,91.165 245.599,91.192 245.364,91.202 8.001,91.202 7.765,91.192 7.531,91.165 7.300,91.119 7.073,91.055 6.852,90.973 6.639,90.875 6.433,90.759 6.237,90.629 6.052,90.483 5.879,90.323 5.719,90.150 5.573,89.965 5.443,89.769 5.327,89.563 5.229,89.350 5.147,89.129 5.083,88.902 5.037,88.671 5.010,88.437 5.000,88.201 5.001,8.001 5.010,7.765 5.037,7.531 5.083,7.300 5.147,7.073 5.229,6.852 5.327,6.639 5.443,6.433 5.573,6.237 5.719,6.052 5.879,5.879 6.052,5.719 6.237,5.573 6.433,5.443 6.639,5.327 6.852,5.229 7.073,5.147 7.300,5.083 7.531,5.037 7.765,5.010 8.001,5.000" style="fill:none;stroke-width:0.050000mm;stroke:black"/>
<polygon points="245.478,87.513 245.129,87.690 244.853,87.967 244.675,88.315 244.614,88.702 244.675,89.088 244.853,89.436 245.129,89.713 245.478,89.890 245.864,89.952 246.250,89.890 246.599,89.713 246.875,89.436 247.053,89.088 247.114,88.702 247.053,88.315 246.875,87.967 246.599,87.690 246.250,87.513 245.864,87.452" style="fill:none;stroke-width:0.050000mm;stroke:black"/>
<polygon points="126.296,87.513 125.948,87.690 125.671,87.967 125.493,88.315 125.432,88.702 125.493,89.088 125.671,89.436 125.948,89.713 126.296,89.890 126.682,89.952 127.069,89.890 127.417,89.713 127.694,89.436 127.871,89.088 127.932,88.702 127.871,88.315 127.694,87.967 127.417,87.690 127.069,87.513 126.682,87.452" style="fill:none;stroke-width:0.050000mm;stroke:black"/>
<polygon points="7.114,87.513 6.766,87.690 6.489,87.967 6.312,88.315 6.250,88.702 6.312,89.088 6.489,89.436 6.766,89.713 7.114,89.890 7.500,89.952 7.887,89.890 8.235,89.713 8.512,89.436 8.689,89.088 8.751,88.702 8.689,88.315 8.512,87.967 8.235,87.690 7.887,87.513 7.501,87.452" style="fill:none;stroke-width:0.050000mm;stroke:black"/>
<polygon points="9.999,9.999 9.999,29.052 10.000,29.052 10.000,48.100 9.999,48.100 9.999,67.152 10.000,67.152 10.000,86.202 243.364,86.202 243.364,9.999" style="fill:none;stroke-width:0.050000mm;stroke:black"/>
<polygon points="126.296,6.312 125.948,6.489 125.671,6.766 125.493,7.114 125.432,7.501 125.493,7.887 125.671,8.235 125.948,8.512 126.296,8.689 126.682,8.751 127.069,8.689 127.417,8.512 127.694,8.235 127.871,7.887 127.932,7.501 127.871,7.114 127.694,6.766 127.417,6.489 127.069,6.312 126.682,6.251" style="fill:none;stroke-width:0.050000mm;stroke:black"/>
<polygon points="245.478,6.312 245.129,6.489 244.853,6.766 244.675,7.114 244.614,7.501 244.675,7.887 244.853,8.235 245.129,8.512 245.478,8.689 245.864,8.751 246.250,8.689 246.599,8.512 246.875,8.235 247.053,7.887 247.114,7.501 247.053,7.114 246.875,6.766 246.599,6.489 246.250,6.312 245.864,6.251" style="fill:none;stroke-width:0.050000mm;stroke:black"/>
<polygon points="7.114,6.312 6.766,6.489 6.489,6.766 6.312,7.114 6.250,7.501 6.312,7.887 6.489,8.235 6.766,8.512 7.114,8.689 7.500,8.751 7.887,8.689 8.235,8.512 8.512,8.235 8.689,7.887 8.751,7.501 8.689,7.114 8.512,6.766 8.235,6.489 7.887,6.312 7.501,6.251" style="fill:none;stroke-width:0.050000mm;stroke:black"/>
</svg>
