  0
SECTION
  2
HEADER
  9
$ACADVER
  1
AC1009
  9
$EXTMIN
 10
0.0
 20
0.0
 30
0.0
  9
$EXTMAX
 10
1000.0
 20
1000.0
 30
0.0
  9
$FILLMODE
 70
 0
  9
$SPLFRAME
 70
 1
  0
ENDSEC
  0
SECTION
  2
TABLES
  0
TABLE
  2
LAYER
 70
1
  0
LAYER
  2
0
 70
     0
 62
     7
  6
CONTINUOUS
  0
ENDTAB
  0
ENDSEC
  0
SECTION
  2
ENTITIES
  0
LINE
  8
0
 62
     0
 10
240.458
 20
86.2803
 30
0.0
 11
240.692
 21
86.2722
 31
0.0
  0
LINE
  8
0
 62
     0
 10
240.692
 20
86.2722
 30
0.0
 11
240.926
 21
86.2446
 31
0.0
  0
LINE
  8
0
 62
     0
 10
240.926
 20
86.2446
 30
0.0
 11
241.158
 21
86.1991
 31
0.0
  0
LINE
  8
0
 62
     0
 10
241.158
 20
86.1991
 30
0.0
 11
241.385
 21
86.1342
 31
0.0
  0
LINE
  8
0
 62
     0
 10
241.385
 20
86.1342
 30
0.0
 11
241.606
 21
86.0531
 31
0.0
  0
LINE
  8
0
 62
     0
 10
241.606
 20
86.0531
 30
0.0
 11
241.82
 21
85.955
 31
0.0
  0
LINE
  8
0
 62
     0
 10
241.82
 20
85.955
 30
0.0
 11
242.025
 21
85.8379
 31
0.0
  0
LINE
  8
0
 62
     0
 10
242.025
 20
85.8379
 30
0.0
 11
242.22
 21
85.7084
 31
0.0
  0
LINE
  8
0
 62
     0
 10
242.22
 20
85.7084
 30
0.0
 11
242.405
 21
85.5624
 31
0.0
  0
LINE
  8
0
 62
     0
 10
242.405
 20
85.5624
 30
0.0
 11
242.579
 21
85.4026
 31
0.0
  0
LINE
  8
0
 62
     0
 10
242.579
 20
85.4026
 30
0.0
 11
242.739
 21
85.2304
 31
0.0
  0
LINE
  8
0
 62
     0
 10
242.739
 20
85.2304
 30
0.0
 11
242.885
 21
85.0441
 31
0.0
  0
LINE
  8
0
 62
     0
 10
242.885
 20
85.0441
 30
0.0
 11
243.016
 21
84.8487
 31
0.0
  0
LINE
  8
0
 62
     0
 10
243.016
 20
84.8487
 30
0.0
 11
243.131
 21
84.6434
 31
0.0
  0
LINE
  8
0
 62
     0
 10
243.131
 20
84.6434
 30
0.0
 11
243.229
 21
84.4296
 31
0.0
  0
LINE
  8
0
 62
     0
 10
243.229
 20
84.4296
 30
0.0
 11
243.31
 21
84.2091
 31
0.0
  0
LINE
  8
0
 62
     0
 10
243.31
 20
84.2091
 30
0.0
 11
243.375
 21
83.9819
 31
0.0
  0
LINE
  8
0
 62
     0
 10
243.375
 20
83.9819
 30
0.0
 11
243.421
 21
83.7501
 31
0.0
  0
LINE
  8
0
 62
     0
 10
243.421
 20
83.7501
 30
0.0
 11
243.448
 21
83.5159
 31
0.0
  0
LINE
  8
0
 62
     0
 10
243.448
 20
83.5159
 30
0.0
 11
243.458
 21
83.2803
 31
0.0
  0
LINE
  8
0
 62
     0
 10
243.458
 20
83.2803
 30
0.0
 11
243.458
 21
3.07992
 31
0.0
  0
LINE
  8
0
 62
     0
 10
243.458
 20
3.07992
 30
0.0
 11
243.448
 21
2.84427
 31
0.0
  0
LINE
  8
0
 62
     0
 10
243.448
 20
2.84427
 30
0.0
 11
243.421
 21
2.61001
 31
0.0
  0
LINE
  8
0
 62
     0
 10
243.421
 20
2.61001
 30
0.0
 11
243.375
 21
2.37987
 31
0.0
  0
LINE
  8
0
 62
     0
 10
243.375
 20
2.37987
 30
0.0
 11
243.31
 21
2.15249
 31
0.0
  0
LINE
  8
0
 62
     0
 10
243.31
 20
2.15249
 30
0.0
 11
243.229
 21
1.93201
 31
0.0
  0
LINE
  8
0
 62
     0
 10
243.229
 20
1.93201
 30
0.0
 11
243.131
 21
1.71841
 31
0.0
  0
LINE
  8
0
 62
     0
 10
243.131
 20
1.71841
 30
0.0
 11
243.016
 21
1.51309
 31
0.0
  0
LINE
  8
0
 62
     0
 10
243.016
 20
1.51309
 30
0.0
 11
242.885
 21
1.31603
 31
0.0
  0
LINE
  8
0
 62
     0
 10
242.885
 20
1.31603
 30
0.0
 11
242.739
 21
1.13137
 31
0.0
  0
LINE
  8
0
 62
     0
 10
242.739
 20
1.13137
 30
0.0
 11
242.579
 21
0.959115
 31
0.0
  0
LINE
  8
0
 62
     0
 10
242.579
 20
0.959115
 30
0.0
 11
242.405
 21
0.799264
 31
0.0
  0
LINE
  8
0
 62
     0
 10
242.405
 20
0.799264
 30
0.0
 11
242.22
 21
0.653189
 31
0.0
  0
LINE
  8
0
 62
     0
 10
242.22
 20
0.653189
 30
0.0
 11
242.025
 21
0.522277
 31
0.0
  0
LINE
  8
0
 62
     0
 10
242.025
 20
0.522277
 30
0.0
 11
241.82
 21
0.40652
 31
0.0
  0
LINE
  8
0
 62
     0
 10
241.82
 20
0.40652
 30
0.0
 11
241.606
 21
0.308681
 31
0.0
  0
LINE
  8
0
 62
     0
 10
241.606
 20
0.308681
 30
0.0
 11
241.385
 21
0.225998
 31
0.0
  0
LINE
  8
0
 62
     0
 10
241.385
 20
0.225998
 30
0.0
 11
241.158
 21
0.162609
 31
0.0
  0
LINE
  8
0
 62
     0
 10
241.158
 20
0.162609
 30
0.0
 11
240.926
 21
0.117133
 31
0.0
  0
LINE
  8
0
 62
     0
 10
240.926
 20
0.117133
 30
0.0
 11
240.692
 21
0.0895724
 31
0.0
  0
LINE
  8
0
 62
     0
 10
240.692
 20
0.0895724
 30
0.0
 11
240.458
 21
0.0799264
 31
0.0
  0
LINE
  8
0
 62
     0
 10
240.458
 20
0.0799264
 30
0.0
 11
3.09507
 21
0.0799264
 31
0.0
  0
LINE
  8
0
 62
     0
 10
3.09507
 20
0.0799264
 30
0.0
 11
2.85943
 21
0.0895724
 31
0.0
  0
LINE
  8
0
 62
     0
 10
2.85943
 20
0.0895724
 30
0.0
 11
2.62516
 21
0.117133
 31
0.0
  0
LINE
  8
0
 62
     0
 10
2.62516
 20
0.117133
 30
0.0
 11
2.39365
 21
0.162609
 31
0.0
  0
LINE
  8
0
 62
     0
 10
2.39365
 20
0.162609
 30
0.0
 11
2.16628
 21
0.225998
 31
0.0
  0
LINE
  8
0
 62
     0
 10
2.16628
 20
0.225998
 30
0.0
 11
1.94579
 21
0.308681
 31
0.0
  0
LINE
  8
0
 62
     0
 10
1.94579
 20
0.308681
 30
0.0
 11
1.7322
 21
0.40652
 31
0.0
  0
LINE
  8
0
 62
     0
 10
1.7322
 20
0.40652
 30
0.0
 11
1.52687
 21
0.522277
 31
0.0
  0
LINE
  8
0
 62
     0
 10
1.52687
 20
0.522277
 30
0.0
 11
1.33119
 21
0.653189
 31
0.0
  0
LINE
  8
0
 62
     0
 10
1.33119
 20
0.653189
 30
0.0
 11
1.14515
 21
0.799264
 31
0.0
  0
LINE
  8
0
 62
     0
 10
1.14515
 20
0.799264
 30
0.0
 11
0.972894
 21
0.959115
 31
0.0
  0
LINE
  8
0
 62
     0
 10
0.972894
 20
0.959115
 30
0.0
 11
0.813043
 21
1.13137
 31
0.0
  0
LINE
  8
0
 62
     0
 10
0.813043
 20
1.13137
 30
0.0
 11
0.666972
 21
1.31603
 31
0.0
  0
LINE
  8
0
 62
     0
 10
0.666972
 20
1.31603
 30
0.0
 11
0.537436
 21
1.51309
 31
0.0
  0
LINE
  8
0
 62
     0
 10
0.537436
 20
1.51309
 30
0.0
 11
0.420303
 21
1.71841
 31
0.0
  0
LINE
  8
0
 62
     0
 10
0.420303
 20
1.71841
 30
0.0
 11
0.322461
 21
1.93201
 31
0.0
  0
LINE
  8
0
 62
     0
 10
0.322461
 20
1.93201
 30
0.0
 11
0.241157
 21
2.15249
 31
0.0
  0
LINE
  8
0
 62
     0
 10
0.241157
 20
2.15249
 30
0.0
 11
0.176389
 21
2.37987
 31
0.0
  0
LINE
  8
0
 62
     0
 10
0.176389
 20
2.37987
 30
0.0
 11
0.130914
 21
2.61001
 31
0.0
  0
LINE
  8
0
 62
     0
 10
0.130914
 20
2.61001
 30
0.0
 11
0.103353
 21
2.84427
 31
0.0
  0
LINE
  8
0
 62
     0
 10
0.103353
 20
2.84427
 30
0.0
 11
0.0937066
 21
3.0813
 31
0.0
  0
LINE
  8
0
 62
     0
 10
0.0937066
 20
3.0813
 30
0.0
 11
0.0950846
 21
83.2803
 31
0.0
  0
LINE
  8
0
 62
     0
 10
0.0950846
 20
83.2803
 30
0.0
 11
0.103353
 21
83.5159
 31
0.0
  0
LINE
  8
0
 62
     0
 10
0.103353
 20
83.5159
 30
0.0
 11
0.130914
 21
83.7501
 31
0.0
  0
LINE
  8
0
 62
     0
 10
0.130914
 20
83.7501
 30
0.0
 11
0.176389
 21
83.9819
 31
0.0
  0
LINE
  8
0
 62
     0
 10
0.176389
 20
83.9819
 30
0.0
 11
0.241157
 21
84.2091
 31
0.0
  0
LINE
  8
0
 62
     0
 10
0.241157
 20
84.2091
 30
0.0
 11
0.322461
 21
84.4296
 31
0.0
  0
LINE
  8
0
 62
     0
 10
0.322461
 20
84.4296
 30
0.0
 11
0.420303
 21
84.6434
 31
0.0
  0
LINE
  8
0
 62
     0
 10
0.420303
 20
84.6434
 30
0.0
 11
0.537436
 21
84.8487
 31
0.0
  0
LINE
  8
0
 62
     0
 10
0.537436
 20
84.8487
 30
0.0
 11
0.666972
 21
85.0441
 31
0.0
  0
LINE
  8
0
 62
     0
 10
0.666972
 20
85.0441
 30
0.0
 11
0.813043
 21
85.2304
 31
0.0
  0
LINE
  8
0
 62
     0
 10
0.813043
 20
85.2304
 30
0.0
 11
0.972894
 21
85.4026
 31
0.0
  0
LINE
  8
0
 62
     0
 10
0.972894
 20
85.4026
 30
0.0
 11
1.14515
 21
85.5624
 31
0.0
  0
LINE
  8
0
 62
     0
 10
1.14515
 20
85.5624
 30
0.0
 11
1.33119
 21
85.7084
 31
0.0
  0
LINE
  8
0
 62
     0
 10
1.33119
 20
85.7084
 30
0.0
 11
1.52687
 21
85.8379
 31
0.0
  0
LINE
  8
0
 62
     0
 10
1.52687
 20
85.8379
 30
0.0
 11
1.7322
 21
85.955
 31
0.0
  0
LINE
  8
0
 62
     0
 10
1.7322
 20
85.955
 30
0.0
 11
1.94579
 21
86.0531
 31
0.0
  0
LINE
  8
0
 62
     0
 10
1.94579
 20
86.0531
 30
0.0
 11
2.16628
 21
86.1342
 31
0.0
  0
LINE
  8
0
 62
     0
 10
2.16628
 20
86.1342
 30
0.0
 11
2.39365
 21
86.1991
 31
0.0
  0
LINE
  8
0
 62
     0
 10
2.39365
 20
86.1991
 30
0.0
 11
2.62516
 21
86.2446
 31
0.0
  0
LINE
  8
0
 62
     0
 10
2.62516
 20
86.2446
 30
0.0
 11
2.85943
 21
86.2722
 31
0.0
  0
LINE
  8
0
 62
     0
 10
2.85943
 20
86.2722
 30
0.0
 11
3.09507
 21
86.2817
 31
0.0
  0
LINE
  8
0
 62
     0
 10
3.09507
 20
86.2817
 30
0.0
 11
240.458
 21
86.2803
 31
0.0
  0
LINE
  8
0
 62
     0
 10
240.648
 20
3.53191
 30
0.0
 11
240.37
 21
3.38998
 31
0.0
  0
LINE
  8
0
 62
     0
 10
240.37
 20
3.38998
 30
0.0
 11
240.149
 21
3.16811
 31
0.0
  0
LINE
  8
0
 62
     0
 10
240.149
 20
3.16811
 30
0.0
 11
240.007
 21
2.88975
 31
0.0
  0
LINE
  8
0
 62
     0
 10
240.007
 20
2.88975
 30
0.0
 11
239.958
 21
2.57969
 31
0.0
  0
LINE
  8
0
 62
     0
 10
239.958
 20
2.57969
 30
0.0
 11
240.007
 21
2.27101
 31
0.0
  0
LINE
  8
0
 62
     0
 10
240.007
 20
2.27101
 30
0.0
 11
240.149
 21
1.99264
 31
0.0
  0
LINE
  8
0
 62
     0
 10
240.149
 20
1.99264
 30
0.0
 11
240.37
 21
1.77078
 31
0.0
  0
LINE
  8
0
 62
     0
 10
240.37
 20
1.77078
 30
0.0
 11
240.648
 21
1.62884
 31
0.0
  0
LINE
  8
0
 62
     0
 10
240.648
 20
1.62884
 30
0.0
 11
240.958
 21
1.57923
 31
0.0
  0
LINE
  8
0
 62
     0
 10
240.958
 20
1.57923
 30
0.0
 11
241.267
 21
1.62884
 31
0.0
  0
LINE
  8
0
 62
     0
 10
241.267
 20
1.62884
 30
0.0
 11
241.545
 21
1.77078
 31
0.0
  0
LINE
  8
0
 62
     0
 10
241.545
 20
1.77078
 30
0.0
 11
241.767
 21
1.99264
 31
0.0
  0
LINE
  8
0
 62
     0
 10
241.767
 20
1.99264
 30
0.0
 11
241.909
 21
2.27101
 31
0.0
  0
LINE
  8
0
 62
     0
 10
241.909
 20
2.27101
 30
0.0
 11
241.957
 21
2.57969
 31
0.0
  0
LINE
  8
0
 62
     0
 10
241.957
 20
2.57969
 30
0.0
 11
241.909
 21
2.88975
 31
0.0
  0
LINE
  8
0
 62
     0
 10
241.909
 20
2.88975
 30
0.0
 11
241.767
 21
3.16811
 31
0.0
  0
LINE
  8
0
 62
     0
 10
241.767
 20
3.16811
 30
0.0
 11
241.545
 21
3.38998
 31
0.0
  0
LINE
  8
0
 62
     0
 10
241.545
 20
3.38998
 30
0.0
 11
241.267
 21
3.53191
 31
0.0
  0
LINE
  8
0
 62
     0
 10
241.267
 20
3.53191
 30
0.0
 11
240.958
 21
3.58013
 31
0.0
  0
LINE
  8
0
 62
     0
 10
240.958
 20
3.58013
 30
0.0
 11
240.648
 21
3.53191
 31
0.0
  0
LINE
  8
0
 62
     0
 10
121.467
 20
3.53191
 30
0.0
 11
121.187
 21
3.38998
 31
0.0
  0
LINE
  8
0
 62
     0
 10
121.187
 20
3.38998
 30
0.0
 11
120.967
 21
3.16811
 31
0.0
  0
LINE
  8
0
 62
     0
 10
120.967
 20
3.16811
 30
0.0
 11
120.825
 21
2.88975
 31
0.0
  0
LINE
  8
0
 62
     0
 10
120.825
 20
2.88975
 30
0.0
 11
120.775
 21
2.57969
 31
0.0
  0
LINE
  8
0
 62
     0
 10
120.775
 20
2.57969
 30
0.0
 11
120.825
 21
2.27101
 31
0.0
  0
LINE
  8
0
 62
     0
 10
120.825
 20
2.27101
 30
0.0
 11
120.967
 21
1.99264
 31
0.0
  0
LINE
  8
0
 62
     0
 10
120.967
 20
1.99264
 30
0.0
 11
121.187
 21
1.77078
 31
0.0
  0
LINE
  8
0
 62
     0
 10
121.187
 20
1.77078
 30
0.0
 11
121.467
 21
1.62884
 31
0.0
  0
LINE
  8
0
 62
     0
 10
121.467
 20
1.62884
 30
0.0
 11
121.776
 21
1.57923
 31
0.0
  0
LINE
  8
0
 62
     0
 10
121.776
 20
1.57923
 30
0.0
 11
122.084
 21
1.62884
 31
0.0
  0
LINE
  8
0
 62
     0
 10
122.084
 20
1.62884
 30
0.0
 11
122.364
 21
1.77078
 31
0.0
  0
LINE
  8
0
 62
     0
 10
122.364
 20
1.77078
 30
0.0
 11
122.585
 21
1.99264
 31
0.0
  0
LINE
  8
0
 62
     0
 10
122.585
 20
1.99264
 30
0.0
 11
122.727
 21
2.27101
 31
0.0
  0
LINE
  8
0
 62
     0
 10
122.727
 20
2.27101
 30
0.0
 11
122.776
 21
2.57969
 31
0.0
  0
LINE
  8
0
 62
     0
 10
122.776
 20
2.57969
 30
0.0
 11
122.727
 21
2.88975
 31
0.0
  0
LINE
  8
0
 62
     0
 10
122.727
 20
2.88975
 30
0.0
 11
122.585
 21
3.16811
 31
0.0
  0
LINE
  8
0
 62
     0
 10
122.585
 20
3.16811
 30
0.0
 11
122.364
 21
3.38998
 31
0.0
  0
LINE
  8
0
 62
     0
 10
122.364
 20
3.38998
 30
0.0
 11
122.084
 21
3.53191
 31
0.0
  0
LINE
  8
0
 62
     0
 10
122.084
 20
3.53191
 30
0.0
 11
121.776
 21
3.58013
 31
0.0
  0
LINE
  8
0
 62
     0
 10
121.776
 20
3.58013
 30
0.0
 11
121.467
 21
3.53191
 31
0.0
  0
LINE
  8
0
 62
     0
 10
2.28479
 20
3.53191
 30
0.0
 11
2.00642
 21
3.38998
 31
0.0
  0
LINE
  8
0
 62
     0
 10
2.00642
 20
3.38998
 30
0.0
 11
1.78456
 21
3.16811
 31
0.0
  0
LINE
  8
0
 62
     0
 10
1.78456
 20
3.16811
 30
0.0
 11
1.64262
 21
2.88975
 31
0.0
  0
LINE
  8
0
 62
     0
 10
1.64262
 20
2.88975
 30
0.0
 11
1.59439
 21
2.57969
 31
0.0
  0
LINE
  8
0
 62
     0
 10
1.59439
 20
2.57969
 30
0.0
 11
1.64262
 21
2.27101
 31
0.0
  0
LINE
  8
0
 62
     0
 10
1.64262
 20
2.27101
 30
0.0
 11
1.78456
 21
1.99264
 31
0.0
  0
LINE
  8
0
 62
     0
 10
1.78456
 20
1.99264
 30
0.0
 11
2.00642
 21
1.77078
 31
0.0
  0
LINE
  8
0
 62
     0
 10
2.00642
 20
1.77078
 30
0.0
 11
2.28479
 21
1.62884
 31
0.0
  0
LINE
  8
0
 62
     0
 10
2.28479
 20
1.62884
 30
0.0
 11
2.59347
 21
1.57923
 31
0.0
  0
LINE
  8
0
 62
     0
 10
2.59347
 20
1.57923
 30
0.0
 11
2.90353
 21
1.62884
 31
0.0
  0
LINE
  8
0
 62
     0
 10
2.90353
 20
1.62884
 30
0.0
 11
3.18189
 21
1.77078
 31
0.0
  0
LINE
  8
0
 62
     0
 10
3.18189
 20
1.77078
 30
0.0
 11
3.40376
 21
1.99264
 31
0.0
  0
LINE
  8
0
 62
     0
 10
3.40376
 20
1.99264
 30
0.0
 11
3.5457
 21
2.27101
 31
0.0
  0
LINE
  8
0
 62
     0
 10
3.5457
 20
2.27101
 30
0.0
 11
3.5953
 21
2.57969
 31
0.0
  0
LINE
  8
0
 62
     0
 10
3.5953
 20
2.57969
 30
0.0
 11
3.5457
 21
2.88975
 31
0.0
  0
LINE
  8
0
 62
     0
 10
3.5457
 20
2.88975
 30
0.0
 11
3.40376
 21
3.16811
 31
0.0
  0
LINE
  8
0
 62
     0
 10
3.40376
 20
3.16811
 30
0.0
 11
3.18189
 21
3.38998
 31
0.0
  0
LINE
  8
0
 62
     0
 10
3.18189
 20
3.38998
 30
0.0
 11
2.90353
 21
3.53191
 31
0.0
  0
LINE
  8
0
 62
     0
 10
2.90353
 20
3.53191
 30
0.0
 11
2.59485
 21
3.58013
 31
0.0
  0
LINE
  8
0
 62
     0
 10
2.59485
 20
3.58013
 30
0.0
 11
2.28479
 21
3.53191
 31
0.0
  0
LINE
  8
0
 62
     0
 10
5.0946
 20
81.2807
 30
0.0
 11
238.457
 21
81.2807
 31
0.0
  0
LINE
  8
0
 62
     0
 10
238.457
 20
81.2807
 30
0.0
 11
238.457
 21
5.07944
 31
0.0
  0
LINE
  8
0
 62
     0
 10
238.457
 20
5.07944
 30
0.0
 11
5.0946
 21
5.07944
 31
0.0
  0
LINE
  8
0
 62
     0
 10
5.0946
 20
5.07944
 30
0.0
 11
5.0946
 21
81.2807
 31
0.0
  0
LINE
  8
0
 62
     0
 10
121.467
 20
84.733
 30
0.0
 11
121.187
 21
84.5908
 31
0.0
  0
LINE
  8
0
 62
     0
 10
121.187
 20
84.5908
 30
0.0
 11
120.967
 21
84.3689
 31
0.0
  0
LINE
  8
0
 62
     0
 10
120.967
 20
84.3689
 30
0.0
 11
120.825
 21
84.0906
 31
0.0
  0
LINE
  8
0
 62
     0
 10
120.825
 20
84.0906
 30
0.0
 11
120.775
 21
83.7819
 31
0.0
  0
LINE
  8
0
 62
     0
 10
120.775
 20
83.7819
 30
0.0
 11
120.825
 21
83.4718
 31
0.0
  0
LINE
  8
0
 62
     0
 10
120.825
 20
83.4718
 30
0.0
 11
120.967
 21
83.1935
 31
0.0
  0
LINE
  8
0
 62
     0
 10
120.967
 20
83.1935
 30
0.0
 11
121.187
 21
82.9716
 31
0.0
  0
LINE
  8
0
 62
     0
 10
121.187
 20
82.9716
 30
0.0
 11
121.467
 21
82.8298
 31
0.0
  0
LINE
  8
0
 62
     0
 10
121.467
 20
82.8298
 30
0.0
 11
121.776
 21
82.78
 31
0.0
  0
LINE
  8
0
 62
     0
 10
121.776
 20
82.78
 30
0.0
 11
122.084
 21
82.8298
 31
0.0
  0
LINE
  8
0
 62
     0
 10
122.084
 20
82.8298
 30
0.0
 11
122.364
 21
82.9716
 31
0.0
  0
LINE
  8
0
 62
     0
 10
122.364
 20
82.9716
 30
0.0
 11
122.585
 21
83.1935
 31
0.0
  0
LINE
  8
0
 62
     0
 10
122.585
 20
83.1935
 30
0.0
 11
122.727
 21
83.4718
 31
0.0
  0
LINE
  8
0
 62
     0
 10
122.727
 20
83.4718
 30
0.0
 11
122.776
 21
83.7805
 31
0.0
  0
LINE
  8
0
 62
     0
 10
122.776
 20
83.7805
 30
0.0
 11
122.727
 21
84.0906
 31
0.0
  0
LINE
  8
0
 62
     0
 10
122.727
 20
84.0906
 30
0.0
 11
122.585
 21
84.3689
 31
0.0
  0
LINE
  8
0
 62
     0
 10
122.585
 20
84.3689
 30
0.0
 11
122.364
 21
84.5908
 31
0.0
  0
LINE
  8
0
 62
     0
 10
122.364
 20
84.5908
 30
0.0
 11
122.084
 21
84.733
 31
0.0
  0
LINE
  8
0
 62
     0
 10
122.084
 20
84.733
 30
0.0
 11
121.776
 21
84.781
 31
0.0
  0
LINE
  8
0
 62
     0
 10
121.776
 20
84.781
 30
0.0
 11
121.467
 21
84.733
 31
0.0
  0
LINE
  8
0
 62
     0
 10
240.648
 20
84.733
 30
0.0
 11
240.37
 21
84.5908
 31
0.0
  0
LINE
  8
0
 62
     0
 10
240.37
 20
84.5908
 30
0.0
 11
240.149
 21
84.3689
 31
0.0
  0
LINE
  8
0
 62
     0
 10
240.149
 20
84.3689
 30
0.0
 11
240.007
 21
84.0906
 31
0.0
  0
LINE
  8
0
 62
     0
 10
240.007
 20
84.0906
 30
0.0
 11
239.958
 21
83.7819
 31
0.0
  0
LINE
  8
0
 62
     0
 10
239.958
 20
83.7819
 30
0.0
 11
240.007
 21
83.4718
 31
0.0
  0
LINE
  8
0
 62
     0
 10
240.007
 20
83.4718
 30
0.0
 11
240.149
 21
83.1935
 31
0.0
  0
LINE
  8
0
 62
     0
 10
240.149
 20
83.1935
 30
0.0
 11
240.37
 21
82.9716
 31
0.0
  0
LINE
  8
0
 62
     0
 10
240.37
 20
82.9716
 30
0.0
 11
240.648
 21
82.8298
 31
0.0
  0
LINE
  8
0
 62
     0
 10
240.648
 20
82.8298
 30
0.0
 11
240.958
 21
82.78
 31
0.0
  0
LINE
  8
0
 62
     0
 10
240.958
 20
82.78
 30
0.0
 11
241.267
 21
82.8298
 31
0.0
  0
LINE
  8
0
 62
     0
 10
241.267
 20
82.8298
 30
0.0
 11
241.545
 21
82.9716
 31
0.0
  0
LINE
  8
0
 62
     0
 10
241.545
 20
82.9716
 30
0.0
 11
241.767
 21
83.1935
 31
0.0
  0
LINE
  8
0
 62
     0
 10
241.767
 20
83.1935
 30
0.0
 11
241.909
 21
83.4718
 31
0.0
  0
LINE
  8
0
 62
     0
 10
241.909
 20
83.4718
 30
0.0
 11
241.957
 21
83.7805
 31
0.0
  0
LINE
  8
0
 62
     0
 10
241.957
 20
83.7805
 30
0.0
 11
241.909
 21
84.0906
 31
0.0
  0
LINE
  8
0
 62
     0
 10
241.909
 20
84.0906
 30
0.0
 11
241.767
 21
84.3689
 31
0.0
  0
LINE
  8
0
 62
     0
 10
241.767
 20
84.3689
 30
0.0
 11
241.545
 21
84.5908
 31
0.0
  0
LINE
  8
0
 62
     0
 10
241.545
 20
84.5908
 30
0.0
 11
241.267
 21
84.733
 31
0.0
  0
LINE
  8
0
 62
     0
 10
241.267
 20
84.733
 30
0.0
 11
240.958
 21
84.781
 31
0.0
  0
LINE
  8
0
 62
     0
 10
240.958
 20
84.781
 30
0.0
 11
240.648
 21
84.733
 31
0.0
  0
LINE
  8
0
 62
     0
 10
2.28479
 20
84.733
 30
0.0
 11
2.00642
 21
84.5908
 31
0.0
  0
LINE
  8
0
 62
     0
 10
2.00642
 20
84.5908
 30
0.0
 11
1.78456
 21
84.3689
 31
0.0
  0
LINE
  8
0
 62
     0
 10
1.78456
 20
84.3689
 30
0.0
 11
1.64262
 21
84.0906
 31
0.0
  0
LINE
  8
0
 62
     0
 10
1.64262
 20
84.0906
 30
0.0
 11
1.59439
 21
83.7819
 31
0.0
  0
LINE
  8
0
 62
     0
 10
1.59439
 20
83.7819
 30
0.0
 11
1.64262
 21
83.4718
 31
0.0
  0
LINE
  8
0
 62
     0
 10
1.64262
 20
83.4718
 30
0.0
 11
1.78456
 21
83.1935
 31
0.0
  0
LINE
  8
0
 62
     0
 10
1.78456
 20
83.1935
 30
0.0
 11
2.00642
 21
82.9716
 31
0.0
  0
LINE
  8
0
 62
     0
 10
2.00642
 20
82.9716
 30
0.0
 11
2.28479
 21
82.8298
 31
0.0
  0
LINE
  8
0
 62
     0
 10
2.28479
 20
82.8298
 30
0.0
 11
2.59347
 21
82.78
 31
0.0
  0
LINE
  8
0
 62
     0
 10
2.59347
 20
82.78
 30
0.0
 11
2.90353
 21
82.8298
 31
0.0
  0
LINE
  8
0
 62
     0
 10
2.90353
 20
82.8298
 30
0.0
 11
3.18189
 21
82.9716
 31
0.0
  0
LINE
  8
0
 62
     0
 10
3.18189
 20
82.9716
 30
0.0
 11
3.40376
 21
83.1935
 31
0.0
  0
LINE
  8
0
 62
     0
 10
3.40376
 20
83.1935
 30
0.0
 11
3.5457
 21
83.4718
 31
0.0
  0
LINE
  8
0
 62
     0
 10
3.5457
 20
83.4718
 30
0.0
 11
3.5953
 21
83.7805
 31
0.0
  0
LINE
  8
0
 62
     0
 10
3.5953
 20
83.7805
 30
0.0
 11
3.5457
 21
84.0906
 31
0.0
  0
LINE
  8
0
 62
     0
 10
3.5457
 20
84.0906
 30
0.0
 11
3.40376
 21
84.3689
 31
0.0
  0
LINE
  8
0
 62
     0
 10
3.40376
 20
84.3689
 30
0.0
 11
3.18189
 21
84.5908
 31
0.0
  0
LINE
  8
0
 62
     0
 10
3.18189
 20
84.5908
 30
0.0
 11
2.90353
 21
84.733
 31
0.0
  0
LINE
  8
0
 62
     0
 10
2.90353
 20
84.733
 30
0.0
 11
2.59485
 21
84.781
 31
0.0
  0
LINE
  8
0
 62
     0
 10
2.59485
 20
84.781
 30
0.0
 11
2.28479
 21
84.733
 31
0.0
  0
ENDSEC
  0
EOF
