<?xml version="1.0"?>
<!-- Generated by SVGo -->
<svg width="255.374mm" height="98.212mm"
     viewBox="0.000 0.000 255.374 98.212"
     xmlns="http://www.w3.org/2000/svg" 
     xmlns:xlink="http://www.w3.org/1999/xlink">
<polygon points="247.874,5.001 248.070,5.008 248.265,5.031 248.458,5.070 248.647,5.123 248.831,5.191 249.009,5.273 249.180,5.369 249.343,5.478 249.498,5.599 249.642,5.733 249.775,5.877 249.897,6.031 250.006,6.194 250.102,6.366 250.184,6.544 250.252,6.728 250.305,6.917 250.343,7.109 250.366,7.304 250.374,7.501 250.374,90.711 250.366,90.908 250.343,91.103 250.305,91.295 250.252,91.484 250.184,91.668 250.102,91.846 250.006,92.018 249.897,92.181 249.775,92.335 249.642,92.479 249.498,92.613 249.343,92.734 249.180,92.843 249.009,92.939 248.831,93.021 248.647,93.089 248.458,93.142 248.265,93.181 248.070,93.204 247.874,93.212 7.501,93.211 7.304,93.204 7.109,93.181 6.917,93.142 6.728,93.089 6.544,93.021 6.366,92.939 6.194,92.843 6.031,92.734 5.877,92.613 5.733,92.479 5.599,92.335 5.478,92.181 5.369,92.018 5.273,91.846 5.191,91.668 5.123,91.484 5.070,91.295 5.031,91.103 5.008,90.908 5.000,90.711 5.001,7.501 5.008,7.304 5.031,7.109 5.070,6.917 5.123,6.728 5.191,6.544 5.273,6.366 5.369,6.194 5.478,6.031 5.599,5.877 5.733,5.733 5.877,5.599 6.031,5.478 6.194,5.369 6.366,5.273 6.544,5.191 6.728,5.123 6.917,5.070 7.109,5.031 7.304,5.008 7.501,5.000" style="fill:none;stroke-width:0.010000mm;stroke:black"/>
<polygon points="247.126,88.940 246.681,89.166 246.329,89.519 246.102,89.964 246.024,90.457 246.102,90.949 246.329,91.394 246.681,91.747 247.126,91.973 247.619,92.052 248.112,91.973 248.557,91.747 248.909,91.394 249.136,90.949 249.214,90.457 249.136,89.964 248.909,89.519 248.557,89.166 248.112,88.940 247.619,88.861" style="fill:none;stroke-width:0.010000mm;stroke:black"/>
<polygon points="167.172,88.940 166.727,89.166 166.374,89.519 166.148,89.964 166.070,90.457 166.148,90.949 166.374,91.394 166.727,91.747 167.172,91.973 167.665,92.052 168.157,91.973 168.602,91.747 168.955,91.394 169.181,90.949 169.260,90.457 169.181,89.964 168.955,89.519 168.602,89.166 168.157,88.940 167.665,88.861" style="fill:none;stroke-width:0.010000mm;stroke:black"/>
<polygon points="87.217,88.940 86.772,89.166 86.420,89.519 86.193,89.964 86.115,90.457 86.193,90.949 86.420,91.394 86.772,91.747 87.217,91.973 87.710,92.052 88.203,91.973 88.648,91.747 89.000,91.394 89.227,90.949 89.305,90.457 89.227,89.964 89.000,89.519 88.648,89.166 88.203,88.940 87.710,88.861" style="fill:none;stroke-width:0.010000mm;stroke:black"/>
<polygon points="7.263,88.940 6.818,89.166 6.465,89.519 6.239,89.964 6.160,90.457 6.239,90.949 6.465,91.394 6.818,91.747 7.263,91.973 7.755,92.052 8.248,91.973 8.693,91.747 9.046,91.394 9.272,90.949 9.350,90.457 9.272,89.964 9.046,89.519 8.693,89.166 8.248,88.940 7.755,88.861" style="fill:none;stroke-width:0.010000mm;stroke:black"/>
<polygon points="10.511,10.510 10.511,87.702 244.864,87.702 244.864,10.510" style="fill:none;stroke-width:0.010000mm;stroke:black"/>
<polygon points="87.217,6.239 86.772,6.465 86.420,6.818 86.193,7.263 86.115,7.756 86.193,8.248 86.420,8.693 86.772,9.046 87.217,9.272 87.710,9.351 88.203,9.272 88.648,9.046 89.000,8.693 89.227,8.248 89.305,7.756 89.227,7.263 89.000,6.818 88.648,6.465 88.203,6.239 87.710,6.161" style="fill:none;stroke-width:0.010000mm;stroke:black"/>
<polygon points="167.172,6.239 166.727,6.465 166.374,6.818 166.148,7.263 166.070,7.756 166.148,8.248 166.374,8.693 166.727,9.046 167.172,9.272 167.665,9.351 168.157,9.272 168.602,9.046 168.955,8.693 169.181,8.248 169.260,7.756 169.181,7.263 168.955,6.818 168.602,6.465 168.157,6.239 167.665,6.161" style="fill:none;stroke-width:0.010000mm;stroke:black"/>
<polygon points="247.126,6.239 246.681,6.465 246.329,6.818 246.102,7.263 246.024,7.756 246.102,8.248 246.329,8.693 246.681,9.046 247.126,9.272 247.619,9.351 248.112,9.272 248.557,9.046 248.909,8.693 249.136,8.248 249.214,7.756 249.136,7.263 248.909,6.818 248.557,6.465 248.112,6.239 247.619,6.161" style="fill:none;stroke-width:0.010000mm;stroke:black"/>
<polygon points="7.263,6.239 6.818,6.465 6.465,6.818 6.239,7.263 6.160,7.755 6.239,8.248 6.465,8.693 6.818,9.046 7.263,9.272 7.755,9.350 8.248,9.272 8.693,9.046 9.046,8.693 9.272,8.248 9.350,7.755 9.272,7.263 9.046,6.818 8.693,6.465 8.248,6.239 7.755,6.160" style="fill:none;stroke-width:0.010000mm;stroke:black"/>
</svg>
