  0
SECTION
  2
HEADER
  9
$ACADVER
  1
AC1009
  9
$EXTMIN
 10
0.0
 20
0.0
 30
0.0
  9
$EXTMAX
 10
1000.0
 20
1000.0
 30
0.0
  9
$FILLMODE
 70
 0
  9
$SPLFRAME
 70
 1
  0
ENDSEC
  0
SECTION
  2
TABLES
  0
TABLE
  2
LAYER
 70
1
  0
LAYER
  2
0
 70
     0
 62
     7
  6
CONTINUOUS
  0
ENDTAB
  0
ENDSEC
  0
SECTION
  2
ENTITIES
  0
LINE
  8
0
 62
     0
 10
240.458
 20
86.2803
 30
0.0
 11
240.692
 21
86.2722
 31
0.0
  0
LINE
  8
0
 62
     0
 10
240.692
 20
86.2722
 30
0.0
 11
240.926
 21
86.2446
 31
0.0
  0
LINE
  8
0
 62
     0
 10
240.926
 20
86.2446
 30
0.0
 11
241.158
 21
86.1991
 31
0.0
  0
LINE
  8
0
 62
     0
 10
241.158
 20
86.1991
 30
0.0
 11
241.385
 21
86.1342
 31
0.0
  0
LINE
  8
0
 62
     0
 10
241.385
 20
86.1342
 30
0.0
 11
241.606
 21
86.0531
 31
0.0
  0
LINE
  8
0
 62
     0
 10
241.606
 20
86.0531
 30
0.0
 11
241.82
 21
85.955
 31
0.0
  0
LINE
  8
0
 62
     0
 10
241.82
 20
85.955
 30
0.0
 11
242.025
 21
85.8379
 31
0.0
  0
LINE
  8
0
 62
     0
 10
242.025
 20
85.8379
 30
0.0
 11
242.22
 21
85.7084
 31
0.0
  0
LINE
  8
0
 62
     0
 10
242.22
 20
85.7084
 30
0.0
 11
242.405
 21
85.5624
 31
0.0
  0
LINE
  8
0
 62
     0
 10
242.405
 20
85.5624
 30
0.0
 11
242.579
 21
85.4026
 31
0.0
  0
LINE
  8
0
 62
     0
 10
242.579
 20
85.4026
 30
0.0
 11
242.739
 21
85.2304
 31
0.0
  0
LINE
  8
0
 62
     0
 10
242.739
 20
85.2304
 30
0.0
 11
242.885
 21
85.0441
 31
0.0
  0
LINE
  8
0
 62
     0
 10
242.885
 20
85.0441
 30
0.0
 11
243.016
 21
84.8487
 31
0.0
  0
LINE
  8
0
 62
     0
 10
243.016
 20
84.8487
 30
0.0
 11
243.131
 21
84.6434
 31
0.0
  0
LINE
  8
0
 62
     0
 10
243.131
 20
84.6434
 30
0.0
 11
243.229
 21
84.4296
 31
0.0
  0
LINE
  8
0
 62
     0
 10
243.229
 20
84.4296
 30
0.0
 11
243.31
 21
84.2091
 31
0.0
  0
LINE
  8
0
 62
     0
 10
243.31
 20
84.2091
 30
0.0
 11
243.375
 21
83.9819
 31
0.0
  0
LINE
  8
0
 62
     0
 10
243.375
 20
83.9819
 30
0.0
 11
243.421
 21
83.7501
 31
0.0
  0
LINE
  8
0
 62
     0
 10
243.421
 20
83.7501
 30
0.0
 11
243.448
 21
83.5159
 31
0.0
  0
LINE
  8
0
 62
     0
 10
243.448
 20
83.5159
 30
0.0
 11
243.458
 21
83.2803
 31
0.0
  0
LINE
  8
0
 62
     0
 10
243.458
 20
83.2803
 30
0.0
 11
243.458
 21
3.07992
 31
0.0
  0
LINE
  8
0
 62
     0
 10
243.458
 20
3.07992
 30
0.0
 11
243.448
 21
2.84427
 31
0.0
  0
LINE
  8
0
 62
     0
 10
243.448
 20
2.84427
 30
0.0
 11
243.421
 21
2.61001
 31
0.0
  0
LINE
  8
0
 62
     0
 10
243.421
 20
2.61001
 30
0.0
 11
243.375
 21
2.37987
 31
0.0
  0
LINE
  8
0
 62
     0
 10
243.375
 20
2.37987
 30
0.0
 11
243.31
 21
2.15249
 31
0.0
  0
LINE
  8
0
 62
     0
 10
243.31
 20
2.15249
 30
0.0
 11
243.229
 21
1.93201
 31
0.0
  0
LINE
  8
0
 62
     0
 10
243.229
 20
1.93201
 30
0.0
 11
243.131
 21
1.71841
 31
0.0
  0
LINE
  8
0
 62
     0
 10
243.131
 20
1.71841
 30
0.0
 11
243.016
 21
1.51309
 31
0.0
  0
LINE
  8
0
 62
     0
 10
243.016
 20
1.51309
 30
0.0
 11
242.885
 21
1.31603
 31
0.0
  0
LINE
  8
0
 62
     0
 10
242.885
 20
1.31603
 30
0.0
 11
242.739
 21
1.13137
 31
0.0
  0
LINE
  8
0
 62
     0
 10
242.739
 20
1.13137
 30
0.0
 11
242.579
 21
0.959115
 31
0.0
  0
LINE
  8
0
 62
     0
 10
242.579
 20
0.959115
 30
0.0
 11
242.405
 21
0.799264
 31
0.0
  0
LINE
  8
0
 62
     0
 10
242.405
 20
0.799264
 30
0.0
 11
242.22
 21
0.653189
 31
0.0
  0
LINE
  8
0
 62
     0
 10
242.22
 20
0.653189
 30
0.0
 11
242.025
 21
0.522277
 31
0.0
  0
LINE
  8
0
 62
     0
 10
242.025
 20
0.522277
 30
0.0
 11
241.82
 21
0.40652
 31
0.0
  0
LINE
  8
0
 62
     0
 10
241.82
 20
0.40652
 30
0.0
 11
241.606
 21
0.308681
 31
0.0
  0
LINE
  8
0
 62
     0
 10
241.606
 20
0.308681
 30
0.0
 11
241.385
 21
0.225998
 31
0.0
  0
LINE
  8
0
 62
     0
 10
241.385
 20
0.225998
 30
0.0
 11
241.158
 21
0.162609
 31
0.0
  0
LINE
  8
0
 62
     0
 10
241.158
 20
0.162609
 30
0.0
 11
240.926
 21
0.117133
 31
0.0
  0
LINE
  8
0
 62
     0
 10
240.926
 20
0.117133
 30
0.0
 11
240.692
 21
0.0895724
 31
0.0
  0
LINE
  8
0
 62
     0
 10
240.692
 20
0.0895724
 30
0.0
 11
240.458
 21
0.0799264
 31
0.0
  0
LINE
  8
0
 62
     0
 10
240.458
 20
0.0799264
 30
0.0
 11
3.09507
 21
0.0799264
 31
0.0
  0
LINE
  8
0
 62
     0
 10
3.09507
 20
0.0799264
 30
0.0
 11
2.85943
 21
0.0895724
 31
0.0
  0
LINE
  8
0
 62
     0
 10
2.85943
 20
0.0895724
 30
0.0
 11
2.62516
 21
0.117133
 31
0.0
  0
LINE
  8
0
 62
     0
 10
2.62516
 20
0.117133
 30
0.0
 11
2.39365
 21
0.162609
 31
0.0
  0
LINE
  8
0
 62
     0
 10
2.39365
 20
0.162609
 30
0.0
 11
2.16628
 21
0.225998
 31
0.0
  0
LINE
  8
0
 62
     0
 10
2.16628
 20
0.225998
 30
0.0
 11
1.94579
 21
0.308681
 31
0.0
  0
LINE
  8
0
 62
     0
 10
1.94579
 20
0.308681
 30
0.0
 11
1.7322
 21
0.40652
 31
0.0
  0
LINE
  8
0
 62
     0
 10
1.7322
 20
0.40652
 30
0.0
 11
1.52687
 21
0.522277
 31
0.0
  0
LINE
  8
0
 62
     0
 10
1.52687
 20
0.522277
 30
0.0
 11
1.33119
 21
0.653189
 31
0.0
  0
LINE
  8
0
 62
     0
 10
1.33119
 20
0.653189
 30
0.0
 11
1.14515
 21
0.799264
 31
0.0
  0
LINE
  8
0
 62
     0
 10
1.14515
 20
0.799264
 30
0.0
 11
0.972894
 21
0.959115
 31
0.0
  0
LINE
  8
0
 62
     0
 10
0.972894
 20
0.959115
 30
0.0
 11
0.813043
 21
1.13137
 31
0.0
  0
LINE
  8
0
 62
     0
 10
0.813043
 20
1.13137
 30
0.0
 11
0.666972
 21
1.31603
 31
0.0
  0
LINE
  8
0
 62
     0
 10
0.666972
 20
1.31603
 30
0.0
 11
0.537436
 21
1.51309
 31
0.0
  0
LINE
  8
0
 62
     0
 10
0.537436
 20
1.51309
 30
0.0
 11
0.420303
 21
1.71841
 31
0.0
  0
LINE
  8
0
 62
     0
 10
0.420303
 20
1.71841
 30
0.0
 11
0.322461
 21
1.93201
 31
0.0
  0
LINE
  8
0
 62
     0
 10
0.322461
 20
1.93201
 30
0.0
 11
0.241157
 21
2.15249
 31
0.0
  0
LINE
  8
0
 62
     0
 10
0.241157
 20
2.15249
 30
0.0
 11
0.176389
 21
2.37987
 31
0.0
  0
LINE
  8
0
 62
     0
 10
0.176389
 20
2.37987
 30
0.0
 11
0.130914
 21
2.61001
 31
0.0
  0
LINE
  8
0
 62
     0
 10
0.130914
 20
2.61001
 30
0.0
 11
0.103353
 21
2.84427
 31
0.0
  0
LINE
  8
0
 62
     0
 10
0.103353
 20
2.84427
 30
0.0
 11
0.0937066
 21
3.0813
 31
0.0
  0
LINE
  8
0
 62
     0
 10
0.0937066
 20
3.0813
 30
0.0
 11
0.0950846
 21
83.2803
 31
0.0
  0
LINE
  8
0
 62
     0
 10
0.0950846
 20
83.2803
 30
0.0
 11
0.103353
 21
83.5159
 31
0.0
  0
LINE
  8
0
 62
     0
 10
0.103353
 20
83.5159
 30
0.0
 11
0.130914
 21
83.7501
 31
0.0
  0
LINE
  8
0
 62
     0
 10
0.130914
 20
83.7501
 30
0.0
 11
0.176389
 21
83.9819
 31
0.0
  0
LINE
  8
0
 62
     0
 10
0.176389
 20
83.9819
 30
0.0
 11
0.241157
 21
84.2091
 31
0.0
  0
LINE
  8
0
 62
     0
 10
0.241157
 20
84.2091
 30
0.0
 11
0.322461
 21
84.4296
 31
0.0
  0
LINE
  8
0
 62
     0
 10
0.322461
 20
84.4296
 30
0.0
 11
0.420303
 21
84.6434
 31
0.0
  0
LINE
  8
0
 62
     0
 10
0.420303
 20
84.6434
 30
0.0
 11
0.537436
 21
84.8487
 31
0.0
  0
LINE
  8
0
 62
     0
 10
0.537436
 20
84.8487
 30
0.0
 11
0.666972
 21
85.0441
 31
0.0
  0
LINE
  8
0
 62
     0
 10
0.666972
 20
85.0441
 30
0.0
 11
0.813043
 21
85.2304
 31
0.0
  0
LINE
  8
0
 62
     0
 10
0.813043
 20
85.2304
 30
0.0
 11
0.972894
 21
85.4026
 31
0.0
  0
LINE
  8
0
 62
     0
 10
0.972894
 20
85.4026
 30
0.0
 11
1.14515
 21
85.5624
 31
0.0
  0
LINE
  8
0
 62
     0
 10
1.14515
 20
85.5624
 30
0.0
 11
1.33119
 21
85.7084
 31
0.0
  0
LINE
  8
0
 62
     0
 10
1.33119
 20
85.7084
 30
0.0
 11
1.52687
 21
85.8379
 31
0.0
  0
LINE
  8
0
 62
     0
 10
1.52687
 20
85.8379
 30
0.0
 11
1.7322
 21
85.955
 31
0.0
  0
LINE
  8
0
 62
     0
 10
1.7322
 20
85.955
 30
0.0
 11
1.94579
 21
86.0531
 31
0.0
  0
LINE
  8
0
 62
     0
 10
1.94579
 20
86.0531
 30
0.0
 11
2.16628
 21
86.1342
 31
0.0
  0
LINE
  8
0
 62
     0
 10
2.16628
 20
86.1342
 30
0.0
 11
2.39365
 21
86.1991
 31
0.0
  0
LINE
  8
0
 62
     0
 10
2.39365
 20
86.1991
 30
0.0
 11
2.62516
 21
86.2446
 31
0.0
  0
LINE
  8
0
 62
     0
 10
2.62516
 20
86.2446
 30
0.0
 11
2.85943
 21
86.2722
 31
0.0
  0
LINE
  8
0
 62
     0
 10
2.85943
 20
86.2722
 30
0.0
 11
3.09507
 21
86.2817
 31
0.0
  0
LINE
  8
0
 62
     0
 10
3.09507
 20
86.2817
 30
0.0
 11
240.458
 21
86.2803
 31
0.0
  0
LINE
  8
0
 62
     0
 10
240.648
 20
3.53191
 30
0.0
 11
240.37
 21
3.38998
 31
0.0
  0
LINE
  8
0
 62
     0
 10
240.37
 20
3.38998
 30
0.0
 11
240.149
 21
3.16811
 31
0.0
  0
LINE
  8
0
 62
     0
 10
240.149
 20
3.16811
 30
0.0
 11
240.007
 21
2.88975
 31
0.0
  0
LINE
  8
0
 62
     0
 10
240.007
 20
2.88975
 30
0.0
 11
239.958
 21
2.57969
 31
0.0
  0
LINE
  8
0
 62
     0
 10
239.958
 20
2.57969
 30
0.0
 11
240.007
 21
2.27101
 31
0.0
  0
LINE
  8
0
 62
     0
 10
240.007
 20
2.27101
 30
0.0
 11
240.149
 21
1.99264
 31
0.0
  0
LINE
  8
0
 62
     0
 10
240.149
 20
1.99264
 30
0.0
 11
240.37
 21
1.77078
 31
0.0
  0
LINE
  8
0
 62
     0
 10
240.37
 20
1.77078
 30
0.0
 11
240.648
 21
1.62884
 31
0.0
  0
LINE
  8
0
 62
     0
 10
240.648
 20
1.62884
 30
0.0
 11
240.958
 21
1.57923
 31
0.0
  0
LINE
  8
0
 62
     0
 10
240.958
 20
1.57923
 30
0.0
 11
241.267
 21
1.62884
 31
0.0
  0
LINE
  8
0
 62
     0
 10
241.267
 20
1.62884
 30
0.0
 11
241.545
 21
1.77078
 31
0.0
  0
LINE
  8
0
 62
     0
 10
241.545
 20
1.77078
 30
0.0
 11
241.767
 21
1.99264
 31
0.0
  0
LINE
  8
0
 62
     0
 10
241.767
 20
1.99264
 30
0.0
 11
241.909
 21
2.27101
 31
0.0
  0
LINE
  8
0
 62
     0
 10
241.909
 20
2.27101
 30
0.0
 11
241.957
 21
2.57969
 31
0.0
  0
LINE
  8
0
 62
     0
 10
241.957
 20
2.57969
 30
0.0
 11
241.909
 21
2.88975
 31
0.0
  0
LINE
  8
0
 62
     0
 10
241.909
 20
2.88975
 30
0.0
 11
241.767
 21
3.16811
 31
0.0
  0
LINE
  8
0
 62
     0
 10
241.767
 20
3.16811
 30
0.0
 11
241.545
 21
3.38998
 31
0.0
  0
LINE
  8
0
 62
     0
 10
241.545
 20
3.38998
 30
0.0
 11
241.267
 21
3.53191
 31
0.0
  0
LINE
  8
0
 62
     0
 10
241.267
 20
3.53191
 30
0.0
 11
240.958
 21
3.58013
 31
0.0
  0
LINE
  8
0
 62
     0
 10
240.958
 20
3.58013
 30
0.0
 11
240.648
 21
3.53191
 31
0.0
  0
LINE
  8
0
 62
     0
 10
121.467
 20
3.53191
 30
0.0
 11
121.187
 21
3.38998
 31
0.0
  0
LINE
  8
0
 62
     0
 10
121.187
 20
3.38998
 30
0.0
 11
120.967
 21
3.16811
 31
0.0
  0
LINE
  8
0
 62
     0
 10
120.967
 20
3.16811
 30
0.0
 11
120.825
 21
2.88975
 31
0.0
  0
LINE
  8
0
 62
     0
 10
120.825
 20
2.88975
 30
0.0
 11
120.775
 21
2.57969
 31
0.0
  0
LINE
  8
0
 62
     0
 10
120.775
 20
2.57969
 30
0.0
 11
120.825
 21
2.27101
 31
0.0
  0
LINE
  8
0
 62
     0
 10
120.825
 20
2.27101
 30
0.0
 11
120.967
 21
1.99264
 31
0.0
  0
LINE
  8
0
 62
     0
 10
120.967
 20
1.99264
 30
0.0
 11
121.187
 21
1.77078
 31
0.0
  0
LINE
  8
0
 62
     0
 10
121.187
 20
1.77078
 30
0.0
 11
121.467
 21
1.62884
 31
0.0
  0
LINE
  8
0
 62
     0
 10
121.467
 20
1.62884
 30
0.0
 11
121.776
 21
1.57923
 31
0.0
  0
LINE
  8
0
 62
     0
 10
121.776
 20
1.57923
 30
0.0
 11
122.084
 21
1.62884
 31
0.0
  0
LINE
  8
0
 62
     0
 10
122.084
 20
1.62884
 30
0.0
 11
122.364
 21
1.77078
 31
0.0
  0
LINE
  8
0
 62
     0
 10
122.364
 20
1.77078
 30
0.0
 11
122.585
 21
1.99264
 31
0.0
  0
LINE
  8
0
 62
     0
 10
122.585
 20
1.99264
 30
0.0
 11
122.727
 21
2.27101
 31
0.0
  0
LINE
  8
0
 62
     0
 10
122.727
 20
2.27101
 30
0.0
 11
122.776
 21
2.57969
 31
0.0
  0
LINE
  8
0
 62
     0
 10
122.776
 20
2.57969
 30
0.0
 11
122.727
 21
2.88975
 31
0.0
  0
LINE
  8
0
 62
     0
 10
122.727
 20
2.88975
 30
0.0
 11
122.585
 21
3.16811
 31
0.0
  0
LINE
  8
0
 62
     0
 10
122.585
 20
3.16811
 30
0.0
 11
122.364
 21
3.38998
 31
0.0
  0
LINE
  8
0
 62
     0
 10
122.364
 20
3.38998
 30
0.0
 11
122.084
 21
3.53191
 31
0.0
  0
LINE
  8
0
 62
     0
 10
122.084
 20
3.53191
 30
0.0
 11
121.776
 21
3.58013
 31
0.0
  0
LINE
  8
0
 62
     0
 10
121.776
 20
3.58013
 30
0.0
 11
121.467
 21
3.53191
 31
0.0
  0
LINE
  8
0
 62
     0
 10
2.28479
 20
3.53191
 30
0.0
 11
2.00642
 21
3.38998
 31
0.0
  0
LINE
  8
0
 62
     0
 10
2.00642
 20
3.38998
 30
0.0
 11
1.78456
 21
3.16811
 31
0.0
  0
LINE
  8
0
 62
     0
 10
1.78456
 20
3.16811
 30
0.0
 11
1.64262
 21
2.88975
 31
0.0
  0
LINE
  8
0
 62
     0
 10
1.64262
 20
2.88975
 30
0.0
 11
1.59439
 21
2.57969
 31
0.0
  0
LINE
  8
0
 62
     0
 10
1.59439
 20
2.57969
 30
0.0
 11
1.64262
 21
2.27101
 31
0.0
  0
LINE
  8
0
 62
     0
 10
1.64262
 20
2.27101
 30
0.0
 11
1.78456
 21
1.99264
 31
0.0
  0
LINE
  8
0
 62
     0
 10
1.78456
 20
1.99264
 30
0.0
 11
2.00642
 21
1.77078
 31
0.0
  0
LINE
  8
0
 62
     0
 10
2.00642
 20
1.77078
 30
0.0
 11
2.28479
 21
1.62884
 31
0.0
  0
LINE
  8
0
 62
     0
 10
2.28479
 20
1.62884
 30
0.0
 11
2.59347
 21
1.57923
 31
0.0
  0
LINE
  8
0
 62
     0
 10
2.59347
 20
1.57923
 30
0.0
 11
2.90353
 21
1.62884
 31
0.0
  0
LINE
  8
0
 62
     0
 10
2.90353
 20
1.62884
 30
0.0
 11
3.18189
 21
1.77078
 31
0.0
  0
LINE
  8
0
 62
     0
 10
3.18189
 20
1.77078
 30
0.0
 11
3.40376
 21
1.99264
 31
0.0
  0
LINE
  8
0
 62
     0
 10
3.40376
 20
1.99264
 30
0.0
 11
3.5457
 21
2.27101
 31
0.0
  0
LINE
  8
0
 62
     0
 10
3.5457
 20
2.27101
 30
0.0
 11
3.5953
 21
2.57969
 31
0.0
  0
LINE
  8
0
 62
     0
 10
3.5953
 20
2.57969
 30
0.0
 11
3.5457
 21
2.88975
 31
0.0
  0
LINE
  8
0
 62
     0
 10
3.5457
 20
2.88975
 30
0.0
 11
3.40376
 21
3.16811
 31
0.0
  0
LINE
  8
0
 62
     0
 10
3.40376
 20
3.16811
 30
0.0
 11
3.18189
 21
3.38998
 31
0.0
  0
LINE
  8
0
 62
     0
 10
3.18189
 20
3.38998
 30
0.0
 11
2.90353
 21
3.53191
 31
0.0
  0
LINE
  8
0
 62
     0
 10
2.90353
 20
3.53191
 30
0.0
 11
2.59485
 21
3.58013
 31
0.0
  0
LINE
  8
0
 62
     0
 10
2.59485
 20
3.58013
 30
0.0
 11
2.28479
 21
3.53191
 31
0.0
  0
LINE
  8
0
 62
     0
 10
136.207
 20
21.6063
 30
0.0
 11
136.207
 21
21.0068
 31
0.0
  0
LINE
  8
0
 62
     0
 10
136.207
 20
21.0068
 30
0.0
 11
135.407
 21
21.0068
 31
0.0
  0
LINE
  8
0
 62
     0
 10
135.407
 20
21.0068
 30
0.0
 11
135.407
 21
16.9058
 31
0.0
  0
LINE
  8
0
 62
     0
 10
135.407
 20
16.9058
 30
0.0
 11
134.681
 21
16.9058
 31
0.0
  0
LINE
  8
0
 62
     0
 10
134.681
 20
16.9058
 30
0.0
 11
134.681
 21
20.1359
 31
0.0
  0
LINE
  8
0
 62
     0
 10
134.681
 20
20.1359
 30
0.0
 11
127.932
 21
20.1359
 31
0.0
  0
LINE
  8
0
 62
     0
 10
127.932
 20
20.1359
 30
0.0
 11
127.932
 21
16.9058
 31
0.0
  0
LINE
  8
0
 62
     0
 10
127.932
 20
16.9058
 30
0.0
 11
127.106
 21
16.9058
 31
0.0
  0
LINE
  8
0
 62
     0
 10
127.106
 20
16.9058
 30
0.0
 11
127.106
 21
14.1056
 31
0.0
  0
LINE
  8
0
 62
     0
 10
127.106
 20
14.1056
 30
0.0
 11
127.932
 21
14.1056
 31
0.0
  0
LINE
  8
0
 62
     0
 10
127.932
 20
14.1056
 30
0.0
 11
127.932
 21
7.83551
 31
0.0
  0
LINE
  8
0
 62
     0
 10
127.932
 20
7.83551
 30
0.0
 11
129.657
 21
7.83551
 31
0.0
  0
LINE
  8
0
 62
     0
 10
129.657
 20
7.83551
 30
0.0
 11
129.657
 21
6.63526
 31
0.0
  0
LINE
  8
0
 62
     0
 10
129.657
 20
6.63526
 30
0.0
 11
132.957
 21
6.63526
 31
0.0
  0
LINE
  8
0
 62
     0
 10
132.957
 20
6.63526
 30
0.0
 11
132.957
 21
7.83551
 31
0.0
  0
LINE
  8
0
 62
     0
 10
132.957
 20
7.83551
 30
0.0
 11
134.681
 21
7.83551
 31
0.0
  0
LINE
  8
0
 62
     0
 10
134.681
 20
7.83551
 30
0.0
 11
134.681
 21
12.3059
 31
0.0
  0
LINE
  8
0
 62
     0
 10
134.681
 20
12.3059
 30
0.0
 11
135.407
 21
12.3059
 31
0.0
  0
LINE
  8
0
 62
     0
 10
135.407
 20
12.3059
 30
0.0
 11
135.407
 21
8.20621
 31
0.0
  0
LINE
  8
0
 62
     0
 10
135.407
 20
8.20621
 30
0.0
 11
136.207
 21
8.20621
 31
0.0
  0
LINE
  8
0
 62
     0
 10
136.207
 20
8.20621
 30
0.0
 11
136.207
 21
7.60539
 31
0.0
  0
LINE
  8
0
 62
     0
 10
136.207
 20
7.60539
 30
0.0
 11
150.206
 21
7.60539
 31
0.0
  0
LINE
  8
0
 62
     0
 10
150.206
 20
7.60539
 30
0.0
 11
150.206
 21
8.20621
 31
0.0
  0
LINE
  8
0
 62
     0
 10
150.206
 20
8.20621
 30
0.0
 11
151.007
 21
8.20621
 31
0.0
  0
LINE
  8
0
 62
     0
 10
151.007
 20
8.20621
 30
0.0
 11
151.007
 21
12.3059
 31
0.0
  0
LINE
  8
0
 62
     0
 10
151.007
 20
12.3059
 30
0.0
 11
151.731
 21
12.3059
 31
0.0
  0
LINE
  8
0
 62
     0
 10
151.731
 20
12.3059
 30
0.0
 11
151.731
 21
7.83551
 31
0.0
  0
LINE
  8
0
 62
     0
 10
151.731
 20
7.83551
 30
0.0
 11
153.457
 21
7.83551
 31
0.0
  0
LINE
  8
0
 62
     0
 10
153.457
 20
7.83551
 30
0.0
 11
153.457
 21
6.63526
 31
0.0
  0
LINE
  8
0
 62
     0
 10
153.457
 20
6.63526
 30
0.0
 11
156.758
 21
6.63526
 31
0.0
  0
LINE
  8
0
 62
     0
 10
156.758
 20
6.63526
 30
0.0
 11
156.758
 21
7.83551
 31
0.0
  0
LINE
  8
0
 62
     0
 10
156.758
 20
7.83551
 30
0.0
 11
158.481
 21
7.83551
 31
0.0
  0
LINE
  8
0
 62
     0
 10
158.481
 20
7.83551
 30
0.0
 11
158.481
 21
14.1056
 31
0.0
  0
LINE
  8
0
 62
     0
 10
158.481
 20
14.1056
 30
0.0
 11
159.307
 21
14.1056
 31
0.0
  0
LINE
  8
0
 62
     0
 10
159.307
 20
14.1056
 30
0.0
 11
159.307
 21
16.9058
 31
0.0
  0
LINE
  8
0
 62
     0
 10
159.307
 20
16.9058
 30
0.0
 11
158.481
 21
16.9058
 31
0.0
  0
LINE
  8
0
 62
     0
 10
158.481
 20
16.9058
 30
0.0
 11
158.481
 21
20.1359
 31
0.0
  0
LINE
  8
0
 62
     0
 10
158.481
 20
20.1359
 30
0.0
 11
151.731
 21
20.1359
 31
0.0
  0
LINE
  8
0
 62
     0
 10
151.731
 20
20.1359
 30
0.0
 11
151.731
 21
16.9058
 31
0.0
  0
LINE
  8
0
 62
     0
 10
151.731
 20
16.9058
 30
0.0
 11
151.007
 21
16.9058
 31
0.0
  0
LINE
  8
0
 62
     0
 10
151.007
 20
16.9058
 30
0.0
 11
151.007
 21
21.0068
 31
0.0
  0
LINE
  8
0
 62
     0
 10
151.007
 20
21.0068
 30
0.0
 11
150.206
 21
21.0068
 31
0.0
  0
LINE
  8
0
 62
     0
 10
150.206
 20
21.0068
 30
0.0
 11
150.206
 21
21.6063
 31
0.0
  0
LINE
  8
0
 62
     0
 10
150.206
 20
21.6063
 30
0.0
 11
136.207
 21
21.6063
 31
0.0
  0
LINE
  8
0
 62
     0
 10
10.0004
 20
21.6063
 30
0.0
 11
10.0004
 21
21.0068
 31
0.0
  0
LINE
  8
0
 62
     0
 10
10.0004
 20
21.0068
 30
0.0
 11
9.20115
 21
21.0068
 31
0.0
  0
LINE
  8
0
 62
     0
 10
9.20115
 20
21.0068
 30
0.0
 11
9.20115
 21
8.20621
 31
0.0
  0
LINE
  8
0
 62
     0
 10
9.20115
 20
8.20621
 30
0.0
 11
10.0004
 21
8.20621
 31
0.0
  0
LINE
  8
0
 62
     0
 10
10.0004
 20
8.20621
 30
0.0
 11
10.0004
 21
7.60539
 31
0.0
  0
LINE
  8
0
 62
     0
 10
10.0004
 20
7.60539
 30
0.0
 11
24.0013
 21
7.60539
 31
0.0
  0
LINE
  8
0
 62
     0
 10
24.0013
 20
7.60539
 30
0.0
 11
24.0013
 21
8.20621
 31
0.0
  0
LINE
  8
0
 62
     0
 10
24.0013
 20
8.20621
 30
0.0
 11
24.8006
 21
8.20621
 31
0.0
  0
LINE
  8
0
 62
     0
 10
24.8006
 20
8.20621
 30
0.0
 11
24.8006
 21
21.0068
 31
0.0
  0
LINE
  8
0
 62
     0
 10
24.8006
 20
21.0068
 30
0.0
 11
24.0013
 21
21.0068
 31
0.0
  0
LINE
  8
0
 62
     0
 10
24.0013
 20
21.0068
 30
0.0
 11
24.0013
 21
21.6063
 31
0.0
  0
LINE
  8
0
 62
     0
 10
24.0013
 20
21.6063
 30
0.0
 11
10.0004
 21
21.6063
 31
0.0
  0
LINE
  8
0
 62
     0
 10
31.4317
 20
21.6063
 30
0.0
 11
31.4317
 21
21.0068
 31
0.0
  0
LINE
  8
0
 62
     0
 10
31.4317
 20
21.0068
 30
0.0
 11
30.6324
 21
21.0068
 31
0.0
  0
LINE
  8
0
 62
     0
 10
30.6324
 20
21.0068
 30
0.0
 11
30.6324
 21
8.20621
 31
0.0
  0
LINE
  8
0
 62
     0
 10
30.6324
 20
8.20621
 30
0.0
 11
31.4317
 21
8.20621
 31
0.0
  0
LINE
  8
0
 62
     0
 10
31.4317
 20
8.20621
 30
0.0
 11
31.4317
 21
7.60539
 31
0.0
  0
LINE
  8
0
 62
     0
 10
31.4317
 20
7.60539
 30
0.0
 11
45.4311
 21
7.60539
 31
0.0
  0
LINE
  8
0
 62
     0
 10
45.4311
 20
7.60539
 30
0.0
 11
45.4311
 21
8.20621
 31
0.0
  0
LINE
  8
0
 62
     0
 10
45.4311
 20
8.20621
 30
0.0
 11
46.2319
 21
8.20621
 31
0.0
  0
LINE
  8
0
 62
     0
 10
46.2319
 20
8.20621
 30
0.0
 11
46.2319
 21
21.0068
 31
0.0
  0
LINE
  8
0
 62
     0
 10
46.2319
 20
21.0068
 30
0.0
 11
45.4311
 21
21.0068
 31
0.0
  0
LINE
  8
0
 62
     0
 10
45.4311
 20
21.0068
 30
0.0
 11
45.4311
 21
21.6063
 31
0.0
  0
LINE
  8
0
 62
     0
 10
45.4311
 20
21.6063
 30
0.0
 11
31.4317
 21
21.6063
 31
0.0
  0
LINE
  8
0
 62
     0
 10
50.4818
 20
21.6063
 30
0.0
 11
50.4818
 21
21.0068
 31
0.0
  0
LINE
  8
0
 62
     0
 10
50.4818
 20
21.0068
 30
0.0
 11
49.6824
 21
21.0068
 31
0.0
  0
LINE
  8
0
 62
     0
 10
49.6824
 20
21.0068
 30
0.0
 11
49.6824
 21
8.20621
 31
0.0
  0
LINE
  8
0
 62
     0
 10
49.6824
 20
8.20621
 30
0.0
 11
50.4818
 21
8.20621
 31
0.0
  0
LINE
  8
0
 62
     0
 10
50.4818
 20
8.20621
 30
0.0
 11
50.4818
 21
7.60539
 31
0.0
  0
LINE
  8
0
 62
     0
 10
50.4818
 20
7.60539
 30
0.0
 11
64.4811
 21
7.60539
 31
0.0
  0
LINE
  8
0
 62
     0
 10
64.4811
 20
7.60539
 30
0.0
 11
64.4811
 21
8.20621
 31
0.0
  0
LINE
  8
0
 62
     0
 10
64.4811
 20
8.20621
 30
0.0
 11
65.2819
 21
8.20621
 31
0.0
  0
LINE
  8
0
 62
     0
 10
65.2819
 20
8.20621
 30
0.0
 11
65.2819
 21
21.0068
 31
0.0
  0
LINE
  8
0
 62
     0
 10
65.2819
 20
21.0068
 30
0.0
 11
64.4811
 21
21.0068
 31
0.0
  0
LINE
  8
0
 62
     0
 10
64.4811
 20
21.0068
 30
0.0
 11
64.4811
 21
21.6063
 31
0.0
  0
LINE
  8
0
 62
     0
 10
64.4811
 20
21.6063
 30
0.0
 11
50.4818
 21
21.6063
 31
0.0
  0
LINE
  8
0
 62
     0
 10
71.913
 20
21.6063
 30
0.0
 11
71.913
 21
21.0068
 31
0.0
  0
LINE
  8
0
 62
     0
 10
71.913
 20
21.0068
 30
0.0
 11
71.1122
 21
21.0068
 31
0.0
  0
LINE
  8
0
 62
     0
 10
71.1122
 20
21.0068
 30
0.0
 11
71.1122
 21
8.20621
 31
0.0
  0
LINE
  8
0
 62
     0
 10
71.1122
 20
8.20621
 30
0.0
 11
71.913
 21
8.20621
 31
0.0
  0
LINE
  8
0
 62
     0
 10
71.913
 20
8.20621
 30
0.0
 11
71.913
 21
7.60539
 31
0.0
  0
LINE
  8
0
 62
     0
 10
71.913
 20
7.60539
 30
0.0
 11
85.9123
 21
7.60539
 31
0.0
  0
LINE
  8
0
 62
     0
 10
85.9123
 20
7.60539
 30
0.0
 11
85.9123
 21
8.20621
 31
0.0
  0
LINE
  8
0
 62
     0
 10
85.9123
 20
8.20621
 30
0.0
 11
86.7131
 21
8.20621
 31
0.0
  0
LINE
  8
0
 62
     0
 10
86.7131
 20
8.20621
 30
0.0
 11
86.7131
 21
21.0068
 31
0.0
  0
LINE
  8
0
 62
     0
 10
86.7131
 20
21.0068
 30
0.0
 11
85.9123
 21
21.0068
 31
0.0
  0
LINE
  8
0
 62
     0
 10
85.9123
 20
21.0068
 30
0.0
 11
85.9123
 21
21.6063
 31
0.0
  0
LINE
  8
0
 62
     0
 10
85.9123
 20
21.6063
 30
0.0
 11
71.913
 21
21.6063
 31
0.0
  0
LINE
  8
0
 62
     0
 10
100.488
 20
21.6063
 30
0.0
 11
100.488
 21
21.0068
 31
0.0
  0
LINE
  8
0
 62
     0
 10
100.488
 20
21.0068
 30
0.0
 11
99.6872
 21
21.0068
 31
0.0
  0
LINE
  8
0
 62
     0
 10
99.6872
 20
21.0068
 30
0.0
 11
99.6872
 21
8.20621
 31
0.0
  0
LINE
  8
0
 62
     0
 10
99.6872
 20
8.20621
 30
0.0
 11
100.488
 21
8.20621
 31
0.0
  0
LINE
  8
0
 62
     0
 10
100.488
 20
8.20621
 30
0.0
 11
100.488
 21
7.60539
 31
0.0
  0
LINE
  8
0
 62
     0
 10
100.488
 20
7.60539
 30
0.0
 11
114.487
 21
7.60539
 31
0.0
  0
LINE
  8
0
 62
     0
 10
114.487
 20
7.60539
 30
0.0
 11
114.487
 21
8.20621
 31
0.0
  0
LINE
  8
0
 62
     0
 10
114.487
 20
8.20621
 30
0.0
 11
115.288
 21
8.20621
 31
0.0
  0
LINE
  8
0
 62
     0
 10
115.288
 20
8.20621
 30
0.0
 11
115.288
 21
21.0068
 31
0.0
  0
LINE
  8
0
 62
     0
 10
115.288
 20
21.0068
 30
0.0
 11
114.487
 21
21.0068
 31
0.0
  0
LINE
  8
0
 62
     0
 10
114.487
 20
21.0068
 30
0.0
 11
114.487
 21
21.6063
 31
0.0
  0
LINE
  8
0
 62
     0
 10
114.487
 20
21.6063
 30
0.0
 11
100.488
 21
21.6063
 31
0.0
  0
LINE
  8
0
 62
     0
 10
164.782
 20
21.6063
 30
0.0
 11
164.782
 21
21.0068
 31
0.0
  0
LINE
  8
0
 62
     0
 10
164.782
 20
21.0068
 30
0.0
 11
163.982
 21
21.0068
 31
0.0
  0
LINE
  8
0
 62
     0
 10
163.982
 20
21.0068
 30
0.0
 11
163.982
 21
8.20621
 31
0.0
  0
LINE
  8
0
 62
     0
 10
163.982
 20
8.20621
 30
0.0
 11
164.782
 21
8.20621
 31
0.0
  0
LINE
  8
0
 62
     0
 10
164.782
 20
8.20621
 30
0.0
 11
164.782
 21
7.60539
 31
0.0
  0
LINE
  8
0
 62
     0
 10
164.782
 20
7.60539
 30
0.0
 11
178.781
 21
7.60539
 31
0.0
  0
LINE
  8
0
 62
     0
 10
178.781
 20
7.60539
 30
0.0
 11
178.781
 21
8.20621
 31
0.0
  0
LINE
  8
0
 62
     0
 10
178.781
 20
8.20621
 30
0.0
 11
179.582
 21
8.20621
 31
0.0
  0
LINE
  8
0
 62
     0
 10
179.582
 20
8.20621
 30
0.0
 11
179.582
 21
21.0068
 31
0.0
  0
LINE
  8
0
 62
     0
 10
179.582
 20
21.0068
 30
0.0
 11
178.781
 21
21.0068
 31
0.0
  0
LINE
  8
0
 62
     0
 10
178.781
 20
21.0068
 30
0.0
 11
178.781
 21
21.6063
 31
0.0
  0
LINE
  8
0
 62
     0
 10
178.781
 20
21.6063
 30
0.0
 11
164.782
 21
21.6063
 31
0.0
  0
LINE
  8
0
 62
     0
 10
183.832
 20
21.6063
 30
0.0
 11
183.832
 21
21.0068
 31
0.0
  0
LINE
  8
0
 62
     0
 10
183.832
 20
21.0068
 30
0.0
 11
183.032
 21
21.0068
 31
0.0
  0
LINE
  8
0
 62
     0
 10
183.032
 20
21.0068
 30
0.0
 11
183.032
 21
8.20621
 31
0.0
  0
LINE
  8
0
 62
     0
 10
183.032
 20
8.20621
 30
0.0
 11
183.832
 21
8.20621
 31
0.0
  0
LINE
  8
0
 62
     0
 10
183.832
 20
8.20621
 30
0.0
 11
183.832
 21
7.60539
 31
0.0
  0
LINE
  8
0
 62
     0
 10
183.832
 20
7.60539
 30
0.0
 11
197.831
 21
7.60539
 31
0.0
  0
LINE
  8
0
 62
     0
 10
197.831
 20
7.60539
 30
0.0
 11
197.831
 21
8.20621
 31
0.0
  0
LINE
  8
0
 62
     0
 10
197.831
 20
8.20621
 30
0.0
 11
198.632
 21
8.20621
 31
0.0
  0
LINE
  8
0
 62
     0
 10
198.632
 20
8.20621
 30
0.0
 11
198.632
 21
21.0068
 31
0.0
  0
LINE
  8
0
 62
     0
 10
198.632
 20
21.0068
 30
0.0
 11
197.831
 21
21.0068
 31
0.0
  0
LINE
  8
0
 62
     0
 10
197.831
 20
21.0068
 30
0.0
 11
197.831
 21
21.6063
 31
0.0
  0
LINE
  8
0
 62
     0
 10
197.831
 20
21.6063
 30
0.0
 11
183.832
 21
21.6063
 31
0.0
  0
LINE
  8
0
 62
     0
 10
202.882
 20
21.6063
 30
0.0
 11
202.882
 21
21.0068
 31
0.0
  0
LINE
  8
0
 62
     0
 10
202.882
 20
21.0068
 30
0.0
 11
202.082
 21
21.0068
 31
0.0
  0
LINE
  8
0
 62
     0
 10
202.082
 20
21.0068
 30
0.0
 11
202.082
 21
8.20621
 31
0.0
  0
LINE
  8
0
 62
     0
 10
202.082
 20
8.20621
 30
0.0
 11
202.882
 21
8.20621
 31
0.0
  0
LINE
  8
0
 62
     0
 10
202.882
 20
8.20621
 30
0.0
 11
202.882
 21
7.60539
 31
0.0
  0
LINE
  8
0
 62
     0
 10
202.882
 20
7.60539
 30
0.0
 11
216.881
 21
7.60539
 31
0.0
  0
LINE
  8
0
 62
     0
 10
216.881
 20
7.60539
 30
0.0
 11
216.881
 21
8.20621
 31
0.0
  0
LINE
  8
0
 62
     0
 10
216.881
 20
8.20621
 30
0.0
 11
217.682
 21
8.20621
 31
0.0
  0
LINE
  8
0
 62
     0
 10
217.682
 20
8.20621
 30
0.0
 11
217.682
 21
21.0068
 31
0.0
  0
LINE
  8
0
 62
     0
 10
217.682
 20
21.0068
 30
0.0
 11
216.881
 21
21.0068
 31
0.0
  0
LINE
  8
0
 62
     0
 10
216.881
 20
21.0068
 30
0.0
 11
216.881
 21
21.6063
 31
0.0
  0
LINE
  8
0
 62
     0
 10
216.881
 20
21.6063
 30
0.0
 11
202.882
 21
21.6063
 31
0.0
  0
LINE
  8
0
 62
     0
 10
221.932
 20
21.6063
 30
0.0
 11
221.932
 21
21.0068
 31
0.0
  0
LINE
  8
0
 62
     0
 10
221.932
 20
21.0068
 30
0.0
 11
221.132
 21
21.0068
 31
0.0
  0
LINE
  8
0
 62
     0
 10
221.132
 20
21.0068
 30
0.0
 11
221.132
 21
8.20621
 31
0.0
  0
LINE
  8
0
 62
     0
 10
221.132
 20
8.20621
 30
0.0
 11
221.932
 21
8.20621
 31
0.0
  0
LINE
  8
0
 62
     0
 10
221.932
 20
8.20621
 30
0.0
 11
221.932
 21
7.60539
 31
0.0
  0
LINE
  8
0
 62
     0
 10
221.932
 20
7.60539
 30
0.0
 11
235.931
 21
7.60539
 31
0.0
  0
LINE
  8
0
 62
     0
 10
235.931
 20
7.60539
 30
0.0
 11
235.931
 21
8.20621
 31
0.0
  0
LINE
  8
0
 62
     0
 10
235.931
 20
8.20621
 30
0.0
 11
236.732
 21
8.20621
 31
0.0
  0
LINE
  8
0
 62
     0
 10
236.732
 20
8.20621
 30
0.0
 11
236.732
 21
21.0068
 31
0.0
  0
LINE
  8
0
 62
     0
 10
236.732
 20
21.0068
 30
0.0
 11
235.931
 21
21.0068
 31
0.0
  0
LINE
  8
0
 62
     0
 10
235.931
 20
21.0068
 30
0.0
 11
235.931
 21
21.6063
 31
0.0
  0
LINE
  8
0
 62
     0
 10
235.931
 20
21.6063
 30
0.0
 11
221.932
 21
21.6063
 31
0.0
  0
LINE
  8
0
 62
     0
 10
14.7629
 20
40.6562
 30
0.0
 11
14.7629
 21
40.0554
 31
0.0
  0
LINE
  8
0
 62
     0
 10
14.7629
 20
40.0554
 30
0.0
 11
13.9623
 21
40.0554
 31
0.0
  0
LINE
  8
0
 62
     0
 10
13.9623
 20
40.0554
 30
0.0
 11
13.9623
 21
27.2562
 31
0.0
  0
LINE
  8
0
 62
     0
 10
13.9623
 20
27.2562
 30
0.0
 11
14.7629
 21
27.2562
 31
0.0
  0
LINE
  8
0
 62
     0
 10
14.7629
 20
27.2562
 30
0.0
 11
14.7629
 21
26.6554
 31
0.0
  0
LINE
  8
0
 62
     0
 10
14.7629
 20
26.6554
 30
0.0
 11
28.7624
 21
26.6554
 31
0.0
  0
LINE
  8
0
 62
     0
 10
28.7624
 20
26.6554
 30
0.0
 11
28.7624
 21
27.2562
 31
0.0
  0
LINE
  8
0
 62
     0
 10
28.7624
 20
27.2562
 30
0.0
 11
29.5631
 21
27.2562
 31
0.0
  0
LINE
  8
0
 62
     0
 10
29.5631
 20
27.2562
 30
0.0
 11
29.5631
 21
40.0554
 31
0.0
  0
LINE
  8
0
 62
     0
 10
29.5631
 20
40.0554
 30
0.0
 11
28.7624
 21
40.0554
 31
0.0
  0
LINE
  8
0
 62
     0
 10
28.7624
 20
40.0554
 30
0.0
 11
28.7624
 21
40.6562
 31
0.0
  0
LINE
  8
0
 62
     0
 10
28.7624
 20
40.6562
 30
0.0
 11
14.7629
 21
40.6562
 31
0.0
  0
LINE
  8
0
 62
     0
 10
40.9568
 20
40.6562
 30
0.0
 11
40.9568
 21
40.0554
 31
0.0
  0
LINE
  8
0
 62
     0
 10
40.9568
 20
40.0554
 30
0.0
 11
40.1574
 21
40.0554
 31
0.0
  0
LINE
  8
0
 62
     0
 10
40.1574
 20
40.0554
 30
0.0
 11
40.1574
 21
27.2562
 31
0.0
  0
LINE
  8
0
 62
     0
 10
40.1574
 20
27.2562
 30
0.0
 11
40.9568
 21
27.2562
 31
0.0
  0
LINE
  8
0
 62
     0
 10
40.9568
 20
27.2562
 30
0.0
 11
40.9568
 21
26.6554
 31
0.0
  0
LINE
  8
0
 62
     0
 10
40.9568
 20
26.6554
 30
0.0
 11
54.9561
 21
26.6554
 31
0.0
  0
LINE
  8
0
 62
     0
 10
54.9561
 20
26.6554
 30
0.0
 11
54.9561
 21
27.2562
 31
0.0
  0
LINE
  8
0
 62
     0
 10
54.9561
 20
27.2562
 30
0.0
 11
55.7569
 21
27.2562
 31
0.0
  0
LINE
  8
0
 62
     0
 10
55.7569
 20
27.2562
 30
0.0
 11
55.7569
 21
40.0554
 31
0.0
  0
LINE
  8
0
 62
     0
 10
55.7569
 20
40.0554
 30
0.0
 11
54.9561
 21
40.0554
 31
0.0
  0
LINE
  8
0
 62
     0
 10
54.9561
 20
40.0554
 30
0.0
 11
54.9561
 21
40.6562
 31
0.0
  0
LINE
  8
0
 62
     0
 10
54.9561
 20
40.6562
 30
0.0
 11
40.9568
 21
40.6562
 31
0.0
  0
LINE
  8
0
 62
     0
 10
60.0068
 20
40.6562
 30
0.0
 11
60.0068
 21
40.0554
 31
0.0
  0
LINE
  8
0
 62
     0
 10
60.0068
 20
40.0554
 30
0.0
 11
59.206
 21
40.0554
 31
0.0
  0
LINE
  8
0
 62
     0
 10
59.206
 20
40.0554
 30
0.0
 11
59.206
 21
27.2562
 31
0.0
  0
LINE
  8
0
 62
     0
 10
59.206
 20
27.2562
 30
0.0
 11
60.0068
 21
27.2562
 31
0.0
  0
LINE
  8
0
 62
     0
 10
60.0068
 20
27.2562
 30
0.0
 11
60.0068
 21
26.6554
 31
0.0
  0
LINE
  8
0
 62
     0
 10
60.0068
 20
26.6554
 30
0.0
 11
74.0061
 21
26.6554
 31
0.0
  0
LINE
  8
0
 62
     0
 10
74.0061
 20
26.6554
 30
0.0
 11
74.0061
 21
27.2562
 31
0.0
  0
LINE
  8
0
 62
     0
 10
74.0061
 20
27.2562
 30
0.0
 11
74.8069
 21
27.2562
 31
0.0
  0
LINE
  8
0
 62
     0
 10
74.8069
 20
27.2562
 30
0.0
 11
74.8069
 21
40.0554
 31
0.0
  0
LINE
  8
0
 62
     0
 10
74.8069
 20
40.0554
 30
0.0
 11
74.0061
 21
40.0554
 31
0.0
  0
LINE
  8
0
 62
     0
 10
74.0061
 20
40.0554
 30
0.0
 11
74.0061
 21
40.6562
 31
0.0
  0
LINE
  8
0
 62
     0
 10
74.0061
 20
40.6562
 30
0.0
 11
60.0068
 21
40.6562
 31
0.0
  0
LINE
  8
0
 62
     0
 10
79.0568
 20
40.6562
 30
0.0
 11
79.0568
 21
40.0554
 31
0.0
  0
LINE
  8
0
 62
     0
 10
79.0568
 20
40.0554
 30
0.0
 11
78.2574
 21
40.0554
 31
0.0
  0
LINE
  8
0
 62
     0
 10
78.2574
 20
40.0554
 30
0.0
 11
78.2574
 21
27.2562
 31
0.0
  0
LINE
  8
0
 62
     0
 10
78.2574
 20
27.2562
 30
0.0
 11
79.0568
 21
27.2562
 31
0.0
  0
LINE
  8
0
 62
     0
 10
79.0568
 20
27.2562
 30
0.0
 11
79.0568
 21
26.6554
 31
0.0
  0
LINE
  8
0
 62
     0
 10
79.0568
 20
26.6554
 30
0.0
 11
93.0561
 21
26.6554
 31
0.0
  0
LINE
  8
0
 62
     0
 10
93.0561
 20
26.6554
 30
0.0
 11
93.0561
 21
27.2562
 31
0.0
  0
LINE
  8
0
 62
     0
 10
93.0561
 20
27.2562
 30
0.0
 11
93.8569
 21
27.2562
 31
0.0
  0
LINE
  8
0
 62
     0
 10
93.8569
 20
27.2562
 30
0.0
 11
93.8569
 21
40.0554
 31
0.0
  0
LINE
  8
0
 62
     0
 10
93.8569
 20
40.0554
 30
0.0
 11
93.0561
 21
40.0554
 31
0.0
  0
LINE
  8
0
 62
     0
 10
93.0561
 20
40.0554
 30
0.0
 11
93.0561
 21
40.6562
 31
0.0
  0
LINE
  8
0
 62
     0
 10
93.0561
 20
40.6562
 30
0.0
 11
79.0568
 21
40.6562
 31
0.0
  0
LINE
  8
0
 62
     0
 10
98.1068
 20
40.6562
 30
0.0
 11
98.1068
 21
40.0554
 31
0.0
  0
LINE
  8
0
 62
     0
 10
98.1068
 20
40.0554
 30
0.0
 11
97.3074
 21
40.0554
 31
0.0
  0
LINE
  8
0
 62
     0
 10
97.3074
 20
40.0554
 30
0.0
 11
97.3074
 21
27.2562
 31
0.0
  0
LINE
  8
0
 62
     0
 10
97.3074
 20
27.2562
 30
0.0
 11
98.1068
 21
27.2562
 31
0.0
  0
LINE
  8
0
 62
     0
 10
98.1068
 20
27.2562
 30
0.0
 11
98.1068
 21
26.6554
 31
0.0
  0
LINE
  8
0
 62
     0
 10
98.1068
 20
26.6554
 30
0.0
 11
112.106
 21
26.6554
 31
0.0
  0
LINE
  8
0
 62
     0
 10
112.106
 20
26.6554
 30
0.0
 11
112.106
 21
27.2562
 31
0.0
  0
LINE
  8
0
 62
     0
 10
112.106
 20
27.2562
 30
0.0
 11
112.907
 21
27.2562
 31
0.0
  0
LINE
  8
0
 62
     0
 10
112.907
 20
27.2562
 30
0.0
 11
112.907
 21
40.0554
 31
0.0
  0
LINE
  8
0
 62
     0
 10
112.907
 20
40.0554
 30
0.0
 11
112.106
 21
40.0554
 31
0.0
  0
LINE
  8
0
 62
     0
 10
112.106
 20
40.0554
 30
0.0
 11
112.106
 21
40.6562
 31
0.0
  0
LINE
  8
0
 62
     0
 10
112.106
 20
40.6562
 30
0.0
 11
98.1068
 21
40.6562
 31
0.0
  0
LINE
  8
0
 62
     0
 10
117.157
 20
40.6562
 30
0.0
 11
117.157
 21
40.0554
 31
0.0
  0
LINE
  8
0
 62
     0
 10
117.157
 20
40.0554
 30
0.0
 11
116.357
 21
40.0554
 31
0.0
  0
LINE
  8
0
 62
     0
 10
116.357
 20
40.0554
 30
0.0
 11
116.357
 21
27.2562
 31
0.0
  0
LINE
  8
0
 62
     0
 10
116.357
 20
27.2562
 30
0.0
 11
117.157
 21
27.2562
 31
0.0
  0
LINE
  8
0
 62
     0
 10
117.157
 20
27.2562
 30
0.0
 11
117.157
 21
26.6554
 31
0.0
  0
LINE
  8
0
 62
     0
 10
117.157
 20
26.6554
 30
0.0
 11
131.156
 21
26.6554
 31
0.0
  0
LINE
  8
0
 62
     0
 10
131.156
 20
26.6554
 30
0.0
 11
131.156
 21
27.2562
 31
0.0
  0
LINE
  8
0
 62
     0
 10
131.156
 20
27.2562
 30
0.0
 11
131.957
 21
27.2562
 31
0.0
  0
LINE
  8
0
 62
     0
 10
131.957
 20
27.2562
 30
0.0
 11
131.957
 21
40.0554
 31
0.0
  0
LINE
  8
0
 62
     0
 10
131.957
 20
40.0554
 30
0.0
 11
131.156
 21
40.0554
 31
0.0
  0
LINE
  8
0
 62
     0
 10
131.156
 20
40.0554
 30
0.0
 11
131.156
 21
40.6562
 31
0.0
  0
LINE
  8
0
 62
     0
 10
131.156
 20
40.6562
 30
0.0
 11
117.157
 21
40.6562
 31
0.0
  0
LINE
  8
0
 62
     0
 10
136.207
 20
40.6562
 30
0.0
 11
136.207
 21
40.0554
 31
0.0
  0
LINE
  8
0
 62
     0
 10
136.207
 20
40.0554
 30
0.0
 11
135.407
 21
40.0554
 31
0.0
  0
LINE
  8
0
 62
     0
 10
135.407
 20
40.0554
 30
0.0
 11
135.407
 21
27.2562
 31
0.0
  0
LINE
  8
0
 62
     0
 10
135.407
 20
27.2562
 30
0.0
 11
136.207
 21
27.2562
 31
0.0
  0
LINE
  8
0
 62
     0
 10
136.207
 20
27.2562
 30
0.0
 11
136.207
 21
26.6554
 31
0.0
  0
LINE
  8
0
 62
     0
 10
136.207
 20
26.6554
 30
0.0
 11
150.206
 21
26.6554
 31
0.0
  0
LINE
  8
0
 62
     0
 10
150.206
 20
26.6554
 30
0.0
 11
150.206
 21
27.2562
 31
0.0
  0
LINE
  8
0
 62
     0
 10
150.206
 20
27.2562
 30
0.0
 11
151.007
 21
27.2562
 31
0.0
  0
LINE
  8
0
 62
     0
 10
151.007
 20
27.2562
 30
0.0
 11
151.007
 21
40.0554
 31
0.0
  0
LINE
  8
0
 62
     0
 10
151.007
 20
40.0554
 30
0.0
 11
150.206
 21
40.0554
 31
0.0
  0
LINE
  8
0
 62
     0
 10
150.206
 20
40.0554
 30
0.0
 11
150.206
 21
40.6562
 31
0.0
  0
LINE
  8
0
 62
     0
 10
150.206
 20
40.6562
 30
0.0
 11
136.207
 21
40.6562
 31
0.0
  0
LINE
  8
0
 62
     0
 10
155.257
 20
40.6562
 30
0.0
 11
155.257
 21
40.0554
 31
0.0
  0
LINE
  8
0
 62
     0
 10
155.257
 20
40.0554
 30
0.0
 11
154.457
 21
40.0554
 31
0.0
  0
LINE
  8
0
 62
     0
 10
154.457
 20
40.0554
 30
0.0
 11
154.457
 21
27.2562
 31
0.0
  0
LINE
  8
0
 62
     0
 10
154.457
 20
27.2562
 30
0.0
 11
155.257
 21
27.2562
 31
0.0
  0
LINE
  8
0
 62
     0
 10
155.257
 20
27.2562
 30
0.0
 11
155.257
 21
26.6554
 31
0.0
  0
LINE
  8
0
 62
     0
 10
155.257
 20
26.6554
 30
0.0
 11
169.256
 21
26.6554
 31
0.0
  0
LINE
  8
0
 62
     0
 10
169.256
 20
26.6554
 30
0.0
 11
169.256
 21
27.2562
 31
0.0
  0
LINE
  8
0
 62
     0
 10
169.256
 20
27.2562
 30
0.0
 11
170.057
 21
27.2562
 31
0.0
  0
LINE
  8
0
 62
     0
 10
170.057
 20
27.2562
 30
0.0
 11
170.057
 21
40.0554
 31
0.0
  0
LINE
  8
0
 62
     0
 10
170.057
 20
40.0554
 30
0.0
 11
169.256
 21
40.0554
 31
0.0
  0
LINE
  8
0
 62
     0
 10
169.256
 20
40.0554
 30
0.0
 11
169.256
 21
40.6562
 31
0.0
  0
LINE
  8
0
 62
     0
 10
169.256
 20
40.6562
 30
0.0
 11
155.257
 21
40.6562
 31
0.0
  0
LINE
  8
0
 62
     0
 10
174.307
 20
40.6562
 30
0.0
 11
174.307
 21
40.0554
 31
0.0
  0
LINE
  8
0
 62
     0
 10
174.307
 20
40.0554
 30
0.0
 11
173.507
 21
40.0554
 31
0.0
  0
LINE
  8
0
 62
     0
 10
173.507
 20
40.0554
 30
0.0
 11
173.507
 21
27.2562
 31
0.0
  0
LINE
  8
0
 62
     0
 10
173.507
 20
27.2562
 30
0.0
 11
174.307
 21
27.2562
 31
0.0
  0
LINE
  8
0
 62
     0
 10
174.307
 20
27.2562
 30
0.0
 11
174.307
 21
26.6554
 31
0.0
  0
LINE
  8
0
 62
     0
 10
174.307
 20
26.6554
 30
0.0
 11
188.306
 21
26.6554
 31
0.0
  0
LINE
  8
0
 62
     0
 10
188.306
 20
26.6554
 30
0.0
 11
188.306
 21
27.2562
 31
0.0
  0
LINE
  8
0
 62
     0
 10
188.306
 20
27.2562
 30
0.0
 11
189.107
 21
27.2562
 31
0.0
  0
LINE
  8
0
 62
     0
 10
189.107
 20
27.2562
 30
0.0
 11
189.107
 21
40.0554
 31
0.0
  0
LINE
  8
0
 62
     0
 10
189.107
 20
40.0554
 30
0.0
 11
188.306
 21
40.0554
 31
0.0
  0
LINE
  8
0
 62
     0
 10
188.306
 20
40.0554
 30
0.0
 11
188.306
 21
40.6562
 31
0.0
  0
LINE
  8
0
 62
     0
 10
188.306
 20
40.6562
 30
0.0
 11
174.307
 21
40.6562
 31
0.0
  0
LINE
  8
0
 62
     0
 10
193.357
 20
40.6562
 30
0.0
 11
193.357
 21
40.0554
 31
0.0
  0
LINE
  8
0
 62
     0
 10
193.357
 20
40.0554
 30
0.0
 11
192.557
 21
40.0554
 31
0.0
  0
LINE
  8
0
 62
     0
 10
192.557
 20
40.0554
 30
0.0
 11
192.557
 21
27.2562
 31
0.0
  0
LINE
  8
0
 62
     0
 10
192.557
 20
27.2562
 30
0.0
 11
193.357
 21
27.2562
 31
0.0
  0
LINE
  8
0
 62
     0
 10
193.357
 20
27.2562
 30
0.0
 11
193.357
 21
26.6554
 31
0.0
  0
LINE
  8
0
 62
     0
 10
193.357
 20
26.6554
 30
0.0
 11
207.356
 21
26.6554
 31
0.0
  0
LINE
  8
0
 62
     0
 10
207.356
 20
26.6554
 30
0.0
 11
207.356
 21
27.2562
 31
0.0
  0
LINE
  8
0
 62
     0
 10
207.356
 20
27.2562
 30
0.0
 11
208.157
 21
27.2562
 31
0.0
  0
LINE
  8
0
 62
     0
 10
208.157
 20
27.2562
 30
0.0
 11
208.157
 21
40.0554
 31
0.0
  0
LINE
  8
0
 62
     0
 10
208.157
 20
40.0554
 30
0.0
 11
207.356
 21
40.0554
 31
0.0
  0
LINE
  8
0
 62
     0
 10
207.356
 20
40.0554
 30
0.0
 11
207.356
 21
40.6562
 31
0.0
  0
LINE
  8
0
 62
     0
 10
207.356
 20
40.6562
 30
0.0
 11
193.357
 21
40.6562
 31
0.0
  0
LINE
  8
0
 62
     0
 10
217.169
 20
40.6562
 30
0.0
 11
217.169
 21
40.0554
 31
0.0
  0
LINE
  8
0
 62
     0
 10
217.169
 20
40.0554
 30
0.0
 11
216.37
 21
40.0554
 31
0.0
  0
LINE
  8
0
 62
     0
 10
216.37
 20
40.0554
 30
0.0
 11
216.37
 21
27.2562
 31
0.0
  0
LINE
  8
0
 62
     0
 10
216.37
 20
27.2562
 30
0.0
 11
217.169
 21
27.2562
 31
0.0
  0
LINE
  8
0
 62
     0
 10
217.169
 20
27.2562
 30
0.0
 11
217.169
 21
26.6554
 31
0.0
  0
LINE
  8
0
 62
     0
 10
217.169
 20
26.6554
 30
0.0
 11
231.17
 21
26.6554
 31
0.0
  0
LINE
  8
0
 62
     0
 10
231.17
 20
26.6554
 30
0.0
 11
231.17
 21
27.2562
 31
0.0
  0
LINE
  8
0
 62
     0
 10
231.17
 20
27.2562
 30
0.0
 11
231.969
 21
27.2562
 31
0.0
  0
LINE
  8
0
 62
     0
 10
231.969
 20
27.2562
 30
0.0
 11
231.969
 21
40.0554
 31
0.0
  0
LINE
  8
0
 62
     0
 10
231.969
 20
40.0554
 30
0.0
 11
231.17
 21
40.0554
 31
0.0
  0
LINE
  8
0
 62
     0
 10
231.17
 20
40.0554
 30
0.0
 11
231.17
 21
40.6562
 31
0.0
  0
LINE
  8
0
 62
     0
 10
231.17
 20
40.6562
 30
0.0
 11
217.169
 21
40.6562
 31
0.0
  0
LINE
  8
0
 62
     0
 10
10.0004
 20
59.7062
 30
0.0
 11
10.0004
 21
59.1069
 31
0.0
  0
LINE
  8
0
 62
     0
 10
10.0004
 20
59.1069
 30
0.0
 11
9.20115
 21
59.1069
 31
0.0
  0
LINE
  8
0
 62
     0
 10
9.20115
 20
59.1069
 30
0.0
 11
9.20115
 21
46.3063
 31
0.0
  0
LINE
  8
0
 62
     0
 10
9.20115
 20
46.3063
 30
0.0
 11
10.0004
 21
46.3063
 31
0.0
  0
LINE
  8
0
 62
     0
 10
10.0004
 20
46.3063
 30
0.0
 11
10.0004
 21
45.7055
 31
0.0
  0
LINE
  8
0
 62
     0
 10
10.0004
 20
45.7055
 30
0.0
 11
24.0013
 21
45.7055
 31
0.0
  0
LINE
  8
0
 62
     0
 10
24.0013
 20
45.7055
 30
0.0
 11
24.0013
 21
46.3063
 31
0.0
  0
LINE
  8
0
 62
     0
 10
24.0013
 20
46.3063
 30
0.0
 11
24.8006
 21
46.3063
 31
0.0
  0
LINE
  8
0
 62
     0
 10
24.8006
 20
46.3063
 30
0.0
 11
24.8006
 21
59.1069
 31
0.0
  0
LINE
  8
0
 62
     0
 10
24.8006
 20
59.1069
 30
0.0
 11
24.0013
 21
59.1069
 31
0.0
  0
LINE
  8
0
 62
     0
 10
24.0013
 20
59.1069
 30
0.0
 11
24.0013
 21
59.7062
 31
0.0
  0
LINE
  8
0
 62
     0
 10
24.0013
 20
59.7062
 30
0.0
 11
10.0004
 21
59.7062
 31
0.0
  0
LINE
  8
0
 62
     0
 10
31.4317
 20
59.7062
 30
0.0
 11
31.4317
 21
59.1069
 31
0.0
  0
LINE
  8
0
 62
     0
 10
31.4317
 20
59.1069
 30
0.0
 11
30.6324
 21
59.1069
 31
0.0
  0
LINE
  8
0
 62
     0
 10
30.6324
 20
59.1069
 30
0.0
 11
30.6324
 21
46.3063
 31
0.0
  0
LINE
  8
0
 62
     0
 10
30.6324
 20
46.3063
 30
0.0
 11
31.4317
 21
46.3063
 31
0.0
  0
LINE
  8
0
 62
     0
 10
31.4317
 20
46.3063
 30
0.0
 11
31.4317
 21
45.7055
 31
0.0
  0
LINE
  8
0
 62
     0
 10
31.4317
 20
45.7055
 30
0.0
 11
45.4311
 21
45.7055
 31
0.0
  0
LINE
  8
0
 62
     0
 10
45.4311
 20
45.7055
 30
0.0
 11
45.4311
 21
46.3063
 31
0.0
  0
LINE
  8
0
 62
     0
 10
45.4311
 20
46.3063
 30
0.0
 11
46.2319
 21
46.3063
 31
0.0
  0
LINE
  8
0
 62
     0
 10
46.2319
 20
46.3063
 30
0.0
 11
46.2319
 21
59.1069
 31
0.0
  0
LINE
  8
0
 62
     0
 10
46.2319
 20
59.1069
 30
0.0
 11
45.4311
 21
59.1069
 31
0.0
  0
LINE
  8
0
 62
     0
 10
45.4311
 20
59.1069
 30
0.0
 11
45.4311
 21
59.7062
 31
0.0
  0
LINE
  8
0
 62
     0
 10
45.4311
 20
59.7062
 30
0.0
 11
31.4317
 21
59.7062
 31
0.0
  0
LINE
  8
0
 62
     0
 10
50.4818
 20
59.7062
 30
0.0
 11
50.4818
 21
59.1069
 31
0.0
  0
LINE
  8
0
 62
     0
 10
50.4818
 20
59.1069
 30
0.0
 11
49.6824
 21
59.1069
 31
0.0
  0
LINE
  8
0
 62
     0
 10
49.6824
 20
59.1069
 30
0.0
 11
49.6824
 21
46.3063
 31
0.0
  0
LINE
  8
0
 62
     0
 10
49.6824
 20
46.3063
 30
0.0
 11
50.4818
 21
46.3063
 31
0.0
  0
LINE
  8
0
 62
     0
 10
50.4818
 20
46.3063
 30
0.0
 11
50.4818
 21
45.7055
 31
0.0
  0
LINE
  8
0
 62
     0
 10
50.4818
 20
45.7055
 30
0.0
 11
64.4811
 21
45.7055
 31
0.0
  0
LINE
  8
0
 62
     0
 10
64.4811
 20
45.7055
 30
0.0
 11
64.4811
 21
46.3063
 31
0.0
  0
LINE
  8
0
 62
     0
 10
64.4811
 20
46.3063
 30
0.0
 11
65.2819
 21
46.3063
 31
0.0
  0
LINE
  8
0
 62
     0
 10
65.2819
 20
46.3063
 30
0.0
 11
65.2819
 21
59.1069
 31
0.0
  0
LINE
  8
0
 62
     0
 10
65.2819
 20
59.1069
 30
0.0
 11
64.4811
 21
59.1069
 31
0.0
  0
LINE
  8
0
 62
     0
 10
64.4811
 20
59.1069
 30
0.0
 11
64.4811
 21
59.7062
 31
0.0
  0
LINE
  8
0
 62
     0
 10
64.4811
 20
59.7062
 30
0.0
 11
50.4818
 21
59.7062
 31
0.0
  0
LINE
  8
0
 62
     0
 10
69.5318
 20
59.7062
 30
0.0
 11
69.5318
 21
59.1069
 31
0.0
  0
LINE
  8
0
 62
     0
 10
69.5318
 20
59.1069
 30
0.0
 11
68.7324
 21
59.1069
 31
0.0
  0
LINE
  8
0
 62
     0
 10
68.7324
 20
59.1069
 30
0.0
 11
68.7324
 21
46.3063
 31
0.0
  0
LINE
  8
0
 62
     0
 10
68.7324
 20
46.3063
 30
0.0
 11
69.5318
 21
46.3063
 31
0.0
  0
LINE
  8
0
 62
     0
 10
69.5318
 20
46.3063
 30
0.0
 11
69.5318
 21
45.7055
 31
0.0
  0
LINE
  8
0
 62
     0
 10
69.5318
 20
45.7055
 30
0.0
 11
83.5311
 21
45.7055
 31
0.0
  0
LINE
  8
0
 62
     0
 10
83.5311
 20
45.7055
 30
0.0
 11
83.5311
 21
46.3063
 31
0.0
  0
LINE
  8
0
 62
     0
 10
83.5311
 20
46.3063
 30
0.0
 11
84.3319
 21
46.3063
 31
0.0
  0
LINE
  8
0
 62
     0
 10
84.3319
 20
46.3063
 30
0.0
 11
84.3319
 21
59.1069
 31
0.0
  0
LINE
  8
0
 62
     0
 10
84.3319
 20
59.1069
 30
0.0
 11
83.5311
 21
59.1069
 31
0.0
  0
LINE
  8
0
 62
     0
 10
83.5311
 20
59.1069
 30
0.0
 11
83.5311
 21
59.7062
 31
0.0
  0
LINE
  8
0
 62
     0
 10
83.5311
 20
59.7062
 30
0.0
 11
69.5318
 21
59.7062
 31
0.0
  0
LINE
  8
0
 62
     0
 10
88.5818
 20
59.7062
 30
0.0
 11
88.5818
 21
59.1069
 31
0.0
  0
LINE
  8
0
 62
     0
 10
88.5818
 20
59.1069
 30
0.0
 11
87.7824
 21
59.1069
 31
0.0
  0
LINE
  8
0
 62
     0
 10
87.7824
 20
59.1069
 30
0.0
 11
87.7824
 21
46.3063
 31
0.0
  0
LINE
  8
0
 62
     0
 10
87.7824
 20
46.3063
 30
0.0
 11
88.5818
 21
46.3063
 31
0.0
  0
LINE
  8
0
 62
     0
 10
88.5818
 20
46.3063
 30
0.0
 11
88.5818
 21
45.7055
 31
0.0
  0
LINE
  8
0
 62
     0
 10
88.5818
 20
45.7055
 30
0.0
 11
102.581
 21
45.7055
 31
0.0
  0
LINE
  8
0
 62
     0
 10
102.581
 20
45.7055
 30
0.0
 11
102.581
 21
46.3063
 31
0.0
  0
LINE
  8
0
 62
     0
 10
102.581
 20
46.3063
 30
0.0
 11
103.382
 21
46.3063
 31
0.0
  0
LINE
  8
0
 62
     0
 10
103.382
 20
46.3063
 30
0.0
 11
103.382
 21
59.1069
 31
0.0
  0
LINE
  8
0
 62
     0
 10
103.382
 20
59.1069
 30
0.0
 11
102.581
 21
59.1069
 31
0.0
  0
LINE
  8
0
 62
     0
 10
102.581
 20
59.1069
 30
0.0
 11
102.581
 21
59.7062
 31
0.0
  0
LINE
  8
0
 62
     0
 10
102.581
 20
59.7062
 30
0.0
 11
88.5818
 21
59.7062
 31
0.0
  0
LINE
  8
0
 62
     0
 10
107.632
 20
59.7062
 30
0.0
 11
107.632
 21
59.1069
 31
0.0
  0
LINE
  8
0
 62
     0
 10
107.632
 20
59.1069
 30
0.0
 11
106.832
 21
59.1069
 31
0.0
  0
LINE
  8
0
 62
     0
 10
106.832
 20
59.1069
 30
0.0
 11
106.832
 21
46.3063
 31
0.0
  0
LINE
  8
0
 62
     0
 10
106.832
 20
46.3063
 30
0.0
 11
107.632
 21
46.3063
 31
0.0
  0
LINE
  8
0
 62
     0
 10
107.632
 20
46.3063
 30
0.0
 11
107.632
 21
45.7055
 31
0.0
  0
LINE
  8
0
 62
     0
 10
107.632
 20
45.7055
 30
0.0
 11
121.631
 21
45.7055
 31
0.0
  0
LINE
  8
0
 62
     0
 10
121.631
 20
45.7055
 30
0.0
 11
121.631
 21
46.3063
 31
0.0
  0
LINE
  8
0
 62
     0
 10
121.631
 20
46.3063
 30
0.0
 11
122.432
 21
46.3063
 31
0.0
  0
LINE
  8
0
 62
     0
 10
122.432
 20
46.3063
 30
0.0
 11
122.432
 21
59.1069
 31
0.0
  0
LINE
  8
0
 62
     0
 10
122.432
 20
59.1069
 30
0.0
 11
121.631
 21
59.1069
 31
0.0
  0
LINE
  8
0
 62
     0
 10
121.631
 20
59.1069
 30
0.0
 11
121.631
 21
59.7062
 31
0.0
  0
LINE
  8
0
 62
     0
 10
121.631
 20
59.7062
 30
0.0
 11
107.632
 21
59.7062
 31
0.0
  0
LINE
  8
0
 62
     0
 10
126.682
 20
59.7062
 30
0.0
 11
126.682
 21
59.1069
 31
0.0
  0
LINE
  8
0
 62
     0
 10
126.682
 20
59.1069
 30
0.0
 11
125.882
 21
59.1069
 31
0.0
  0
LINE
  8
0
 62
     0
 10
125.882
 20
59.1069
 30
0.0
 11
125.882
 21
46.3063
 31
0.0
  0
LINE
  8
0
 62
     0
 10
125.882
 20
46.3063
 30
0.0
 11
126.682
 21
46.3063
 31
0.0
  0
LINE
  8
0
 62
     0
 10
126.682
 20
46.3063
 30
0.0
 11
126.682
 21
45.7055
 31
0.0
  0
LINE
  8
0
 62
     0
 10
126.682
 20
45.7055
 30
0.0
 11
140.681
 21
45.7055
 31
0.0
  0
LINE
  8
0
 62
     0
 10
140.681
 20
45.7055
 30
0.0
 11
140.681
 21
46.3063
 31
0.0
  0
LINE
  8
0
 62
     0
 10
140.681
 20
46.3063
 30
0.0
 11
141.482
 21
46.3063
 31
0.0
  0
LINE
  8
0
 62
     0
 10
141.482
 20
46.3063
 30
0.0
 11
141.482
 21
59.1069
 31
0.0
  0
LINE
  8
0
 62
     0
 10
141.482
 20
59.1069
 30
0.0
 11
140.681
 21
59.1069
 31
0.0
  0
LINE
  8
0
 62
     0
 10
140.681
 20
59.1069
 30
0.0
 11
140.681
 21
59.7062
 31
0.0
  0
LINE
  8
0
 62
     0
 10
140.681
 20
59.7062
 30
0.0
 11
126.682
 21
59.7062
 31
0.0
  0
LINE
  8
0
 62
     0
 10
145.732
 20
59.7062
 30
0.0
 11
145.732
 21
59.1069
 31
0.0
  0
LINE
  8
0
 62
     0
 10
145.732
 20
59.1069
 30
0.0
 11
144.932
 21
59.1069
 31
0.0
  0
LINE
  8
0
 62
     0
 10
144.932
 20
59.1069
 30
0.0
 11
144.932
 21
46.3063
 31
0.0
  0
LINE
  8
0
 62
     0
 10
144.932
 20
46.3063
 30
0.0
 11
145.732
 21
46.3063
 31
0.0
  0
LINE
  8
0
 62
     0
 10
145.732
 20
46.3063
 30
0.0
 11
145.732
 21
45.7055
 31
0.0
  0
LINE
  8
0
 62
     0
 10
145.732
 20
45.7055
 30
0.0
 11
159.731
 21
45.7055
 31
0.0
  0
LINE
  8
0
 62
     0
 10
159.731
 20
45.7055
 30
0.0
 11
159.731
 21
46.3063
 31
0.0
  0
LINE
  8
0
 62
     0
 10
159.731
 20
46.3063
 30
0.0
 11
160.532
 21
46.3063
 31
0.0
  0
LINE
  8
0
 62
     0
 10
160.532
 20
46.3063
 30
0.0
 11
160.532
 21
59.1069
 31
0.0
  0
LINE
  8
0
 62
     0
 10
160.532
 20
59.1069
 30
0.0
 11
159.731
 21
59.1069
 31
0.0
  0
LINE
  8
0
 62
     0
 10
159.731
 20
59.1069
 30
0.0
 11
159.731
 21
59.7062
 31
0.0
  0
LINE
  8
0
 62
     0
 10
159.731
 20
59.7062
 30
0.0
 11
145.732
 21
59.7062
 31
0.0
  0
LINE
  8
0
 62
     0
 10
164.782
 20
59.7062
 30
0.0
 11
164.782
 21
59.1069
 31
0.0
  0
LINE
  8
0
 62
     0
 10
164.782
 20
59.1069
 30
0.0
 11
163.982
 21
59.1069
 31
0.0
  0
LINE
  8
0
 62
     0
 10
163.982
 20
59.1069
 30
0.0
 11
163.982
 21
46.3063
 31
0.0
  0
LINE
  8
0
 62
     0
 10
163.982
 20
46.3063
 30
0.0
 11
164.782
 21
46.3063
 31
0.0
  0
LINE
  8
0
 62
     0
 10
164.782
 20
46.3063
 30
0.0
 11
164.782
 21
45.7055
 31
0.0
  0
LINE
  8
0
 62
     0
 10
164.782
 20
45.7055
 30
0.0
 11
178.781
 21
45.7055
 31
0.0
  0
LINE
  8
0
 62
     0
 10
178.781
 20
45.7055
 30
0.0
 11
178.781
 21
46.3063
 31
0.0
  0
LINE
  8
0
 62
     0
 10
178.781
 20
46.3063
 30
0.0
 11
179.582
 21
46.3063
 31
0.0
  0
LINE
  8
0
 62
     0
 10
179.582
 20
46.3063
 30
0.0
 11
179.582
 21
59.1069
 31
0.0
  0
LINE
  8
0
 62
     0
 10
179.582
 20
59.1069
 30
0.0
 11
178.781
 21
59.1069
 31
0.0
  0
LINE
  8
0
 62
     0
 10
178.781
 20
59.1069
 30
0.0
 11
178.781
 21
59.7062
 31
0.0
  0
LINE
  8
0
 62
     0
 10
178.781
 20
59.7062
 30
0.0
 11
164.782
 21
59.7062
 31
0.0
  0
LINE
  8
0
 62
     0
 10
183.832
 20
59.7062
 30
0.0
 11
183.832
 21
59.1069
 31
0.0
  0
LINE
  8
0
 62
     0
 10
183.832
 20
59.1069
 30
0.0
 11
183.032
 21
59.1069
 31
0.0
  0
LINE
  8
0
 62
     0
 10
183.032
 20
59.1069
 30
0.0
 11
183.032
 21
46.3063
 31
0.0
  0
LINE
  8
0
 62
     0
 10
183.032
 20
46.3063
 30
0.0
 11
183.832
 21
46.3063
 31
0.0
  0
LINE
  8
0
 62
     0
 10
183.832
 20
46.3063
 30
0.0
 11
183.832
 21
45.7055
 31
0.0
  0
LINE
  8
0
 62
     0
 10
183.832
 20
45.7055
 30
0.0
 11
197.831
 21
45.7055
 31
0.0
  0
LINE
  8
0
 62
     0
 10
197.831
 20
45.7055
 30
0.0
 11
197.831
 21
46.3063
 31
0.0
  0
LINE
  8
0
 62
     0
 10
197.831
 20
46.3063
 30
0.0
 11
198.632
 21
46.3063
 31
0.0
  0
LINE
  8
0
 62
     0
 10
198.632
 20
46.3063
 30
0.0
 11
198.632
 21
59.1069
 31
0.0
  0
LINE
  8
0
 62
     0
 10
198.632
 20
59.1069
 30
0.0
 11
197.831
 21
59.1069
 31
0.0
  0
LINE
  8
0
 62
     0
 10
197.831
 20
59.1069
 30
0.0
 11
197.831
 21
59.7062
 31
0.0
  0
LINE
  8
0
 62
     0
 10
197.831
 20
59.7062
 30
0.0
 11
183.832
 21
59.7062
 31
0.0
  0
LINE
  8
0
 62
     0
 10
202.882
 20
59.7062
 30
0.0
 11
202.882
 21
59.1069
 31
0.0
  0
LINE
  8
0
 62
     0
 10
202.882
 20
59.1069
 30
0.0
 11
202.082
 21
59.1069
 31
0.0
  0
LINE
  8
0
 62
     0
 10
202.082
 20
59.1069
 30
0.0
 11
202.082
 21
46.3063
 31
0.0
  0
LINE
  8
0
 62
     0
 10
202.082
 20
46.3063
 30
0.0
 11
202.882
 21
46.3063
 31
0.0
  0
LINE
  8
0
 62
     0
 10
202.882
 20
46.3063
 30
0.0
 11
202.882
 21
45.7055
 31
0.0
  0
LINE
  8
0
 62
     0
 10
202.882
 20
45.7055
 30
0.0
 11
216.881
 21
45.7055
 31
0.0
  0
LINE
  8
0
 62
     0
 10
216.881
 20
45.7055
 30
0.0
 11
216.881
 21
46.3063
 31
0.0
  0
LINE
  8
0
 62
     0
 10
216.881
 20
46.3063
 30
0.0
 11
217.682
 21
46.3063
 31
0.0
  0
LINE
  8
0
 62
     0
 10
217.682
 20
46.3063
 30
0.0
 11
217.682
 21
59.1069
 31
0.0
  0
LINE
  8
0
 62
     0
 10
217.682
 20
59.1069
 30
0.0
 11
216.881
 21
59.1069
 31
0.0
  0
LINE
  8
0
 62
     0
 10
216.881
 20
59.1069
 30
0.0
 11
216.881
 21
59.7062
 31
0.0
  0
LINE
  8
0
 62
     0
 10
216.881
 20
59.7062
 30
0.0
 11
202.882
 21
59.7062
 31
0.0
  0
LINE
  8
0
 62
     0
 10
221.932
 20
59.7062
 30
0.0
 11
221.932
 21
59.1069
 31
0.0
  0
LINE
  8
0
 62
     0
 10
221.932
 20
59.1069
 30
0.0
 11
221.132
 21
59.1069
 31
0.0
  0
LINE
  8
0
 62
     0
 10
221.132
 20
59.1069
 30
0.0
 11
221.132
 21
46.3063
 31
0.0
  0
LINE
  8
0
 62
     0
 10
221.132
 20
46.3063
 30
0.0
 11
221.932
 21
46.3063
 31
0.0
  0
LINE
  8
0
 62
     0
 10
221.932
 20
46.3063
 30
0.0
 11
221.932
 21
45.7055
 31
0.0
  0
LINE
  8
0
 62
     0
 10
221.932
 20
45.7055
 30
0.0
 11
235.931
 21
45.7055
 31
0.0
  0
LINE
  8
0
 62
     0
 10
235.931
 20
45.7055
 30
0.0
 11
235.931
 21
46.3063
 31
0.0
  0
LINE
  8
0
 62
     0
 10
235.931
 20
46.3063
 30
0.0
 11
236.732
 21
46.3063
 31
0.0
  0
LINE
  8
0
 62
     0
 10
236.732
 20
46.3063
 30
0.0
 11
236.732
 21
59.1069
 31
0.0
  0
LINE
  8
0
 62
     0
 10
236.732
 20
59.1069
 30
0.0
 11
235.931
 21
59.1069
 31
0.0
  0
LINE
  8
0
 62
     0
 10
235.931
 20
59.1069
 30
0.0
 11
235.931
 21
59.7062
 31
0.0
  0
LINE
  8
0
 62
     0
 10
235.931
 20
59.7062
 30
0.0
 11
221.932
 21
59.7062
 31
0.0
  0
LINE
  8
0
 62
     0
 10
7.61919
 20
78.7562
 30
0.0
 11
7.61919
 21
78.1569
 31
0.0
  0
LINE
  8
0
 62
     0
 10
7.61919
 20
78.1569
 30
0.0
 11
6.81852
 21
78.1569
 31
0.0
  0
LINE
  8
0
 62
     0
 10
6.81852
 20
78.1569
 30
0.0
 11
6.81852
 21
65.3563
 31
0.0
  0
LINE
  8
0
 62
     0
 10
6.81852
 20
65.3563
 30
0.0
 11
7.61919
 21
65.3563
 31
0.0
  0
LINE
  8
0
 62
     0
 10
7.61919
 20
65.3563
 30
0.0
 11
7.61919
 21
64.7555
 31
0.0
  0
LINE
  8
0
 62
     0
 10
7.61919
 20
64.7555
 30
0.0
 11
21.6201
 21
64.7555
 31
0.0
  0
LINE
  8
0
 62
     0
 10
21.6201
 20
64.7555
 30
0.0
 11
21.6201
 21
65.3563
 31
0.0
  0
LINE
  8
0
 62
     0
 10
21.6201
 20
65.3563
 30
0.0
 11
22.4193
 21
65.3563
 31
0.0
  0
LINE
  8
0
 62
     0
 10
22.4193
 20
65.3563
 30
0.0
 11
22.4193
 21
78.1569
 31
0.0
  0
LINE
  8
0
 62
     0
 10
22.4193
 20
78.1569
 30
0.0
 11
21.6201
 21
78.1569
 31
0.0
  0
LINE
  8
0
 62
     0
 10
21.6201
 20
78.1569
 30
0.0
 11
21.6201
 21
78.7562
 31
0.0
  0
LINE
  8
0
 62
     0
 10
21.6201
 20
78.7562
 30
0.0
 11
7.61919
 21
78.7562
 31
0.0
  0
LINE
  8
0
 62
     0
 10
26.6692
 20
78.7562
 30
0.0
 11
26.6692
 21
78.1569
 31
0.0
  0
LINE
  8
0
 62
     0
 10
26.6692
 20
78.1569
 30
0.0
 11
25.8699
 21
78.1569
 31
0.0
  0
LINE
  8
0
 62
     0
 10
25.8699
 20
78.1569
 30
0.0
 11
25.8699
 21
65.3563
 31
0.0
  0
LINE
  8
0
 62
     0
 10
25.8699
 20
65.3563
 30
0.0
 11
26.6692
 21
65.3563
 31
0.0
  0
LINE
  8
0
 62
     0
 10
26.6692
 20
65.3563
 30
0.0
 11
26.6692
 21
64.7555
 31
0.0
  0
LINE
  8
0
 62
     0
 10
26.6692
 20
64.7555
 30
0.0
 11
40.67
 21
64.7555
 31
0.0
  0
LINE
  8
0
 62
     0
 10
40.67
 20
64.7555
 30
0.0
 11
40.67
 21
65.3563
 31
0.0
  0
LINE
  8
0
 62
     0
 10
40.67
 20
65.3563
 30
0.0
 11
41.4694
 21
65.3563
 31
0.0
  0
LINE
  8
0
 62
     0
 10
41.4694
 20
65.3563
 30
0.0
 11
41.4694
 21
78.1569
 31
0.0
  0
LINE
  8
0
 62
     0
 10
41.4694
 20
78.1569
 30
0.0
 11
40.67
 21
78.1569
 31
0.0
  0
LINE
  8
0
 62
     0
 10
40.67
 20
78.1569
 30
0.0
 11
40.67
 21
78.7562
 31
0.0
  0
LINE
  8
0
 62
     0
 10
40.67
 20
78.7562
 30
0.0
 11
26.6692
 21
78.7562
 31
0.0
  0
LINE
  8
0
 62
     0
 10
45.7193
 20
78.7562
 30
0.0
 11
45.7193
 21
78.1569
 31
0.0
  0
LINE
  8
0
 62
     0
 10
45.7193
 20
78.1569
 30
0.0
 11
44.9199
 21
78.1569
 31
0.0
  0
LINE
  8
0
 62
     0
 10
44.9199
 20
78.1569
 30
0.0
 11
44.9199
 21
65.3563
 31
0.0
  0
LINE
  8
0
 62
     0
 10
44.9199
 20
65.3563
 30
0.0
 11
45.7193
 21
65.3563
 31
0.0
  0
LINE
  8
0
 62
     0
 10
45.7193
 20
65.3563
 30
0.0
 11
45.7193
 21
64.7555
 31
0.0
  0
LINE
  8
0
 62
     0
 10
45.7193
 20
64.7555
 30
0.0
 11
59.72
 21
64.7555
 31
0.0
  0
LINE
  8
0
 62
     0
 10
59.72
 20
64.7555
 30
0.0
 11
59.72
 21
65.3563
 31
0.0
  0
LINE
  8
0
 62
     0
 10
59.72
 20
65.3563
 30
0.0
 11
60.5194
 21
65.3563
 31
0.0
  0
LINE
  8
0
 62
     0
 10
60.5194
 20
65.3563
 30
0.0
 11
60.5194
 21
78.1569
 31
0.0
  0
LINE
  8
0
 62
     0
 10
60.5194
 20
78.1569
 30
0.0
 11
59.72
 21
78.1569
 31
0.0
  0
LINE
  8
0
 62
     0
 10
59.72
 20
78.1569
 30
0.0
 11
59.72
 21
78.7562
 31
0.0
  0
LINE
  8
0
 62
     0
 10
59.72
 20
78.7562
 30
0.0
 11
45.7193
 21
78.7562
 31
0.0
  0
LINE
  8
0
 62
     0
 10
64.7693
 20
78.7562
 30
0.0
 11
64.7693
 21
78.1569
 31
0.0
  0
LINE
  8
0
 62
     0
 10
64.7693
 20
78.1569
 30
0.0
 11
63.9699
 21
78.1569
 31
0.0
  0
LINE
  8
0
 62
     0
 10
63.9699
 20
78.1569
 30
0.0
 11
63.9699
 21
65.3563
 31
0.0
  0
LINE
  8
0
 62
     0
 10
63.9699
 20
65.3563
 30
0.0
 11
64.7693
 21
65.3563
 31
0.0
  0
LINE
  8
0
 62
     0
 10
64.7693
 20
65.3563
 30
0.0
 11
64.7693
 21
64.7555
 31
0.0
  0
LINE
  8
0
 62
     0
 10
64.7693
 20
64.7555
 30
0.0
 11
78.77
 21
64.7555
 31
0.0
  0
LINE
  8
0
 62
     0
 10
78.77
 20
64.7555
 30
0.0
 11
78.77
 21
65.3563
 31
0.0
  0
LINE
  8
0
 62
     0
 10
78.77
 20
65.3563
 30
0.0
 11
79.5694
 21
65.3563
 31
0.0
  0
LINE
  8
0
 62
     0
 10
79.5694
 20
65.3563
 30
0.0
 11
79.5694
 21
78.1569
 31
0.0
  0
LINE
  8
0
 62
     0
 10
79.5694
 20
78.1569
 30
0.0
 11
78.77
 21
78.1569
 31
0.0
  0
LINE
  8
0
 62
     0
 10
78.77
 20
78.1569
 30
0.0
 11
78.77
 21
78.7562
 31
0.0
  0
LINE
  8
0
 62
     0
 10
78.77
 20
78.7562
 30
0.0
 11
64.7693
 21
78.7562
 31
0.0
  0
LINE
  8
0
 62
     0
 10
83.8193
 20
78.7562
 30
0.0
 11
83.8193
 21
78.1569
 31
0.0
  0
LINE
  8
0
 62
     0
 10
83.8193
 20
78.1569
 30
0.0
 11
83.0199
 21
78.1569
 31
0.0
  0
LINE
  8
0
 62
     0
 10
83.0199
 20
78.1569
 30
0.0
 11
83.0199
 21
65.3563
 31
0.0
  0
LINE
  8
0
 62
     0
 10
83.0199
 20
65.3563
 30
0.0
 11
83.8193
 21
65.3563
 31
0.0
  0
LINE
  8
0
 62
     0
 10
83.8193
 20
65.3563
 30
0.0
 11
83.8193
 21
64.7555
 31
0.0
  0
LINE
  8
0
 62
     0
 10
83.8193
 20
64.7555
 30
0.0
 11
97.82
 21
64.7555
 31
0.0
  0
LINE
  8
0
 62
     0
 10
97.82
 20
64.7555
 30
0.0
 11
97.82
 21
65.3563
 31
0.0
  0
LINE
  8
0
 62
     0
 10
97.82
 20
65.3563
 30
0.0
 11
98.6194
 21
65.3563
 31
0.0
  0
LINE
  8
0
 62
     0
 10
98.6194
 20
65.3563
 30
0.0
 11
98.6194
 21
78.1569
 31
0.0
  0
LINE
  8
0
 62
     0
 10
98.6194
 20
78.1569
 30
0.0
 11
97.82
 21
78.1569
 31
0.0
  0
LINE
  8
0
 62
     0
 10
97.82
 20
78.1569
 30
0.0
 11
97.82
 21
78.7562
 31
0.0
  0
LINE
  8
0
 62
     0
 10
97.82
 20
78.7562
 30
0.0
 11
83.8193
 21
78.7562
 31
0.0
  0
LINE
  8
0
 62
     0
 10
102.869
 20
78.7562
 30
0.0
 11
102.869
 21
78.1569
 31
0.0
  0
LINE
  8
0
 62
     0
 10
102.869
 20
78.1569
 30
0.0
 11
102.07
 21
78.1569
 31
0.0
  0
LINE
  8
0
 62
     0
 10
102.07
 20
78.1569
 30
0.0
 11
102.07
 21
65.3563
 31
0.0
  0
LINE
  8
0
 62
     0
 10
102.07
 20
65.3563
 30
0.0
 11
102.869
 21
65.3563
 31
0.0
  0
LINE
  8
0
 62
     0
 10
102.869
 20
65.3563
 30
0.0
 11
102.869
 21
64.7555
 31
0.0
  0
LINE
  8
0
 62
     0
 10
102.869
 20
64.7555
 30
0.0
 11
116.869
 21
64.7555
 31
0.0
  0
LINE
  8
0
 62
     0
 10
116.869
 20
64.7555
 30
0.0
 11
116.869
 21
65.3563
 31
0.0
  0
LINE
  8
0
 62
     0
 10
116.869
 20
65.3563
 30
0.0
 11
117.669
 21
65.3563
 31
0.0
  0
LINE
  8
0
 62
     0
 10
117.669
 20
65.3563
 30
0.0
 11
117.669
 21
78.1569
 31
0.0
  0
LINE
  8
0
 62
     0
 10
117.669
 20
78.1569
 30
0.0
 11
116.869
 21
78.1569
 31
0.0
  0
LINE
  8
0
 62
     0
 10
116.869
 20
78.1569
 30
0.0
 11
116.869
 21
78.7562
 31
0.0
  0
LINE
  8
0
 62
     0
 10
116.869
 20
78.7562
 30
0.0
 11
102.869
 21
78.7562
 31
0.0
  0
LINE
  8
0
 62
     0
 10
121.919
 20
78.7562
 30
0.0
 11
121.919
 21
78.1569
 31
0.0
  0
LINE
  8
0
 62
     0
 10
121.919
 20
78.1569
 30
0.0
 11
121.118
 21
78.1569
 31
0.0
  0
LINE
  8
0
 62
     0
 10
121.118
 20
78.1569
 30
0.0
 11
121.118
 21
65.3563
 31
0.0
  0
LINE
  8
0
 62
     0
 10
121.118
 20
65.3563
 30
0.0
 11
121.919
 21
65.3563
 31
0.0
  0
LINE
  8
0
 62
     0
 10
121.919
 20
65.3563
 30
0.0
 11
121.919
 21
64.7555
 31
0.0
  0
LINE
  8
0
 62
     0
 10
121.919
 20
64.7555
 30
0.0
 11
135.92
 21
64.7555
 31
0.0
  0
LINE
  8
0
 62
     0
 10
135.92
 20
64.7555
 30
0.0
 11
135.92
 21
65.3563
 31
0.0
  0
LINE
  8
0
 62
     0
 10
135.92
 20
65.3563
 30
0.0
 11
136.719
 21
65.3563
 31
0.0
  0
LINE
  8
0
 62
     0
 10
136.719
 20
65.3563
 30
0.0
 11
136.719
 21
78.1569
 31
0.0
  0
LINE
  8
0
 62
     0
 10
136.719
 20
78.1569
 30
0.0
 11
135.92
 21
78.1569
 31
0.0
  0
LINE
  8
0
 62
     0
 10
135.92
 20
78.1569
 30
0.0
 11
135.92
 21
78.7562
 31
0.0
  0
LINE
  8
0
 62
     0
 10
135.92
 20
78.7562
 30
0.0
 11
121.919
 21
78.7562
 31
0.0
  0
LINE
  8
0
 62
     0
 10
140.969
 20
78.7562
 30
0.0
 11
140.969
 21
78.1569
 31
0.0
  0
LINE
  8
0
 62
     0
 10
140.969
 20
78.1569
 30
0.0
 11
140.17
 21
78.1569
 31
0.0
  0
LINE
  8
0
 62
     0
 10
140.17
 20
78.1569
 30
0.0
 11
140.17
 21
65.3563
 31
0.0
  0
LINE
  8
0
 62
     0
 10
140.17
 20
65.3563
 30
0.0
 11
140.969
 21
65.3563
 31
0.0
  0
LINE
  8
0
 62
     0
 10
140.969
 20
65.3563
 30
0.0
 11
140.969
 21
64.7555
 31
0.0
  0
LINE
  8
0
 62
     0
 10
140.969
 20
64.7555
 30
0.0
 11
154.97
 21
64.7555
 31
0.0
  0
LINE
  8
0
 62
     0
 10
154.97
 20
64.7555
 30
0.0
 11
154.97
 21
65.3563
 31
0.0
  0
LINE
  8
0
 62
     0
 10
154.97
 20
65.3563
 30
0.0
 11
155.769
 21
65.3563
 31
0.0
  0
LINE
  8
0
 62
     0
 10
155.769
 20
65.3563
 30
0.0
 11
155.769
 21
78.1569
 31
0.0
  0
LINE
  8
0
 62
     0
 10
155.769
 20
78.1569
 30
0.0
 11
154.97
 21
78.1569
 31
0.0
  0
LINE
  8
0
 62
     0
 10
154.97
 20
78.1569
 30
0.0
 11
154.97
 21
78.7562
 31
0.0
  0
LINE
  8
0
 62
     0
 10
154.97
 20
78.7562
 30
0.0
 11
140.969
 21
78.7562
 31
0.0
  0
LINE
  8
0
 62
     0
 10
160.019
 20
78.7562
 30
0.0
 11
160.019
 21
78.1569
 31
0.0
  0
LINE
  8
0
 62
     0
 10
160.019
 20
78.1569
 30
0.0
 11
159.22
 21
78.1569
 31
0.0
  0
LINE
  8
0
 62
     0
 10
159.22
 20
78.1569
 30
0.0
 11
159.22
 21
65.3563
 31
0.0
  0
LINE
  8
0
 62
     0
 10
159.22
 20
65.3563
 30
0.0
 11
160.019
 21
65.3563
 31
0.0
  0
LINE
  8
0
 62
     0
 10
160.019
 20
65.3563
 30
0.0
 11
160.019
 21
64.7555
 31
0.0
  0
LINE
  8
0
 62
     0
 10
160.019
 20
64.7555
 30
0.0
 11
174.02
 21
64.7555
 31
0.0
  0
LINE
  8
0
 62
     0
 10
174.02
 20
64.7555
 30
0.0
 11
174.02
 21
65.3563
 31
0.0
  0
LINE
  8
0
 62
     0
 10
174.02
 20
65.3563
 30
0.0
 11
174.819
 21
65.3563
 31
0.0
  0
LINE
  8
0
 62
     0
 10
174.819
 20
65.3563
 30
0.0
 11
174.819
 21
78.1569
 31
0.0
  0
LINE
  8
0
 62
     0
 10
174.819
 20
78.1569
 30
0.0
 11
174.02
 21
78.1569
 31
0.0
  0
LINE
  8
0
 62
     0
 10
174.02
 20
78.1569
 30
0.0
 11
174.02
 21
78.7562
 31
0.0
  0
LINE
  8
0
 62
     0
 10
174.02
 20
78.7562
 30
0.0
 11
160.019
 21
78.7562
 31
0.0
  0
LINE
  8
0
 62
     0
 10
179.069
 20
78.7562
 30
0.0
 11
179.069
 21
78.1569
 31
0.0
  0
LINE
  8
0
 62
     0
 10
179.069
 20
78.1569
 30
0.0
 11
178.27
 21
78.1569
 31
0.0
  0
LINE
  8
0
 62
     0
 10
178.27
 20
78.1569
 30
0.0
 11
178.27
 21
65.3563
 31
0.0
  0
LINE
  8
0
 62
     0
 10
178.27
 20
65.3563
 30
0.0
 11
179.069
 21
65.3563
 31
0.0
  0
LINE
  8
0
 62
     0
 10
179.069
 20
65.3563
 30
0.0
 11
179.069
 21
64.7555
 31
0.0
  0
LINE
  8
0
 62
     0
 10
179.069
 20
64.7555
 30
0.0
 11
193.07
 21
64.7555
 31
0.0
  0
LINE
  8
0
 62
     0
 10
193.07
 20
64.7555
 30
0.0
 11
193.07
 21
65.3563
 31
0.0
  0
LINE
  8
0
 62
     0
 10
193.07
 20
65.3563
 30
0.0
 11
193.869
 21
65.3563
 31
0.0
  0
LINE
  8
0
 62
     0
 10
193.869
 20
65.3563
 30
0.0
 11
193.869
 21
78.1569
 31
0.0
  0
LINE
  8
0
 62
     0
 10
193.869
 20
78.1569
 30
0.0
 11
193.07
 21
78.1569
 31
0.0
  0
LINE
  8
0
 62
     0
 10
193.07
 20
78.1569
 30
0.0
 11
193.07
 21
78.7562
 31
0.0
  0
LINE
  8
0
 62
     0
 10
193.07
 20
78.7562
 30
0.0
 11
179.069
 21
78.7562
 31
0.0
  0
LINE
  8
0
 62
     0
 10
198.119
 20
78.7562
 30
0.0
 11
198.119
 21
78.1569
 31
0.0
  0
LINE
  8
0
 62
     0
 10
198.119
 20
78.1569
 30
0.0
 11
197.32
 21
78.1569
 31
0.0
  0
LINE
  8
0
 62
     0
 10
197.32
 20
78.1569
 30
0.0
 11
197.32
 21
65.3563
 31
0.0
  0
LINE
  8
0
 62
     0
 10
197.32
 20
65.3563
 30
0.0
 11
198.119
 21
65.3563
 31
0.0
  0
LINE
  8
0
 62
     0
 10
198.119
 20
65.3563
 30
0.0
 11
198.119
 21
64.7555
 31
0.0
  0
LINE
  8
0
 62
     0
 10
198.119
 20
64.7555
 30
0.0
 11
212.12
 21
64.7555
 31
0.0
  0
LINE
  8
0
 62
     0
 10
212.12
 20
64.7555
 30
0.0
 11
212.12
 21
65.3563
 31
0.0
  0
LINE
  8
0
 62
     0
 10
212.12
 20
65.3563
 30
0.0
 11
212.919
 21
65.3563
 31
0.0
  0
LINE
  8
0
 62
     0
 10
212.919
 20
65.3563
 30
0.0
 11
212.919
 21
78.1569
 31
0.0
  0
LINE
  8
0
 62
     0
 10
212.919
 20
78.1569
 30
0.0
 11
212.12
 21
78.1569
 31
0.0
  0
LINE
  8
0
 62
     0
 10
212.12
 20
78.1569
 30
0.0
 11
212.12
 21
78.7562
 31
0.0
  0
LINE
  8
0
 62
     0
 10
212.12
 20
78.7562
 30
0.0
 11
198.119
 21
78.7562
 31
0.0
  0
LINE
  8
0
 62
     0
 10
219.551
 20
78.7562
 30
0.0
 11
219.551
 21
78.1569
 31
0.0
  0
LINE
  8
0
 62
     0
 10
219.551
 20
78.1569
 30
0.0
 11
218.751
 21
78.1569
 31
0.0
  0
LINE
  8
0
 62
     0
 10
218.751
 20
78.1569
 30
0.0
 11
218.751
 21
65.3563
 31
0.0
  0
LINE
  8
0
 62
     0
 10
218.751
 20
65.3563
 30
0.0
 11
219.551
 21
65.3563
 31
0.0
  0
LINE
  8
0
 62
     0
 10
219.551
 20
65.3563
 30
0.0
 11
219.551
 21
64.7555
 31
0.0
  0
LINE
  8
0
 62
     0
 10
219.551
 20
64.7555
 30
0.0
 11
233.551
 21
64.7555
 31
0.0
  0
LINE
  8
0
 62
     0
 10
233.551
 20
64.7555
 30
0.0
 11
233.551
 21
65.3563
 31
0.0
  0
LINE
  8
0
 62
     0
 10
233.551
 20
65.3563
 30
0.0
 11
234.351
 21
65.3563
 31
0.0
  0
LINE
  8
0
 62
     0
 10
234.351
 20
65.3563
 30
0.0
 11
234.351
 21
78.1569
 31
0.0
  0
LINE
  8
0
 62
     0
 10
234.351
 20
78.1569
 30
0.0
 11
233.551
 21
78.1569
 31
0.0
  0
LINE
  8
0
 62
     0
 10
233.551
 20
78.1569
 30
0.0
 11
233.551
 21
78.7562
 31
0.0
  0
LINE
  8
0
 62
     0
 10
233.551
 20
78.7562
 30
0.0
 11
219.551
 21
78.7562
 31
0.0
  0
LINE
  8
0
 62
     0
 10
121.467
 20
84.733
 30
0.0
 11
121.187
 21
84.5908
 31
0.0
  0
LINE
  8
0
 62
     0
 10
121.187
 20
84.5908
 30
0.0
 11
120.967
 21
84.3689
 31
0.0
  0
LINE
  8
0
 62
     0
 10
120.967
 20
84.3689
 30
0.0
 11
120.825
 21
84.0906
 31
0.0
  0
LINE
  8
0
 62
     0
 10
120.825
 20
84.0906
 30
0.0
 11
120.775
 21
83.7819
 31
0.0
  0
LINE
  8
0
 62
     0
 10
120.775
 20
83.7819
 30
0.0
 11
120.825
 21
83.4718
 31
0.0
  0
LINE
  8
0
 62
     0
 10
120.825
 20
83.4718
 30
0.0
 11
120.967
 21
83.1935
 31
0.0
  0
LINE
  8
0
 62
     0
 10
120.967
 20
83.1935
 30
0.0
 11
121.187
 21
82.9716
 31
0.0
  0
LINE
  8
0
 62
     0
 10
121.187
 20
82.9716
 30
0.0
 11
121.467
 21
82.8298
 31
0.0
  0
LINE
  8
0
 62
     0
 10
121.467
 20
82.8298
 30
0.0
 11
121.776
 21
82.78
 31
0.0
  0
LINE
  8
0
 62
     0
 10
121.776
 20
82.78
 30
0.0
 11
122.084
 21
82.8298
 31
0.0
  0
LINE
  8
0
 62
     0
 10
122.084
 20
82.8298
 30
0.0
 11
122.364
 21
82.9716
 31
0.0
  0
LINE
  8
0
 62
     0
 10
122.364
 20
82.9716
 30
0.0
 11
122.585
 21
83.1935
 31
0.0
  0
LINE
  8
0
 62
     0
 10
122.585
 20
83.1935
 30
0.0
 11
122.727
 21
83.4718
 31
0.0
  0
LINE
  8
0
 62
     0
 10
122.727
 20
83.4718
 30
0.0
 11
122.776
 21
83.7805
 31
0.0
  0
LINE
  8
0
 62
     0
 10
122.776
 20
83.7805
 30
0.0
 11
122.727
 21
84.0906
 31
0.0
  0
LINE
  8
0
 62
     0
 10
122.727
 20
84.0906
 30
0.0
 11
122.585
 21
84.3689
 31
0.0
  0
LINE
  8
0
 62
     0
 10
122.585
 20
84.3689
 30
0.0
 11
122.364
 21
84.5908
 31
0.0
  0
LINE
  8
0
 62
     0
 10
122.364
 20
84.5908
 30
0.0
 11
122.084
 21
84.733
 31
0.0
  0
LINE
  8
0
 62
     0
 10
122.084
 20
84.733
 30
0.0
 11
121.776
 21
84.781
 31
0.0
  0
LINE
  8
0
 62
     0
 10
121.776
 20
84.781
 30
0.0
 11
121.467
 21
84.733
 31
0.0
  0
LINE
  8
0
 62
     0
 10
240.648
 20
84.733
 30
0.0
 11
240.37
 21
84.5908
 31
0.0
  0
LINE
  8
0
 62
     0
 10
240.37
 20
84.5908
 30
0.0
 11
240.149
 21
84.3689
 31
0.0
  0
LINE
  8
0
 62
     0
 10
240.149
 20
84.3689
 30
0.0
 11
240.007
 21
84.0906
 31
0.0
  0
LINE
  8
0
 62
     0
 10
240.007
 20
84.0906
 30
0.0
 11
239.958
 21
83.7819
 31
0.0
  0
LINE
  8
0
 62
     0
 10
239.958
 20
83.7819
 30
0.0
 11
240.007
 21
83.4718
 31
0.0
  0
LINE
  8
0
 62
     0
 10
240.007
 20
83.4718
 30
0.0
 11
240.149
 21
83.1935
 31
0.0
  0
LINE
  8
0
 62
     0
 10
240.149
 20
83.1935
 30
0.0
 11
240.37
 21
82.9716
 31
0.0
  0
LINE
  8
0
 62
     0
 10
240.37
 20
82.9716
 30
0.0
 11
240.648
 21
82.8298
 31
0.0
  0
LINE
  8
0
 62
     0
 10
240.648
 20
82.8298
 30
0.0
 11
240.958
 21
82.78
 31
0.0
  0
LINE
  8
0
 62
     0
 10
240.958
 20
82.78
 30
0.0
 11
241.267
 21
82.8298
 31
0.0
  0
LINE
  8
0
 62
     0
 10
241.267
 20
82.8298
 30
0.0
 11
241.545
 21
82.9716
 31
0.0
  0
LINE
  8
0
 62
     0
 10
241.545
 20
82.9716
 30
0.0
 11
241.767
 21
83.1935
 31
0.0
  0
LINE
  8
0
 62
     0
 10
241.767
 20
83.1935
 30
0.0
 11
241.909
 21
83.4718
 31
0.0
  0
LINE
  8
0
 62
     0
 10
241.909
 20
83.4718
 30
0.0
 11
241.957
 21
83.7805
 31
0.0
  0
LINE
  8
0
 62
     0
 10
241.957
 20
83.7805
 30
0.0
 11
241.909
 21
84.0906
 31
0.0
  0
LINE
  8
0
 62
     0
 10
241.909
 20
84.0906
 30
0.0
 11
241.767
 21
84.3689
 31
0.0
  0
LINE
  8
0
 62
     0
 10
241.767
 20
84.3689
 30
0.0
 11
241.545
 21
84.5908
 31
0.0
  0
LINE
  8
0
 62
     0
 10
241.545
 20
84.5908
 30
0.0
 11
241.267
 21
84.733
 31
0.0
  0
LINE
  8
0
 62
     0
 10
241.267
 20
84.733
 30
0.0
 11
240.958
 21
84.781
 31
0.0
  0
LINE
  8
0
 62
     0
 10
240.958
 20
84.781
 30
0.0
 11
240.648
 21
84.733
 31
0.0
  0
LINE
  8
0
 62
     0
 10
2.28479
 20
84.733
 30
0.0
 11
2.00642
 21
84.5908
 31
0.0
  0
LINE
  8
0
 62
     0
 10
2.00642
 20
84.5908
 30
0.0
 11
1.78456
 21
84.3689
 31
0.0
  0
LINE
  8
0
 62
     0
 10
1.78456
 20
84.3689
 30
0.0
 11
1.64262
 21
84.0906
 31
0.0
  0
LINE
  8
0
 62
     0
 10
1.64262
 20
84.0906
 30
0.0
 11
1.59439
 21
83.7819
 31
0.0
  0
LINE
  8
0
 62
     0
 10
1.59439
 20
83.7819
 30
0.0
 11
1.64262
 21
83.4718
 31
0.0
  0
LINE
  8
0
 62
     0
 10
1.64262
 20
83.4718
 30
0.0
 11
1.78456
 21
83.1935
 31
0.0
  0
LINE
  8
0
 62
     0
 10
1.78456
 20
83.1935
 30
0.0
 11
2.00642
 21
82.9716
 31
0.0
  0
LINE
  8
0
 62
     0
 10
2.00642
 20
82.9716
 30
0.0
 11
2.28479
 21
82.8298
 31
0.0
  0
LINE
  8
0
 62
     0
 10
2.28479
 20
82.8298
 30
0.0
 11
2.59347
 21
82.78
 31
0.0
  0
LINE
  8
0
 62
     0
 10
2.59347
 20
82.78
 30
0.0
 11
2.90353
 21
82.8298
 31
0.0
  0
LINE
  8
0
 62
     0
 10
2.90353
 20
82.8298
 30
0.0
 11
3.18189
 21
82.9716
 31
0.0
  0
LINE
  8
0
 62
     0
 10
3.18189
 20
82.9716
 30
0.0
 11
3.40376
 21
83.1935
 31
0.0
  0
LINE
  8
0
 62
     0
 10
3.40376
 20
83.1935
 30
0.0
 11
3.5457
 21
83.4718
 31
0.0
  0
LINE
  8
0
 62
     0
 10
3.5457
 20
83.4718
 30
0.0
 11
3.5953
 21
83.7805
 31
0.0
  0
LINE
  8
0
 62
     0
 10
3.5953
 20
83.7805
 30
0.0
 11
3.5457
 21
84.0906
 31
0.0
  0
LINE
  8
0
 62
     0
 10
3.5457
 20
84.0906
 30
0.0
 11
3.40376
 21
84.3689
 31
0.0
  0
LINE
  8
0
 62
     0
 10
3.40376
 20
84.3689
 30
0.0
 11
3.18189
 21
84.5908
 31
0.0
  0
LINE
  8
0
 62
     0
 10
3.18189
 20
84.5908
 30
0.0
 11
2.90353
 21
84.733
 31
0.0
  0
LINE
  8
0
 62
     0
 10
2.90353
 20
84.733
 30
0.0
 11
2.59485
 21
84.781
 31
0.0
  0
LINE
  8
0
 62
     0
 10
2.59485
 20
84.781
 30
0.0
 11
2.28479
 21
84.733
 31
0.0
  0
ENDSEC
  0
EOF
