  0
SECTION
  2
HEADER
  9
$ACADVER
  1
AC1009
  9
$EXTMIN
 10
0.0
 20
0.0
 30
0.0
  9
$EXTMAX
 10
1000.0
 20
1000.0
 30
0.0
  9
$FILLMODE
 70
 0
  9
$SPLFRAME
 70
 1
  0
ENDSEC
  0
SECTION
  2
TABLES
  0
TABLE
  2
LAYER
 70
1
  0
LAYER
  2
0
 70
     0
 62
     7
  6
CONTINUOUS
  0
ENDTAB
  0
ENDSEC
  0
SECTION
  2
ENTITIES
  0
LINE
  8
0
 62
     0
 10
240.458
 20
86.2803
 30
0.0
 11
240.692
 21
86.2722
 31
0.0
  0
LINE
  8
0
 62
     0
 10
240.692
 20
86.2722
 30
0.0
 11
240.926
 21
86.2446
 31
0.0
  0
LINE
  8
0
 62
     0
 10
240.926
 20
86.2446
 30
0.0
 11
241.158
 21
86.1991
 31
0.0
  0
LINE
  8
0
 62
     0
 10
241.158
 20
86.1991
 30
0.0
 11
241.385
 21
86.1342
 31
0.0
  0
LINE
  8
0
 62
     0
 10
241.385
 20
86.1342
 30
0.0
 11
241.606
 21
86.0531
 31
0.0
  0
LINE
  8
0
 62
     0
 10
241.606
 20
86.0531
 30
0.0
 11
241.82
 21
85.955
 31
0.0
  0
LINE
  8
0
 62
     0
 10
241.82
 20
85.955
 30
0.0
 11
242.025
 21
85.8379
 31
0.0
  0
LINE
  8
0
 62
     0
 10
242.025
 20
85.8379
 30
0.0
 11
242.22
 21
85.7084
 31
0.0
  0
LINE
  8
0
 62
     0
 10
242.22
 20
85.7084
 30
0.0
 11
242.405
 21
85.5624
 31
0.0
  0
LINE
  8
0
 62
     0
 10
242.405
 20
85.5624
 30
0.0
 11
242.579
 21
85.4026
 31
0.0
  0
LINE
  8
0
 62
     0
 10
242.579
 20
85.4026
 30
0.0
 11
242.739
 21
85.2304
 31
0.0
  0
LINE
  8
0
 62
     0
 10
242.739
 20
85.2304
 30
0.0
 11
242.885
 21
85.0441
 31
0.0
  0
LINE
  8
0
 62
     0
 10
242.885
 20
85.0441
 30
0.0
 11
243.016
 21
84.8487
 31
0.0
  0
LINE
  8
0
 62
     0
 10
243.016
 20
84.8487
 30
0.0
 11
243.131
 21
84.6434
 31
0.0
  0
LINE
  8
0
 62
     0
 10
243.131
 20
84.6434
 30
0.0
 11
243.229
 21
84.4296
 31
0.0
  0
LINE
  8
0
 62
     0
 10
243.229
 20
84.4296
 30
0.0
 11
243.31
 21
84.2091
 31
0.0
  0
LINE
  8
0
 62
     0
 10
243.31
 20
84.2091
 30
0.0
 11
243.375
 21
83.9819
 31
0.0
  0
LINE
  8
0
 62
     0
 10
243.375
 20
83.9819
 30
0.0
 11
243.421
 21
83.7501
 31
0.0
  0
LINE
  8
0
 62
     0
 10
243.421
 20
83.7501
 30
0.0
 11
243.448
 21
83.5159
 31
0.0
  0
LINE
  8
0
 62
     0
 10
243.448
 20
83.5159
 30
0.0
 11
243.458
 21
83.2803
 31
0.0
  0
LINE
  8
0
 62
     0
 10
243.458
 20
83.2803
 30
0.0
 11
243.458
 21
3.07992
 31
0.0
  0
LINE
  8
0
 62
     0
 10
243.458
 20
3.07992
 30
0.0
 11
243.448
 21
2.84427
 31
0.0
  0
LINE
  8
0
 62
     0
 10
243.448
 20
2.84427
 30
0.0
 11
243.421
 21
2.61001
 31
0.0
  0
LINE
  8
0
 62
     0
 10
243.421
 20
2.61001
 30
0.0
 11
243.375
 21
2.37987
 31
0.0
  0
LINE
  8
0
 62
     0
 10
243.375
 20
2.37987
 30
0.0
 11
243.31
 21
2.15249
 31
0.0
  0
LINE
  8
0
 62
     0
 10
243.31
 20
2.15249
 30
0.0
 11
243.229
 21
1.93201
 31
0.0
  0
LINE
  8
0
 62
     0
 10
243.229
 20
1.93201
 30
0.0
 11
243.131
 21
1.71841
 31
0.0
  0
LINE
  8
0
 62
     0
 10
243.131
 20
1.71841
 30
0.0
 11
243.016
 21
1.51309
 31
0.0
  0
LINE
  8
0
 62
     0
 10
243.016
 20
1.51309
 30
0.0
 11
242.885
 21
1.31603
 31
0.0
  0
LINE
  8
0
 62
     0
 10
242.885
 20
1.31603
 30
0.0
 11
242.739
 21
1.13137
 31
0.0
  0
LINE
  8
0
 62
     0
 10
242.739
 20
1.13137
 30
0.0
 11
242.579
 21
0.959115
 31
0.0
  0
LINE
  8
0
 62
     0
 10
242.579
 20
0.959115
 30
0.0
 11
242.405
 21
0.799264
 31
0.0
  0
LINE
  8
0
 62
     0
 10
242.405
 20
0.799264
 30
0.0
 11
242.22
 21
0.653189
 31
0.0
  0
LINE
  8
0
 62
     0
 10
242.22
 20
0.653189
 30
0.0
 11
242.025
 21
0.522277
 31
0.0
  0
LINE
  8
0
 62
     0
 10
242.025
 20
0.522277
 30
0.0
 11
241.82
 21
0.40652
 31
0.0
  0
LINE
  8
0
 62
     0
 10
241.82
 20
0.40652
 30
0.0
 11
241.606
 21
0.308681
 31
0.0
  0
LINE
  8
0
 62
     0
 10
241.606
 20
0.308681
 30
0.0
 11
241.385
 21
0.225998
 31
0.0
  0
LINE
  8
0
 62
     0
 10
241.385
 20
0.225998
 30
0.0
 11
241.158
 21
0.162609
 31
0.0
  0
LINE
  8
0
 62
     0
 10
241.158
 20
0.162609
 30
0.0
 11
240.926
 21
0.117133
 31
0.0
  0
LINE
  8
0
 62
     0
 10
240.926
 20
0.117133
 30
0.0
 11
240.692
 21
0.0895724
 31
0.0
  0
LINE
  8
0
 62
     0
 10
240.692
 20
0.0895724
 30
0.0
 11
240.458
 21
0.0799264
 31
0.0
  0
LINE
  8
0
 62
     0
 10
240.458
 20
0.0799264
 30
0.0
 11
3.09507
 21
0.0799264
 31
0.0
  0
LINE
  8
0
 62
     0
 10
3.09507
 20
0.0799264
 30
0.0
 11
2.85943
 21
0.0895724
 31
0.0
  0
LINE
  8
0
 62
     0
 10
2.85943
 20
0.0895724
 30
0.0
 11
2.62516
 21
0.117133
 31
0.0
  0
LINE
  8
0
 62
     0
 10
2.62516
 20
0.117133
 30
0.0
 11
2.39365
 21
0.162609
 31
0.0
  0
LINE
  8
0
 62
     0
 10
2.39365
 20
0.162609
 30
0.0
 11
2.16628
 21
0.225998
 31
0.0
  0
LINE
  8
0
 62
     0
 10
2.16628
 20
0.225998
 30
0.0
 11
1.94579
 21
0.308681
 31
0.0
  0
LINE
  8
0
 62
     0
 10
1.94579
 20
0.308681
 30
0.0
 11
1.7322
 21
0.40652
 31
0.0
  0
LINE
  8
0
 62
     0
 10
1.7322
 20
0.40652
 30
0.0
 11
1.52687
 21
0.522277
 31
0.0
  0
LINE
  8
0
 62
     0
 10
1.52687
 20
0.522277
 30
0.0
 11
1.33119
 21
0.653189
 31
0.0
  0
LINE
  8
0
 62
     0
 10
1.33119
 20
0.653189
 30
0.0
 11
1.14515
 21
0.799264
 31
0.0
  0
LINE
  8
0
 62
     0
 10
1.14515
 20
0.799264
 30
0.0
 11
0.972894
 21
0.959115
 31
0.0
  0
LINE
  8
0
 62
     0
 10
0.972894
 20
0.959115
 30
0.0
 11
0.813043
 21
1.13137
 31
0.0
  0
LINE
  8
0
 62
     0
 10
0.813043
 20
1.13137
 30
0.0
 11
0.666972
 21
1.31603
 31
0.0
  0
LINE
  8
0
 62
     0
 10
0.666972
 20
1.31603
 30
0.0
 11
0.537436
 21
1.51309
 31
0.0
  0
LINE
  8
0
 62
     0
 10
0.537436
 20
1.51309
 30
0.0
 11
0.420303
 21
1.71841
 31
0.0
  0
LINE
  8
0
 62
     0
 10
0.420303
 20
1.71841
 30
0.0
 11
0.322461
 21
1.93201
 31
0.0
  0
LINE
  8
0
 62
     0
 10
0.322461
 20
1.93201
 30
0.0
 11
0.241157
 21
2.15249
 31
0.0
  0
LINE
  8
0
 62
     0
 10
0.241157
 20
2.15249
 30
0.0
 11
0.176389
 21
2.37987
 31
0.0
  0
LINE
  8
0
 62
     0
 10
0.176389
 20
2.37987
 30
0.0
 11
0.130914
 21
2.61001
 31
0.0
  0
LINE
  8
0
 62
     0
 10
0.130914
 20
2.61001
 30
0.0
 11
0.103353
 21
2.84427
 31
0.0
  0
LINE
  8
0
 62
     0
 10
0.103353
 20
2.84427
 30
0.0
 11
0.0937066
 21
3.0813
 31
0.0
  0
LINE
  8
0
 62
     0
 10
0.0937066
 20
3.0813
 30
0.0
 11
0.0950846
 21
83.2803
 31
0.0
  0
LINE
  8
0
 62
     0
 10
0.0950846
 20
83.2803
 30
0.0
 11
0.103353
 21
83.5159
 31
0.0
  0
LINE
  8
0
 62
     0
 10
0.103353
 20
83.5159
 30
0.0
 11
0.130914
 21
83.7501
 31
0.0
  0
LINE
  8
0
 62
     0
 10
0.130914
 20
83.7501
 30
0.0
 11
0.176389
 21
83.9819
 31
0.0
  0
LINE
  8
0
 62
     0
 10
0.176389
 20
83.9819
 30
0.0
 11
0.241157
 21
84.2091
 31
0.0
  0
LINE
  8
0
 62
     0
 10
0.241157
 20
84.2091
 30
0.0
 11
0.322461
 21
84.4296
 31
0.0
  0
LINE
  8
0
 62
     0
 10
0.322461
 20
84.4296
 30
0.0
 11
0.420303
 21
84.6434
 31
0.0
  0
LINE
  8
0
 62
     0
 10
0.420303
 20
84.6434
 30
0.0
 11
0.537436
 21
84.8487
 31
0.0
  0
LINE
  8
0
 62
     0
 10
0.537436
 20
84.8487
 30
0.0
 11
0.666972
 21
85.0441
 31
0.0
  0
LINE
  8
0
 62
     0
 10
0.666972
 20
85.0441
 30
0.0
 11
0.813043
 21
85.2304
 31
0.0
  0
LINE
  8
0
 62
     0
 10
0.813043
 20
85.2304
 30
0.0
 11
0.972894
 21
85.4026
 31
0.0
  0
LINE
  8
0
 62
     0
 10
0.972894
 20
85.4026
 30
0.0
 11
1.14515
 21
85.5624
 31
0.0
  0
LINE
  8
0
 62
     0
 10
1.14515
 20
85.5624
 30
0.0
 11
1.33119
 21
85.7084
 31
0.0
  0
LINE
  8
0
 62
     0
 10
1.33119
 20
85.7084
 30
0.0
 11
1.52687
 21
85.8379
 31
0.0
  0
LINE
  8
0
 62
     0
 10
1.52687
 20
85.8379
 30
0.0
 11
1.7322
 21
85.955
 31
0.0
  0
LINE
  8
0
 62
     0
 10
1.7322
 20
85.955
 30
0.0
 11
1.94579
 21
86.0531
 31
0.0
  0
LINE
  8
0
 62
     0
 10
1.94579
 20
86.0531
 30
0.0
 11
2.16628
 21
86.1342
 31
0.0
  0
LINE
  8
0
 62
     0
 10
2.16628
 20
86.1342
 30
0.0
 11
2.39365
 21
86.1991
 31
0.0
  0
LINE
  8
0
 62
     0
 10
2.39365
 20
86.1991
 30
0.0
 11
2.62516
 21
86.2446
 31
0.0
  0
LINE
  8
0
 62
     0
 10
2.62516
 20
86.2446
 30
0.0
 11
2.85943
 21
86.2722
 31
0.0
  0
LINE
  8
0
 62
     0
 10
2.85943
 20
86.2722
 30
0.0
 11
3.09507
 21
86.2817
 31
0.0
  0
LINE
  8
0
 62
     0
 10
3.09507
 20
86.2817
 30
0.0
 11
240.458
 21
86.2803
 31
0.0
  0
LINE
  8
0
 62
     0
 10
240.573
 20
3.76894
 30
0.0
 11
240.222
 21
3.59117
 31
0.0
  0
LINE
  8
0
 62
     0
 10
240.222
 20
3.59117
 30
0.0
 11
239.947
 21
3.31418
 31
0.0
  0
LINE
  8
0
 62
     0
 10
239.947
 20
3.31418
 30
0.0
 11
239.769
 21
2.96692
 31
0.0
  0
LINE
  8
0
 62
     0
 10
239.769
 20
2.96692
 30
0.0
 11
239.708
 21
2.57969
 31
0.0
  0
LINE
  8
0
 62
     0
 10
239.708
 20
2.57969
 30
0.0
 11
239.769
 21
2.19384
 31
0.0
  0
LINE
  8
0
 62
     0
 10
239.769
 20
2.19384
 30
0.0
 11
239.947
 21
1.84519
 31
0.0
  0
LINE
  8
0
 62
     0
 10
239.947
 20
1.84519
 30
0.0
 11
240.222
 21
1.56821
 31
0.0
  0
LINE
  8
0
 62
     0
 10
240.222
 20
1.56821
 30
0.0
 11
240.573
 21
1.39182
 31
0.0
  0
LINE
  8
0
 62
     0
 10
240.573
 20
1.39182
 30
0.0
 11
240.958
 21
1.32981
 31
0.0
  0
LINE
  8
0
 62
     0
 10
240.958
 20
1.32981
 30
0.0
 11
241.344
 21
1.39182
 31
0.0
  0
LINE
  8
0
 62
     0
 10
241.344
 20
1.39182
 30
0.0
 11
241.693
 21
1.56821
 31
0.0
  0
LINE
  8
0
 62
     0
 10
241.693
 20
1.56821
 30
0.0
 11
241.969
 21
1.84519
 31
0.0
  0
LINE
  8
0
 62
     0
 10
241.969
 20
1.84519
 30
0.0
 11
242.146
 21
2.19384
 31
0.0
  0
LINE
  8
0
 62
     0
 10
242.146
 20
2.19384
 30
0.0
 11
242.208
 21
2.57969
 31
0.0
  0
LINE
  8
0
 62
     0
 10
242.208
 20
2.57969
 30
0.0
 11
242.146
 21
2.96692
 31
0.0
  0
LINE
  8
0
 62
     0
 10
242.146
 20
2.96692
 30
0.0
 11
241.969
 21
3.31418
 31
0.0
  0
LINE
  8
0
 62
     0
 10
241.969
 20
3.31418
 30
0.0
 11
241.693
 21
3.59117
 31
0.0
  0
LINE
  8
0
 62
     0
 10
241.693
 20
3.59117
 30
0.0
 11
241.344
 21
3.76894
 31
0.0
  0
LINE
  8
0
 62
     0
 10
241.344
 20
3.76894
 30
0.0
 11
240.958
 21
3.82958
 31
0.0
  0
LINE
  8
0
 62
     0
 10
240.958
 20
3.82958
 30
0.0
 11
240.573
 21
3.76894
 31
0.0
  0
LINE
  8
0
 62
     0
 10
121.39
 20
3.76894
 30
0.0
 11
121.041
 21
3.59117
 31
0.0
  0
LINE
  8
0
 62
     0
 10
121.041
 20
3.59117
 30
0.0
 11
120.764
 21
3.31418
 31
0.0
  0
LINE
  8
0
 62
     0
 10
120.764
 20
3.31418
 30
0.0
 11
120.587
 21
2.96692
 31
0.0
  0
LINE
  8
0
 62
     0
 10
120.587
 20
2.96692
 30
0.0
 11
120.526
 21
2.57969
 31
0.0
  0
LINE
  8
0
 62
     0
 10
120.526
 20
2.57969
 30
0.0
 11
120.587
 21
2.19384
 31
0.0
  0
LINE
  8
0
 62
     0
 10
120.587
 20
2.19384
 30
0.0
 11
120.764
 21
1.84519
 31
0.0
  0
LINE
  8
0
 62
     0
 10
120.764
 20
1.84519
 30
0.0
 11
121.041
 21
1.56821
 31
0.0
  0
LINE
  8
0
 62
     0
 10
121.041
 20
1.56821
 30
0.0
 11
121.39
 21
1.39182
 31
0.0
  0
LINE
  8
0
 62
     0
 10
121.39
 20
1.39182
 30
0.0
 11
121.776
 21
1.32981
 31
0.0
  0
LINE
  8
0
 62
     0
 10
121.776
 20
1.32981
 30
0.0
 11
122.163
 21
1.39182
 31
0.0
  0
LINE
  8
0
 62
     0
 10
122.163
 20
1.39182
 30
0.0
 11
122.51
 21
1.56821
 31
0.0
  0
LINE
  8
0
 62
     0
 10
122.51
 20
1.56821
 30
0.0
 11
122.787
 21
1.84519
 31
0.0
  0
LINE
  8
0
 62
     0
 10
122.787
 20
1.84519
 30
0.0
 11
122.965
 21
2.19384
 31
0.0
  0
LINE
  8
0
 62
     0
 10
122.965
 20
2.19384
 30
0.0
 11
123.026
 21
2.57969
 31
0.0
  0
LINE
  8
0
 62
     0
 10
123.026
 20
2.57969
 30
0.0
 11
122.965
 21
2.96692
 31
0.0
  0
LINE
  8
0
 62
     0
 10
122.965
 20
2.96692
 30
0.0
 11
122.787
 21
3.31418
 31
0.0
  0
LINE
  8
0
 62
     0
 10
122.787
 20
3.31418
 30
0.0
 11
122.51
 21
3.59117
 31
0.0
  0
LINE
  8
0
 62
     0
 10
122.51
 20
3.59117
 30
0.0
 11
122.163
 21
3.76894
 31
0.0
  0
LINE
  8
0
 62
     0
 10
122.163
 20
3.76894
 30
0.0
 11
121.776
 21
3.82958
 31
0.0
  0
LINE
  8
0
 62
     0
 10
121.776
 20
3.82958
 30
0.0
 11
121.39
 21
3.76894
 31
0.0
  0
LINE
  8
0
 62
     0
 10
2.20762
 20
3.76894
 30
0.0
 11
1.86035
 21
3.59117
 31
0.0
  0
LINE
  8
0
 62
     0
 10
1.86035
 20
3.59117
 30
0.0
 11
1.58337
 21
3.31418
 31
0.0
  0
LINE
  8
0
 62
     0
 10
1.58337
 20
3.31418
 30
0.0
 11
1.4056
 21
2.96692
 31
0.0
  0
LINE
  8
0
 62
     0
 10
1.4056
 20
2.96692
 30
0.0
 11
1.34359
 21
2.57969
 31
0.0
  0
LINE
  8
0
 62
     0
 10
1.34359
 20
2.57969
 30
0.0
 11
1.4056
 21
2.19384
 31
0.0
  0
LINE
  8
0
 62
     0
 10
1.4056
 20
2.19384
 30
0.0
 11
1.58337
 21
1.84519
 31
0.0
  0
LINE
  8
0
 62
     0
 10
1.58337
 20
1.84519
 30
0.0
 11
1.86035
 21
1.56821
 31
0.0
  0
LINE
  8
0
 62
     0
 10
1.86035
 20
1.56821
 30
0.0
 11
2.20762
 21
1.39182
 31
0.0
  0
LINE
  8
0
 62
     0
 10
2.20762
 20
1.39182
 30
0.0
 11
2.59347
 21
1.32981
 31
0.0
  0
LINE
  8
0
 62
     0
 10
2.59347
 20
1.32981
 30
0.0
 11
2.9807
 21
1.39182
 31
0.0
  0
LINE
  8
0
 62
     0
 10
2.9807
 20
1.39182
 30
0.0
 11
3.32934
 21
1.56821
 31
0.0
  0
LINE
  8
0
 62
     0
 10
3.32934
 20
1.56821
 30
0.0
 11
3.60634
 21
1.84519
 31
0.0
  0
LINE
  8
0
 62
     0
 10
3.60634
 20
1.84519
 30
0.0
 11
3.78273
 21
2.19384
 31
0.0
  0
LINE
  8
0
 62
     0
 10
3.78273
 20
2.19384
 30
0.0
 11
3.84471
 21
2.57969
 31
0.0
  0
LINE
  8
0
 62
     0
 10
3.84471
 20
2.57969
 30
0.0
 11
3.78273
 21
2.96692
 31
0.0
  0
LINE
  8
0
 62
     0
 10
3.78273
 20
2.96692
 30
0.0
 11
3.60634
 21
3.31418
 31
0.0
  0
LINE
  8
0
 62
     0
 10
3.60634
 20
3.31418
 30
0.0
 11
3.32934
 21
3.59117
 31
0.0
  0
LINE
  8
0
 62
     0
 10
3.32934
 20
3.59117
 30
0.0
 11
2.9807
 21
3.76894
 31
0.0
  0
LINE
  8
0
 62
     0
 10
2.9807
 20
3.76894
 30
0.0
 11
2.59485
 21
3.82958
 31
0.0
  0
LINE
  8
0
 62
     0
 10
2.59485
 20
3.82958
 30
0.0
 11
2.20762
 21
3.76894
 31
0.0
  0
LINE
  8
0
 62
     0
 10
5.0946
 20
81.2807
 30
0.0
 11
238.457
 21
81.2807
 31
0.0
  0
LINE
  8
0
 62
     0
 10
238.457
 20
81.2807
 30
0.0
 11
238.457
 21
5.07944
 31
0.0
  0
LINE
  8
0
 62
     0
 10
238.457
 20
5.07944
 30
0.0
 11
5.0946
 21
5.07944
 31
0.0
  0
LINE
  8
0
 62
     0
 10
5.0946
 20
5.07944
 30
0.0
 11
5.0946
 21
81.2807
 31
0.0
  0
LINE
  8
0
 62
     0
 10
121.39
 20
84.9697
 30
0.0
 11
121.041
 21
84.7919
 31
0.0
  0
LINE
  8
0
 62
     0
 10
121.041
 20
84.7919
 30
0.0
 11
120.764
 21
84.515
 31
0.0
  0
LINE
  8
0
 62
     0
 10
120.764
 20
84.515
 30
0.0
 11
120.587
 21
84.1678
 31
0.0
  0
LINE
  8
0
 62
     0
 10
120.587
 20
84.1678
 30
0.0
 11
120.526
 21
83.7805
 31
0.0
  0
LINE
  8
0
 62
     0
 10
120.526
 20
83.7805
 30
0.0
 11
120.587
 21
83.3949
 31
0.0
  0
LINE
  8
0
 62
     0
 10
120.587
 20
83.3949
 30
0.0
 11
120.764
 21
83.046
 31
0.0
  0
LINE
  8
0
 62
     0
 10
120.764
 20
83.046
 30
0.0
 11
121.041
 21
82.7691
 31
0.0
  0
LINE
  8
0
 62
     0
 10
121.041
 20
82.7691
 30
0.0
 11
121.39
 21
82.5927
 31
0.0
  0
LINE
  8
0
 62
     0
 10
121.39
 20
82.5927
 30
0.0
 11
121.776
 21
82.5306
 31
0.0
  0
LINE
  8
0
 62
     0
 10
121.776
 20
82.5306
 30
0.0
 11
122.163
 21
82.5927
 31
0.0
  0
LINE
  8
0
 62
     0
 10
122.163
 20
82.5927
 30
0.0
 11
122.51
 21
82.7691
 31
0.0
  0
LINE
  8
0
 62
     0
 10
122.51
 20
82.7691
 30
0.0
 11
122.787
 21
83.046
 31
0.0
  0
LINE
  8
0
 62
     0
 10
122.787
 20
83.046
 30
0.0
 11
122.965
 21
83.3949
 31
0.0
  0
LINE
  8
0
 62
     0
 10
122.965
 20
83.3949
 30
0.0
 11
123.026
 21
83.7805
 31
0.0
  0
LINE
  8
0
 62
     0
 10
123.026
 20
83.7805
 30
0.0
 11
122.965
 21
84.1678
 31
0.0
  0
LINE
  8
0
 62
     0
 10
122.965
 20
84.1678
 30
0.0
 11
122.787
 21
84.515
 31
0.0
  0
LINE
  8
0
 62
     0
 10
122.787
 20
84.515
 30
0.0
 11
122.51
 21
84.7919
 31
0.0
  0
LINE
  8
0
 62
     0
 10
122.51
 20
84.7919
 30
0.0
 11
122.163
 21
84.9697
 31
0.0
  0
LINE
  8
0
 62
     0
 10
122.163
 20
84.9697
 30
0.0
 11
121.776
 21
85.0304
 31
0.0
  0
LINE
  8
0
 62
     0
 10
121.776
 20
85.0304
 30
0.0
 11
121.39
 21
84.9697
 31
0.0
  0
LINE
  8
0
 62
     0
 10
240.573
 20
84.9697
 30
0.0
 11
240.222
 21
84.7919
 31
0.0
  0
LINE
  8
0
 62
     0
 10
240.222
 20
84.7919
 30
0.0
 11
239.947
 21
84.515
 31
0.0
  0
LINE
  8
0
 62
     0
 10
239.947
 20
84.515
 30
0.0
 11
239.769
 21
84.1678
 31
0.0
  0
LINE
  8
0
 62
     0
 10
239.769
 20
84.1678
 30
0.0
 11
239.708
 21
83.7805
 31
0.0
  0
LINE
  8
0
 62
     0
 10
239.708
 20
83.7805
 30
0.0
 11
239.769
 21
83.3949
 31
0.0
  0
LINE
  8
0
 62
     0
 10
239.769
 20
83.3949
 30
0.0
 11
239.947
 21
83.046
 31
0.0
  0
LINE
  8
0
 62
     0
 10
239.947
 20
83.046
 30
0.0
 11
240.222
 21
82.7691
 31
0.0
  0
LINE
  8
0
 62
     0
 10
240.222
 20
82.7691
 30
0.0
 11
240.573
 21
82.5927
 31
0.0
  0
LINE
  8
0
 62
     0
 10
240.573
 20
82.5927
 30
0.0
 11
240.958
 21
82.5306
 31
0.0
  0
LINE
  8
0
 62
     0
 10
240.958
 20
82.5306
 30
0.0
 11
241.344
 21
82.5927
 31
0.0
  0
LINE
  8
0
 62
     0
 10
241.344
 20
82.5927
 30
0.0
 11
241.693
 21
82.7691
 31
0.0
  0
LINE
  8
0
 62
     0
 10
241.693
 20
82.7691
 30
0.0
 11
241.969
 21
83.046
 31
0.0
  0
LINE
  8
0
 62
     0
 10
241.969
 20
83.046
 30
0.0
 11
242.146
 21
83.3949
 31
0.0
  0
LINE
  8
0
 62
     0
 10
242.146
 20
83.3949
 30
0.0
 11
242.208
 21
83.7805
 31
0.0
  0
LINE
  8
0
 62
     0
 10
242.208
 20
83.7805
 30
0.0
 11
242.146
 21
84.1678
 31
0.0
  0
LINE
  8
0
 62
     0
 10
242.146
 20
84.1678
 30
0.0
 11
241.969
 21
84.515
 31
0.0
  0
LINE
  8
0
 62
     0
 10
241.969
 20
84.515
 30
0.0
 11
241.693
 21
84.7919
 31
0.0
  0
LINE
  8
0
 62
     0
 10
241.693
 20
84.7919
 30
0.0
 11
241.344
 21
84.9697
 31
0.0
  0
LINE
  8
0
 62
     0
 10
241.344
 20
84.9697
 30
0.0
 11
240.958
 21
85.0304
 31
0.0
  0
LINE
  8
0
 62
     0
 10
240.958
 20
85.0304
 30
0.0
 11
240.573
 21
84.9697
 31
0.0
  0
LINE
  8
0
 62
     0
 10
2.20762
 20
84.9697
 30
0.0
 11
1.86035
 21
84.7919
 31
0.0
  0
LINE
  8
0
 62
     0
 10
1.86035
 20
84.7919
 30
0.0
 11
1.58337
 21
84.515
 31
0.0
  0
LINE
  8
0
 62
     0
 10
1.58337
 20
84.515
 30
0.0
 11
1.4056
 21
84.1678
 31
0.0
  0
LINE
  8
0
 62
     0
 10
1.4056
 20
84.1678
 30
0.0
 11
1.34359
 21
83.7805
 31
0.0
  0
LINE
  8
0
 62
     0
 10
1.34359
 20
83.7805
 30
0.0
 11
1.4056
 21
83.3949
 31
0.0
  0
LINE
  8
0
 62
     0
 10
1.4056
 20
83.3949
 30
0.0
 11
1.58337
 21
83.046
 31
0.0
  0
LINE
  8
0
 62
     0
 10
1.58337
 20
83.046
 30
0.0
 11
1.86035
 21
82.7691
 31
0.0
  0
LINE
  8
0
 62
     0
 10
1.86035
 20
82.7691
 30
0.0
 11
2.20762
 21
82.5927
 31
0.0
  0
LINE
  8
0
 62
     0
 10
2.20762
 20
82.5927
 30
0.0
 11
2.59347
 21
82.5306
 31
0.0
  0
LINE
  8
0
 62
     0
 10
2.59347
 20
82.5306
 30
0.0
 11
2.9807
 21
82.5927
 31
0.0
  0
LINE
  8
0
 62
     0
 10
2.9807
 20
82.5927
 30
0.0
 11
3.32934
 21
82.7691
 31
0.0
  0
LINE
  8
0
 62
     0
 10
3.32934
 20
82.7691
 30
0.0
 11
3.60634
 21
83.046
 31
0.0
  0
LINE
  8
0
 62
     0
 10
3.60634
 20
83.046
 30
0.0
 11
3.78273
 21
83.3949
 31
0.0
  0
LINE
  8
0
 62
     0
 10
3.78273
 20
83.3949
 30
0.0
 11
3.84471
 21
83.7805
 31
0.0
  0
LINE
  8
0
 62
     0
 10
3.84471
 20
83.7805
 30
0.0
 11
3.78273
 21
84.1678
 31
0.0
  0
LINE
  8
0
 62
     0
 10
3.78273
 20
84.1678
 30
0.0
 11
3.60634
 21
84.515
 31
0.0
  0
LINE
  8
0
 62
     0
 10
3.60634
 20
84.515
 30
0.0
 11
3.32934
 21
84.7919
 31
0.0
  0
LINE
  8
0
 62
     0
 10
3.32934
 20
84.7919
 30
0.0
 11
2.9807
 21
84.9697
 31
0.0
  0
LINE
  8
0
 62
     0
 10
2.9807
 20
84.9697
 30
0.0
 11
2.59485
 21
85.0304
 31
0.0
  0
LINE
  8
0
 62
     0
 10
2.59485
 20
85.0304
 30
0.0
 11
2.20762
 21
84.9697
 31
0.0
  0
ENDSEC
  0
EOF
