<?xml version="1.0"?>
<!-- Generated by SVGo -->
<svg width="253.364mm" height="96.202mm"
     viewBox="0.000 0.000 253.364 96.202"
     xmlns="http://www.w3.org/2000/svg" 
     xmlns:xlink="http://www.w3.org/1999/xlink">
<polygon points="245.364,5.001 245.599,5.010 245.833,5.037 246.064,5.083 246.291,5.147 246.512,5.229 246.726,5.327 246.931,5.443 247.127,5.573 247.312,5.719 247.485,5.879 247.645,6.052 247.791,6.237 247.922,6.433 248.037,6.639 248.136,6.852 248.217,7.073 248.281,7.300 248.327,7.531 248.355,7.765 248.364,8.001 248.364,88.202 248.355,88.437 248.327,88.671 248.281,88.902 248.217,89.129 248.136,89.350 248.037,89.563 247.922,89.769 247.791,89.965 247.645,90.150 247.485,90.323 247.312,90.483 247.127,90.629 246.931,90.759 246.726,90.875 246.512,90.973 246.291,91.055 246.064,91.119 245.833,91.165 245.599,91.192 245.364,91.202 8.001,91.202 7.765,91.192 7.531,91.165 7.300,91.119 7.073,91.055 6.852,90.973 6.639,90.875 6.433,90.759 6.237,90.629 6.052,90.483 5.879,90.323 5.719,90.150 5.573,89.965 5.443,89.769 5.327,89.563 5.229,89.350 5.147,89.129 5.083,88.902 5.037,88.671 5.010,88.437 5.000,88.201 5.001,8.001 5.010,7.765 5.037,7.531 5.083,7.300 5.147,7.073 5.229,6.852 5.327,6.639 5.443,6.433 5.573,6.237 5.719,6.052 5.879,5.879 6.052,5.719 6.237,5.573 6.433,5.443 6.639,5.327 6.852,5.229 7.073,5.147 7.300,5.083 7.531,5.037 7.765,5.010 8.001,5.000" style="fill:none;stroke-width:0.050000mm;stroke:black"/>
<polygon points="245.555,87.750 245.276,87.892 245.055,88.114 244.913,88.392 244.864,88.702 244.913,89.011 245.055,89.289 245.276,89.511 245.555,89.653 245.864,89.702 246.173,89.653 246.452,89.511 246.673,89.289 246.815,89.011 246.864,88.702 246.815,88.392 246.673,88.114 246.452,87.892 246.173,87.750 245.864,87.702" style="fill:none;stroke-width:0.050000mm;stroke:black"/>
<polygon points="126.373,87.750 126.094,87.892 125.873,88.114 125.731,88.392 125.682,88.702 125.731,89.011 125.873,89.289 126.094,89.511 126.373,89.653 126.682,89.702 126.991,89.653 127.270,89.511 127.491,89.289 127.633,89.011 127.682,88.702 127.633,88.392 127.491,88.114 127.270,87.892 126.991,87.750 126.682,87.702" style="fill:none;stroke-width:0.050000mm;stroke:black"/>
<polygon points="7.191,87.750 6.913,87.892 6.691,88.114 6.549,88.392 6.500,88.702 6.549,89.011 6.691,89.289 6.913,89.511 7.191,89.653 7.500,89.702 7.810,89.653 8.088,89.511 8.310,89.289 8.452,89.011 8.501,88.702 8.452,88.392 8.310,88.114 8.088,87.892 7.810,87.750 7.501,87.702" style="fill:none;stroke-width:0.050000mm;stroke:black"/>
<polygon points="126.373,6.549 126.094,6.691 125.873,6.913 125.731,7.191 125.682,7.500 125.731,7.810 125.873,8.088 126.094,8.310 126.373,8.452 126.682,8.501 126.991,8.452 127.270,8.310 127.491,8.088 127.633,7.810 127.682,7.501 127.633,7.191 127.491,6.913 127.270,6.691 126.991,6.549 126.682,6.501" style="fill:none;stroke-width:0.050000mm;stroke:black"/>
<polygon points="245.555,6.549 245.276,6.691 245.055,6.913 244.913,7.191 244.864,7.500 244.913,7.810 245.055,8.088 245.276,8.310 245.555,8.452 245.864,8.501 246.173,8.452 246.452,8.310 246.673,8.088 246.815,7.810 246.864,7.501 246.815,7.191 246.673,6.913 246.452,6.691 246.173,6.549 245.864,6.501" style="fill:none;stroke-width:0.050000mm;stroke:black"/>
<polygon points="7.191,6.549 6.913,6.691 6.691,6.913 6.549,7.191 6.500,7.500 6.549,7.810 6.691,8.088 6.913,8.310 7.191,8.452 7.500,8.501 7.810,8.452 8.088,8.310 8.310,8.088 8.452,7.810 8.501,7.501 8.452,7.191 8.310,6.913 8.088,6.691 7.810,6.549 7.501,6.501" style="fill:none;stroke-width:0.050000mm;stroke:black"/>
</svg>
